0
SECTION
2
HEADER
9
$ACADVER
1
AC1009
0
ENDSEC
0
SECTION
2
TABLES
0
ENDSEC
0
SECTION
2
BLOCKS
0
ENDSEC
0
SECTION
2
ENTITIES
0
LINE
8
0
62
7
10
250
20
125
11
190
21
125
0
LINE
8
0
62
7
10
190
20
125
11
200
21
100
0
LINE
8
0
62
1
10
200
20
100
11
250
21
125
0
LINE
8
0
62
1
10
150
20
135
11
200
21
150
0
LINE
8
0
62
7
10
200
20
150
11
100
21
150
0
LINE
8
0
62
1
10
100
20
150
11
150
21
135
0
LINE
8
0
62
1
10
153.09
20
134.511
11
190
21
125
0
LINE
8
0
62
7
10
190
20
125
11
200
21
150
0
LINE
8
0
62
1
10
200
20
150
11
153.09
21
134.511
0
LINE
8
0
62
7
10
275
20
100
11
250
21
125
0
LINE
8
0
62
1
10
250
20
125
11
200
21
100
0
LINE
8
0
62
7
10
200
20
100
11
275
21
100
0
LINE
8
0
62
1
10
310
20
125
11
350
21
100
0
LINE
8
0
62
7
10
350
20
100
11
350
21
150
0
LINE
8
0
62
1
10
350
20
150
11
310
21
125
0
LINE
8
0
62
1
10
150
20
115
11
100
21
100
0
LINE
8
0
62
7
10
100
20
100
11
200
21
100
0
LINE
8
0
62
1
10
200
20
100
11
150
21
115
0
LINE
8
0
62
7
10
159.877
20
126.564
11
160
21
125
0
LINE
8
0
62
1
10
160
20
125
11
190
21
125
0
LINE
8
0
62
1
10
190
20
125
11
159.877
21
126.564
0
LINE
8
0
62
7
10
159.511
20
128.09
11
159.877
21
126.564
0
LINE
8
0
62
1
10
159.877
20
126.564
11
190
21
125
0
LINE
8
0
62
1
10
190
20
125
11
159.511
21
128.09
0
LINE
8
0
62
1
10
140
20
125
11
100
21
150
0
LINE
8
0
62
7
10
100
20
150
11
100
21
100
0
LINE
8
0
62
1
10
100
20
100
11
140
21
125
0
LINE
8
0
62
7
10
158.91
20
129.54
11
159.511
21
128.09
0
LINE
8
0
62
1
10
159.511
20
128.09
11
190
21
125
0
LINE
8
0
62
1
10
190
20
125
11
158.91
21
129.54
0
LINE
8
0
62
1
10
154.54
20
133.91
11
158.91
21
129.54
0
LINE
8
0
62
1
10
158.91
20
129.54
11
190
21
125
0
LINE
8
0
62
1
10
190
20
125
11
154.54
21
133.91
0
LINE
8
0
62
1
10
154.54
20
133.91
11
150
21
130.878
0
LINE
8
0
62
7
10
150
20
130.878
11
158.91
21
129.54
0
LINE
8
0
62
1
10
158.91
20
129.54
11
154.54
21
133.91
0
LINE
8
0
62
1
10
154.54
20
133.91
11
150
21
132.071
0
LINE
8
0
62
7
10
150
20
132.071
11
150
21
130.878
0
LINE
8
0
62
1
10
150
20
130.878
11
154.54
21
133.91
0
LINE
8
0
62
7
10
153.09
20
134.511
11
154.54
21
133.91
0
LINE
8
0
62
1
10
154.54
20
133.91
11
190
21
125
0
LINE
8
0
62
1
10
190
20
125
11
153.09
21
134.511
0
LINE
8
0
62
7
10
154.54
20
133.91
11
150
21
133.09
0
LINE
8
0
62
7
10
150
20
133.09
11
150
21
132.071
0
LINE
8
0
62
1
10
150
20
132.071
11
154.54
21
133.91
0
LINE
8
0
62
7
10
144.122
20
133.09
11
145.46
21
133.91
0
LINE
8
0
62
1
10
145.46
20
133.91
11
100
21
150
0
LINE
8
0
62
1
10
100
20
150
11
144.122
21
133.09
0
LINE
8
0
62
7
10
151.564
20
134.877
11
153.09
21
134.511
0
LINE
8
0
62
1
10
153.09
20
134.511
11
200
21
150
0
LINE
8
0
62
1
10
200
20
150
11
151.564
21
134.877
0
LINE
8
0
62
7
10
150
20
135
11
151.564
21
134.877
0
LINE
8
0
62
1
10
151.564
20
134.877
11
200
21
150
0
LINE
8
0
62
1
10
200
20
150
11
150
21
135
0
LINE
8
0
62
7
10
148.436
20
134.877
11
150
21
135
0
LINE
8
0
62
1
10
150
20
135
11
100
21
150
0
LINE
8
0
62
1
10
100
20
150
11
148.436
21
134.877
0
LINE
8
0
62
7
10
146.91
20
134.511
11
148.436
21
134.877
0
LINE
8
0
62
1
10
148.436
20
134.877
11
100
21
150
0
LINE
8
0
62
1
10
100
20
150
11
146.91
21
134.511
0
LINE
8
0
62
7
10
145.46
20
133.91
11
146.91
21
134.511
0
LINE
8
0
62
1
10
146.91
20
134.511
11
100
21
150
0
LINE
8
0
62
1
10
100
20
150
11
145.46
21
133.91
0
LINE
8
0
62
7
10
140.123
20
123.436
11
140
21
125
0
LINE
8
0
62
1
10
140
20
125
11
100
21
100
0
LINE
8
0
62
1
10
100
20
100
11
140.123
21
123.436
0
LINE
8
0
62
7
10
142.929
20
132.071
11
144.122
21
133.09
0
LINE
8
0
62
1
10
144.122
20
133.09
11
100
21
150
0
LINE
8
0
62
1
10
100
20
150
11
142.929
21
132.071
0
LINE
8
0
62
7
10
141.91
20
130.878
11
142.929
21
132.071
0
LINE
8
0
62
1
10
142.929
20
132.071
11
100
21
150
0
LINE
8
0
62
1
10
100
20
150
11
141.91
21
130.878
0
LINE
8
0
62
7
10
141.09
20
129.54
11
141.91
21
130.878
0
LINE
8
0
62
1
10
141.91
20
130.878
11
100
21
150
0
LINE
8
0
62
1
10
100
20
150
11
141.09
21
129.54
0
LINE
8
0
62
7
10
140.489
20
128.09
11
141.09
21
129.54
0
LINE
8
0
62
1
10
141.09
20
129.54
11
100
21
150
0
LINE
8
0
62
1
10
100
20
150
11
140.489
21
128.09
0
LINE
8
0
62
7
10
140.123
20
126.564
11
140.489
21
128.09
0
LINE
8
0
62
1
10
140.489
20
128.09
11
100
21
150
0
LINE
8
0
62
1
10
100
20
150
11
140.123
21
126.564
0
LINE
8
0
62
7
10
140
20
125
11
140.123
21
126.564
0
LINE
8
0
62
1
10
140.123
20
126.564
11
100
21
150
0
LINE
8
0
62
1
10
100
20
150
11
140
21
125
0
LINE
8
0
62
7
10
140.489
20
121.91
11
140.123
21
123.436
0
LINE
8
0
62
1
10
140.123
20
123.436
11
100
21
100
0
LINE
8
0
62
1
10
100
20
100
11
140.489
21
121.91
0
LINE
8
0
62
7
10
141.09
20
120.46
11
140.489
21
121.91
0
LINE
8
0
62
1
10
140.489
20
121.91
11
100
21
100
0
LINE
8
0
62
1
10
100
20
100
11
141.09
21
120.46
0
LINE
8
0
62
7
10
141.91
20
119.122
11
141.09
21
120.46
0
LINE
8
0
62
1
10
141.09
20
120.46
11
100
21
100
0
LINE
8
0
62
1
10
100
20
100
11
141.91
21
119.122
0
LINE
8
0
62
7
10
142.929
20
117.929
11
141.91
21
119.122
0
LINE
8
0
62
1
10
141.91
20
119.122
11
100
21
100
0
LINE
8
0
62
1
10
100
20
100
11
142.929
21
117.929
0
LINE
8
0
62
7
10
144.122
20
116.91
11
142.929
21
117.929
0
LINE
8
0
62
1
10
142.929
20
117.929
11
100
21
100
0
LINE
8
0
62
1
10
100
20
100
11
144.122
21
116.91
0
LINE
8
0
62
7
10
145.46
20
116.09
11
144.122
21
116.91
0
LINE
8
0
62
1
10
144.122
20
116.91
11
100
21
100
0
LINE
8
0
62
1
10
100
20
100
11
145.46
21
116.09
0
LINE
8
0
62
1
10
153.09
20
115.489
11
200
21
100
0
LINE
8
0
62
7
10
200
20
100
11
190
21
125
0
LINE
8
0
62
1
10
190
20
125
11
153.09
21
115.489
0
LINE
8
0
62
7
10
146.91
20
115.489
11
145.46
21
116.09
0
LINE
8
0
62
1
10
145.46
20
116.09
11
100
21
100
0
LINE
8
0
62
1
10
100
20
100
11
146.91
21
115.489
0
LINE
8
0
62
7
10
148.436
20
115.123
11
146.91
21
115.489
0
LINE
8
0
62
1
10
146.91
20
115.489
11
100
21
100
0
LINE
8
0
62
1
10
100
20
100
11
148.436
21
115.123
0
LINE
8
0
62
7
10
150
20
115
11
148.436
21
115.123
0
LINE
8
0
62
1
10
148.436
20
115.123
11
100
21
100
0
LINE
8
0
62
1
10
100
20
100
11
150
21
115
0
LINE
8
0
62
7
10
151.564
20
115.123
11
150
21
115
0
LINE
8
0
62
1
10
150
20
115
11
200
21
100
0
LINE
8
0
62
1
10
200
20
100
11
151.564
21
115.123
0
LINE
8
0
62
1
10
159.877
20
123.436
11
190
21
125
0
LINE
8
0
62
1
10
190
20
125
11
160
21
125
0
LINE
8
0
62
7
10
160
20
125
11
159.877
21
123.436
0
LINE
8
0
62
7
10
153.09
20
115.489
11
151.564
21
115.123
0
LINE
8
0
62
1
10
151.564
20
115.123
11
200
21
100
0
LINE
8
0
62
1
10
200
20
100
11
153.09
21
115.489
0
LINE
8
0
62
7
10
154.54
20
116.09
11
153.09
21
115.489
0
LINE
8
0
62
1
10
153.09
20
115.489
11
190
21
125
0
LINE
8
0
62
1
10
190
20
125
11
154.54
21
116.09
0
LINE
8
0
62
7
10
155.878
20
116.91
11
154.54
21
116.09
0
LINE
8
0
62
1
10
154.54
20
116.09
11
190
21
125
0
LINE
8
0
62
1
10
190
20
125
11
155.878
21
116.91
0
LINE
8
0
62
7
10
157.071
20
117.929
11
155.878
21
116.91
0
LINE
8
0
62
1
10
155.878
20
116.91
11
190
21
125
0
LINE
8
0
62
1
10
190
20
125
11
157.071
21
117.929
0
LINE
8
0
62
7
10
158.09
20
119.122
11
157.071
21
117.929
0
LINE
8
0
62
1
10
157.071
20
117.929
11
190
21
125
0
LINE
8
0
62
1
10
190
20
125
11
158.09
21
119.122
0
LINE
8
0
62
7
10
158.91
20
120.46
11
158.09
21
119.122
0
LINE
8
0
62
1
10
158.09
20
119.122
11
190
21
125
0
LINE
8
0
62
1
10
190
20
125
11
158.91
21
120.46
0
LINE
8
0
62
7
10
159.511
20
121.91
11
158.91
21
120.46
0
LINE
8
0
62
1
10
158.91
20
120.46
11
190
21
125
0
LINE
8
0
62
1
10
190
20
125
11
159.511
21
121.91
0
LINE
8
0
62
7
10
159.877
20
123.436
11
159.511
21
121.91
0
LINE
8
0
62
1
10
159.511
20
121.91
11
190
21
125
0
LINE
8
0
62
1
10
190
20
125
11
159.877
21
123.436
0
LINE
8
0
62
1
10
304.54
20
116.09
11
275
21
100
0
LINE
8
0
62
7
10
275
20
100
11
350
21
100
0
LINE
8
0
62
1
10
350
20
100
11
304.54
21
116.09
0
LINE
8
0
62
1
10
300
20
135
11
350
21
150
0
LINE
8
0
62
7
10
350
20
150
11
250
21
150
0
LINE
8
0
62
1
10
250
20
150
11
300
21
135
0
LINE
8
0
62
7
10
309.877
20
126.564
11
310
21
125
0
LINE
8
0
62
1
10
310
20
125
11
350
21
150
0
LINE
8
0
62
1
10
350
20
150
11
309.877
21
126.564
0
LINE
8
0
62
7
10
309.511
20
128.09
11
309.877
21
126.564
0
LINE
8
0
62
1
10
309.877
20
126.564
11
350
21
150
0
LINE
8
0
62
1
10
350
20
150
11
309.511
21
128.09
0
LINE
8
0
62
7
10
308.91
20
129.54
11
309.511
21
128.09
0
LINE
8
0
62
1
10
309.511
20
128.09
11
350
21
150
0
LINE
8
0
62
1
10
350
20
150
11
308.91
21
129.54
0
LINE
8
0
62
7
10
308.09
20
130.878
11
308.91
21
129.54
0
LINE
8
0
62
1
10
308.91
20
129.54
11
350
21
150
0
LINE
8
0
62
1
10
350
20
150
11
308.09
21
130.878
0
LINE
8
0
62
7
10
307.071
20
132.071
11
308.09
21
130.878
0
LINE
8
0
62
1
10
308.09
20
130.878
11
350
21
150
0
LINE
8
0
62
1
10
350
20
150
11
307.071
21
132.071
0
LINE
8
0
62
7
10
305.878
20
133.09
11
307.071
21
132.071
0
LINE
8
0
62
1
10
307.071
20
132.071
11
350
21
150
0
LINE
8
0
62
1
10
350
20
150
11
305.878
21
133.09
0
LINE
8
0
62
7
10
304.54
20
133.91
11
305.878
21
133.09
0
LINE
8
0
62
1
10
305.878
20
133.09
11
350
21
150
0
LINE
8
0
62
1
10
350
20
150
11
304.54
21
133.91
0
LINE
8
0
62
1
10
296.91
20
134.511
11
250
21
150
0
LINE
8
0
62
7
10
250
20
150
11
250
21
125
0
LINE
8
0
62
1
10
250
20
125
11
296.91
21
134.511
0
LINE
8
0
62
7
10
303.09
20
134.511
11
304.54
21
133.91
0
LINE
8
0
62
1
10
304.54
20
133.91
11
350
21
150
0
LINE
8
0
62
1
10
350
20
150
11
303.09
21
134.511
0
LINE
8
0
62
7
10
301.564
20
134.877
11
303.09
21
134.511
0
LINE
8
0
62
1
10
303.09
20
134.511
11
350
21
150
0
LINE
8
0
62
1
10
350
20
150
11
301.564
21
134.877
0
LINE
8
0
62
7
10
300
20
135
11
301.564
21
134.877
0
LINE
8
0
62
1
10
301.564
20
134.877
11
350
21
150
0
LINE
8
0
62
1
10
350
20
150
11
300
21
135
0
LINE
8
0
62
1
10
291.09
20
129.54
11
250
21
125
0
LINE
8
0
62
7
10
250
20
125
11
275
21
100
0
LINE
8
0
62
1
10
275
20
100
11
291.09
21
129.54
0
LINE
8
0
62
7
10
298.436
20
134.877
11
300
21
135
0
LINE
8
0
62
1
10
300
20
135
11
250
21
150
0
LINE
8
0
62
1
10
250
20
150
11
298.436
21
134.877
0
LINE
8
0
62
7
10
296.91
20
134.511
11
298.436
21
134.877
0
LINE
8
0
62
1
10
298.436
20
134.877
11
250
21
150
0
LINE
8
0
62
1
10
250
20
150
11
296.91
21
134.511
0
LINE
8
0
62
7
10
295.46
20
133.91
11
296.91
21
134.511
0
LINE
8
0
62
1
10
296.91
20
134.511
11
250
21
125
0
LINE
8
0
62
1
10
250
20
125
11
295.46
21
133.91
0
LINE
8
0
62
7
10
294.122
20
133.09
11
295.46
21
133.91
0
LINE
8
0
62
1
10
295.46
20
133.91
11
250
21
125
0
LINE
8
0
62
1
10
250
20
125
11
294.122
21
133.09
0
LINE
8
0
62
7
10
292.929
20
132.071
11
294.122
21
133.09
0
LINE
8
0
62
1
10
294.122
20
133.09
11
250
21
125
0
LINE
8
0
62
1
10
250
20
125
11
292.929
21
132.071
0
LINE
8
0
62
7
10
291.91
20
130.878
11
292.929
21
132.071
0
LINE
8
0
62
1
10
292.929
20
132.071
11
250
21
125
0
LINE
8
0
62
1
10
250
20
125
11
291.91
21
130.878
0
LINE
8
0
62
7
10
296.91
20
115.489
11
295.46
21
116.09
0
LINE
8
0
62
1
10
295.46
20
116.09
11
275
21
100
0
LINE
8
0
62
1
10
275
20
100
11
296.91
21
115.489
0
LINE
8
0
62
7
10
291.09
20
129.54
11
291.91
21
130.878
0
LINE
8
0
62
1
10
291.91
20
130.878
11
250
21
125
0
LINE
8
0
62
1
10
250
20
125
11
291.09
21
129.54
0
LINE
8
0
62
7
10
290.489
20
128.09
11
291.09
21
129.54
0
LINE
8
0
62
1
10
291.09
20
129.54
11
275
21
100
0
LINE
8
0
62
1
10
275
20
100
11
290.489
21
128.09
0
LINE
8
0
62
7
10
290.123
20
126.564
11
290.489
21
128.09
0
LINE
8
0
62
1
10
290.489
20
128.09
11
275
21
100
0
LINE
8
0
62
1
10
275
20
100
11
290.123
21
126.564
0
LINE
8
0
62
7
10
290
20
125
11
290.123
21
126.564
0
LINE
8
0
62
1
10
290.123
20
126.564
11
275
21
100
0
LINE
8
0
62
1
10
275
20
100
11
290
21
125
0
LINE
8
0
62
7
10
290.123
20
123.436
11
290
21
125
0
LINE
8
0
62
1
10
290
20
125
11
275
21
100
0
LINE
8
0
62
1
10
275
20
100
11
290.123
21
123.436
0
LINE
8
0
62
7
10
290.489
20
121.91
11
290.123
21
123.436
0
LINE
8
0
62
1
10
290.123
20
123.436
11
275
21
100
0
LINE
8
0
62
1
10
275
20
100
11
290.489
21
121.91
0
LINE
8
0
62
7
10
291.09
20
120.46
11
290.489
21
121.91
0
LINE
8
0
62
1
10
290.489
20
121.91
11
275
21
100
0
LINE
8
0
62
1
10
275
20
100
11
291.09
21
120.46
0
LINE
8
0
62
7
10
291.91
20
119.122
11
291.09
21
120.46
0
LINE
8
0
62
1
10
291.09
20
120.46
11
275
21
100
0
LINE
8
0
62
1
10
275
20
100
11
291.91
21
119.122
0
LINE
8
0
62
7
10
292.929
20
117.929
11
291.91
21
119.122
0
LINE
8
0
62
1
10
291.91
20
119.122
11
275
21
100
0
LINE
8
0
62
1
10
275
20
100
11
292.929
21
117.929
0
LINE
8
0
62
7
10
294.122
20
116.91
11
292.929
21
117.929
0
LINE
8
0
62
1
10
292.929
20
117.929
11
275
21
100
0
LINE
8
0
62
1
10
275
20
100
11
294.122
21
116.91
0
LINE
8
0
62
7
10
295.46
20
116.09
11
294.122
21
116.91
0
LINE
8
0
62
1
10
294.122
20
116.91
11
275
21
100
0
LINE
8
0
62
1
10
275
20
100
11
295.46
21
116.09
0
LINE
8
0
62
1
10
309.877
20
123.436
11
350
21
100
0
LINE
8
0
62
1
10
350
20
100
11
310
21
125
0
LINE
8
0
62
7
10
310
20
125
11
309.877
21
123.436
0
LINE
8
0
62
7
10
298.436
20
115.123
11
296.91
21
115.489
0
LINE
8
0
62
1
10
296.91
20
115.489
11
275
21
100
0
LINE
8
0
62
1
10
275
20
100
11
298.436
21
115.123
0
LINE
8
0
62
7
10
300
20
115
11
298.436
21
115.123
0
LINE
8
0
62
1
10
298.436
20
115.123
11
275
21
100
0
LINE
8
0
62
1
10
275
20
100
11
300
21
115
0
LINE
8
0
62
7
10
301.564
20
115.123
11
300
21
115
0
LINE
8
0
62
1
10
300
20
115
11
275
21
100
0
LINE
8
0
62
1
10
275
20
100
11
301.564
21
115.123
0
LINE
8
0
62
7
10
303.09
20
115.489
11
301.564
21
115.123
0
LINE
8
0
62
1
10
301.564
20
115.123
11
275
21
100
0
LINE
8
0
62
1
10
275
20
100
11
303.09
21
115.489
0
LINE
8
0
62
7
10
304.54
20
116.09
11
303.09
21
115.489
0
LINE
8
0
62
1
10
303.09
20
115.489
11
275
21
100
0
LINE
8
0
62
1
10
275
20
100
11
304.54
21
116.09
0
LINE
8
0
62
7
10
305.878
20
116.91
11
304.54
21
116.09
0
LINE
8
0
62
1
10
304.54
20
116.09
11
350
21
100
0
LINE
8
0
62
1
10
350
20
100
11
305.878
21
116.91
0
LINE
8
0
62
7
10
307.071
20
117.929
11
305.878
21
116.91
0
LINE
8
0
62
1
10
305.878
20
116.91
11
350
21
100
0
LINE
8
0
62
1
10
350
20
100
11
307.071
21
117.929
0
LINE
8
0
62
7
10
308.09
20
119.122
11
307.071
21
117.929
0
LINE
8
0
62
1
10
307.071
20
117.929
11
350
21
100
0
LINE
8
0
62
1
10
350
20
100
11
308.09
21
119.122
0
LINE
8
0
62
7
10
308.91
20
120.46
11
308.09
21
119.122
0
LINE
8
0
62
1
10
308.09
20
119.122
11
350
21
100
0
LINE
8
0
62
1
10
350
20
100
11
308.91
21
120.46
0
LINE
8
0
62
7
10
309.511
20
121.91
11
308.91
21
120.46
0
LINE
8
0
62
1
10
308.91
20
120.46
11
350
21
100
0
LINE
8
0
62
1
10
350
20
100
11
309.511
21
121.91
0
LINE
8
0
62
7
10
309.877
20
123.436
11
309.511
21
121.91
0
LINE
8
0
62
1
10
309.511
20
121.91
11
350
21
100
0
LINE
8
0
62
1
10
350
20
100
11
309.877
21
123.436
0
ENDSEC
0
EOF