0
SECTION
2
HEADER
9
$ACADVER
1
AC1009
0
ENDSEC
0
SECTION
2
TABLES
0
ENDSEC
0
SECTION
2
BLOCKS
0
ENDSEC
0
SECTION
2
ENTITIES
0
LINE
8
0
10
160.000000
20
125.000000
11
175.000000
21
100.000000
0
LINE
8
0
10
175.000000
20
100.000000
11
200.000000
21
125.000000
0
LINE
8
0
10
200.000000
20
125.000000
11
160.000000
21
125.000000
0
LINE
8
0
10
141.089935
20
129.539905
11
100.000000
21
150.000000
0
LINE
8
0
10
100.000000
20
150.000000
11
100.000000
21
100.000000
0
LINE
8
0
10
100.000000
20
100.000000
11
141.089935
21
129.539905
0
LINE
8
0
10
200.000000
20
125.000000
11
200.000000
21
150.000000
0
LINE
8
0
10
200.000000
20
150.000000
11
175.000000
21
150.000000
0
LINE
8
0
10
175.000000
20
150.000000
11
200.000000
21
125.000000
0
LINE
8
0
10
225.000000
20
100.000000
11
225.000000
21
125.000000
0
LINE
8
0
10
225.000000
20
125.000000
11
200.000000
21
125.000000
0
LINE
8
0
10
200.000000
20
125.000000
11
225.000000
21
100.000000
0
LINE
8
0
10
158.910065
20
129.539905
11
175.000000
21
150.000000
0
LINE
8
0
10
175.000000
20
150.000000
11
150.000000
21
150.000000
0
LINE
8
0
10
150.000000
20
150.000000
11
158.910065
21
129.539905
0
LINE
8
0
10
160.000000
20
125.000000
11
200.000000
21
125.000000
0
LINE
8
0
10
200.000000
20
125.000000
11
175.000000
21
150.000000
0
LINE
8
0
10
175.000000
20
150.000000
11
160.000000
21
125.000000
0
LINE
8
0
10
250.000000
20
100.000000
11
250.000000
21
125.000000
0
LINE
8
0
10
250.000000
20
125.000000
11
225.000000
21
125.000000
0
LINE
8
0
10
225.000000
20
125.000000
11
250.000000
21
100.000000
0
LINE
8
0
10
275.000000
20
150.000000
11
250.000000
21
150.000000
0
LINE
8
0
10
250.000000
20
150.000000
11
250.000000
21
125.000000
0
LINE
8
0
10
250.000000
20
125.000000
11
275.000000
21
150.000000
0
LINE
8
0
10
291.089935
20
129.539905
11
275.000000
21
150.000000
0
LINE
8
0
10
275.000000
20
150.000000
11
250.000000
21
125.000000
0
LINE
8
0
10
250.000000
20
125.000000
11
291.089935
21
129.539905
0
LINE
8
0
10
291.089935
20
129.539905
11
300.000000
21
150.000000
0
LINE
8
0
10
300.000000
20
150.000000
11
275.000000
21
150.000000
0
LINE
8
0
10
275.000000
20
150.000000
11
291.089935
21
129.539905
0
LINE
8
0
10
308.910065
20
129.539905
11
325.000000
21
150.000000
0
LINE
8
0
10
325.000000
20
150.000000
11
300.000000
21
150.000000
0
LINE
8
0
10
300.000000
20
150.000000
11
308.910065
21
129.539905
0
LINE
8
0
10
310.000000
20
125.000000
11
350.000000
21
150.000000
0
LINE
8
0
10
350.000000
20
150.000000
11
325.000000
21
150.000000
0
LINE
8
0
10
325.000000
20
150.000000
11
310.000000
21
125.000000
0
LINE
8
0
10
310.000000
20
125.000000
11
350.000000
21
100.000000
0
LINE
8
0
10
350.000000
20
100.000000
11
350.000000
21
150.000000
0
LINE
8
0
10
350.000000
20
150.000000
11
310.000000
21
125.000000
0
LINE
8
0
10
310.000000
20
125.000000
11
325.000000
21
100.000000
0
LINE
8
0
10
325.000000
20
100.000000
11
350.000000
21
100.000000
0
LINE
8
0
10
350.000000
20
100.000000
11
310.000000
21
125.000000
0
LINE
8
0
10
250.000000
20
100.000000
11
275.000000
21
100.000000
0
LINE
8
0
10
275.000000
20
100.000000
11
250.000000
21
125.000000
0
LINE
8
0
10
250.000000
20
125.000000
11
250.000000
21
100.000000
0
LINE
8
0
10
225.000000
20
100.000000
11
250.000000
21
100.000000
0
LINE
8
0
10
250.000000
20
100.000000
11
225.000000
21
125.000000
0
LINE
8
0
10
225.000000
20
125.000000
11
225.000000
21
100.000000
0
LINE
8
0
10
200.000000
20
100.000000
11
225.000000
21
100.000000
0
LINE
8
0
10
225.000000
20
100.000000
11
200.000000
21
125.000000
0
LINE
8
0
10
200.000000
20
125.000000
11
200.000000
21
100.000000
0
LINE
8
0
10
175.000000
20
100.000000
11
200.000000
21
100.000000
0
LINE
8
0
10
200.000000
20
100.000000
11
200.000000
21
125.000000
0
LINE
8
0
10
200.000000
20
125.000000
11
175.000000
21
100.000000
0
LINE
8
0
10
141.089935
20
129.539905
11
100.000000
21
100.000000
0
LINE
8
0
10
100.000000
20
100.000000
11
125.000000
21
100.000000
0
LINE
8
0
10
125.000000
20
100.000000
11
141.089935
21
129.539905
0
LINE
8
0
10
141.089935
20
129.539905
11
150.000000
21
150.000000
0
LINE
8
0
10
150.000000
20
150.000000
11
125.000000
21
150.000000
0
LINE
8
0
10
125.000000
20
150.000000
11
141.089935
21
129.539905
0
LINE
8
0
10
159.876883
20
123.435655
11
175.000000
21
100.000000
0
LINE
8
0
10
175.000000
20
100.000000
11
160.000000
21
125.000000
0
LINE
8
0
10
160.000000
20
125.000000
11
159.876883
21
123.435655
0
LINE
8
0
10
159.876883
20
126.564345
11
160.000000
21
125.000000
0
LINE
8
0
10
160.000000
20
125.000000
11
175.000000
21
150.000000
0
LINE
8
0
10
175.000000
20
150.000000
11
159.876883
21
126.564345
0
LINE
8
0
10
159.510565
20
128.090170
11
159.876883
21
126.564345
0
LINE
8
0
10
159.876883
20
126.564345
11
175.000000
21
150.000000
0
LINE
8
0
10
175.000000
20
150.000000
11
159.510565
21
128.090170
0
LINE
8
0
10
157.071068
20
132.071068
11
158.090170
21
130.877853
0
LINE
8
0
10
158.090170
20
130.877853
11
150.000000
21
150.000000
0
LINE
8
0
10
150.000000
20
150.000000
11
157.071068
21
132.071068
0
LINE
8
0
10
158.910065
20
129.539905
11
159.510565
21
128.090170
0
LINE
8
0
10
159.510565
20
128.090170
11
175.000000
21
150.000000
0
LINE
8
0
10
175.000000
20
150.000000
11
158.910065
21
129.539905
0
LINE
8
0
10
158.090170
20
130.877853
11
158.910065
21
129.539905
0
LINE
8
0
10
158.910065
20
129.539905
11
150.000000
21
150.000000
0
LINE
8
0
10
150.000000
20
150.000000
11
158.090170
21
130.877853
0
LINE
8
0
10
155.877853
20
133.090170
11
157.071068
21
132.071068
0
LINE
8
0
10
157.071068
20
132.071068
11
150.000000
21
150.000000
0
LINE
8
0
10
150.000000
20
150.000000
11
155.877853
21
133.090170
0
LINE
8
0
10
141.089935
20
129.539905
11
125.000000
21
150.000000
0
LINE
8
0
10
125.000000
20
150.000000
11
100.000000
21
150.000000
0
LINE
8
0
10
100.000000
20
150.000000
11
141.089935
21
129.539905
0
LINE
8
0
10
154.539905
20
133.910065
11
155.877853
21
133.090170
0
LINE
8
0
10
155.877853
20
133.090170
11
150.000000
21
150.000000
0
LINE
8
0
10
150.000000
20
150.000000
11
154.539905
21
133.910065
0
LINE
8
0
10
153.090170
20
134.510565
11
154.539905
21
133.910065
0
LINE
8
0
10
154.539905
20
133.910065
11
150.000000
21
150.000000
0
LINE
8
0
10
150.000000
20
150.000000
11
153.090170
21
134.510565
0
LINE
8
0
10
151.564345
20
134.876883
11
153.090170
21
134.510565
0
LINE
8
0
10
153.090170
20
134.510565
11
150.000000
21
150.000000
0
LINE
8
0
10
150.000000
20
150.000000
11
151.564345
21
134.876883
0
LINE
8
0
10
150.000000
20
135.000000
11
151.564345
21
134.876883
0
LINE
8
0
10
151.564345
20
134.876883
11
150.000000
21
150.000000
0
LINE
8
0
10
150.000000
20
150.000000
11
150.000000
21
135.000000
0
LINE
8
0
10
148.435655
20
134.876883
11
150.000000
21
135.000000
0
LINE
8
0
10
150.000000
20
135.000000
11
150.000000
21
150.000000
0
LINE
8
0
10
150.000000
20
150.000000
11
148.435655
21
134.876883
0
LINE
8
0
10
146.909830
20
134.510565
11
148.435655
21
134.876883
0
LINE
8
0
10
148.435655
20
134.876883
11
150.000000
21
150.000000
0
LINE
8
0
10
150.000000
20
150.000000
11
146.909830
21
134.510565
0
LINE
8
0
10
145.460095
20
133.910065
11
146.909830
21
134.510565
0
LINE
8
0
10
146.909830
20
134.510565
11
150.000000
21
150.000000
0
LINE
8
0
10
150.000000
20
150.000000
11
145.460095
21
133.910065
0
LINE
8
0
10
144.122147
20
133.090170
11
145.460095
21
133.910065
0
LINE
8
0
10
145.460095
20
133.910065
11
150.000000
21
150.000000
0
LINE
8
0
10
150.000000
20
150.000000
11
144.122147
21
133.090170
0
LINE
8
0
10
142.928932
20
132.071068
11
144.122147
21
133.090170
0
LINE
8
0
10
144.122147
20
133.090170
11
150.000000
21
150.000000
0
LINE
8
0
10
150.000000
20
150.000000
11
142.928932
21
132.071068
0
LINE
8
0
10
141.909830
20
130.877853
11
142.928932
21
132.071068
0
LINE
8
0
10
142.928932
20
132.071068
11
150.000000
21
150.000000
0
LINE
8
0
10
150.000000
20
150.000000
11
141.909830
21
130.877853
0
LINE
8
0
10
141.089935
20
120.460095
11
125.000000
21
100.000000
0
LINE
8
0
10
125.000000
20
100.000000
11
150.000000
21
100.000000
0
LINE
8
0
10
150.000000
20
100.000000
11
141.089935
21
120.460095
0
LINE
8
0
10
141.089935
20
129.539905
11
141.909830
21
130.877853
0
LINE
8
0
10
141.909830
20
130.877853
11
150.000000
21
150.000000
0
LINE
8
0
10
150.000000
20
150.000000
11
141.089935
21
129.539905
0
LINE
8
0
10
140.489435
20
128.090170
11
141.089935
21
129.539905
0
LINE
8
0
10
141.089935
20
129.539905
11
125.000000
21
100.000000
0
LINE
8
0
10
125.000000
20
100.000000
11
140.489435
21
128.090170
0
LINE
8
0
10
140.123117
20
126.564345
11
140.489435
21
128.090170
0
LINE
8
0
10
140.489435
20
128.090170
11
125.000000
21
100.000000
0
LINE
8
0
10
125.000000
20
100.000000
11
140.123117
21
126.564345
0
LINE
8
0
10
140.123117
20
123.435655
11
140.123117
21
126.564345
0
LINE
8
0
10
140.123117
20
126.564345
11
125.000000
21
100.000000
0
LINE
8
0
10
125.000000
20
100.000000
11
140.123117
21
123.435655
0
LINE
8
0
10
140.489435
20
121.909830
11
140.123117
21
123.435655
0
LINE
8
0
10
140.123117
20
123.435655
11
125.000000
21
100.000000
0
LINE
8
0
10
125.000000
20
100.000000
11
140.489435
21
121.909830
0
LINE
8
0
10
158.910065
20
120.460095
11
150.000000
21
100.000000
0
LINE
8
0
10
150.000000
20
100.000000
11
175.000000
21
100.000000
0
LINE
8
0
10
175.000000
20
100.000000
11
158.910065
21
120.460095
0
LINE
8
0
10
141.089935
20
120.460095
11
140.489435
21
121.909830
0
LINE
8
0
10
140.489435
20
121.909830
11
125.000000
21
100.000000
0
LINE
8
0
10
125.000000
20
100.000000
11
141.089935
21
120.460095
0
LINE
8
0
10
141.909830
20
119.122147
11
141.089935
21
120.460095
0
LINE
8
0
10
141.089935
20
120.460095
11
150.000000
21
100.000000
0
LINE
8
0
10
150.000000
20
100.000000
11
141.909830
21
119.122147
0
LINE
8
0
10
142.928932
20
117.928932
11
141.909830
21
119.122147
0
LINE
8
0
10
141.909830
20
119.122147
11
150.000000
21
100.000000
0
LINE
8
0
10
150.000000
20
100.000000
11
142.928932
21
117.928932
0
LINE
8
0
10
144.122147
20
116.909830
11
142.928932
21
117.928932
0
LINE
8
0
10
142.928932
20
117.928932
11
150.000000
21
100.000000
0
LINE
8
0
10
150.000000
20
100.000000
11
144.122147
21
116.909830
0
LINE
8
0
10
145.460095
20
116.089935
11
144.122147
21
116.909830
0
LINE
8
0
10
144.122147
20
116.909830
11
150.000000
21
100.000000
0
LINE
8
0
10
150.000000
20
100.000000
11
145.460095
21
116.089935
0
LINE
8
0
10
146.909830
20
115.489435
11
145.460095
21
116.089935
0
LINE
8
0
10
145.460095
20
116.089935
11
150.000000
21
100.000000
0
LINE
8
0
10
150.000000
20
100.000000
11
146.909830
21
115.489435
0
LINE
8
0
10
148.435655
20
115.123117
11
146.909830
21
115.489435
0
LINE
8
0
10
146.909830
20
115.489435
11
150.000000
21
100.000000
0
LINE
8
0
10
150.000000
20
100.000000
11
148.435655
21
115.123117
0
LINE
8
0
10
150.000000
20
115.000000
11
148.435655
21
115.123117
0
LINE
8
0
10
148.435655
20
115.123117
11
150.000000
21
100.000000
0
LINE
8
0
10
150.000000
20
100.000000
11
150.000000
21
115.000000
0
LINE
8
0
10
151.564345
20
115.123117
11
150.000000
21
115.000000
0
LINE
8
0
10
150.000000
20
115.000000
11
150.000000
21
100.000000
0
LINE
8
0
10
150.000000
20
100.000000
11
151.564345
21
115.123117
0
LINE
8
0
10
153.090170
20
115.489435
11
151.564345
21
115.123117
0
LINE
8
0
10
151.564345
20
115.123117
11
150.000000
21
100.000000
0
LINE
8
0
10
150.000000
20
100.000000
11
153.090170
21
115.489435
0
LINE
8
0
10
154.539905
20
116.089935
11
153.090170
21
115.489435
0
LINE
8
0
10
153.090170
20
115.489435
11
150.000000
21
100.000000
0
LINE
8
0
10
150.000000
20
100.000000
11
154.539905
21
116.089935
0
LINE
8
0
10
155.877853
20
116.909830
11
154.539905
21
116.089935
0
LINE
8
0
10
154.539905
20
116.089935
11
150.000000
21
100.000000
0
LINE
8
0
10
150.000000
20
100.000000
11
155.877853
21
116.909830
0
LINE
8
0
10
157.071068
20
117.928932
11
155.877853
21
116.909830
0
LINE
8
0
10
155.877853
20
116.909830
11
150.000000
21
100.000000
0
LINE
8
0
10
150.000000
20
100.000000
11
157.071068
21
117.928932
0
LINE
8
0
10
158.090170
20
119.122147
11
157.071068
21
117.928932
0
LINE
8
0
10
157.071068
20
117.928932
11
150.000000
21
100.000000
0
LINE
8
0
10
150.000000
20
100.000000
11
158.090170
21
119.122147
0
LINE
8
0
10
158.910065
20
120.460095
11
158.090170
21
119.122147
0
LINE
8
0
10
158.090170
20
119.122147
11
150.000000
21
100.000000
0
LINE
8
0
10
150.000000
20
100.000000
11
158.910065
21
120.460095
0
LINE
8
0
10
159.510565
20
121.909830
11
158.910065
21
120.460095
0
LINE
8
0
10
158.910065
20
120.460095
11
175.000000
21
100.000000
0
LINE
8
0
10
175.000000
20
100.000000
11
159.510565
21
121.909830
0
LINE
8
0
10
159.876883
20
123.435655
11
159.510565
21
121.909830
0
LINE
8
0
10
159.510565
20
121.909830
11
175.000000
21
100.000000
0
LINE
8
0
10
175.000000
20
100.000000
11
159.876883
21
123.435655
0
LINE
8
0
10
300.000000
20
135.000000
11
300.000000
21
150.000000
0
LINE
8
0
10
300.000000
20
150.000000
11
300.000000
21
100.000000
0
LINE
8
0
10
300.000000
20
100.000000
11
300.000000
21
135.000000
0
LINE
8
0
10
309.876883
20
123.435655
11
325.000000
21
100.000000
0
LINE
8
0
10
325.000000
20
100.000000
11
310.000000
21
125.000000
0
LINE
8
0
10
310.000000
20
125.000000
11
309.876883
21
123.435655
0
LINE
8
0
10
309.876883
20
126.564345
11
310.000000
21
125.000000
0
LINE
8
0
10
310.000000
20
125.000000
11
325.000000
21
150.000000
0
LINE
8
0
10
325.000000
20
150.000000
11
309.876883
21
126.564345
0
LINE
8
0
10
309.510565
20
128.090170
11
309.876883
21
126.564345
0
LINE
8
0
10
309.876883
20
126.564345
11
325.000000
21
150.000000
0
LINE
8
0
10
325.000000
20
150.000000
11
309.510565
21
128.090170
0
LINE
8
0
10
307.071068
20
132.071068
11
308.090170
21
130.877853
0
LINE
8
0
10
308.090170
20
130.877853
11
300.000000
21
150.000000
0
LINE
8
0
10
300.000000
20
150.000000
11
307.071068
21
132.071068
0
LINE
8
0
10
308.910065
20
129.539905
11
309.510565
21
128.090170
0
LINE
8
0
10
309.510565
20
128.090170
11
325.000000
21
150.000000
0
LINE
8
0
10
325.000000
20
150.000000
11
308.910065
21
129.539905
0
LINE
8
0
10
308.090170
20
130.877853
11
308.910065
21
129.539905
0
LINE
8
0
10
308.910065
20
129.539905
11
300.000000
21
150.000000
0
LINE
8
0
10
300.000000
20
150.000000
11
308.090170
21
130.877853
0
LINE
8
0
10
305.877853
20
133.090170
11
307.071068
21
132.071068
0
LINE
8
0
10
307.071068
20
132.071068
11
300.000000
21
150.000000
0
LINE
8
0
10
300.000000
20
150.000000
11
305.877853
21
133.090170
0
LINE
8
0
10
304.539905
20
133.910065
11
305.877853
21
133.090170
0
LINE
8
0
10
305.877853
20
133.090170
11
300.000000
21
150.000000
0
LINE
8
0
10
300.000000
20
150.000000
11
304.539905
21
133.910065
0
LINE
8
0
10
303.090170
20
134.510565
11
304.539905
21
133.910065
0
LINE
8
0
10
304.539905
20
133.910065
11
300.000000
21
150.000000
0
LINE
8
0
10
300.000000
20
150.000000
11
303.090170
21
134.510565
0
LINE
8
0
10
301.564345
20
134.876883
11
303.090170
21
134.510565
0
LINE
8
0
10
303.090170
20
134.510565
11
300.000000
21
150.000000
0
LINE
8
0
10
300.000000
20
150.000000
11
301.564345
21
134.876883
0
LINE
8
0
10
308.910065
20
120.460095
11
300.000000
21
100.000000
0
LINE
8
0
10
300.000000
20
100.000000
11
325.000000
21
100.000000
0
LINE
8
0
10
325.000000
20
100.000000
11
308.910065
21
120.460095
0
LINE
8
0
10
300.000000
20
135.000000
11
301.564345
21
134.876883
0
LINE
8
0
10
301.564345
20
134.876883
11
300.000000
21
150.000000
0
LINE
8
0
10
300.000000
20
150.000000
11
300.000000
21
135.000000
0
LINE
8
0
10
291.089935
20
129.539905
11
250.000000
21
125.000000
0
LINE
8
0
10
250.000000
20
125.000000
11
275.000000
21
100.000000
0
LINE
8
0
10
275.000000
20
100.000000
11
291.089935
21
129.539905
0
LINE
8
0
10
296.909830
20
134.510565
11
298.435655
21
134.876883
0
LINE
8
0
10
298.435655
20
134.876883
11
300.000000
21
150.000000
0
LINE
8
0
10
300.000000
20
150.000000
11
296.909830
21
134.510565
0
LINE
8
0
10
295.460095
20
133.910065
11
296.909830
21
134.510565
0
LINE
8
0
10
296.909830
20
134.510565
11
300.000000
21
150.000000
0
LINE
8
0
10
300.000000
20
150.000000
11
295.460095
21
133.910065
0
LINE
8
0
10
294.122147
20
133.090170
11
295.460095
21
133.910065
0
LINE
8
0
10
295.460095
20
133.910065
11
300.000000
21
150.000000
0
LINE
8
0
10
300.000000
20
150.000000
11
294.122147
21
133.090170
0
LINE
8
0
10
292.928932
20
132.071068
11
294.122147
21
133.090170
0
LINE
8
0
10
294.122147
20
133.090170
11
300.000000
21
150.000000
0
LINE
8
0
10
300.000000
20
150.000000
11
292.928932
21
132.071068
0
LINE
8
0
10
291.909830
20
130.877853
11
292.928932
21
132.071068
0
LINE
8
0
10
292.928932
20
132.071068
11
300.000000
21
150.000000
0
LINE
8
0
10
300.000000
20
150.000000
11
291.909830
21
130.877853
0
LINE
8
0
10
291.089935
20
120.460095
11
275.000000
21
100.000000
0
LINE
8
0
10
275.000000
20
100.000000
11
300.000000
21
100.000000
0
LINE
8
0
10
300.000000
20
100.000000
11
291.089935
21
120.460095
0
LINE
8
0
10
291.089935
20
129.539905
11
291.909830
21
130.877853
0
LINE
8
0
10
291.909830
20
130.877853
11
300.000000
21
150.000000
0
LINE
8
0
10
300.000000
20
150.000000
11
291.089935
21
129.539905
0
LINE
8
0
10
290.489435
20
128.090170
11
291.089935
21
129.539905
0
LINE
8
0
10
291.089935
20
129.539905
11
275.000000
21
100.000000
0
LINE
8
0
10
275.000000
20
100.000000
11
290.489435
21
128.090170
0
LINE
8
0
10
290.123117
20
126.564345
11
290.489435
21
128.090170
0
LINE
8
0
10
290.489435
20
128.090170
11
275.000000
21
100.000000
0
LINE
8
0
10
275.000000
20
100.000000
11
290.123117
21
126.564345
0
LINE
8
0
10
290.000000
20
125.000000
11
290.123117
21
126.564345
0
LINE
8
0
10
290.123117
20
126.564345
11
275.000000
21
100.000000
0
LINE
8
0
10
275.000000
20
100.000000
11
290.000000
21
125.000000
0
LINE
8
0
10
290.123117
20
123.435655
11
290.000000
21
125.000000
0
LINE
8
0
10
290.000000
20
125.000000
11
275.000000
21
100.000000
0
LINE
8
0
10
275.000000
20
100.000000
11
290.123117
21
123.435655
0
LINE
8
0
10
290.489435
20
121.909830
11
290.123117
21
123.435655
0
LINE
8
0
10
290.123117
20
123.435655
11
275.000000
21
100.000000
0
LINE
8
0
10
275.000000
20
100.000000
11
290.489435
21
121.909830
0
LINE
8
0
10
300.000000
20
115.000000
11
300.000000
21
100.000000
0
LINE
8
0
10
300.000000
20
100.000000
11
300.000000
21
150.000000
0
LINE
8
0
10
300.000000
20
150.000000
11
300.000000
21
115.000000
0
LINE
8
0
10
291.089935
20
120.460095
11
290.489435
21
121.909830
0
LINE
8
0
10
290.489435
20
121.909830
11
275.000000
21
100.000000
0
LINE
8
0
10
275.000000
20
100.000000
11
291.089935
21
120.460095
0
LINE
8
0
10
291.909830
20
119.122147
11
291.089935
21
120.460095
0
LINE
8
0
10
291.089935
20
120.460095
11
300.000000
21
100.000000
0
LINE
8
0
10
300.000000
20
100.000000
11
291.909830
21
119.122147
0
LINE
8
0
10
292.928932
20
117.928932
11
291.909830
21
119.122147
0
LINE
8
0
10
291.909830
20
119.122147
11
300.000000
21
100.000000
0
LINE
8
0
10
300.000000
20
100.000000
11
292.928932
21
117.928932
0
LINE
8
0
10
294.122147
20
116.909830
11
292.928932
21
117.928932
0
LINE
8
0
10
292.928932
20
117.928932
11
300.000000
21
100.000000
0
LINE
8
0
10
300.000000
20
100.000000
11
294.122147
21
116.909830
0
LINE
8
0
10
295.460095
20
116.089935
11
294.122147
21
116.909830
0
LINE
8
0
10
294.122147
20
116.909830
11
300.000000
21
100.000000
0
LINE
8
0
10
300.000000
20
100.000000
11
295.460095
21
116.089935
0
LINE
8
0
10
296.909830
20
115.489435
11
295.460095
21
116.089935
0
LINE
8
0
10
295.460095
20
116.089935
11
300.000000
21
100.000000
0
LINE
8
0
10
300.000000
20
100.000000
11
296.909830
21
115.489435
0
LINE
8
0
10
298.435655
20
115.123117
11
296.909830
21
115.489435
0
LINE
8
0
10
296.909830
20
115.489435
11
300.000000
21
100.000000
0
LINE
8
0
10
300.000000
20
100.000000
11
298.435655
21
115.123117
0
LINE
8
0
10
300.000000
20
115.000000
11
300.000000
21
150.000000
0
LINE
8
0
10
300.000000
20
150.000000
11
298.435655
21
134.876883
0
LINE
8
0
10
298.435655
20
134.876883
11
300.000000
21
115.000000
0
LINE
8
0
10
300.000000
20
115.000000
11
298.435655
21
115.123117
0
LINE
8
0
10
298.435655
20
115.123117
11
300.000000
21
100.000000
0
LINE
8
0
10
300.000000
20
100.000000
11
300.000000
21
115.000000
0
LINE
8
0
10
301.564345
20
115.123117
11
300.000000
21
135.000000
0
LINE
8
0
10
300.000000
20
135.000000
11
300.000000
21
100.000000
0
LINE
8
0
10
300.000000
20
100.000000
11
301.564345
21
115.123117
0
LINE
8
0
10
303.090170
20
115.489435
11
301.564345
21
115.123117
0
LINE
8
0
10
301.564345
20
115.123117
11
300.000000
21
100.000000
0
LINE
8
0
10
300.000000
20
100.000000
11
303.090170
21
115.489435
0
LINE
8
0
10
304.539905
20
116.089935
11
303.090170
21
115.489435
0
LINE
8
0
10
303.090170
20
115.489435
11
300.000000
21
100.000000
0
LINE
8
0
10
300.000000
20
100.000000
11
304.539905
21
116.089935
0
LINE
8
0
10
305.877853
20
116.909830
11
304.539905
21
116.089935
0
LINE
8
0
10
304.539905
20
116.089935
11
300.000000
21
100.000000
0
LINE
8
0
10
300.000000
20
100.000000
11
305.877853
21
116.909830
0
LINE
8
0
10
307.071068
20
117.928932
11
305.877853
21
116.909830
0
LINE
8
0
10
305.877853
20
116.909830
11
300.000000
21
100.000000
0
LINE
8
0
10
300.000000
20
100.000000
11
307.071068
21
117.928932
0
LINE
8
0
10
308.090170
20
119.122147
11
307.071068
21
117.928932
0
LINE
8
0
10
307.071068
20
117.928932
11
300.000000
21
100.000000
0
LINE
8
0
10
300.000000
20
100.000000
11
308.090170
21
119.122147
0
LINE
8
0
10
308.910065
20
120.460095
11
308.090170
21
119.122147
0
LINE
8
0
10
308.090170
20
119.122147
11
300.000000
21
100.000000
0
LINE
8
0
10
300.000000
20
100.000000
11
308.910065
21
120.460095
0
LINE
8
0
10
309.510565
20
121.909830
11
308.910065
21
120.460095
0
LINE
8
0
10
308.910065
20
120.460095
11
325.000000
21
100.000000
0
LINE
8
0
10
325.000000
20
100.000000
11
309.510565
21
121.909830
0
LINE
8
0
10
309.876883
20
123.435655
11
309.510565
21
121.909830
0
LINE
8
0
10
309.510565
20
121.909830
11
325.000000
21
100.000000
0
LINE
8
0
10
325.000000
20
100.000000
11
309.876883
21
123.435655
0
ENDSEC
0
EOF