0
SECTION
2
HEADER
9
$ACADVER
1
AC1009
0
ENDSEC
0
SECTION
2
TABLES
0
ENDSEC
0
SECTION
2
BLOCKS
0
ENDSEC
0
SECTION
2
ENTITIES
0
LINE
8
0
62
7
10
150.000000
20
100.000000
11
175.000000
21
100.000000
0
LINE
8
0
62
1
10
175.000000
20
100.000000
11
150.000000
21
150.000000
0
LINE
8
0
62
1
10
150.000000
20
150.000000
11
150.000000
21
100.000000
0
LINE
8
0
62
1
10
112.500000
20
125.000000
11
125.000000
21
100.000000
0
LINE
8
0
62
1
10
125.000000
20
100.000000
11
125.000000
21
150.000000
0
LINE
8
0
62
1
10
125.000000
20
150.000000
11
112.500000
21
125.000000
0
LINE
8
0
62
1
10
137.500000
20
125.000000
11
150.000000
21
100.000000
0
LINE
8
0
62
1
10
150.000000
20
100.000000
11
150.000000
21
150.000000
0
LINE
8
0
62
1
10
150.000000
20
150.000000
11
137.500000
21
125.000000
0
LINE
8
0
62
1
10
187.500000
20
137.500000
11
200.000000
21
125.000000
0
LINE
8
0
62
7
10
200.000000
20
125.000000
11
200.000000
21
150.000000
0
LINE
8
0
62
1
10
200.000000
20
150.000000
11
187.500000
21
137.500000
0
LINE
8
0
62
1
10
225.000000
20
100.000000
11
225.000000
21
125.000000
0
LINE
8
0
62
7
10
225.000000
20
125.000000
11
200.000000
21
125.000000
0
LINE
8
0
62
1
10
200.000000
20
125.000000
11
225.000000
21
100.000000
0
LINE
8
0
62
1
10
175.000000
20
100.000000
11
175.000000
21
150.000000
0
LINE
8
0
62
7
10
175.000000
20
150.000000
11
150.000000
21
150.000000
0
LINE
8
0
62
1
10
150.000000
20
150.000000
11
175.000000
21
100.000000
0
LINE
8
0
62
1
10
187.500000
20
137.500000
11
175.000000
21
100.000000
0
LINE
8
0
62
1
10
175.000000
20
100.000000
11
200.000000
21
125.000000
0
LINE
8
0
62
1
10
200.000000
20
125.000000
11
187.500000
21
137.500000
0
LINE
8
0
62
1
10
250.000000
20
100.000000
11
250.000000
21
125.000000
0
LINE
8
0
62
7
10
250.000000
20
125.000000
11
225.000000
21
125.000000
0
LINE
8
0
62
1
10
225.000000
20
125.000000
11
250.000000
21
100.000000
0
LINE
8
0
62
7
10
275.000000
20
150.000000
11
250.000000
21
150.000000
0
LINE
8
0
62
7
10
250.000000
20
150.000000
11
250.000000
21
125.000000
0
LINE
8
0
62
1
10
250.000000
20
125.000000
11
275.000000
21
150.000000
0
LINE
8
0
62
7
10
300.000000
20
150.000000
11
275.000000
21
150.000000
0
LINE
8
0
62
1
10
275.000000
20
150.000000
11
250.000000
21
125.000000
0
LINE
8
0
62
1
10
250.000000
20
125.000000
11
300.000000
21
150.000000
0
LINE
8
0
62
1
10
300.000000
20
100.000000
11
300.000000
21
150.000000
0
LINE
8
0
62
1
10
300.000000
20
150.000000
11
250.000000
21
125.000000
0
LINE
8
0
62
1
10
250.000000
20
125.000000
11
300.000000
21
100.000000
0
LINE
8
0
62
1
10
325.000000
20
100.000000
11
325.000000
21
150.000000
0
LINE
8
0
62
7
10
325.000000
20
150.000000
11
300.000000
21
150.000000
0
LINE
8
0
62
1
10
300.000000
20
150.000000
11
325.000000
21
100.000000
0
LINE
8
0
62
7
10
350.000000
20
100.000000
11
350.000000
21
150.000000
0
LINE
8
0
62
7
10
350.000000
20
150.000000
11
325.000000
21
150.000000
0
LINE
8
0
62
1
10
325.000000
20
150.000000
11
350.000000
21
100.000000
0
LINE
8
0
62
7
10
325.000000
20
100.000000
11
350.000000
21
100.000000
0
LINE
8
0
62
1
10
350.000000
20
100.000000
11
325.000000
21
150.000000
0
LINE
8
0
62
1
10
325.000000
20
150.000000
11
325.000000
21
100.000000
0
LINE
8
0
62
7
10
300.000000
20
100.000000
11
325.000000
21
100.000000
0
LINE
8
0
62
1
10
325.000000
20
100.000000
11
300.000000
21
150.000000
0
LINE
8
0
62
1
10
300.000000
20
150.000000
11
300.000000
21
100.000000
0
LINE
8
0
62
7
10
275.000000
20
100.000000
11
300.000000
21
100.000000
0
LINE
8
0
62
1
10
300.000000
20
100.000000
11
250.000000
21
125.000000
0
LINE
8
0
62
1
10
250.000000
20
125.000000
11
275.000000
21
100.000000
0
LINE
8
0
62
7
10
250.000000
20
100.000000
11
275.000000
21
100.000000
0
LINE
8
0
62
1
10
275.000000
20
100.000000
11
250.000000
21
125.000000
0
LINE
8
0
62
1
10
250.000000
20
125.000000
11
250.000000
21
100.000000
0
LINE
8
0
62
7
10
225.000000
20
100.000000
11
250.000000
21
100.000000
0
LINE
8
0
62
1
10
250.000000
20
100.000000
11
225.000000
21
125.000000
0
LINE
8
0
62
1
10
225.000000
20
125.000000
11
225.000000
21
100.000000
0
LINE
8
0
62
7
10
200.000000
20
100.000000
11
225.000000
21
100.000000
0
LINE
8
0
62
1
10
225.000000
20
100.000000
11
200.000000
21
125.000000
0
LINE
8
0
62
1
10
200.000000
20
125.000000
11
200.000000
21
100.000000
0
LINE
8
0
62
7
10
175.000000
20
100.000000
11
200.000000
21
100.000000
0
LINE
8
0
62
1
10
200.000000
20
100.000000
11
200.000000
21
125.000000
0
LINE
8
0
62
1
10
200.000000
20
125.000000
11
175.000000
21
100.000000
0
LINE
8
0
62
1
10
137.500000
20
125.000000
11
125.000000
21
100.000000
0
LINE
8
0
62
7
10
125.000000
20
100.000000
11
150.000000
21
100.000000
0
LINE
8
0
62
1
10
150.000000
20
100.000000
11
137.500000
21
125.000000
0
LINE
8
0
62
1
10
112.500000
20
125.000000
11
100.000000
21
100.000000
0
LINE
8
0
62
7
10
100.000000
20
100.000000
11
125.000000
21
100.000000
0
LINE
8
0
62
1
10
125.000000
20
100.000000
11
112.500000
21
125.000000
0
LINE
8
0
62
1
10
112.500000
20
125.000000
11
100.000000
21
150.000000
0
LINE
8
0
62
7
10
100.000000
20
150.000000
11
100.000000
21
100.000000
0
LINE
8
0
62
1
10
100.000000
20
100.000000
11
112.500000
21
125.000000
0
LINE
8
0
62
1
10
112.500000
20
125.000000
11
125.000000
21
150.000000
0
LINE
8
0
62
7
10
125.000000
20
150.000000
11
100.000000
21
150.000000
0
LINE
8
0
62
1
10
100.000000
20
150.000000
11
112.500000
21
125.000000
0
LINE
8
0
62
1
10
137.500000
20
125.000000
11
125.000000
21
150.000000
0
LINE
8
0
62
1
10
125.000000
20
150.000000
11
125.000000
21
100.000000
0
LINE
8
0
62
1
10
125.000000
20
100.000000
11
137.500000
21
125.000000
0
LINE
8
0
62
1
10
137.500000
20
125.000000
11
150.000000
21
150.000000
0
LINE
8
0
62
7
10
150.000000
20
150.000000
11
125.000000
21
150.000000
0
LINE
8
0
62
1
10
125.000000
20
150.000000
11
137.500000
21
125.000000
0
LINE
8
0
62
1
10
187.500000
20
137.500000
11
175.000000
21
150.000000
0
LINE
8
0
62
1
10
175.000000
20
150.000000
11
175.000000
21
100.000000
0
LINE
8
0
62
1
10
175.000000
20
100.000000
11
187.500000
21
137.500000
0
LINE
8
0
62
1
10
187.500000
20
137.500000
11
200.000000
21
150.000000
0
LINE
8
0
62
7
10
200.000000
20
150.000000
11
175.000000
21
150.000000
0
LINE
8
0
62
1
10
175.000000
20
150.000000
11
187.500000
21
137.500000
0
ENDSEC
0
EOF