0
SECTION
2
HEADER
9
$ACADVER
1
AC1009
0
ENDSEC
0
SECTION
2
TABLES
0
ENDSEC
0
SECTION
2
BLOCKS
0
ENDSEC
0
SECTION
2
ENTITIES
0
LINE
8
0
62
1
10
187.500000
20
100.000000
11
190.000000
21
112.500000
0
LINE
8
0
62
1
10
190.000000
20
112.500000
11
175.000000
21
100.000000
0
LINE
8
0
62
7
10
175.000000
20
100.000000
11
187.500000
21
100.000000
0
LINE
8
0
62
1
10
122.772484
20
132.384976
11
100.000000
21
125.000000
0
LINE
8
0
62
1
10
100.000000
20
125.000000
11
120.544967
21
114.769953
0
LINE
8
0
62
1
10
120.544967
20
114.769953
11
122.772484
21
132.384976
0
LINE
8
0
62
1
10
166.955033
20
139.769952
11
190.000000
21
137.500000
0
LINE
8
0
62
1
10
190.000000
20
137.500000
11
175.000000
21
150.000000
0
LINE
8
0
62
1
10
175.000000
20
150.000000
11
166.955033
21
139.769952
0
LINE
8
0
62
1
10
212.500000
20
125.000000
11
212.500000
21
112.500000
0
LINE
8
0
62
1
10
212.500000
20
112.500000
11
225.000000
21
125.000000
0
LINE
8
0
62
7
10
225.000000
20
125.000000
11
212.500000
21
125.000000
0
LINE
8
0
62
1
10
162.500000
20
150.000000
11
153.090170
21
134.510565
0
LINE
8
0
62
1
10
153.090170
20
134.510565
11
166.955033
21
139.769952
0
LINE
8
0
62
1
10
166.955033
20
139.769952
11
162.500000
21
150.000000
0
LINE
8
0
62
1
10
190.000000
20
137.500000
11
180.000000
21
125.000000
0
LINE
8
0
62
1
10
180.000000
20
125.000000
11
200.000000
21
125.000000
0
LINE
8
0
62
1
10
200.000000
20
125.000000
11
190.000000
21
137.500000
0
LINE
8
0
62
1
10
237.500000
20
125.000000
11
237.500000
21
112.500000
0
LINE
8
0
62
1
10
237.500000
20
112.500000
11
250.000000
21
125.000000
0
LINE
8
0
62
7
10
250.000000
20
125.000000
11
237.500000
21
125.000000
0
LINE
8
0
62
1
10
260.272484
20
138.634976
11
250.000000
21
125.000000
0
LINE
8
0
62
1
10
250.000000
20
125.000000
11
270.544967
21
127.269953
0
LINE
8
0
62
1
10
270.544967
20
127.269953
11
260.272484
21
138.634976
0
LINE
8
0
62
1
10
283.044967
20
139.769952
11
260.272484
21
138.634976
0
LINE
8
0
62
1
10
260.272484
20
138.634976
11
270.544967
21
127.269953
0
LINE
8
0
62
1
10
270.544967
20
127.269953
11
283.044967
21
139.769952
0
LINE
8
0
62
1
10
287.500000
20
150.000000
11
283.044967
21
139.769952
0
LINE
8
0
62
1
10
283.044967
20
139.769952
11
296.909830
21
134.510565
0
LINE
8
0
62
1
10
296.909830
20
134.510565
11
287.500000
21
150.000000
0
LINE
8
0
62
1
10
312.500000
20
150.000000
11
303.090170
21
134.510565
0
LINE
8
0
62
1
10
303.090170
20
134.510565
11
316.955033
21
139.769952
0
LINE
8
0
62
1
10
316.955033
20
139.769952
11
312.500000
21
150.000000
0
LINE
8
0
62
1
10
316.955033
20
139.769952
11
308.910065
21
129.539905
0
LINE
8
0
62
7
10
308.910065
20
129.539905
11
309.510565
21
128.090170
0
LINE
8
0
62
1
10
309.510565
20
128.090170
11
316.955033
21
139.769952
0
LINE
8
0
62
1
10
316.955033
20
139.769952
11
309.876883
21
123.435655
0
LINE
8
0
62
7
10
309.876883
20
123.435655
11
309.510565
21
121.909830
0
LINE
8
0
62
1
10
309.510565
20
121.909830
11
316.955033
21
139.769952
0
LINE
8
0
62
1
10
340.000000
20
112.500000
11
350.000000
21
125.000000
0
LINE
8
0
62
1
10
350.000000
20
125.000000
11
330.000000
21
125.000000
0
LINE
8
0
62
1
10
330.000000
20
125.000000
11
340.000000
21
112.500000
0
LINE
8
0
62
1
10
262.500000
20
100.000000
11
272.772484
21
113.634976
0
LINE
8
0
62
1
10
272.772484
20
113.634976
11
260.272484
21
113.634976
0
LINE
8
0
62
1
10
260.272484
20
113.634976
11
262.500000
21
100.000000
0
LINE
8
0
62
1
10
225.000000
20
112.500000
11
237.500000
21
112.500000
0
LINE
8
0
62
1
10
237.500000
20
112.500000
11
225.000000
21
125.000000
0
LINE
8
0
62
1
10
225.000000
20
125.000000
11
225.000000
21
112.500000
0
LINE
8
0
62
1
10
190.000000
20
112.500000
11
212.500000
21
112.500000
0
LINE
8
0
62
1
10
212.500000
20
112.500000
11
200.000000
21
125.000000
0
LINE
8
0
62
1
10
200.000000
20
125.000000
11
190.000000
21
112.500000
0
LINE
8
0
62
1
10
190.000000
20
112.500000
11
200.000000
21
100.000000
0
LINE
8
0
62
1
10
200.000000
20
100.000000
11
212.500000
21
112.500000
0
LINE
8
0
62
1
10
212.500000
20
112.500000
11
190.000000
21
112.500000
0
LINE
8
0
62
1
10
110.272484
20
107.384976
11
125.000000
21
100.000000
0
LINE
8
0
62
1
10
125.000000
20
100.000000
11
120.544967
21
114.769953
0
LINE
8
0
62
1
10
120.544967
20
114.769953
11
110.272484
21
107.384976
0
LINE
8
0
62
1
10
137.500000
20
150.000000
11
133.044967
21
139.769952
0
LINE
8
0
62
1
10
133.044967
20
139.769952
11
146.909830
21
134.510565
0
LINE
8
0
62
1
10
146.909830
20
134.510565
11
137.500000
21
150.000000
0
LINE
8
0
62
1
10
166.955033
20
139.769952
11
159.510565
21
121.909830
0
LINE
8
0
62
1
10
159.510565
20
121.909830
11
180.000000
21
125.000000
0
LINE
8
0
62
1
10
180.000000
20
125.000000
11
166.955033
21
139.769952
0
LINE
8
0
62
1
10
166.955033
20
139.769952
11
160.000000
21
125.000000
0
LINE
8
0
62
7
10
160.000000
20
125.000000
11
159.876883
21
123.435655
0
LINE
8
0
62
1
10
159.876883
20
123.435655
11
166.955033
21
139.769952
0
LINE
8
0
62
1
10
166.955033
20
139.769952
11
159.876883
21
126.564345
0
LINE
8
0
62
7
10
159.876883
20
126.564345
11
160.000000
21
125.000000
0
LINE
8
0
62
1
10
160.000000
20
125.000000
11
166.955033
21
139.769952
0
LINE
8
0
62
1
10
166.955033
20
139.769952
11
157.071068
21
132.071068
0
LINE
8
0
62
7
10
157.071068
20
132.071068
11
158.090170
21
130.877853
0
LINE
8
0
62
1
10
158.090170
20
130.877853
11
166.955033
21
139.769952
0
LINE
8
0
62
1
10
166.955033
20
139.769952
11
159.510565
21
128.090170
0
LINE
8
0
62
7
10
159.510565
20
128.090170
11
159.876883
21
126.564345
0
LINE
8
0
62
1
10
159.876883
20
126.564345
11
166.955033
21
139.769952
0
LINE
8
0
62
1
10
166.955033
20
139.769952
11
158.090170
21
130.877853
0
LINE
8
0
62
7
10
158.090170
20
130.877853
11
158.910065
21
129.539905
0
LINE
8
0
62
1
10
158.910065
20
129.539905
11
166.955033
21
139.769952
0
LINE
8
0
62
1
10
166.955033
20
139.769952
11
155.877853
21
133.090170
0
LINE
8
0
62
7
10
155.877853
20
133.090170
11
157.071068
21
132.071068
0
LINE
8
0
62
1
10
157.071068
20
132.071068
11
166.955033
21
139.769952
0
LINE
8
0
62
1
10
111.386242
20
141.192488
11
100.000000
21
125.000000
0
LINE
8
0
62
1
10
100.000000
20
125.000000
11
122.772484
21
132.384976
0
LINE
8
0
62
1
10
122.772484
20
132.384976
11
111.386242
21
141.192488
0
LINE
8
0
62
1
10
166.955033
20
139.769952
11
154.539905
21
133.910065
0
LINE
8
0
62
7
10
154.539905
20
133.910065
11
155.877853
21
133.090170
0
LINE
8
0
62
1
10
155.877853
20
133.090170
11
166.955033
21
139.769952
0
LINE
8
0
62
1
10
166.955033
20
139.769952
11
153.090170
21
134.510565
0
LINE
8
0
62
7
10
153.090170
20
134.510565
11
154.539905
21
133.910065
0
LINE
8
0
62
1
10
154.539905
20
133.910065
11
166.955033
21
139.769952
0
LINE
8
0
62
7
10
151.564345
20
134.876883
11
153.090170
21
134.510565
0
LINE
8
0
62
1
10
153.090170
20
134.510565
11
150.000000
21
150.000000
0
LINE
8
0
62
1
10
150.000000
20
150.000000
11
151.564345
21
134.876883
0
LINE
8
0
62
7
10
150.000000
20
135.000000
11
151.564345
21
134.876883
0
LINE
8
0
62
1
10
151.564345
20
134.876883
11
150.000000
21
150.000000
0
LINE
8
0
62
1
10
150.000000
20
150.000000
11
150.000000
21
135.000000
0
LINE
8
0
62
7
10
148.435655
20
134.876883
11
150.000000
21
135.000000
0
LINE
8
0
62
1
10
150.000000
20
135.000000
11
150.000000
21
150.000000
0
LINE
8
0
62
1
10
150.000000
20
150.000000
11
148.435655
21
134.876883
0
LINE
8
0
62
7
10
146.909830
20
134.510565
11
148.435655
21
134.876883
0
LINE
8
0
62
1
10
148.435655
20
134.876883
11
150.000000
21
150.000000
0
LINE
8
0
62
1
10
150.000000
20
150.000000
11
146.909830
21
134.510565
0
LINE
8
0
62
1
10
137.500000
20
150.000000
11
146.909830
21
134.510565
0
LINE
8
0
62
1
10
146.909830
20
134.510565
11
150.000000
21
150.000000
0
LINE
8
0
62
7
10
150.000000
20
150.000000
11
137.500000
21
150.000000
0
LINE
8
0
62
1
10
133.044967
20
139.769952
11
145.460095
21
133.910065
0
LINE
8
0
62
7
10
145.460095
20
133.910065
11
146.909830
21
134.510565
0
LINE
8
0
62
1
10
146.909830
20
134.510565
11
133.044967
21
139.769952
0
LINE
8
0
62
1
10
133.044967
20
139.769952
11
144.122147
21
133.090170
0
LINE
8
0
62
7
10
144.122147
20
133.090170
11
145.460095
21
133.910065
0
LINE
8
0
62
1
10
145.460095
20
133.910065
11
133.044967
21
139.769952
0
LINE
8
0
62
1
10
133.044967
20
139.769952
11
142.928932
21
132.071068
0
LINE
8
0
62
7
10
142.928932
20
132.071068
11
144.122147
21
133.090170
0
LINE
8
0
62
1
10
144.122147
20
133.090170
11
133.044967
21
139.769952
0
LINE
8
0
62
1
10
137.500000
20
100.000000
11
146.909830
21
115.489435
0
LINE
8
0
62
1
10
146.909830
20
115.489435
11
133.044967
21
110.230047
0
LINE
8
0
62
1
10
133.044967
20
110.230047
11
137.500000
21
100.000000
0
LINE
8
0
62
1
10
133.044967
20
139.769952
11
141.909830
21
130.877853
0
LINE
8
0
62
7
10
141.909830
20
130.877853
11
142.928932
21
132.071068
0
LINE
8
0
62
1
10
142.928932
20
132.071068
11
133.044967
21
139.769952
0
LINE
8
0
62
1
10
133.044967
20
139.769952
11
140.489435
21
128.090170
0
LINE
8
0
62
7
10
140.489435
20
128.090170
11
141.089935
21
129.539905
0
LINE
8
0
62
1
10
141.089935
20
129.539905
11
133.044967
21
139.769952
0
LINE
8
0
62
1
10
133.044967
20
139.769952
11
140.123117
21
126.564345
0
LINE
8
0
62
7
10
140.123117
20
126.564345
11
140.489435
21
128.090170
0
LINE
8
0
62
1
10
140.489435
20
128.090170
11
133.044967
21
139.769952
0
LINE
8
0
62
1
10
133.044967
20
139.769952
11
140.000000
21
125.000000
0
LINE
8
0
62
7
10
140.000000
20
125.000000
11
140.123117
21
126.564345
0
LINE
8
0
62
1
10
140.123117
20
126.564345
11
133.044967
21
139.769952
0
LINE
8
0
62
1
10
133.044967
20
139.769952
11
140.123117
21
123.435655
0
LINE
8
0
62
7
10
140.123117
20
123.435655
11
140.000000
21
125.000000
0
LINE
8
0
62
1
10
140.000000
20
125.000000
11
133.044967
21
139.769952
0
LINE
8
0
62
1
10
133.044967
20
139.769952
11
140.489435
21
121.909830
0
LINE
8
0
62
7
10
140.489435
20
121.909830
11
140.123117
21
123.435655
0
LINE
8
0
62
1
10
140.123117
20
123.435655
11
133.044967
21
139.769952
0
LINE
8
0
62
1
10
162.500000
20
100.000000
11
166.955033
21
110.230047
0
LINE
8
0
62
1
10
166.955033
20
110.230047
11
153.090170
21
115.489435
0
LINE
8
0
62
1
10
153.090170
20
115.489435
11
162.500000
21
100.000000
0
LINE
8
0
62
1
10
133.044967
20
110.230047
11
140.489435
21
121.909830
0
LINE
8
0
62
1
10
140.489435
20
121.909830
11
120.544967
21
114.769953
0
LINE
8
0
62
1
10
120.544967
20
114.769953
11
133.044967
21
110.230047
0
LINE
8
0
62
1
10
133.044967
20
110.230047
11
141.909830
21
119.122147
0
LINE
8
0
62
7
10
141.909830
20
119.122147
11
141.089935
21
120.460095
0
LINE
8
0
62
1
10
141.089935
20
120.460095
11
133.044967
21
110.230047
0
LINE
8
0
62
1
10
133.044967
20
110.230047
11
142.928932
21
117.928932
0
LINE
8
0
62
7
10
142.928932
20
117.928932
11
141.909830
21
119.122147
0
LINE
8
0
62
1
10
141.909830
20
119.122147
11
133.044967
21
110.230047
0
LINE
8
0
62
1
10
133.044967
20
110.230047
11
144.122147
21
116.909830
0
LINE
8
0
62
7
10
144.122147
20
116.909830
11
142.928932
21
117.928932
0
LINE
8
0
62
1
10
142.928932
20
117.928932
11
133.044967
21
110.230047
0
LINE
8
0
62
1
10
133.044967
20
110.230047
11
145.460095
21
116.089935
0
LINE
8
0
62
7
10
145.460095
20
116.089935
11
144.122147
21
116.909830
0
LINE
8
0
62
1
10
144.122147
20
116.909830
11
133.044967
21
110.230047
0
LINE
8
0
62
1
10
133.044967
20
110.230047
11
146.909830
21
115.489435
0
LINE
8
0
62
7
10
146.909830
20
115.489435
11
145.460095
21
116.089935
0
LINE
8
0
62
1
10
145.460095
20
116.089935
11
133.044967
21
110.230047
0
LINE
8
0
62
7
10
148.435655
20
115.123117
11
146.909830
21
115.489435
0
LINE
8
0
62
1
10
146.909830
20
115.489435
11
150.000000
21
100.000000
0
LINE
8
0
62
1
10
150.000000
20
100.000000
11
148.435655
21
115.123117
0
LINE
8
0
62
7
10
150.000000
20
115.000000
11
148.435655
21
115.123117
0
LINE
8
0
62
1
10
148.435655
20
115.123117
11
150.000000
21
100.000000
0
LINE
8
0
62
1
10
150.000000
20
100.000000
11
150.000000
21
115.000000
0
LINE
8
0
62
7
10
151.564345
20
115.123117
11
150.000000
21
115.000000
0
LINE
8
0
62
1
10
150.000000
20
115.000000
11
150.000000
21
100.000000
0
LINE
8
0
62
1
10
150.000000
20
100.000000
11
151.564345
21
115.123117
0
LINE
8
0
62
7
10
153.090170
20
115.489435
11
151.564345
21
115.123117
0
LINE
8
0
62
1
10
151.564345
20
115.123117
11
150.000000
21
100.000000
0
LINE
8
0
62
1
10
150.000000
20
100.000000
11
153.090170
21
115.489435
0
LINE
8
0
62
1
10
162.500000
20
100.000000
11
153.090170
21
115.489435
0
LINE
8
0
62
1
10
153.090170
20
115.489435
11
150.000000
21
100.000000
0
LINE
8
0
62
7
10
150.000000
20
100.000000
11
162.500000
21
100.000000
0
LINE
8
0
62
1
10
166.955033
20
110.230047
11
154.539905
21
116.089935
0
LINE
8
0
62
7
10
154.539905
20
116.089935
11
153.090170
21
115.489435
0
LINE
8
0
62
1
10
153.090170
20
115.489435
11
166.955033
21
110.230047
0
LINE
8
0
62
1
10
166.955033
20
110.230047
11
155.877853
21
116.909830
0
LINE
8
0
62
7
10
155.877853
20
116.909830
11
154.539905
21
116.089935
0
LINE
8
0
62
1
10
154.539905
20
116.089935
11
166.955033
21
110.230047
0
LINE
8
0
62
1
10
166.955033
20
110.230047
11
157.071068
21
117.928932
0
LINE
8
0
62
7
10
157.071068
20
117.928932
11
155.877853
21
116.909830
0
LINE
8
0
62
1
10
155.877853
20
116.909830
11
166.955033
21
110.230047
0
LINE
8
0
62
1
10
166.955033
20
110.230047
11
158.090170
21
119.122147
0
LINE
8
0
62
7
10
158.090170
20
119.122147
11
157.071068
21
117.928932
0
LINE
8
0
62
1
10
157.071068
20
117.928932
11
166.955033
21
110.230047
0
LINE
8
0
62
1
10
166.955033
20
110.230047
11
175.000000
21
100.000000
0
LINE
8
0
62
1
10
175.000000
20
100.000000
11
190.000000
21
112.500000
0
LINE
8
0
62
1
10
190.000000
20
112.500000
11
166.955033
21
110.230047
0
LINE
8
0
62
1
10
166.955033
20
110.230047
11
159.510565
21
121.909830
0
LINE
8
0
62
7
10
159.510565
20
121.909830
11
158.910065
21
120.460095
0
LINE
8
0
62
1
10
158.910065
20
120.460095
11
166.955033
21
110.230047
0
LINE
8
0
62
7
10
300.000000
20
135.000000
11
301.564345
21
134.876883
0
LINE
8
0
62
1
10
301.564345
20
134.876883
11
300.000000
21
150.000000
0
LINE
8
0
62
1
10
300.000000
20
150.000000
11
300.000000
21
135.000000
0
LINE
8
0
62
1
10
316.955033
20
139.769952
11
309.510565
21
121.909830
0
LINE
8
0
62
1
10
309.510565
20
121.909830
11
330.000000
21
125.000000
0
LINE
8
0
62
1
10
330.000000
20
125.000000
11
316.955033
21
139.769952
0
LINE
8
0
62
1
10
316.955033
20
139.769952
11
310.000000
21
125.000000
0
LINE
8
0
62
7
10
310.000000
20
125.000000
11
309.876883
21
123.435655
0
LINE
8
0
62
1
10
309.876883
20
123.435655
11
316.955033
21
139.769952
0
LINE
8
0
62
1
10
316.955033
20
139.769952
11
309.876883
21
126.564345
0
LINE
8
0
62
7
10
309.876883
20
126.564345
11
310.000000
21
125.000000
0
LINE
8
0
62
1
10
310.000000
20
125.000000
11
316.955033
21
139.769952
0
LINE
8
0
62
1
10
316.955033
20
139.769952
11
307.071068
21
132.071068
0
LINE
8
0
62
7
10
307.071068
20
132.071068
11
308.090170
21
130.877853
0
LINE
8
0
62
1
10
308.090170
20
130.877853
11
316.955033
21
139.769952
0
LINE
8
0
62
1
10
316.955033
20
139.769952
11
309.510565
21
128.090170
0
LINE
8
0
62
7
10
309.510565
20
128.090170
11
309.876883
21
126.564345
0
LINE
8
0
62
1
10
309.876883
20
126.564345
11
316.955033
21
139.769952
0
LINE
8
0
62
1
10
316.955033
20
139.769952
11
308.090170
21
130.877853
0
LINE
8
0
62
7
10
308.090170
20
130.877853
11
308.910065
21
129.539905
0
LINE
8
0
62
1
10
308.910065
20
129.539905
11
316.955033
21
139.769952
0
LINE
8
0
62
1
10
316.955033
20
139.769952
11
305.877853
21
133.090170
0
LINE
8
0
62
7
10
305.877853
20
133.090170
11
307.071068
21
132.071068
0
LINE
8
0
62
1
10
307.071068
20
132.071068
11
316.955033
21
139.769952
0
LINE
8
0
62
1
10
316.955033
20
139.769952
11
304.539905
21
133.910065
0
LINE
8
0
62
7
10
304.539905
20
133.910065
11
305.877853
21
133.090170
0
LINE
8
0
62
1
10
305.877853
20
133.090170
11
316.955033
21
139.769952
0
LINE
8
0
62
1
10
316.955033
20
139.769952
11
303.090170
21
134.510565
0
LINE
8
0
62
7
10
303.090170
20
134.510565
11
304.539905
21
133.910065
0
LINE
8
0
62
1
10
304.539905
20
133.910065
11
316.955033
21
139.769952
0
LINE
8
0
62
7
10
301.564345
20
134.876883
11
303.090170
21
134.510565
0
LINE
8
0
62
1
10
303.090170
20
134.510565
11
300.000000
21
150.000000
0
LINE
8
0
62
1
10
300.000000
20
150.000000
11
301.564345
21
134.876883
0
LINE
8
0
62
1
10
260.272484
20
113.634976
11
270.544967
21
127.269953
0
LINE
8
0
62
1
10
270.544967
20
127.269953
11
250.000000
21
125.000000
0
LINE
8
0
62
1
10
250.000000
20
125.000000
11
260.272484
21
113.634976
0
LINE
8
0
62
7
10
298.435655
20
134.876883
11
300.000000
21
135.000000
0
LINE
8
0
62
1
10
300.000000
20
135.000000
11
300.000000
21
150.000000
0
LINE
8
0
62
1
10
300.000000
20
150.000000
11
298.435655
21
134.876883
0
LINE
8
0
62
7
10
296.909830
20
134.510565
11
298.435655
21
134.876883
0
LINE
8
0
62
1
10
298.435655
20
134.876883
11
300.000000
21
150.000000
0
LINE
8
0
62
1
10
300.000000
20
150.000000
11
296.909830
21
134.510565
0
LINE
8
0
62
1
10
287.500000
20
150.000000
11
296.909830
21
134.510565
0
LINE
8
0
62
1
10
296.909830
20
134.510565
11
300.000000
21
150.000000
0
LINE
8
0
62
7
10
300.000000
20
150.000000
11
287.500000
21
150.000000
0
LINE
8
0
62
1
10
283.044967
20
139.769952
11
295.460095
21
133.910065
0
LINE
8
0
62
7
10
295.460095
20
133.910065
11
296.909830
21
134.510565
0
LINE
8
0
62
1
10
296.909830
20
134.510565
11
283.044967
21
139.769952
0
LINE
8
0
62
1
10
283.044967
20
139.769952
11
294.122147
21
133.090170
0
LINE
8
0
62
7
10
294.122147
20
133.090170
11
295.460095
21
133.910065
0
LINE
8
0
62
1
10
295.460095
20
133.910065
11
283.044967
21
139.769952
0
LINE
8
0
62
1
10
283.044967
20
139.769952
11
292.928932
21
132.071068
0
LINE
8
0
62
7
10
292.928932
20
132.071068
11
294.122147
21
133.090170
0
LINE
8
0
62
1
10
294.122147
20
133.090170
11
283.044967
21
139.769952
0
LINE
8
0
62
1
10
287.500000
20
100.000000
11
296.909830
21
115.489435
0
LINE
8
0
62
1
10
296.909830
20
115.489435
11
283.044967
21
110.230047
0
LINE
8
0
62
1
10
283.044967
20
110.230047
11
287.500000
21
100.000000
0
LINE
8
0
62
1
10
283.044967
20
139.769952
11
291.909830
21
130.877853
0
LINE
8
0
62
7
10
291.909830
20
130.877853
11
292.928932
21
132.071068
0
LINE
8
0
62
1
10
292.928932
20
132.071068
11
283.044967
21
139.769952
0
LINE
8
0
62
1
10
283.044967
20
139.769952
11
290.489435
21
128.090170
0
LINE
8
0
62
7
10
290.489435
20
128.090170
11
291.089935
21
129.539905
0
LINE
8
0
62
1
10
291.089935
20
129.539905
11
283.044967
21
139.769952
0
LINE
8
0
62
1
10
283.044967
20
139.769952
11
290.123117
21
126.564345
0
LINE
8
0
62
7
10
290.123117
20
126.564345
11
290.489435
21
128.090170
0
LINE
8
0
62
1
10
290.489435
20
128.090170
11
283.044967
21
139.769952
0
LINE
8
0
62
1
10
283.044967
20
139.769952
11
290.000000
21
125.000000
0
LINE
8
0
62
7
10
290.000000
20
125.000000
11
290.123117
21
126.564345
0
LINE
8
0
62
1
10
290.123117
20
126.564345
11
283.044967
21
139.769952
0
LINE
8
0
62
1
10
283.044967
20
139.769952
11
290.123117
21
123.435655
0
LINE
8
0
62
7
10
290.123117
20
123.435655
11
290.000000
21
125.000000
0
LINE
8
0
62
1
10
290.000000
20
125.000000
11
283.044967
21
139.769952
0
LINE
8
0
62
1
10
272.772484
20
113.634976
11
290.123117
21
123.435655
0
LINE
8
0
62
1
10
290.123117
20
123.435655
11
270.544967
21
127.269953
0
LINE
8
0
62
1
10
270.544967
20
127.269953
11
272.772484
21
113.634976
0
LINE
8
0
62
1
10
312.500000
20
100.000000
11
316.955033
21
110.230047
0
LINE
8
0
62
1
10
316.955033
20
110.230047
11
303.090170
21
115.489435
0
LINE
8
0
62
1
10
303.090170
20
115.489435
11
312.500000
21
100.000000
0
LINE
8
0
62
1
10
283.044967
20
110.230047
11
290.123117
21
123.435655
0
LINE
8
0
62
1
10
290.123117
20
123.435655
11
272.772484
21
113.634976
0
LINE
8
0
62
1
10
272.772484
20
113.634976
11
283.044967
21
110.230047
0
LINE
8
0
62
1
10
283.044967
20
110.230047
11
291.909830
21
119.122147
0
LINE
8
0
62
7
10
291.909830
20
119.122147
11
291.089935
21
120.460095
0
LINE
8
0
62
1
10
291.089935
20
120.460095
11
283.044967
21
110.230047
0
LINE
8
0
62
1
10
283.044967
20
110.230047
11
292.928932
21
117.928932
0
LINE
8
0
62
7
10
292.928932
20
117.928932
11
291.909830
21
119.122147
0
LINE
8
0
62
1
10
291.909830
20
119.122147
11
283.044967
21
110.230047
0
LINE
8
0
62
1
10
283.044967
20
110.230047
11
294.122147
21
116.909830
0
LINE
8
0
62
7
10
294.122147
20
116.909830
11
292.928932
21
117.928932
0
LINE
8
0
62
1
10
292.928932
20
117.928932
11
283.044967
21
110.230047
0
LINE
8
0
62
1
10
283.044967
20
110.230047
11
295.460095
21
116.089935
0
LINE
8
0
62
7
10
295.460095
20
116.089935
11
294.122147
21
116.909830
0
LINE
8
0
62
1
10
294.122147
20
116.909830
11
283.044967
21
110.230047
0
LINE
8
0
62
1
10
283.044967
20
110.230047
11
296.909830
21
115.489435
0
LINE
8
0
62
7
10
296.909830
20
115.489435
11
295.460095
21
116.089935
0
LINE
8
0
62
1
10
295.460095
20
116.089935
11
283.044967
21
110.230047
0
LINE
8
0
62
7
10
298.435655
20
115.123117
11
296.909830
21
115.489435
0
LINE
8
0
62
1
10
296.909830
20
115.489435
11
300.000000
21
100.000000
0
LINE
8
0
62
1
10
300.000000
20
100.000000
11
298.435655
21
115.123117
0
LINE
8
0
62
7
10
300.000000
20
115.000000
11
298.435655
21
115.123117
0
LINE
8
0
62
1
10
298.435655
20
115.123117
11
300.000000
21
100.000000
0
LINE
8
0
62
1
10
300.000000
20
100.000000
11
300.000000
21
115.000000
0
LINE
8
0
62
7
10
301.564345
20
115.123117
11
300.000000
21
115.000000
0
LINE
8
0
62
1
10
300.000000
20
115.000000
11
300.000000
21
100.000000
0
LINE
8
0
62
1
10
300.000000
20
100.000000
11
301.564345
21
115.123117
0
LINE
8
0
62
7
10
303.090170
20
115.489435
11
301.564345
21
115.123117
0
LINE
8
0
62
1
10
301.564345
20
115.123117
11
300.000000
21
100.000000
0
LINE
8
0
62
1
10
300.000000
20
100.000000
11
303.090170
21
115.489435
0
LINE
8
0
62
1
10
312.500000
20
100.000000
11
303.090170
21
115.489435
0
LINE
8
0
62
1
10
303.090170
20
115.489435
11
300.000000
21
100.000000
0
LINE
8
0
62
7
10
300.000000
20
100.000000
11
312.500000
21
100.000000
0
LINE
8
0
62
1
10
316.955033
20
110.230047
11
304.539905
21
116.089935
0
LINE
8
0
62
7
10
304.539905
20
116.089935
11
303.090170
21
115.489435
0
LINE
8
0
62
1
10
303.090170
20
115.489435
11
316.955033
21
110.230047
0
LINE
8
0
62
1
10
316.955033
20
110.230047
11
305.877853
21
116.909830
0
LINE
8
0
62
7
10
305.877853
20
116.909830
11
304.539905
21
116.089935
0
LINE
8
0
62
1
10
304.539905
20
116.089935
11
316.955033
21
110.230047
0
LINE
8
0
62
1
10
316.955033
20
110.230047
11
307.071068
21
117.928932
0
LINE
8
0
62
7
10
307.071068
20
117.928932
11
305.877853
21
116.909830
0
LINE
8
0
62
1
10
305.877853
20
116.909830
11
316.955033
21
110.230047
0
LINE
8
0
62
1
10
316.955033
20
110.230047
11
308.090170
21
119.122147
0
LINE
8
0
62
7
10
308.090170
20
119.122147
11
307.071068
21
117.928932
0
LINE
8
0
62
1
10
307.071068
20
117.928932
11
316.955033
21
110.230047
0
LINE
8
0
62
1
10
316.955033
20
110.230047
11
325.000000
21
100.000000
0
LINE
8
0
62
1
10
325.000000
20
100.000000
11
340.000000
21
112.500000
0
LINE
8
0
62
1
10
340.000000
20
112.500000
11
316.955033
21
110.230047
0
LINE
8
0
62
1
10
316.955033
20
110.230047
11
309.510565
21
121.909830
0
LINE
8
0
62
7
10
309.510565
20
121.909830
11
308.910065
21
120.460095
0
LINE
8
0
62
1
10
308.910065
20
120.460095
11
316.955033
21
110.230047
0
LINE
8
0
62
1
10
122.772484
20
132.384976
11
120.544967
21
114.769953
0
LINE
8
0
62
1
10
120.544967
20
114.769953
11
140.489435
21
121.909830
0
LINE
8
0
62
1
10
140.489435
20
121.909830
11
122.772484
21
132.384976
0
LINE
8
0
62
1
10
133.044967
20
110.230047
11
141.089935
21
120.460095
0
LINE
8
0
62
7
10
141.089935
20
120.460095
11
140.489435
21
121.909830
0
LINE
8
0
62
1
10
140.489435
20
121.909830
11
133.044967
21
110.230047
0
LINE
8
0
62
1
10
110.272484
20
107.384976
11
120.544967
21
114.769953
0
LINE
8
0
62
1
10
120.544967
20
114.769953
11
100.000000
21
125.000000
0
LINE
8
0
62
1
10
100.000000
20
125.000000
11
110.272484
21
107.384976
0
LINE
8
0
62
1
10
316.955033
20
139.769952
11
340.000000
21
137.500000
0
LINE
8
0
62
1
10
340.000000
20
137.500000
11
325.000000
21
150.000000
0
LINE
8
0
62
1
10
325.000000
20
150.000000
11
316.955033
21
139.769952
0
LINE
8
0
62
1
10
283.044967
20
139.769952
11
275.000000
21
150.000000
0
LINE
8
0
62
1
10
275.000000
20
150.000000
11
260.272484
21
138.634976
0
LINE
8
0
62
1
10
260.272484
20
138.634976
11
283.044967
21
139.769952
0
LINE
8
0
62
1
10
283.044967
20
110.230047
11
291.089935
21
120.460095
0
LINE
8
0
62
7
10
291.089935
20
120.460095
11
290.489435
21
121.909830
0
LINE
8
0
62
1
10
290.489435
20
121.909830
11
283.044967
21
110.230047
0
LINE
8
0
62
1
10
166.955033
20
139.769952
11
159.876883
21
123.435655
0
LINE
8
0
62
7
10
159.876883
20
123.435655
11
159.510565
21
121.909830
0
LINE
8
0
62
1
10
159.510565
20
121.909830
11
166.955033
21
139.769952
0
LINE
8
0
62
1
10
166.955033
20
139.769952
11
158.910065
21
129.539905
0
LINE
8
0
62
7
10
158.910065
20
129.539905
11
159.510565
21
128.090170
0
LINE
8
0
62
1
10
159.510565
20
128.090170
11
166.955033
21
139.769952
0
LINE
8
0
62
1
10
340.000000
20
137.500000
11
330.000000
21
125.000000
0
LINE
8
0
62
1
10
330.000000
20
125.000000
11
350.000000
21
125.000000
0
LINE
8
0
62
1
10
350.000000
20
125.000000
11
340.000000
21
137.500000
0
LINE
8
0
62
1
10
316.955033
20
110.230047
11
340.000000
21
112.500000
0
LINE
8
0
62
1
10
340.000000
20
112.500000
11
330.000000
21
125.000000
0
LINE
8
0
62
1
10
330.000000
20
125.000000
11
316.955033
21
110.230047
0
LINE
8
0
62
1
10
111.386242
20
141.192488
11
122.772484
21
132.384976
0
LINE
8
0
62
1
10
122.772484
20
132.384976
11
125.000000
21
150.000000
0
LINE
8
0
62
1
10
125.000000
20
150.000000
11
111.386242
21
141.192488
0
LINE
8
0
62
1
10
133.044967
20
139.769952
11
125.000000
21
150.000000
0
LINE
8
0
62
1
10
125.000000
20
150.000000
11
122.772484
21
132.384976
0
LINE
8
0
62
1
10
122.772484
20
132.384976
11
133.044967
21
139.769952
0
LINE
8
0
62
1
10
225.000000
20
112.500000
11
225.000000
21
125.000000
0
LINE
8
0
62
1
10
225.000000
20
125.000000
11
212.500000
21
112.500000
0
LINE
8
0
62
1
10
212.500000
20
112.500000
11
225.000000
21
112.500000
0
LINE
8
0
62
1
10
212.500000
20
100.000000
11
212.500000
21
112.500000
0
LINE
8
0
62
1
10
212.500000
20
112.500000
11
200.000000
21
100.000000
0
LINE
8
0
62
7
10
200.000000
20
100.000000
11
212.500000
21
100.000000
0
LINE
8
0
62
1
10
260.272484
20
113.634976
11
237.500000
21
112.500000
0
LINE
8
0
62
1
10
237.500000
20
112.500000
11
250.000000
21
100.000000
0
LINE
8
0
62
1
10
250.000000
20
100.000000
11
260.272484
21
113.634976
0
LINE
8
0
62
1
10
237.500000
20
100.000000
11
237.500000
21
112.500000
0
LINE
8
0
62
1
10
237.500000
20
112.500000
11
225.000000
21
100.000000
0
LINE
8
0
62
7
10
225.000000
20
100.000000
11
237.500000
21
100.000000
0
LINE
8
0
62
1
10
262.500000
20
100.000000
11
260.272484
21
113.634976
0
LINE
8
0
62
1
10
260.272484
20
113.634976
11
250.000000
21
100.000000
0
LINE
8
0
62
7
10
250.000000
20
100.000000
11
262.500000
21
100.000000
0
LINE
8
0
62
1
10
260.272484
20
113.634976
11
250.000000
21
125.000000
0
LINE
8
0
62
1
10
250.000000
20
125.000000
11
237.500000
21
112.500000
0
LINE
8
0
62
1
10
237.500000
20
112.500000
11
260.272484
21
113.634976
0
LINE
8
0
62
1
10
350.000000
20
112.500000
11
340.000000
21
112.500000
0
LINE
8
0
62
1
10
340.000000
20
112.500000
11
350.000000
21
100.000000
0
LINE
8
0
62
7
10
350.000000
20
100.000000
11
350.000000
21
112.500000
0
LINE
8
0
62
1
10
337.500000
20
100.000000
11
340.000000
21
112.500000
0
LINE
8
0
62
1
10
340.000000
20
112.500000
11
325.000000
21
100.000000
0
LINE
8
0
62
7
10
325.000000
20
100.000000
11
337.500000
21
100.000000
0
LINE
8
0
62
1
10
337.500000
20
150.000000
11
340.000000
21
137.500000
0
LINE
8
0
62
1
10
340.000000
20
137.500000
11
350.000000
21
150.000000
0
LINE
8
0
62
7
10
350.000000
20
150.000000
11
337.500000
21
150.000000
0
LINE
8
0
62
1
10
350.000000
20
137.500000
11
340.000000
21
137.500000
0
LINE
8
0
62
1
10
340.000000
20
137.500000
11
350.000000
21
125.000000
0
LINE
8
0
62
7
10
350.000000
20
125.000000
11
350.000000
21
137.500000
0
LINE
8
0
62
1
10
166.955033
20
110.230047
11
190.000000
21
112.500000
0
LINE
8
0
62
1
10
190.000000
20
112.500000
11
180.000000
21
125.000000
0
LINE
8
0
62
1
10
180.000000
20
125.000000
11
166.955033
21
110.230047
0
LINE
8
0
62
1
10
190.000000
20
112.500000
11
200.000000
21
125.000000
0
LINE
8
0
62
1
10
200.000000
20
125.000000
11
180.000000
21
125.000000
0
LINE
8
0
62
1
10
180.000000
20
125.000000
11
190.000000
21
112.500000
0
LINE
8
0
62
1
10
187.500000
20
150.000000
11
190.000000
21
137.500000
0
LINE
8
0
62
1
10
190.000000
20
137.500000
11
200.000000
21
150.000000
0
LINE
8
0
62
7
10
200.000000
20
150.000000
11
187.500000
21
150.000000
0
LINE
8
0
62
1
10
200.000000
20
137.500000
11
190.000000
21
137.500000
0
LINE
8
0
62
1
10
190.000000
20
137.500000
11
200.000000
21
125.000000
0
LINE
8
0
62
7
10
200.000000
20
125.000000
11
200.000000
21
137.500000
0
LINE
8
0
62
1
10
250.000000
20
137.500000
11
260.272484
21
138.634976
0
LINE
8
0
62
1
10
260.272484
20
138.634976
11
250.000000
21
150.000000
0
LINE
8
0
62
7
10
250.000000
20
150.000000
11
250.000000
21
137.500000
0
LINE
8
0
62
1
10
262.500000
20
150.000000
11
260.272484
21
138.634976
0
LINE
8
0
62
1
10
260.272484
20
138.634976
11
275.000000
21
150.000000
0
LINE
8
0
62
7
10
275.000000
20
150.000000
11
262.500000
21
150.000000
0
LINE
8
0
62
1
10
100.000000
20
137.500000
11
111.386242
21
141.192488
0
LINE
8
0
62
1
10
111.386242
20
141.192488
11
100.000000
21
150.000000
0
LINE
8
0
62
7
10
100.000000
20
150.000000
11
100.000000
21
137.500000
0
LINE
8
0
62
1
10
112.500000
20
150.000000
11
111.386242
21
141.192488
0
LINE
8
0
62
1
10
111.386242
20
141.192488
11
125.000000
21
150.000000
0
LINE
8
0
62
7
10
125.000000
20
150.000000
11
112.500000
21
150.000000
0
LINE
8
0
62
1
10
272.772484
20
113.634976
11
270.544967
21
127.269953
0
LINE
8
0
62
1
10
270.544967
20
127.269953
11
260.272484
21
113.634976
0
LINE
8
0
62
1
10
260.272484
20
113.634976
11
272.772484
21
113.634976
0
LINE
8
0
62
1
10
283.044967
20
110.230047
11
290.489435
21
121.909830
0
LINE
8
0
62
7
10
290.489435
20
121.909830
11
290.123117
21
123.435655
0
LINE
8
0
62
1
10
290.123117
20
123.435655
11
283.044967
21
110.230047
0
LINE
8
0
62
1
10
162.500000
20
150.000000
11
166.955033
21
139.769952
0
LINE
8
0
62
1
10
166.955033
20
139.769952
11
175.000000
21
150.000000
0
LINE
8
0
62
7
10
175.000000
20
150.000000
11
162.500000
21
150.000000
0
LINE
8
0
62
1
10
166.955033
20
139.769952
11
180.000000
21
125.000000
0
LINE
8
0
62
1
10
180.000000
20
125.000000
11
190.000000
21
137.500000
0
LINE
8
0
62
1
10
190.000000
20
137.500000
11
166.955033
21
139.769952
0
LINE
8
0
62
1
10
283.044967
20
139.769952
11
291.089935
21
129.539905
0
LINE
8
0
62
7
10
291.089935
20
129.539905
11
291.909830
21
130.877853
0
LINE
8
0
62
1
10
291.909830
20
130.877853
11
283.044967
21
139.769952
0
LINE
8
0
62
1
10
283.044967
20
139.769952
11
270.544967
21
127.269953
0
LINE
8
0
62
1
10
270.544967
20
127.269953
11
290.123117
21
123.435655
0
LINE
8
0
62
1
10
290.123117
20
123.435655
11
283.044967
21
139.769952
0
LINE
8
0
62
1
10
312.500000
20
150.000000
11
316.955033
21
139.769952
0
LINE
8
0
62
1
10
316.955033
20
139.769952
11
325.000000
21
150.000000
0
LINE
8
0
62
7
10
325.000000
20
150.000000
11
312.500000
21
150.000000
0
LINE
8
0
62
1
10
316.955033
20
139.769952
11
330.000000
21
125.000000
0
LINE
8
0
62
1
10
330.000000
20
125.000000
11
340.000000
21
137.500000
0
LINE
8
0
62
1
10
340.000000
20
137.500000
11
316.955033
21
139.769952
0
LINE
8
0
62
1
10
133.044967
20
139.769952
11
141.089935
21
129.539905
0
LINE
8
0
62
7
10
141.089935
20
129.539905
11
141.909830
21
130.877853
0
LINE
8
0
62
1
10
141.909830
20
130.877853
11
133.044967
21
139.769952
0
LINE
8
0
62
1
10
133.044967
20
139.769952
11
122.772484
21
132.384976
0
LINE
8
0
62
1
10
122.772484
20
132.384976
11
140.489435
21
121.909830
0
LINE
8
0
62
1
10
140.489435
20
121.909830
11
133.044967
21
139.769952
0
LINE
8
0
62
1
10
137.500000
20
100.000000
11
133.044967
21
110.230047
0
LINE
8
0
62
1
10
133.044967
20
110.230047
11
125.000000
21
100.000000
0
LINE
8
0
62
7
10
125.000000
20
100.000000
11
137.500000
21
100.000000
0
LINE
8
0
62
1
10
133.044967
20
110.230047
11
120.544967
21
114.769953
0
LINE
8
0
62
1
10
120.544967
20
114.769953
11
125.000000
21
100.000000
0
LINE
8
0
62
1
10
125.000000
20
100.000000
11
133.044967
21
110.230047
0
LINE
8
0
62
1
10
166.955033
20
110.230047
11
158.910065
21
120.460095
0
LINE
8
0
62
7
10
158.910065
20
120.460095
11
158.090170
21
119.122147
0
LINE
8
0
62
1
10
158.090170
20
119.122147
11
166.955033
21
110.230047
0
LINE
8
0
62
1
10
166.955033
20
110.230047
11
180.000000
21
125.000000
0
LINE
8
0
62
1
10
180.000000
20
125.000000
11
159.510565
21
121.909830
0
LINE
8
0
62
1
10
159.510565
20
121.909830
11
166.955033
21
110.230047
0
LINE
8
0
62
1
10
287.500000
20
100.000000
11
283.044967
21
110.230047
0
LINE
8
0
62
1
10
283.044967
20
110.230047
11
275.000000
21
100.000000
0
LINE
8
0
62
7
10
275.000000
20
100.000000
11
287.500000
21
100.000000
0
LINE
8
0
62
1
10
283.044967
20
110.230047
11
272.772484
21
113.634976
0
LINE
8
0
62
1
10
272.772484
20
113.634976
11
275.000000
21
100.000000
0
LINE
8
0
62
1
10
275.000000
20
100.000000
11
283.044967
21
110.230047
0
LINE
8
0
62
1
10
316.955033
20
110.230047
11
308.910065
21
120.460095
0
LINE
8
0
62
7
10
308.910065
20
120.460095
11
308.090170
21
119.122147
0
LINE
8
0
62
1
10
308.090170
20
119.122147
11
316.955033
21
110.230047
0
LINE
8
0
62
1
10
316.955033
20
110.230047
11
330.000000
21
125.000000
0
LINE
8
0
62
1
10
330.000000
20
125.000000
11
309.510565
21
121.909830
0
LINE
8
0
62
1
10
309.510565
20
121.909830
11
316.955033
21
110.230047
0
LINE
8
0
62
1
10
112.500000
20
100.000000
11
110.272484
21
107.384976
0
LINE
8
0
62
1
10
110.272484
20
107.384976
11
100.000000
21
100.000000
0
LINE
8
0
62
7
10
100.000000
20
100.000000
11
112.500000
21
100.000000
0
LINE
8
0
62
1
10
100.000000
20
112.500000
11
110.272484
21
107.384976
0
LINE
8
0
62
1
10
110.272484
20
107.384976
11
100.000000
21
125.000000
0
LINE
8
0
62
7
10
100.000000
20
125.000000
11
100.000000
21
112.500000
0
LINE
8
0
62
7
10
187.500000
20
100.000000
11
200.000000
21
100.000000
0
LINE
8
0
62
1
10
200.000000
20
100.000000
11
190.000000
21
112.500000
0
LINE
8
0
62
1
10
190.000000
20
112.500000
11
187.500000
21
100.000000
0
LINE
8
0
62
7
10
212.500000
20
125.000000
11
200.000000
21
125.000000
0
LINE
8
0
62
1
10
200.000000
20
125.000000
11
212.500000
21
112.500000
0
LINE
8
0
62
1
10
212.500000
20
112.500000
11
212.500000
21
125.000000
0
LINE
8
0
62
7
10
237.500000
20
125.000000
11
225.000000
21
125.000000
0
LINE
8
0
62
1
10
225.000000
20
125.000000
11
237.500000
21
112.500000
0
LINE
8
0
62
1
10
237.500000
20
112.500000
11
237.500000
21
125.000000
0
LINE
8
0
62
7
10
287.500000
20
150.000000
11
275.000000
21
150.000000
0
LINE
8
0
62
1
10
275.000000
20
150.000000
11
283.044967
21
139.769952
0
LINE
8
0
62
1
10
283.044967
20
139.769952
11
287.500000
21
150.000000
0
LINE
8
0
62
1
10
225.000000
20
112.500000
11
225.000000
21
100.000000
0
LINE
8
0
62
1
10
225.000000
20
100.000000
11
237.500000
21
112.500000
0
LINE
8
0
62
1
10
237.500000
20
112.500000
11
225.000000
21
112.500000
0
LINE
8
0
62
1
10
225.000000
20
112.500000
11
212.500000
21
112.500000
0
LINE
8
0
62
1
10
212.500000
20
112.500000
11
225.000000
21
100.000000
0
LINE
8
0
62
1
10
225.000000
20
100.000000
11
225.000000
21
112.500000
0
LINE
8
0
62
7
10
137.500000
20
150.000000
11
125.000000
21
150.000000
0
LINE
8
0
62
1
10
125.000000
20
150.000000
11
133.044967
21
139.769952
0
LINE
8
0
62
1
10
133.044967
20
139.769952
11
137.500000
21
150.000000
0
LINE
8
0
62
7
10
162.500000
20
100.000000
11
175.000000
21
100.000000
0
LINE
8
0
62
1
10
175.000000
20
100.000000
11
166.955033
21
110.230047
0
LINE
8
0
62
1
10
166.955033
20
110.230047
11
162.500000
21
100.000000
0
LINE
8
0
62
7
10
312.500000
20
100.000000
11
325.000000
21
100.000000
0
LINE
8
0
62
1
10
325.000000
20
100.000000
11
316.955033
21
110.230047
0
LINE
8
0
62
1
10
316.955033
20
110.230047
11
312.500000
21
100.000000
0
LINE
8
0
62
7
10
212.500000
20
100.000000
11
225.000000
21
100.000000
0
LINE
8
0
62
1
10
225.000000
20
100.000000
11
212.500000
21
112.500000
0
LINE
8
0
62
1
10
212.500000
20
112.500000
11
212.500000
21
100.000000
0
LINE
8
0
62
7
10
237.500000
20
100.000000
11
250.000000
21
100.000000
0
LINE
8
0
62
1
10
250.000000
20
100.000000
11
237.500000
21
112.500000
0
LINE
8
0
62
1
10
237.500000
20
112.500000
11
237.500000
21
100.000000
0
LINE
8
0
62
7
10
262.500000
20
100.000000
11
275.000000
21
100.000000
0
LINE
8
0
62
1
10
275.000000
20
100.000000
11
272.772484
21
113.634976
0
LINE
8
0
62
1
10
272.772484
20
113.634976
11
262.500000
21
100.000000
0
LINE
8
0
62
7
10
350.000000
20
112.500000
11
350.000000
21
125.000000
0
LINE
8
0
62
1
10
350.000000
20
125.000000
11
340.000000
21
112.500000
0
LINE
8
0
62
1
10
340.000000
20
112.500000
11
350.000000
21
112.500000
0
LINE
8
0
62
7
10
337.500000
20
100.000000
11
350.000000
21
100.000000
0
LINE
8
0
62
1
10
350.000000
20
100.000000
11
340.000000
21
112.500000
0
LINE
8
0
62
1
10
340.000000
20
112.500000
11
337.500000
21
100.000000
0
LINE
8
0
62
7
10
337.500000
20
150.000000
11
325.000000
21
150.000000
0
LINE
8
0
62
1
10
325.000000
20
150.000000
11
340.000000
21
137.500000
0
LINE
8
0
62
1
10
340.000000
20
137.500000
11
337.500000
21
150.000000
0
LINE
8
0
62
7
10
350.000000
20
137.500000
11
350.000000
21
150.000000
0
LINE
8
0
62
1
10
350.000000
20
150.000000
11
340.000000
21
137.500000
0
LINE
8
0
62
1
10
340.000000
20
137.500000
11
350.000000
21
137.500000
0
LINE
8
0
62
7
10
187.500000
20
150.000000
11
175.000000
21
150.000000
0
LINE
8
0
62
1
10
175.000000
20
150.000000
11
190.000000
21
137.500000
0
LINE
8
0
62
1
10
190.000000
20
137.500000
11
187.500000
21
150.000000
0
LINE
8
0
62
7
10
200.000000
20
137.500000
11
200.000000
21
150.000000
0
LINE
8
0
62
1
10
200.000000
20
150.000000
11
190.000000
21
137.500000
0
LINE
8
0
62
1
10
190.000000
20
137.500000
11
200.000000
21
137.500000
0
LINE
8
0
62
7
10
250.000000
20
137.500000
11
250.000000
21
125.000000
0
LINE
8
0
62
1
10
250.000000
20
125.000000
11
260.272484
21
138.634976
0
LINE
8
0
62
1
10
260.272484
20
138.634976
11
250.000000
21
137.500000
0
LINE
8
0
62
7
10
262.500000
20
150.000000
11
250.000000
21
150.000000
0
LINE
8
0
62
1
10
250.000000
20
150.000000
11
260.272484
21
138.634976
0
LINE
8
0
62
1
10
260.272484
20
138.634976
11
262.500000
21
150.000000
0
LINE
8
0
62
7
10
100.000000
20
137.500000
11
100.000000
21
125.000000
0
LINE
8
0
62
1
10
100.000000
20
125.000000
11
111.386242
21
141.192488
0
LINE
8
0
62
1
10
111.386242
20
141.192488
11
100.000000
21
137.500000
0
LINE
8
0
62
7
10
112.500000
20
150.000000
11
100.000000
21
150.000000
0
LINE
8
0
62
1
10
100.000000
20
150.000000
11
111.386242
21
141.192488
0
LINE
8
0
62
1
10
111.386242
20
141.192488
11
112.500000
21
150.000000
0
LINE
8
0
62
7
10
162.500000
20
150.000000
11
150.000000
21
150.000000
0
LINE
8
0
62
1
10
150.000000
20
150.000000
11
153.090170
21
134.510565
0
LINE
8
0
62
1
10
153.090170
20
134.510565
11
162.500000
21
150.000000
0
LINE
8
0
62
7
10
312.500000
20
150.000000
11
300.000000
21
150.000000
0
LINE
8
0
62
1
10
300.000000
20
150.000000
11
303.090170
21
134.510565
0
LINE
8
0
62
1
10
303.090170
20
134.510565
11
312.500000
21
150.000000
0
LINE
8
0
62
7
10
137.500000
20
100.000000
11
150.000000
21
100.000000
0
LINE
8
0
62
1
10
150.000000
20
100.000000
11
146.909830
21
115.489435
0
LINE
8
0
62
1
10
146.909830
20
115.489435
11
137.500000
21
100.000000
0
LINE
8
0
62
7
10
287.500000
20
100.000000
11
300.000000
21
100.000000
0
LINE
8
0
62
1
10
300.000000
20
100.000000
11
296.909830
21
115.489435
0
LINE
8
0
62
1
10
296.909830
20
115.489435
11
287.500000
21
100.000000
0
LINE
8
0
62
7
10
112.500000
20
100.000000
11
125.000000
21
100.000000
0
LINE
8
0
62
1
10
125.000000
20
100.000000
11
110.272484
21
107.384976
0
LINE
8
0
62
1
10
110.272484
20
107.384976
11
112.500000
21
100.000000
0
LINE
8
0
62
7
10
100.000000
20
112.500000
11
100.000000
21
100.000000
0
LINE
8
0
62
1
10
100.000000
20
100.000000
11
110.272484
21
107.384976
0
LINE
8
0
62
1
10
110.272484
20
107.384976
11
100.000000
21
112.500000
0
ENDSEC
0
EOF