0
SECTION
2
HEADER
9
$ACADVER
1
AC1009
0
ENDSEC
0
SECTION
2
TABLES
0
ENDSEC
0
SECTION
2
BLOCKS
0
ENDSEC
0
SECTION
2
ENTITIES
0
LINE
8
0
62
1
10
188.077597
20
100.000000
11
188.086420
21
101.543210
0
LINE
8
0
62
1
10
188.086420
20
101.543210
11
181.316872
21
102.880658
0
LINE
8
0
62
1
10
181.316872
20
102.880658
11
188.077597
21
100.000000
0
LINE
8
0
62
1
10
101.515701
20
125.279373
11
101.521849
21
125.168145
0
LINE
8
0
62
1
10
101.521849
20
125.168145
11
104.565548
21
125.504434
0
LINE
8
0
62
1
10
104.565548
20
125.504434
11
101.515701
21
125.279373
0
LINE
8
0
62
1
10
187.170349
20
150.000000
11
187.160494
21
147.839506
0
LINE
8
0
62
1
10
187.160494
20
147.839506
11
194.218107
21
145.781893
0
LINE
8
0
62
1
10
194.218107
20
145.781893
11
187.170349
21
150.000000
0
LINE
8
0
62
1
10
213.822789
20
125.000000
11
213.888889
21
122.222222
0
LINE
8
0
62
1
10
213.888889
20
122.222222
11
225.000000
21
125.000000
0
LINE
8
0
62
7
10
225.000000
20
125.000000
11
213.822789
21
125.000000
0
LINE
8
0
62
1
10
162.113901
20
150.000000
11
162.101118
21
147.726656
0
LINE
8
0
62
1
10
162.101118
20
147.726656
11
169.696064
21
143.292818
0
LINE
8
0
62
1
10
169.696064
20
143.292818
11
162.113901
21
150.000000
0
LINE
8
0
62
1
10
178.315372
20
130.567341
11
170.372723
21
126.121718
0
LINE
8
0
62
1
10
170.372723
20
126.121718
11
177.716834
21
124.447980
0
LINE
8
0
62
1
10
177.716834
20
124.447980
11
178.315372
21
130.567341
0
LINE
8
0
62
1
10
238.822789
20
125.000000
11
238.888889
21
122.222222
0
LINE
8
0
62
1
10
238.888889
20
122.222222
11
241.666667
21
116.666667
0
LINE
8
0
62
1
10
241.666667
20
116.666667
11
238.822789
21
125.000000
0
LINE
8
0
62
1
10
261.989214
20
135.540241
11
254.519629
21
139.562221
0
LINE
8
0
62
1
10
254.519629
20
139.562221
11
256.732096
21
131.874070
0
LINE
8
0
62
1
10
256.732096
20
131.874070
11
261.989214
21
135.540241
0
LINE
8
0
62
1
10
263.079581
20
147.914955
11
262.852962
21
147.895554
0
LINE
8
0
62
1
10
262.852962
20
147.895554
11
263.558886
21
143.686663
0
LINE
8
0
62
1
10
263.558886
20
143.686663
11
263.079581
21
147.914955
0
LINE
8
0
62
1
10
288.153560
20
147.749551
11
287.898882
21
147.726656
0
LINE
8
0
62
1
10
287.898882
20
147.726656
11
288.696645
21
143.179968
0
LINE
8
0
62
1
10
288.696645
20
143.179968
11
288.153560
21
147.749551
0
LINE
8
0
62
1
10
312.113901
20
150.000000
11
312.101118
21
147.726656
0
LINE
8
0
62
1
10
312.101118
20
147.726656
11
319.036939
21
146.747036
0
LINE
8
0
62
1
10
319.036939
20
146.747036
11
312.113901
21
150.000000
0
LINE
8
0
62
1
10
328.649322
20
142.010019
11
320.009700
21
142.514453
0
LINE
8
0
62
1
10
320.009700
20
142.514453
11
323.725744
21
134.363390
0
LINE
8
0
62
1
10
323.725744
20
134.363390
11
328.649322
21
142.010019
0
LINE
8
0
62
1
10
350.000000
20
125.000000
11
348.518519
21
125.000000
0
LINE
8
0
62
1
10
348.518519
20
125.000000
11
345.631818
21
118.171726
0
LINE
8
0
62
1
10
345.631818
20
118.171726
11
350.000000
21
125.000000
0
LINE
8
0
62
1
10
337.411765
20
100.000000
11
337.407407
21
102.777778
0
LINE
8
0
62
1
10
337.407407
20
102.777778
11
330.352243
21
103.589253
0
LINE
8
0
62
1
10
330.352243
20
103.589253
11
337.411765
21
100.000000
0
LINE
8
0
62
1
10
263.876781
20
114.421221
11
260.781109
21
104.797774
0
LINE
8
0
62
1
10
260.781109
20
104.797774
11
269.270362
21
107.659248
0
LINE
8
0
62
1
10
269.270362
20
107.659248
11
263.876781
21
114.421221
0
LINE
8
0
62
1
10
237.953007
20
100.000000
11
237.962963
21
101.851852
0
LINE
8
0
62
1
10
237.962963
20
101.851852
11
231.481481
21
106.481481
0
LINE
8
0
62
1
10
231.481481
20
106.481481
11
237.953007
21
100.000000
0
LINE
8
0
62
1
10
212.953007
20
100.000000
11
212.962963
21
101.851852
0
LINE
8
0
62
1
10
212.962963
20
101.851852
11
205.370370
21
106.790123
0
LINE
8
0
62
1
10
205.370370
20
106.790123
11
212.953007
21
100.000000
0
LINE
8
0
62
1
10
212.953007
20
100.000000
11
205.370370
21
106.790123
0
LINE
8
0
62
1
10
205.370370
20
106.790123
11
200.000000
21
100.000000
0
LINE
8
0
62
7
10
200.000000
20
100.000000
11
212.953007
21
100.000000
0
LINE
8
0
62
1
10
121.431414
20
108.326270
11
130.030668
21
107.653692
0
LINE
8
0
62
1
10
130.030668
20
107.653692
11
126.395360
21
116.141044
0
LINE
8
0
62
1
10
126.395360
20
116.141044
11
121.431414
21
108.326270
0
LINE
8
0
62
1
10
138.153560
20
147.749551
11
137.898882
21
147.726656
0
LINE
8
0
62
1
10
137.898882
20
147.726656
11
138.696645
21
143.179968
0
LINE
8
0
62
1
10
138.696645
20
143.179968
11
138.153560
21
147.749551
0
LINE
8
0
62
1
10
165.598390
20
121.906535
11
158.910065
21
120.460095
0
LINE
8
0
62
1
10
158.910065
20
120.460095
11
166.545563
21
116.162233
0
LINE
8
0
62
1
10
166.545563
20
116.162233
11
165.598390
21
121.906535
0
LINE
8
0
62
1
10
165.598390
20
121.906535
11
164.860786
21
129.719616
0
LINE
8
0
62
1
10
164.860786
20
129.719616
11
160.000000
21
125.000000
0
LINE
8
0
62
1
10
160.000000
20
125.000000
11
165.598390
21
121.906535
0
LINE
8
0
62
1
10
165.598390
20
121.906535
11
160.000000
21
125.000000
0
LINE
8
0
62
7
10
160.000000
20
125.000000
11
159.876883
21
123.435655
0
LINE
8
0
62
1
10
159.876883
20
123.435655
11
165.598390
21
121.906535
0
LINE
8
0
62
1
10
164.860786
20
129.719616
11
157.071068
21
132.071068
0
LINE
8
0
62
7
10
157.071068
20
132.071068
11
158.090170
21
130.877853
0
LINE
8
0
62
1
10
158.090170
20
130.877853
11
164.860786
21
129.719616
0
LINE
8
0
62
1
10
164.860786
20
129.719616
11
159.876883
21
126.564345
0
LINE
8
0
62
7
10
159.876883
20
126.564345
11
160.000000
21
125.000000
0
LINE
8
0
62
1
10
160.000000
20
125.000000
11
164.860786
21
129.719616
0
LINE
8
0
62
1
10
164.860786
20
129.719616
11
158.090170
21
130.877853
0
LINE
8
0
62
7
10
158.090170
20
130.877853
11
158.910065
21
129.539905
0
LINE
8
0
62
1
10
158.910065
20
129.539905
11
164.860786
21
129.719616
0
LINE
8
0
62
1
10
159.575426
20
138.054440
11
157.071068
21
132.071068
0
LINE
8
0
62
1
10
157.071068
20
132.071068
11
164.332752
21
136.472787
0
LINE
8
0
62
1
10
164.332752
20
136.472787
11
159.575426
21
138.054440
0
LINE
8
0
62
1
10
112.627407
20
150.000000
11
112.632961
21
147.390367
0
LINE
8
0
62
1
10
112.632961
20
147.390367
11
119.710366
21
146.632586
0
LINE
8
0
62
1
10
119.710366
20
146.632586
11
112.627407
21
150.000000
0
LINE
8
0
62
1
10
159.575426
20
138.054440
11
155.877853
21
133.090170
0
LINE
8
0
62
7
10
155.877853
20
133.090170
11
157.071068
21
132.071068
0
LINE
8
0
62
1
10
157.071068
20
132.071068
11
159.575426
21
138.054440
0
LINE
8
0
62
1
10
159.575426
20
138.054440
11
154.539905
21
133.910065
0
LINE
8
0
62
7
10
154.539905
20
133.910065
11
155.877853
21
133.090170
0
LINE
8
0
62
1
10
155.877853
20
133.090170
11
159.575426
21
138.054440
0
LINE
8
0
62
1
10
159.575426
20
138.054440
11
153.767785
21
142.726656
0
LINE
8
0
62
1
10
153.767785
20
142.726656
11
153.090170
21
134.510565
0
LINE
8
0
62
1
10
153.090170
20
134.510565
11
159.575426
21
138.054440
0
LINE
8
0
62
1
10
153.767785
20
142.726656
11
151.564345
21
134.876883
0
LINE
8
0
62
7
10
151.564345
20
134.876883
11
153.090170
21
134.510565
0
LINE
8
0
62
1
10
153.090170
20
134.510565
11
153.767785
21
142.726656
0
LINE
8
0
62
1
10
153.767785
20
142.726656
11
146.232215
21
142.726656
0
LINE
8
0
62
1
10
146.232215
20
142.726656
11
150.000000
21
135.000000
0
LINE
8
0
62
1
10
150.000000
20
135.000000
11
153.767785
21
142.726656
0
LINE
8
0
62
1
10
146.232215
20
142.726656
11
148.435655
21
134.876883
0
LINE
8
0
62
7
10
148.435655
20
134.876883
11
150.000000
21
135.000000
0
LINE
8
0
62
1
10
150.000000
20
135.000000
11
146.232215
21
142.726656
0
LINE
8
0
62
1
10
146.232215
20
142.726656
11
146.909830
21
134.510565
0
LINE
8
0
62
7
10
146.909830
20
134.510565
11
148.435655
21
134.876883
0
LINE
8
0
62
1
10
148.435655
20
134.876883
11
146.232215
21
142.726656
0
LINE
8
0
62
1
10
139.805758
20
137.543479
11
146.909830
21
134.510565
0
LINE
8
0
62
1
10
146.909830
20
134.510565
11
146.232215
21
142.726656
0
LINE
8
0
62
1
10
146.232215
20
142.726656
11
139.805758
21
137.543479
0
LINE
8
0
62
1
10
139.805758
20
137.543479
11
145.460095
21
133.910065
0
LINE
8
0
62
7
10
145.460095
20
133.910065
11
146.909830
21
134.510565
0
LINE
8
0
62
1
10
146.909830
20
134.510565
11
139.805758
21
137.543479
0
LINE
8
0
62
1
10
139.805758
20
137.543479
11
144.122147
21
133.090170
0
LINE
8
0
62
7
10
144.122147
20
133.090170
11
145.460095
21
133.910065
0
LINE
8
0
62
1
10
145.460095
20
133.910065
11
139.805758
21
137.543479
0
LINE
8
0
62
1
10
137.886099
20
100.000000
11
137.898882
21
102.273344
0
LINE
8
0
62
1
10
137.898882
20
102.273344
11
130.976517
21
103.309012
0
LINE
8
0
62
1
10
130.976517
20
103.309012
11
137.886099
21
100.000000
0
LINE
8
0
62
1
10
139.805758
20
137.543479
11
142.928932
21
132.071068
0
LINE
8
0
62
7
10
142.928932
20
132.071068
11
144.122147
21
133.090170
0
LINE
8
0
62
1
10
144.122147
20
133.090170
11
139.805758
21
137.543479
0
LINE
8
0
62
1
10
130.862045
20
118.865128
11
130.996962
21
125.497371
0
LINE
8
0
62
1
10
130.996962
20
125.497371
11
122.607344
21
120.808554
0
LINE
8
0
62
1
10
122.607344
20
120.808554
11
130.862045
21
118.865128
0
LINE
8
0
62
1
10
139.805758
20
137.543479
11
141.089935
21
129.539905
0
LINE
8
0
62
7
10
141.089935
20
129.539905
11
141.909830
21
130.877853
0
LINE
8
0
62
1
10
141.909830
20
130.877853
11
139.805758
21
137.543479
0
LINE
8
0
62
1
10
130.951008
20
132.129614
11
140.489435
21
128.090170
0
LINE
8
0
62
1
10
140.489435
20
128.090170
11
135.260535
21
135.540402
0
LINE
8
0
62
1
10
135.260535
20
135.540402
11
130.951008
21
132.129614
0
LINE
8
0
62
1
10
130.996962
20
125.497371
11
140.123117
21
126.564345
0
LINE
8
0
62
7
10
140.123117
20
126.564345
11
140.489435
21
128.090170
0
LINE
8
0
62
1
10
140.489435
20
128.090170
11
130.996962
21
125.497371
0
LINE
8
0
62
1
10
130.996962
20
125.497371
11
140.123117
21
123.435655
0
LINE
8
0
62
7
10
140.123117
20
123.435655
11
140.000000
21
125.000000
0
LINE
8
0
62
1
10
140.000000
20
125.000000
11
130.996962
21
125.497371
0
LINE
8
0
62
1
10
161.846440
20
102.250449
11
162.101118
21
102.273344
0
LINE
8
0
62
1
10
162.101118
20
102.273344
11
161.303355
21
106.820032
0
LINE
8
0
62
1
10
161.303355
20
106.820032
11
161.846440
21
102.250449
0
LINE
8
0
62
1
10
135.193813
20
114.956969
11
140.489435
21
121.909830
0
LINE
8
0
62
7
10
140.489435
20
121.909830
11
140.123117
21
123.435655
0
LINE
8
0
62
1
10
140.123117
20
123.435655
11
135.193813
21
114.956969
0
LINE
8
0
62
1
10
135.193813
20
114.956969
11
141.909830
21
119.122147
0
LINE
8
0
62
7
10
141.909830
20
119.122147
11
141.089935
21
120.460095
0
LINE
8
0
62
1
10
141.089935
20
120.460095
11
135.193813
21
114.956969
0
LINE
8
0
62
1
10
139.783518
20
112.622312
11
141.909830
21
119.122147
0
LINE
8
0
62
1
10
141.909830
20
119.122147
11
135.193813
21
114.956969
0
LINE
8
0
62
1
10
135.193813
20
114.956969
11
139.783518
21
112.622312
0
LINE
8
0
62
1
10
139.783518
20
112.622312
11
142.928932
21
117.928932
0
LINE
8
0
62
7
10
142.928932
20
117.928932
11
141.909830
21
119.122147
0
LINE
8
0
62
1
10
141.909830
20
119.122147
11
139.783518
21
112.622312
0
LINE
8
0
62
1
10
139.783518
20
112.622312
11
144.122147
21
116.909830
0
LINE
8
0
62
7
10
144.122147
20
116.909830
11
142.928932
21
117.928932
0
LINE
8
0
62
1
10
142.928932
20
117.928932
11
139.783518
21
112.622312
0
LINE
8
0
62
1
10
139.783518
20
112.622312
11
146.232215
21
107.273344
0
LINE
8
0
62
1
10
146.232215
20
107.273344
11
146.909830
21
115.489435
0
LINE
8
0
62
1
10
146.909830
20
115.489435
11
139.783518
21
112.622312
0
LINE
8
0
62
1
10
139.783518
20
112.622312
11
146.909830
21
115.489435
0
LINE
8
0
62
7
10
146.909830
20
115.489435
11
145.460095
21
116.089935
0
LINE
8
0
62
1
10
145.460095
20
116.089935
11
139.783518
21
112.622312
0
LINE
8
0
62
1
10
146.232215
20
107.273344
11
148.435655
21
115.123117
0
LINE
8
0
62
7
10
148.435655
20
115.123117
11
146.909830
21
115.489435
0
LINE
8
0
62
1
10
146.909830
20
115.489435
11
146.232215
21
107.273344
0
LINE
8
0
62
1
10
146.232215
20
107.273344
11
153.767785
21
107.273344
0
LINE
8
0
62
1
10
153.767785
20
107.273344
11
150.000000
21
115.000000
0
LINE
8
0
62
1
10
150.000000
20
115.000000
11
146.232215
21
107.273344
0
LINE
8
0
62
1
10
153.767785
20
107.273344
11
151.564345
21
115.123117
0
LINE
8
0
62
7
10
151.564345
20
115.123117
11
150.000000
21
115.000000
0
LINE
8
0
62
1
10
150.000000
20
115.000000
11
153.767785
21
107.273344
0
LINE
8
0
62
1
10
153.767785
20
107.273344
11
153.090170
21
115.489435
0
LINE
8
0
62
7
10
153.090170
20
115.489435
11
151.564345
21
115.123117
0
LINE
8
0
62
1
10
151.564345
20
115.123117
11
153.767785
21
107.273344
0
LINE
8
0
62
1
10
161.242257
20
113.297365
11
153.090170
21
115.489435
0
LINE
8
0
62
1
10
153.090170
20
115.489435
11
153.767785
21
107.273344
0
LINE
8
0
62
1
10
153.767785
20
107.273344
11
161.242257
21
113.297365
0
LINE
8
0
62
1
10
161.242257
20
113.297365
11
154.539905
21
116.089935
0
LINE
8
0
62
7
10
154.539905
20
116.089935
11
153.090170
21
115.489435
0
LINE
8
0
62
1
10
153.090170
20
115.489435
11
161.242257
21
113.297365
0
LINE
8
0
62
1
10
161.242257
20
113.297365
11
155.877853
21
116.909830
0
LINE
8
0
62
7
10
155.877853
20
116.909830
11
154.539905
21
116.089935
0
LINE
8
0
62
1
10
154.539905
20
116.089935
11
161.242257
21
113.297365
0
LINE
8
0
62
1
10
161.242257
20
113.297365
11
157.071068
21
117.928932
0
LINE
8
0
62
7
10
157.071068
20
117.928932
11
155.877853
21
116.909830
0
LINE
8
0
62
1
10
155.877853
20
116.909830
11
161.242257
21
113.297365
0
LINE
8
0
62
1
10
170.040348
20
110.759211
11
171.750540
21
119.650206
0
LINE
8
0
62
1
10
171.750540
20
119.650206
11
166.545563
21
116.162233
0
LINE
8
0
62
1
10
166.545563
20
116.162233
11
170.040348
21
110.759211
0
LINE
8
0
62
1
10
161.242257
20
113.297365
11
158.910065
21
120.460095
0
LINE
8
0
62
7
10
158.910065
20
120.460095
11
158.090170
21
119.122147
0
LINE
8
0
62
1
10
158.090170
20
119.122147
11
161.242257
21
113.297365
0
LINE
8
0
62
1
10
303.767785
20
142.726656
11
301.564345
21
134.876883
0
LINE
8
0
62
7
10
301.564345
20
134.876883
11
303.090170
21
134.510565
0
LINE
8
0
62
1
10
303.090170
20
134.510565
11
303.767785
21
142.726656
0
LINE
8
0
62
1
10
314.624645
20
128.925174
11
323.725744
21
134.363390
0
LINE
8
0
62
1
10
323.725744
20
134.363390
11
314.846555
21
135.211176
0
LINE
8
0
62
1
10
314.846555
20
135.211176
11
314.624645
21
128.925174
0
LINE
8
0
62
1
10
314.624645
20
121.074826
11
309.510565
21
121.909830
0
LINE
8
0
62
7
10
309.510565
20
121.909830
11
308.910065
21
120.460095
0
LINE
8
0
62
1
10
308.910065
20
120.460095
11
314.624645
21
121.074826
0
LINE
8
0
62
1
10
314.624645
20
121.074826
11
310.000000
21
125.000000
0
LINE
8
0
62
7
10
310.000000
20
125.000000
11
309.876883
21
123.435655
0
LINE
8
0
62
1
10
309.876883
20
123.435655
11
314.624645
21
121.074826
0
LINE
8
0
62
1
10
310.229938
20
137.433737
11
308.090170
21
130.877853
0
LINE
8
0
62
1
10
308.090170
20
130.877853
11
314.846555
21
135.211176
0
LINE
8
0
62
1
10
314.846555
20
135.211176
11
310.229938
21
137.433737
0
LINE
8
0
62
1
10
314.624645
20
128.925174
11
309.510565
21
128.090170
0
LINE
8
0
62
7
10
309.510565
20
128.090170
11
309.876883
21
126.564345
0
LINE
8
0
62
1
10
309.876883
20
126.564345
11
314.624645
21
128.925174
0
LINE
8
0
62
1
10
314.624645
20
128.925174
11
308.090170
21
130.877853
0
LINE
8
0
62
7
10
308.090170
20
130.877853
11
308.910065
21
129.539905
0
LINE
8
0
62
1
10
308.910065
20
129.539905
11
314.624645
21
128.925174
0
LINE
8
0
62
1
10
310.229938
20
137.433737
11
307.071068
21
132.071068
0
LINE
8
0
62
7
10
307.071068
20
132.071068
11
308.090170
21
130.877853
0
LINE
8
0
62
1
10
308.090170
20
130.877853
11
310.229938
21
137.433737
0
LINE
8
0
62
1
10
310.229938
20
137.433737
11
305.877853
21
133.090170
0
LINE
8
0
62
7
10
305.877853
20
133.090170
11
307.071068
21
132.071068
0
LINE
8
0
62
1
10
307.071068
20
132.071068
11
310.229938
21
137.433737
0
LINE
8
0
62
1
10
310.229938
20
137.433737
11
303.767785
21
142.726656
0
LINE
8
0
62
1
10
303.767785
20
142.726656
11
303.090170
21
134.510565
0
LINE
8
0
62
1
10
303.090170
20
134.510565
11
310.229938
21
137.433737
0
LINE
8
0
62
1
10
310.229938
20
137.433737
11
303.090170
21
134.510565
0
LINE
8
0
62
7
10
303.090170
20
134.510565
11
304.539905
21
133.910065
0
LINE
8
0
62
1
10
304.539905
20
133.910065
11
310.229938
21
137.433737
0
LINE
8
0
62
1
10
238.822789
20
125.000000
11
247.112221
21
117.339999
0
LINE
8
0
62
1
10
247.112221
20
117.339999
11
250.000000
21
125.000000
0
LINE
8
0
62
7
10
250.000000
20
125.000000
11
238.822789
21
125.000000
0
LINE
8
0
62
1
10
303.767785
20
142.726656
11
296.232215
21
142.726656
0
LINE
8
0
62
1
10
296.232215
20
142.726656
11
300.000000
21
135.000000
0
LINE
8
0
62
1
10
300.000000
20
135.000000
11
303.767785
21
142.726656
0
LINE
8
0
62
1
10
296.232215
20
142.726656
11
298.435655
21
134.876883
0
LINE
8
0
62
7
10
298.435655
20
134.876883
11
300.000000
21
135.000000
0
LINE
8
0
62
1
10
300.000000
20
135.000000
11
296.232215
21
142.726656
0
LINE
8
0
62
1
10
296.232215
20
142.726656
11
296.909830
21
134.510565
0
LINE
8
0
62
7
10
296.909830
20
134.510565
11
298.435655
21
134.876883
0
LINE
8
0
62
1
10
298.435655
20
134.876883
11
296.232215
21
142.726656
0
LINE
8
0
62
1
10
296.232215
20
142.726656
11
295.460095
21
133.910065
0
LINE
8
0
62
7
10
295.460095
20
133.910065
11
296.909830
21
134.510565
0
LINE
8
0
62
1
10
296.909830
20
134.510565
11
296.232215
21
142.726656
0
LINE
8
0
62
1
10
287.815552
20
136.614775
11
295.460095
21
133.910065
0
LINE
8
0
62
1
10
295.460095
20
133.910065
11
296.232215
21
142.726656
0
LINE
8
0
62
1
10
296.232215
20
142.726656
11
287.815552
21
136.614775
0
LINE
8
0
62
1
10
287.815552
20
136.614775
11
294.122147
21
133.090170
0
LINE
8
0
62
7
10
294.122147
20
133.090170
11
295.460095
21
133.910065
0
LINE
8
0
62
1
10
295.460095
20
133.910065
11
287.815552
21
136.614775
0
LINE
8
0
62
1
10
287.886099
20
100.000000
11
287.898882
21
102.273344
0
LINE
8
0
62
1
10
287.898882
20
102.273344
11
282.158141
21
106.313337
0
LINE
8
0
62
1
10
282.158141
20
106.313337
11
287.886099
21
100.000000
0
LINE
8
0
62
1
10
287.815552
20
136.614775
11
292.928932
21
132.071068
0
LINE
8
0
62
7
10
292.928932
20
132.071068
11
294.122147
21
133.090170
0
LINE
8
0
62
1
10
294.122147
20
133.090170
11
287.815552
21
136.614775
0
LINE
8
0
62
1
10
285.067512
20
129.286112
11
291.089935
21
129.539905
0
LINE
8
0
62
7
10
291.089935
20
129.539905
11
291.909830
21
130.877853
0
LINE
8
0
62
1
10
291.909830
20
130.877853
11
285.067512
21
129.286112
0
LINE
8
0
62
1
10
285.067512
20
129.286112
11
290.489435
21
128.090170
0
LINE
8
0
62
7
10
290.489435
20
128.090170
11
291.089935
21
129.539905
0
LINE
8
0
62
1
10
291.089935
20
129.539905
11
285.067512
21
129.286112
0
LINE
8
0
62
1
10
279.096169
20
128.754282
11
281.821080
21
134.593288
0
LINE
8
0
62
1
10
281.821080
20
134.593288
11
276.152325
21
135.099229
0
LINE
8
0
62
1
10
276.152325
20
135.099229
11
279.096169
21
128.754282
0
LINE
8
0
62
1
10
285.067512
20
129.286112
11
290.000000
21
125.000000
0
LINE
8
0
62
7
10
290.000000
20
125.000000
11
290.123117
21
126.564345
0
LINE
8
0
62
1
10
290.123117
20
126.564345
11
285.067512
21
129.286112
0
LINE
8
0
62
1
10
285.067512
20
129.286112
11
290.123117
21
123.435655
0
LINE
8
0
62
7
10
290.123117
20
123.435655
11
290.000000
21
125.000000
0
LINE
8
0
62
1
10
290.000000
20
125.000000
11
285.067512
21
129.286112
0
LINE
8
0
62
1
10
311.846440
20
102.250449
11
312.101118
21
102.273344
0
LINE
8
0
62
1
10
312.101118
20
102.273344
11
311.303355
21
106.820032
0
LINE
8
0
62
1
10
311.303355
20
106.820032
11
311.846440
21
102.250449
0
LINE
8
0
62
1
10
282.291521
20
123.725142
11
290.489435
21
121.909830
0
LINE
8
0
62
7
10
290.489435
20
121.909830
11
290.123117
21
123.435655
0
LINE
8
0
62
1
10
290.123117
20
123.435655
11
282.291521
21
123.725142
0
LINE
8
0
62
1
10
288.798111
20
113.465509
11
291.089935
21
120.460095
0
LINE
8
0
62
1
10
291.089935
20
120.460095
11
283.575541
21
116.666667
0
LINE
8
0
62
1
10
283.575541
20
116.666667
11
288.798111
21
113.465509
0
LINE
8
0
62
1
10
288.798111
20
113.465509
11
291.909830
21
119.122147
0
LINE
8
0
62
7
10
291.909830
20
119.122147
11
291.089935
21
120.460095
0
LINE
8
0
62
1
10
291.089935
20
120.460095
11
288.798111
21
113.465509
0
LINE
8
0
62
1
10
288.798111
20
113.465509
11
292.928932
21
117.928932
0
LINE
8
0
62
7
10
292.928932
20
117.928932
11
291.909830
21
119.122147
0
LINE
8
0
62
1
10
291.909830
20
119.122147
11
288.798111
21
113.465509
0
LINE
8
0
62
1
10
288.798111
20
113.465509
11
296.232215
21
107.273344
0
LINE
8
0
62
1
10
296.232215
20
107.273344
11
296.909830
21
115.489435
0
LINE
8
0
62
1
10
296.909830
20
115.489435
11
288.798111
21
113.465509
0
LINE
8
0
62
1
10
288.798111
20
113.465509
11
295.460095
21
116.089935
0
LINE
8
0
62
7
10
295.460095
20
116.089935
11
294.122147
21
116.909830
0
LINE
8
0
62
1
10
294.122147
20
116.909830
11
288.798111
21
113.465509
0
LINE
8
0
62
1
10
288.798111
20
113.465509
11
296.909830
21
115.489435
0
LINE
8
0
62
7
10
296.909830
20
115.489435
11
295.460095
21
116.089935
0
LINE
8
0
62
1
10
295.460095
20
116.089935
11
288.798111
21
113.465509
0
LINE
8
0
62
1
10
296.232215
20
107.273344
11
298.435655
21
115.123117
0
LINE
8
0
62
7
10
298.435655
20
115.123117
11
296.909830
21
115.489435
0
LINE
8
0
62
1
10
296.909830
20
115.489435
11
296.232215
21
107.273344
0
LINE
8
0
62
1
10
296.232215
20
107.273344
11
303.767785
21
107.273344
0
LINE
8
0
62
1
10
303.767785
20
107.273344
11
300.000000
21
115.000000
0
LINE
8
0
62
1
10
300.000000
20
115.000000
11
296.232215
21
107.273344
0
LINE
8
0
62
1
10
303.767785
20
107.273344
11
301.564345
21
115.123117
0
LINE
8
0
62
7
10
301.564345
20
115.123117
11
300.000000
21
115.000000
0
LINE
8
0
62
1
10
300.000000
20
115.000000
11
303.767785
21
107.273344
0
LINE
8
0
62
1
10
303.767785
20
107.273344
11
303.090170
21
115.489435
0
LINE
8
0
62
7
10
303.090170
20
115.489435
11
301.564345
21
115.123117
0
LINE
8
0
62
1
10
301.564345
20
115.123117
11
303.767785
21
107.273344
0
LINE
8
0
62
1
10
310.229938
20
112.566263
11
303.090170
21
115.489435
0
LINE
8
0
62
1
10
303.090170
20
115.489435
11
303.767785
21
107.273344
0
LINE
8
0
62
1
10
303.767785
20
107.273344
11
310.229938
21
112.566263
0
LINE
8
0
62
1
10
310.229938
20
112.566263
11
304.539905
21
116.089935
0
LINE
8
0
62
7
10
304.539905
20
116.089935
11
303.090170
21
115.489435
0
LINE
8
0
62
1
10
303.090170
20
115.489435
11
310.229938
21
112.566263
0
LINE
8
0
62
1
10
310.229938
20
112.566263
11
305.877853
21
116.909830
0
LINE
8
0
62
7
10
305.877853
20
116.909830
11
304.539905
21
116.089935
0
LINE
8
0
62
1
10
304.539905
20
116.089935
11
310.229938
21
112.566263
0
LINE
8
0
62
1
10
310.229938
20
112.566263
11
307.071068
21
117.928932
0
LINE
8
0
62
7
10
307.071068
20
117.928932
11
305.877853
21
116.909830
0
LINE
8
0
62
1
10
305.877853
20
116.909830
11
310.229938
21
112.566263
0
LINE
8
0
62
1
10
323.650626
20
121.878870
11
314.624645
21
121.074826
0
LINE
8
0
62
1
10
314.624645
20
121.074826
11
323.725744
21
115.636610
0
LINE
8
0
62
1
10
323.725744
20
115.636610
11
323.650626
21
121.878870
0
LINE
8
0
62
1
10
314.624645
20
121.074826
11
308.090170
21
119.122147
0
LINE
8
0
62
1
10
308.090170
20
119.122147
11
314.846555
21
114.788824
0
LINE
8
0
62
1
10
314.846555
20
114.788824
11
314.624645
21
121.074826
0
LINE
8
0
62
1
10
112.632961
20
102.945922
11
100.000000
21
100.000000
0
LINE
8
0
62
7
10
100.000000
20
100.000000
11
125.000000
21
100.000000
0
LINE
8
0
62
1
10
125.000000
20
100.000000
11
112.632961
21
102.945922
0
LINE
8
0
62
1
10
130.951008
20
132.129614
11
126.595527
21
135.351069
0
LINE
8
0
62
1
10
126.595527
20
135.351069
11
123.763045
21
129.120580
0
LINE
8
0
62
1
10
123.763045
20
129.120580
11
130.951008
21
132.129614
0
LINE
8
0
62
1
10
337.411765
20
150.000000
11
337.407407
21
147.222222
0
LINE
8
0
62
1
10
337.407407
20
147.222222
11
343.888889
21
145.370370
0
LINE
8
0
62
1
10
343.888889
20
145.370370
11
337.411765
21
150.000000
0
LINE
8
0
62
1
10
314.624645
20
121.074826
11
319.150496
21
125.000000
0
LINE
8
0
62
1
10
319.150496
20
125.000000
11
314.624645
21
128.925174
0
LINE
8
0
62
1
10
314.624645
20
128.925174
11
314.624645
21
121.074826
0
LINE
8
0
62
1
10
280.073281
20
111.232507
11
272.029978
21
118.179968
0
LINE
8
0
62
1
10
272.029978
20
118.179968
11
274.486160
21
110.717518
0
LINE
8
0
62
1
10
274.486160
20
110.717518
11
280.073281
21
111.232507
0
LINE
8
0
62
1
10
265.016655
20
121.211094
11
273.175906
21
127.944415
0
LINE
8
0
62
1
10
273.175906
20
127.944415
11
265.676659
21
131.059989
0
LINE
8
0
62
1
10
265.676659
20
131.059989
11
265.016655
21
121.211094
0
LINE
8
0
62
1
10
200.000000
20
138.159179
11
198.497942
21
138.168724
0
LINE
8
0
62
1
10
198.497942
20
138.168724
11
193.312757
21
131.687243
0
LINE
8
0
62
1
10
193.312757
20
131.687243
11
200.000000
21
138.159179
0
LINE
8
0
62
1
10
165.598390
20
121.906535
11
159.510565
21
121.909830
0
LINE
8
0
62
7
10
159.510565
20
121.909830
11
158.910065
21
120.460095
0
LINE
8
0
62
1
10
158.910065
20
120.460095
11
165.598390
21
121.906535
0
LINE
8
0
62
1
10
162.113901
20
150.000000
11
169.696064
21
143.292818
0
LINE
8
0
62
1
10
169.696064
20
143.292818
11
175.000000
21
150.000000
0
LINE
8
0
62
7
10
175.000000
20
150.000000
11
162.113901
21
150.000000
0
LINE
8
0
62
1
10
177.716834
20
124.447980
11
185.185185
21
120.370370
0
LINE
8
0
62
1
10
185.185185
20
120.370370
11
184.444444
21
130.555556
0
LINE
8
0
62
1
10
184.444444
20
130.555556
11
177.716834
21
124.447980
0
LINE
8
0
62
1
10
247.112221
20
117.339999
11
257.453327
21
120.201472
0
LINE
8
0
62
1
10
257.453327
20
120.201472
11
250.000000
21
125.000000
0
LINE
8
0
62
1
10
250.000000
20
125.000000
11
247.112221
21
117.339999
0
LINE
8
0
62
1
10
282.291521
20
123.725142
11
283.575541
21
116.666667
0
LINE
8
0
62
1
10
283.575541
20
116.666667
11
290.489435
21
121.909830
0
LINE
8
0
62
1
10
290.489435
20
121.909830
11
282.291521
21
123.725142
0
LINE
8
0
62
1
10
104.439948
20
118.470650
11
109.350218
21
118.038624
0
LINE
8
0
62
1
10
109.350218
20
118.038624
11
104.565548
21
125.504434
0
LINE
8
0
62
1
10
104.565548
20
125.504434
11
104.439948
21
118.470650
0
LINE
8
0
62
1
10
112.885708
20
135.754632
11
117.730351
21
134.678490
0
LINE
8
0
62
1
10
117.730351
20
134.678490
11
112.898882
21
142.171101
0
LINE
8
0
62
1
10
112.898882
20
142.171101
11
112.885708
21
135.754632
0
LINE
8
0
62
1
10
345.631818
20
131.828274
11
340.784342
21
132.521858
0
LINE
8
0
62
1
10
340.784342
20
132.521858
11
345.555556
21
125.000000
0
LINE
8
0
62
1
10
345.555556
20
125.000000
11
345.631818
21
131.828274
0
LINE
8
0
62
1
10
345.631818
20
118.171726
11
344.259259
21
111.111111
0
LINE
8
0
62
1
10
344.259259
20
111.111111
11
347.592593
21
112.037037
0
LINE
8
0
62
1
10
347.592593
20
112.037037
11
345.631818
21
118.171726
0
LINE
8
0
62
1
10
119.688125
20
103.757398
11
112.898882
21
108.837767
0
LINE
8
0
62
1
10
112.898882
20
108.837767
11
112.632961
21
102.945922
0
LINE
8
0
62
1
10
112.632961
20
102.945922
11
119.688125
21
103.757398
0
LINE
8
0
62
1
10
104.439948
20
118.470650
11
104.565548
21
125.504434
0
LINE
8
0
62
1
10
104.565548
20
125.504434
11
101.521849
21
125.168145
0
LINE
8
0
62
1
10
101.521849
20
125.168145
11
104.439948
21
118.470650
0
LINE
8
0
62
1
10
130.862045
20
118.865128
11
140.123117
21
123.435655
0
LINE
8
0
62
1
10
140.123117
20
123.435655
11
130.996962
21
125.497371
0
LINE
8
0
62
1
10
130.996962
20
125.497371
11
130.862045
21
118.865128
0
LINE
8
0
62
1
10
109.350218
20
118.038624
11
113.696645
21
126.513302
0
LINE
8
0
62
1
10
113.696645
20
126.513302
11
104.565548
21
125.504434
0
LINE
8
0
62
1
10
104.565548
20
125.504434
11
109.350218
21
118.038624
0
LINE
8
0
62
1
10
314.624645
20
128.925174
11
309.876883
21
126.564345
0
LINE
8
0
62
7
10
309.876883
20
126.564345
11
310.000000
21
125.000000
0
LINE
8
0
62
1
10
310.000000
20
125.000000
11
314.624645
21
128.925174
0
LINE
8
0
62
1
10
323.650626
20
128.121130
11
323.725744
21
134.363390
0
LINE
8
0
62
1
10
323.725744
20
134.363390
11
314.624645
21
128.925174
0
LINE
8
0
62
1
10
314.624645
20
128.925174
11
323.650626
21
128.121130
0
LINE
8
0
62
1
10
328.649322
20
107.989981
11
323.725744
21
115.636610
0
LINE
8
0
62
1
10
323.725744
20
115.636610
11
320.009700
21
107.485547
0
LINE
8
0
62
1
10
320.009700
20
107.485547
11
328.649322
21
107.989981
0
LINE
8
0
62
1
10
323.650626
20
121.878870
11
319.150496
21
125.000000
0
LINE
8
0
62
1
10
319.150496
20
125.000000
11
314.624645
21
121.074826
0
LINE
8
0
62
1
10
314.624645
20
121.074826
11
323.650626
21
121.878870
0
LINE
8
0
62
1
10
198.292181
20
119.855967
11
202.222222
21
114.814815
0
LINE
8
0
62
1
10
202.222222
20
114.814815
11
205.370370
21
120.679012
0
LINE
8
0
62
1
10
205.370370
20
120.679012
11
198.292181
21
119.855967
0
LINE
8
0
62
1
10
217.901235
20
109.567901
11
216.666667
21
116.666667
0
LINE
8
0
62
1
10
216.666667
20
116.666667
11
210.925926
21
112.345679
0
LINE
8
0
62
1
10
210.925926
20
112.345679
11
217.901235
21
109.567901
0
LINE
8
0
62
1
10
224.074074
20
118.518519
11
225.000000
21
125.000000
0
LINE
8
0
62
1
10
225.000000
20
125.000000
11
213.888889
21
122.222222
0
LINE
8
0
62
1
10
213.888889
20
122.222222
11
224.074074
21
118.518519
0
LINE
8
0
62
1
10
243.408518
20
110.858517
11
241.666667
21
116.666667
0
LINE
8
0
62
1
10
241.666667
20
116.666667
11
237.037037
21
112.037037
0
LINE
8
0
62
1
10
237.037037
20
112.037037
11
243.408518
21
110.858517
0
LINE
8
0
62
1
10
347.644348
20
111.666869
11
344.259259
21
111.111111
0
LINE
8
0
62
1
10
344.259259
20
111.111111
11
343.888889
21
104.629630
0
LINE
8
0
62
1
10
343.888889
20
104.629630
11
347.644348
21
111.666869
0
LINE
8
0
62
1
10
328.075639
20
125.000000
11
336.666667
21
125.000000
0
LINE
8
0
62
1
10
336.666667
20
125.000000
11
332.538211
21
133.676686
0
LINE
8
0
62
1
10
332.538211
20
133.676686
11
328.075639
21
125.000000
0
LINE
8
0
62
1
10
328.649322
20
142.010019
11
325.000000
21
150.000000
0
LINE
8
0
62
1
10
325.000000
20
150.000000
11
320.009700
21
142.514453
0
LINE
8
0
62
1
10
320.009700
20
142.514453
11
328.649322
21
142.010019
0
LINE
8
0
62
1
10
345.631818
20
131.828274
11
345.555556
21
125.000000
0
LINE
8
0
62
1
10
345.555556
20
125.000000
11
348.518519
21
125.000000
0
LINE
8
0
62
1
10
348.518519
20
125.000000
11
345.631818
21
131.828274
0
LINE
8
0
62
1
10
121.498136
20
142.507390
11
126.595527
21
135.351069
0
LINE
8
0
62
1
10
126.595527
20
135.351069
11
130.097390
21
142.843679
0
LINE
8
0
62
1
10
130.097390
20
142.843679
11
121.498136
21
142.507390
0
LINE
8
0
62
1
10
122.607344
20
120.808554
11
117.663629
21
117.164038
0
LINE
8
0
62
1
10
117.663629
20
117.164038
11
126.395360
21
116.141044
0
LINE
8
0
62
1
10
126.395360
20
116.141044
11
122.607344
21
120.808554
0
LINE
8
0
62
1
10
102.377196
20
138.565733
11
105.821477
21
139.225178
0
LINE
8
0
62
1
10
105.821477
20
139.225178
11
106.151479
21
145.538515
0
LINE
8
0
62
1
10
106.151479
20
145.538515
11
102.377196
21
138.565733
0
LINE
8
0
62
1
10
123.763045
20
129.120580
11
117.730351
21
134.678490
0
LINE
8
0
62
1
10
117.730351
20
134.678490
11
113.696645
21
126.513302
0
LINE
8
0
62
1
10
113.696645
20
126.513302
11
123.763045
21
129.120580
0
LINE
8
0
62
1
10
261.566562
20
101.535560
11
261.927036
21
101.599258
0
LINE
8
0
62
1
10
261.927036
20
101.599258
11
260.781109
21
104.797774
0
LINE
8
0
62
1
10
260.781109
20
104.797774
11
261.566562
21
101.535560
0
LINE
8
0
62
1
10
265.016655
20
121.211094
11
272.029978
21
118.179968
0
LINE
8
0
62
1
10
272.029978
20
118.179968
11
273.175906
21
127.944415
0
LINE
8
0
62
1
10
273.175906
20
127.944415
11
265.016655
21
121.211094
0
LINE
8
0
62
1
10
190.137174
20
127.331962
11
193.312757
21
131.687243
0
LINE
8
0
62
1
10
193.312757
20
131.687243
11
188.079561
21
135.253772
0
LINE
8
0
62
1
10
188.079561
20
135.253772
11
190.137174
21
127.331962
0
LINE
8
0
62
1
10
170.040348
20
110.759211
11
166.545563
21
116.162233
0
LINE
8
0
62
1
10
166.545563
20
116.162233
11
161.242257
21
113.297365
0
LINE
8
0
62
1
10
161.242257
20
113.297365
11
170.040348
21
110.759211
0
LINE
8
0
62
1
10
153.767785
20
142.726656
11
150.000000
21
150.000000
0
LINE
8
0
62
1
10
150.000000
20
150.000000
11
146.232215
21
142.726656
0
LINE
8
0
62
1
10
146.232215
20
142.726656
11
153.767785
21
142.726656
0
LINE
8
0
62
1
10
159.575426
20
138.054440
11
161.303355
21
143.179968
0
LINE
8
0
62
1
10
161.303355
20
143.179968
11
153.767785
21
142.726656
0
LINE
8
0
62
1
10
153.767785
20
142.726656
11
159.575426
21
138.054440
0
LINE
8
0
62
1
10
270.437650
20
146.885179
11
273.459989
21
142.759984
0
LINE
8
0
62
1
10
273.459989
20
142.759984
11
275.000000
21
150.000000
0
LINE
8
0
62
1
10
275.000000
20
150.000000
11
270.437650
21
146.885179
0
LINE
8
0
62
1
10
287.815552
20
136.614775
11
291.909830
21
130.877853
0
LINE
8
0
62
7
10
291.909830
20
130.877853
11
292.928932
21
132.071068
0
LINE
8
0
62
1
10
292.928932
20
132.071068
11
287.815552
21
136.614775
0
LINE
8
0
62
1
10
303.767785
20
142.726656
11
300.000000
21
150.000000
0
LINE
8
0
62
1
10
300.000000
20
150.000000
11
296.232215
21
142.726656
0
LINE
8
0
62
1
10
296.232215
20
142.726656
11
303.767785
21
142.726656
0
LINE
8
0
62
1
10
314.624645
20
128.925174
11
308.910065
21
129.539905
0
LINE
8
0
62
7
10
308.910065
20
129.539905
11
309.510565
21
128.090170
0
LINE
8
0
62
1
10
309.510565
20
128.090170
11
314.624645
21
128.925174
0
LINE
8
0
62
1
10
121.498136
20
142.507390
11
130.097390
21
142.843679
0
LINE
8
0
62
1
10
130.097390
20
142.843679
11
125.000000
21
150.000000
0
LINE
8
0
62
1
10
125.000000
20
150.000000
11
121.498136
21
142.507390
0
LINE
8
0
62
1
10
139.805758
20
137.543479
11
141.909830
21
130.877853
0
LINE
8
0
62
7
10
141.909830
20
130.877853
11
142.928932
21
132.071068
0
LINE
8
0
62
1
10
142.928932
20
132.071068
11
139.805758
21
137.543479
0
LINE
8
0
62
1
10
146.232215
20
107.273344
11
150.000000
21
100.000000
0
LINE
8
0
62
1
10
150.000000
20
100.000000
11
153.767785
21
107.273344
0
LINE
8
0
62
1
10
153.767785
20
107.273344
11
146.232215
21
107.273344
0
LINE
8
0
62
1
10
135.193813
20
114.956969
11
141.089935
21
120.460095
0
LINE
8
0
62
7
10
141.089935
20
120.460095
11
140.489435
21
121.909830
0
LINE
8
0
62
1
10
140.489435
20
121.909830
11
135.193813
21
114.956969
0
LINE
8
0
62
1
10
175.693253
20
109.970208
11
180.864198
21
107.098765
0
LINE
8
0
62
1
10
180.864198
20
107.098765
11
178.333333
21
116.666667
0
LINE
8
0
62
1
10
178.333333
20
116.666667
11
175.693253
21
109.970208
0
LINE
8
0
62
1
10
161.242257
20
113.297365
11
158.090170
21
119.122147
0
LINE
8
0
62
7
10
158.090170
20
119.122147
11
157.071068
21
117.928932
0
LINE
8
0
62
1
10
157.071068
20
117.928932
11
161.242257
21
113.297365
0
LINE
8
0
62
1
10
296.232215
20
107.273344
11
300.000000
21
100.000000
0
LINE
8
0
62
1
10
300.000000
20
100.000000
11
303.767785
21
107.273344
0
LINE
8
0
62
1
10
303.767785
20
107.273344
11
296.232215
21
107.273344
0
LINE
8
0
62
1
10
283.575541
20
116.666667
11
291.089935
21
120.460095
0
LINE
8
0
62
7
10
291.089935
20
120.460095
11
290.489435
21
121.909830
0
LINE
8
0
62
1
10
290.489435
20
121.909830
11
283.575541
21
116.666667
0
LINE
8
0
62
1
10
328.649322
20
107.989981
11
320.009700
21
107.485547
0
LINE
8
0
62
1
10
320.009700
20
107.485547
11
325.000000
21
100.000000
0
LINE
8
0
62
1
10
325.000000
20
100.000000
11
328.649322
21
107.989981
0
LINE
8
0
62
1
10
310.229938
20
112.566263
11
308.090170
21
119.122147
0
LINE
8
0
62
7
10
308.090170
20
119.122147
11
307.071068
21
117.928932
0
LINE
8
0
62
1
10
307.071068
20
117.928932
11
310.229938
21
112.566263
0
LINE
8
0
62
1
10
164.860786
20
129.719616
11
159.510565
21
128.090170
0
LINE
8
0
62
7
10
159.510565
20
128.090170
11
159.876883
21
126.564345
0
LINE
8
0
62
1
10
159.876883
20
126.564345
11
164.860786
21
129.719616
0
LINE
8
0
62
1
10
181.494568
20
136.408927
11
188.079561
21
135.253772
0
LINE
8
0
62
1
10
188.079561
20
135.253772
11
186.481481
21
143.518519
0
LINE
8
0
62
1
10
186.481481
20
143.518519
11
181.494568
21
136.408927
0
LINE
8
0
62
1
10
178.088773
20
143.405668
11
175.000000
21
150.000000
0
LINE
8
0
62
1
10
175.000000
20
150.000000
11
169.696064
21
143.292818
0
LINE
8
0
62
1
10
169.696064
20
143.292818
11
178.088773
21
143.405668
0
LINE
8
0
62
1
10
190.137174
20
127.331962
11
185.185185
21
120.370370
0
LINE
8
0
62
1
10
185.185185
20
120.370370
11
192.654321
21
119.753086
0
LINE
8
0
62
1
10
192.654321
20
119.753086
11
190.137174
21
127.331962
0
LINE
8
0
62
1
10
251.413131
20
138.610479
11
251.506543
21
138.187407
0
LINE
8
0
62
1
10
251.506543
20
138.187407
11
254.519629
21
139.562221
0
LINE
8
0
62
1
10
254.519629
20
139.562221
11
251.413131
21
138.610479
0
LINE
8
0
62
1
10
276.152325
20
135.099229
11
265.676659
21
131.059989
0
LINE
8
0
62
1
10
265.676659
20
131.059989
11
273.175906
21
127.944415
0
LINE
8
0
62
1
10
273.175906
20
127.944415
11
276.152325
21
135.099229
0
LINE
8
0
62
1
10
225.925926
20
112.962963
11
231.481481
21
106.481481
0
LINE
8
0
62
1
10
231.481481
20
106.481481
11
230.555556
21
113.888889
0
LINE
8
0
62
1
10
230.555556
20
113.888889
11
225.925926
21
112.962963
0
LINE
8
0
62
1
10
237.037037
20
112.037037
11
238.888889
21
122.222222
0
LINE
8
0
62
1
10
238.888889
20
122.222222
11
231.481481
21
120.370370
0
LINE
8
0
62
1
10
231.481481
20
120.370370
11
237.037037
21
112.037037
0
LINE
8
0
62
1
10
238.258699
20
101.814638
11
237.962963
21
101.851852
0
LINE
8
0
62
1
10
237.962963
20
101.851852
11
237.953007
21
100.000000
0
LINE
8
0
62
1
10
237.953007
20
100.000000
11
238.258699
21
101.814638
0
LINE
8
0
62
1
10
237.037037
20
112.037037
11
241.666667
21
116.666667
0
LINE
8
0
62
1
10
241.666667
20
116.666667
11
238.888889
21
122.222222
0
LINE
8
0
62
1
10
238.888889
20
122.222222
11
237.037037
21
112.037037
0
LINE
8
0
62
1
10
231.481481
20
106.481481
11
223.148148
21
106.481481
0
LINE
8
0
62
1
10
223.148148
20
106.481481
11
225.000000
21
100.000000
0
LINE
8
0
62
1
10
225.000000
20
100.000000
11
231.481481
21
106.481481
0
LINE
8
0
62
1
10
205.370370
20
120.679012
11
210.925926
21
112.345679
0
LINE
8
0
62
1
10
210.925926
20
112.345679
11
213.888889
21
122.222222
0
LINE
8
0
62
1
10
213.888889
20
122.222222
11
205.370370
21
120.679012
0
LINE
8
0
62
1
10
274.486160
20
110.717518
11
275.000000
21
100.000000
0
LINE
8
0
62
1
10
275.000000
20
100.000000
11
282.158141
21
106.313337
0
LINE
8
0
62
1
10
282.158141
20
106.313337
11
274.486160
21
110.717518
0
LINE
8
0
62
1
10
253.483702
20
105.050368
11
257.343326
21
114.393323
0
LINE
8
0
62
1
10
257.343326
20
114.393323
11
249.669998
21
110.353330
0
LINE
8
0
62
1
10
249.669998
20
110.353330
11
253.483702
21
105.050368
0
LINE
8
0
62
1
10
199.382716
20
106.893004
11
189.259259
21
104.629630
0
LINE
8
0
62
1
10
189.259259
20
104.629630
11
200.000000
21
100.000000
0
LINE
8
0
62
1
10
200.000000
20
100.000000
11
199.382716
21
106.893004
0
LINE
8
0
62
1
10
186.275720
20
113.786008
11
180.864198
21
107.098765
0
LINE
8
0
62
1
10
180.864198
20
107.098765
11
189.259259
21
104.629630
0
LINE
8
0
62
1
10
189.259259
20
104.629630
11
186.275720
21
113.786008
0
LINE
8
0
62
1
10
285.067512
20
129.286112
11
291.909830
21
130.877853
0
LINE
8
0
62
1
10
291.909830
20
130.877853
11
287.815552
21
136.614775
0
LINE
8
0
62
1
10
287.815552
20
136.614775
11
285.067512
21
129.286112
0
LINE
8
0
62
1
10
276.152325
20
135.099229
11
281.059983
21
141.693309
0
LINE
8
0
62
1
10
281.059983
20
141.693309
11
273.459989
21
142.759984
0
LINE
8
0
62
1
10
273.459989
20
142.759984
11
276.152325
21
135.099229
0
LINE
8
0
62
1
10
259.734026
20
124.428879
11
250.000000
21
125.000000
0
LINE
8
0
62
1
10
250.000000
20
125.000000
11
257.453327
21
120.201472
0
LINE
8
0
62
1
10
257.453327
20
120.201472
11
259.734026
21
124.428879
0
LINE
8
0
62
1
10
255.790864
20
145.819258
11
263.558886
21
143.686663
0
LINE
8
0
62
1
10
263.558886
20
143.686663
11
262.852962
21
147.895554
0
LINE
8
0
62
1
10
262.852962
20
147.895554
11
255.790864
21
145.819258
0
LINE
8
0
62
1
10
198.587056
20
138.581539
11
198.497942
21
138.168724
0
LINE
8
0
62
1
10
198.497942
20
138.168724
11
200.000000
21
138.159179
0
LINE
8
0
62
1
10
200.000000
20
138.159179
11
198.587056
21
138.581539
0
LINE
8
0
62
1
10
181.494568
20
136.408927
11
186.481481
21
143.518519
0
LINE
8
0
62
1
10
186.481481
20
143.518519
11
178.088773
21
143.405668
0
LINE
8
0
62
1
10
178.088773
20
143.405668
11
181.494568
21
136.408927
0
LINE
8
0
62
1
10
165.598390
20
121.906535
11
159.876883
21
123.435655
0
LINE
8
0
62
7
10
159.876883
20
123.435655
11
159.510565
21
121.909830
0
LINE
8
0
62
1
10
159.510565
20
121.909830
11
165.598390
21
121.906535
0
LINE
8
0
62
1
10
167.882227
20
106.145192
11
161.303355
21
106.820032
0
LINE
8
0
62
1
10
161.303355
20
106.820032
11
162.101118
21
102.273344
0
LINE
8
0
62
1
10
162.101118
20
102.273344
11
167.882227
21
106.145192
0
LINE
8
0
62
1
10
177.716834
20
124.447980
11
178.333333
21
116.666667
0
LINE
8
0
62
1
10
178.333333
20
116.666667
11
185.185185
21
120.370370
0
LINE
8
0
62
1
10
185.185185
20
120.370370
11
177.716834
21
124.447980
0
LINE
8
0
62
1
10
164.860786
20
129.719616
11
172.784837
21
136.698487
0
LINE
8
0
62
1
10
172.784837
20
136.698487
11
164.332752
21
136.472787
0
LINE
8
0
62
1
10
164.332752
20
136.472787
11
164.860786
21
129.719616
0
LINE
8
0
62
1
10
274.486160
20
110.717518
11
272.029978
21
118.179968
0
LINE
8
0
62
1
10
272.029978
20
118.179968
11
269.270362
21
107.659248
0
LINE
8
0
62
1
10
269.270362
20
107.659248
11
274.486160
21
110.717518
0
LINE
8
0
62
1
10
288.798111
20
113.465509
11
288.696645
21
106.820032
0
LINE
8
0
62
1
10
288.696645
20
106.820032
11
296.232215
21
107.273344
0
LINE
8
0
62
1
10
296.232215
20
107.273344
11
288.798111
21
113.465509
0
LINE
8
0
62
1
10
193.806584
20
108.470508
11
192.777778
21
113.888889
0
LINE
8
0
62
1
10
192.777778
20
113.888889
11
186.275720
21
113.786008
0
LINE
8
0
62
1
10
186.275720
20
113.786008
11
193.806584
21
108.470508
0
LINE
8
0
62
1
10
217.901235
20
109.567901
11
210.925926
21
112.345679
0
LINE
8
0
62
1
10
210.925926
20
112.345679
11
213.888889
21
105.555556
0
LINE
8
0
62
1
10
213.888889
20
105.555556
11
217.901235
21
109.567901
0
LINE
8
0
62
1
10
102.412957
20
111.899175
11
102.447775
21
112.205182
0
LINE
8
0
62
1
10
102.447775
20
112.205182
11
100.000000
21
112.218996
0
LINE
8
0
62
1
10
100.000000
20
112.218996
11
102.412957
21
111.899175
0
LINE
8
0
62
1
10
109.350218
20
118.038624
11
112.898882
21
108.837767
0
LINE
8
0
62
1
10
112.898882
20
108.837767
11
117.663629
21
117.164038
0
LINE
8
0
62
1
10
117.663629
20
117.164038
11
109.350218
21
118.038624
0
LINE
8
0
62
1
10
340.784342
20
117.478142
11
336.666667
21
125.000000
0
LINE
8
0
62
1
10
336.666667
20
125.000000
11
332.538211
21
116.323314
0
LINE
8
0
62
1
10
332.538211
20
116.323314
11
340.784342
21
117.478142
0
LINE
8
0
62
1
10
343.888889
20
104.629630
11
337.222222
21
108.333333
0
LINE
8
0
62
1
10
337.222222
20
108.333333
11
337.407407
21
102.777778
0
LINE
8
0
62
1
10
337.407407
20
102.777778
11
343.888889
21
104.629630
0
LINE
8
0
62
1
10
347.644348
20
138.333131
11
347.592593
21
137.962963
0
LINE
8
0
62
1
10
347.592593
20
137.962963
11
350.000000
21
137.946384
0
LINE
8
0
62
1
10
350.000000
20
137.946384
11
347.644348
21
138.333131
0
LINE
8
0
62
1
10
340.784342
20
132.521858
11
337.222222
21
141.666667
0
LINE
8
0
62
1
10
337.222222
20
141.666667
11
332.538211
21
133.676686
0
LINE
8
0
62
1
10
332.538211
20
133.676686
11
340.784342
21
132.521858
0
LINE
8
0
62
1
10
108.027890
20
130.414305
11
104.565548
21
125.504434
0
LINE
8
0
62
1
10
104.565548
20
125.504434
11
113.696645
21
126.513302
0
LINE
8
0
62
1
10
113.696645
20
126.513302
11
108.027890
21
130.414305
0
LINE
8
0
62
1
10
106.151479
20
145.538515
11
112.898882
21
142.171101
0
LINE
8
0
62
1
10
112.898882
20
142.171101
11
112.632961
21
147.390367
0
LINE
8
0
62
1
10
112.632961
20
147.390367
11
106.151479
21
145.538515
0
LINE
8
0
62
1
10
130.996962
20
125.497371
11
140.000000
21
125.000000
0
LINE
8
0
62
7
10
140.000000
20
125.000000
11
140.123117
21
126.564345
0
LINE
8
0
62
1
10
140.123117
20
126.564345
11
130.996962
21
125.497371
0
LINE
8
0
62
1
10
123.763045
20
129.120580
11
126.595527
21
135.351069
0
LINE
8
0
62
1
10
126.595527
20
135.351069
11
117.730351
21
134.678490
0
LINE
8
0
62
1
10
117.730351
20
134.678490
11
123.763045
21
129.120580
0
LINE
8
0
62
1
10
314.624645
20
121.074826
11
314.624645
21
128.925174
0
LINE
8
0
62
1
10
314.624645
20
128.925174
11
310.000000
21
125.000000
0
LINE
8
0
62
1
10
310.000000
20
125.000000
11
314.624645
21
121.074826
0
LINE
8
0
62
1
10
328.075639
20
125.000000
11
323.725744
21
115.636610
0
LINE
8
0
62
1
10
323.725744
20
115.636610
11
332.538211
21
116.323314
0
LINE
8
0
62
1
10
332.538211
20
116.323314
11
328.075639
21
125.000000
0
LINE
8
0
62
1
10
263.876781
20
114.421221
11
272.029978
21
118.179968
0
LINE
8
0
62
1
10
272.029978
20
118.179968
11
265.016655
21
121.211094
0
LINE
8
0
62
1
10
265.016655
20
121.211094
11
263.876781
21
114.421221
0
LINE
8
0
62
1
10
268.732466
20
103.086169
11
260.781109
21
104.797774
0
LINE
8
0
62
1
10
260.781109
20
104.797774
11
261.927036
21
101.599258
0
LINE
8
0
62
1
10
261.927036
20
101.599258
11
268.732466
21
103.086169
0
LINE
8
0
62
1
10
261.936283
20
100.000000
11
253.483702
21
105.050368
0
LINE
8
0
62
1
10
253.483702
20
105.050368
11
250.000000
21
100.000000
0
LINE
8
0
62
7
10
250.000000
20
100.000000
11
261.936283
21
100.000000
0
LINE
8
0
62
1
10
247.112221
20
117.339999
11
257.343326
21
114.393323
0
LINE
8
0
62
1
10
257.343326
20
114.393323
11
257.453327
21
120.201472
0
LINE
8
0
62
1
10
257.453327
20
120.201472
11
247.112221
21
117.339999
0
LINE
8
0
62
1
10
121.431414
20
108.326270
11
117.663629
21
117.164038
0
LINE
8
0
62
1
10
117.663629
20
117.164038
11
112.898882
21
108.837767
0
LINE
8
0
62
1
10
112.898882
20
108.837767
11
121.431414
21
108.326270
0
LINE
8
0
62
1
10
122.607344
20
120.808554
11
130.996962
21
125.497371
0
LINE
8
0
62
1
10
130.996962
20
125.497371
11
123.763045
21
129.120580
0
LINE
8
0
62
1
10
123.763045
20
129.120580
11
122.607344
21
120.808554
0
LINE
8
0
62
1
10
275.832468
20
123.283175
11
283.575541
21
116.666667
0
LINE
8
0
62
1
10
283.575541
20
116.666667
11
282.291521
21
123.725142
0
LINE
8
0
62
1
10
282.291521
20
123.725142
11
275.832468
21
123.283175
0
LINE
8
0
62
1
10
279.096169
20
128.754282
11
276.152325
21
135.099229
0
LINE
8
0
62
1
10
276.152325
20
135.099229
11
273.175906
21
127.944415
0
LINE
8
0
62
1
10
273.175906
20
127.944415
11
279.096169
21
128.754282
0
LINE
8
0
62
1
10
102.412957
20
111.899175
11
100.000000
21
112.218996
0
LINE
8
0
62
1
10
100.000000
20
112.218996
11
106.151479
21
104.797774
0
LINE
8
0
62
1
10
106.151479
20
104.797774
11
102.412957
21
111.899175
0
LINE
8
0
62
1
10
100.000000
20
138.110594
11
108.027890
21
130.414305
0
LINE
8
0
62
1
10
108.027890
20
130.414305
11
102.447775
21
138.131108
0
LINE
8
0
62
1
10
102.447775
20
138.131108
11
100.000000
21
138.110594
0
LINE
8
0
62
1
10
181.316872
20
102.880658
11
180.864198
21
107.098765
0
LINE
8
0
62
1
10
180.864198
20
107.098765
11
175.693253
21
109.970208
0
LINE
8
0
62
1
10
175.693253
20
109.970208
11
181.316872
21
102.880658
0
LINE
8
0
62
1
10
193.806584
20
108.470508
11
186.275720
21
113.786008
0
LINE
8
0
62
1
10
186.275720
20
113.786008
11
189.259259
21
104.629630
0
LINE
8
0
62
1
10
189.259259
20
104.629630
11
193.806584
21
108.470508
0
LINE
8
0
62
1
10
347.644348
20
138.333131
11
350.000000
21
137.946384
0
LINE
8
0
62
1
10
350.000000
20
137.946384
11
343.888889
21
145.370370
0
LINE
8
0
62
1
10
343.888889
20
145.370370
11
347.644348
21
138.333131
0
LINE
8
0
62
1
10
345.631818
20
118.171726
11
345.555556
21
125.000000
0
LINE
8
0
62
1
10
345.555556
20
125.000000
11
340.784342
21
117.478142
0
LINE
8
0
62
1
10
340.784342
20
117.478142
11
345.631818
21
118.171726
0
LINE
8
0
62
1
10
119.688125
20
103.757398
11
112.632961
21
102.945922
0
LINE
8
0
62
1
10
112.632961
20
102.945922
11
125.000000
21
100.000000
0
LINE
8
0
62
1
10
125.000000
20
100.000000
11
119.688125
21
103.757398
0
LINE
8
0
62
1
10
106.151479
20
104.797774
11
112.898882
21
108.837767
0
LINE
8
0
62
1
10
112.898882
20
108.837767
11
105.821477
21
111.447400
0
LINE
8
0
62
1
10
105.821477
20
111.447400
11
106.151479
21
104.797774
0
LINE
8
0
62
1
10
328.649322
20
107.989981
11
332.538211
21
116.323314
0
LINE
8
0
62
1
10
332.538211
20
116.323314
11
323.725744
21
115.636610
0
LINE
8
0
62
1
10
323.725744
20
115.636610
11
328.649322
21
107.989981
0
LINE
8
0
62
1
10
340.784342
20
117.478142
11
337.222222
21
108.333333
0
LINE
8
0
62
1
10
337.222222
20
108.333333
11
344.259259
21
111.111111
0
LINE
8
0
62
1
10
344.259259
20
111.111111
11
340.784342
21
117.478142
0
LINE
8
0
62
1
10
340.784342
20
132.521858
11
336.666667
21
125.000000
0
LINE
8
0
62
1
10
336.666667
20
125.000000
11
345.555556
21
125.000000
0
LINE
8
0
62
1
10
345.555556
20
125.000000
11
340.784342
21
132.521858
0
LINE
8
0
62
1
10
328.649322
20
142.010019
11
332.538211
21
133.676686
0
LINE
8
0
62
1
10
332.538211
20
133.676686
11
337.222222
21
141.666667
0
LINE
8
0
62
1
10
337.222222
20
141.666667
11
328.649322
21
142.010019
0
LINE
8
0
62
1
10
328.075639
20
125.000000
11
332.538211
21
116.323314
0
LINE
8
0
62
1
10
332.538211
20
116.323314
11
336.666667
21
125.000000
0
LINE
8
0
62
1
10
336.666667
20
125.000000
11
328.075639
21
125.000000
0
LINE
8
0
62
1
10
328.075639
20
125.000000
11
332.538211
21
133.676686
0
LINE
8
0
62
1
10
332.538211
20
133.676686
11
323.725744
21
134.363390
0
LINE
8
0
62
1
10
323.725744
20
134.363390
11
328.075639
21
125.000000
0
LINE
8
0
62
1
10
261.989214
20
135.540241
11
267.565178
21
139.168879
0
LINE
8
0
62
1
10
267.565178
20
139.168879
11
263.558886
21
143.686663
0
LINE
8
0
62
1
10
263.558886
20
143.686663
11
261.989214
21
135.540241
0
LINE
8
0
62
1
10
281.319622
20
146.473322
11
288.696645
21
143.179968
0
LINE
8
0
62
1
10
288.696645
20
143.179968
11
287.898882
21
147.726656
0
LINE
8
0
62
1
10
287.898882
20
147.726656
11
281.319622
21
146.473322
0
LINE
8
0
62
1
10
186.275720
20
113.786008
11
178.333333
21
116.666667
0
LINE
8
0
62
1
10
178.333333
20
116.666667
11
180.864198
21
107.098765
0
LINE
8
0
62
1
10
180.864198
20
107.098765
11
186.275720
21
113.786008
0
LINE
8
0
62
1
10
198.292181
20
119.855967
11
192.777778
21
113.888889
0
LINE
8
0
62
1
10
192.777778
20
113.888889
11
202.222222
21
114.814815
0
LINE
8
0
62
1
10
202.222222
20
114.814815
11
198.292181
21
119.855967
0
LINE
8
0
62
1
10
259.734026
20
124.428879
11
265.676659
21
131.059989
0
LINE
8
0
62
1
10
265.676659
20
131.059989
11
256.732096
21
131.874070
0
LINE
8
0
62
1
10
256.732096
20
131.874070
11
259.734026
21
124.428879
0
LINE
8
0
62
1
10
263.876781
20
114.421221
11
257.343326
21
114.393323
0
LINE
8
0
62
1
10
257.343326
20
114.393323
11
260.781109
21
104.797774
0
LINE
8
0
62
1
10
260.781109
20
104.797774
11
263.876781
21
114.421221
0
LINE
8
0
62
1
10
130.976517
20
103.309012
11
130.030668
21
107.653692
0
LINE
8
0
62
1
10
130.030668
20
107.653692
11
125.000000
21
100.000000
0
LINE
8
0
62
1
10
125.000000
20
100.000000
11
130.976517
21
103.309012
0
LINE
8
0
62
1
10
135.193813
20
114.956969
11
130.030668
21
107.653692
0
LINE
8
0
62
1
10
130.030668
20
107.653692
11
138.696645
21
106.820032
0
LINE
8
0
62
1
10
138.696645
20
106.820032
11
135.193813
21
114.956969
0
LINE
8
0
62
1
10
121.498136
20
142.507390
11
117.730351
21
134.678490
0
LINE
8
0
62
1
10
117.730351
20
134.678490
11
126.595527
21
135.351069
0
LINE
8
0
62
1
10
126.595527
20
135.351069
11
121.498136
21
142.507390
0
LINE
8
0
62
1
10
112.885708
20
135.754632
11
105.821477
21
139.225178
0
LINE
8
0
62
1
10
105.821477
20
139.225178
11
108.027890
21
130.414305
0
LINE
8
0
62
1
10
108.027890
20
130.414305
11
112.885708
21
135.754632
0
LINE
8
0
62
1
10
198.292181
20
119.855967
11
205.370370
21
120.679012
0
LINE
8
0
62
1
10
205.370370
20
120.679012
11
200.000000
21
125.000000
0
LINE
8
0
62
1
10
200.000000
20
125.000000
11
198.292181
21
119.855967
0
LINE
8
0
62
1
10
224.074074
20
118.518519
11
213.888889
21
122.222222
0
LINE
8
0
62
1
10
213.888889
20
122.222222
11
216.666667
21
116.666667
0
LINE
8
0
62
1
10
216.666667
20
116.666667
11
224.074074
21
118.518519
0
LINE
8
0
62
1
10
224.074074
20
118.518519
11
231.481481
21
120.370370
0
LINE
8
0
62
1
10
231.481481
20
120.370370
11
225.000000
21
125.000000
0
LINE
8
0
62
1
10
225.000000
20
125.000000
11
224.074074
21
118.518519
0
LINE
8
0
62
1
10
238.822789
20
125.000000
11
241.666667
21
116.666667
0
LINE
8
0
62
1
10
241.666667
20
116.666667
11
247.112221
21
117.339999
0
LINE
8
0
62
1
10
247.112221
20
117.339999
11
238.822789
21
125.000000
0
LINE
8
0
62
1
10
350.000000
20
112.053616
11
343.888889
21
104.629630
0
LINE
8
0
62
1
10
343.888889
20
104.629630
11
350.000000
21
100.000000
0
LINE
8
0
62
7
10
350.000000
20
100.000000
11
350.000000
21
112.053616
0
LINE
8
0
62
1
10
330.352243
20
103.589253
11
337.222222
21
108.333333
0
LINE
8
0
62
1
10
337.222222
20
108.333333
11
328.649322
21
107.989981
0
LINE
8
0
62
1
10
328.649322
20
107.989981
11
330.352243
21
103.589253
0
LINE
8
0
62
1
10
337.411765
20
150.000000
11
330.352243
21
146.410747
0
LINE
8
0
62
1
10
330.352243
20
146.410747
11
337.407407
21
147.222222
0
LINE
8
0
62
1
10
337.407407
20
147.222222
11
337.411765
21
150.000000
0
LINE
8
0
62
1
10
343.888889
20
145.370370
11
337.222222
21
141.666667
0
LINE
8
0
62
1
10
337.222222
20
141.666667
11
344.259259
21
138.888889
0
LINE
8
0
62
1
10
344.259259
20
138.888889
11
343.888889
21
145.370370
0
LINE
8
0
62
1
10
121.431414
20
108.326270
11
125.000000
21
100.000000
0
LINE
8
0
62
1
10
125.000000
20
100.000000
11
130.030668
21
107.653692
0
LINE
8
0
62
1
10
130.030668
20
107.653692
11
121.431414
21
108.326270
0
LINE
8
0
62
1
10
121.431414
20
108.326270
11
126.395360
21
116.141044
0
LINE
8
0
62
1
10
126.395360
20
116.141044
11
117.663629
21
117.164038
0
LINE
8
0
62
1
10
117.663629
20
117.164038
11
121.431414
21
108.326270
0
LINE
8
0
62
1
10
319.036939
20
146.747036
11
320.009700
21
142.514453
0
LINE
8
0
62
1
10
320.009700
20
142.514453
11
325.000000
21
150.000000
0
LINE
8
0
62
1
10
325.000000
20
150.000000
11
319.036939
21
146.747036
0
LINE
8
0
62
1
10
314.846555
20
135.211176
11
320.009700
21
142.514453
0
LINE
8
0
62
1
10
320.009700
20
142.514453
11
311.303355
21
143.179968
0
LINE
8
0
62
1
10
311.303355
20
143.179968
11
314.846555
21
135.211176
0
LINE
8
0
62
1
10
314.846555
20
114.788824
11
320.009700
21
107.485547
0
LINE
8
0
62
1
10
320.009700
20
107.485547
11
323.725744
21
115.636610
0
LINE
8
0
62
1
10
323.725744
20
115.636610
11
314.846555
21
114.788824
0
LINE
8
0
62
1
10
319.036939
20
103.252964
11
311.303355
21
106.820032
0
LINE
8
0
62
1
10
311.303355
20
106.820032
11
312.101118
21
102.273344
0
LINE
8
0
62
1
10
312.101118
20
102.273344
11
319.036939
21
103.252964
0
LINE
8
0
62
1
10
314.624645
20
121.074826
11
308.910065
21
120.460095
0
LINE
8
0
62
7
10
308.910065
20
120.460095
11
308.090170
21
119.122147
0
LINE
8
0
62
1
10
308.090170
20
119.122147
11
314.624645
21
121.074826
0
LINE
8
0
62
1
10
314.846555
20
114.788824
11
311.303355
21
106.820032
0
LINE
8
0
62
1
10
311.303355
20
106.820032
11
320.009700
21
107.485547
0
LINE
8
0
62
1
10
320.009700
20
107.485547
11
314.846555
21
114.788824
0
LINE
8
0
62
1
10
314.846555
20
135.211176
11
323.725744
21
134.363390
0
LINE
8
0
62
1
10
323.725744
20
134.363390
11
320.009700
21
142.514453
0
LINE
8
0
62
1
10
320.009700
20
142.514453
11
314.846555
21
135.211176
0
LINE
8
0
62
1
10
310.229938
20
137.433737
11
311.303355
21
143.179968
0
LINE
8
0
62
1
10
311.303355
20
143.179968
11
303.767785
21
142.726656
0
LINE
8
0
62
1
10
303.767785
20
142.726656
11
310.229938
21
137.433737
0
LINE
8
0
62
1
10
135.193813
20
114.956969
11
126.395360
21
116.141044
0
LINE
8
0
62
1
10
126.395360
20
116.141044
11
130.030668
21
107.653692
0
LINE
8
0
62
1
10
130.030668
20
107.653692
11
135.193813
21
114.956969
0
LINE
8
0
62
1
10
139.783518
20
112.622312
11
138.696645
21
106.820032
0
LINE
8
0
62
1
10
138.696645
20
106.820032
11
146.232215
21
107.273344
0
LINE
8
0
62
1
10
146.232215
20
107.273344
11
139.783518
21
112.622312
0
LINE
8
0
62
1
10
328.649322
20
142.010019
11
323.725744
21
134.363390
0
LINE
8
0
62
1
10
323.725744
20
134.363390
11
332.538211
21
133.676686
0
LINE
8
0
62
1
10
332.538211
20
133.676686
11
328.649322
21
142.010019
0
LINE
8
0
62
1
10
330.352243
20
146.410747
11
337.222222
21
141.666667
0
LINE
8
0
62
1
10
337.222222
20
141.666667
11
337.407407
21
147.222222
0
LINE
8
0
62
1
10
337.407407
20
147.222222
11
330.352243
21
146.410747
0
LINE
8
0
62
1
10
337.411765
20
100.000000
11
330.352243
21
103.589253
0
LINE
8
0
62
1
10
330.352243
20
103.589253
11
325.000000
21
100.000000
0
LINE
8
0
62
7
10
325.000000
20
100.000000
11
337.411765
21
100.000000
0
LINE
8
0
62
1
10
328.649322
20
107.989981
11
337.222222
21
108.333333
0
LINE
8
0
62
1
10
337.222222
20
108.333333
11
332.538211
21
116.323314
0
LINE
8
0
62
1
10
332.538211
20
116.323314
11
328.649322
21
107.989981
0
LINE
8
0
62
1
10
261.989214
20
135.540241
11
265.676659
21
131.059989
0
LINE
8
0
62
1
10
265.676659
20
131.059989
11
267.565178
21
139.168879
0
LINE
8
0
62
1
10
267.565178
20
139.168879
11
261.989214
21
135.540241
0
LINE
8
0
62
1
10
251.506543
20
138.187407
11
256.732096
21
131.874070
0
LINE
8
0
62
1
10
256.732096
20
131.874070
11
254.519629
21
139.562221
0
LINE
8
0
62
1
10
254.519629
20
139.562221
11
251.506543
21
138.187407
0
LINE
8
0
62
1
10
200.000000
20
138.159179
11
193.312757
21
131.687243
0
LINE
8
0
62
1
10
193.312757
20
131.687243
11
200.000000
21
125.000000
0
LINE
8
0
62
7
10
200.000000
20
125.000000
11
200.000000
21
138.159179
0
LINE
8
0
62
1
10
188.079561
20
135.253772
11
195.493827
21
139.506173
0
LINE
8
0
62
1
10
195.493827
20
139.506173
11
186.481481
21
143.518519
0
LINE
8
0
62
1
10
186.481481
20
143.518519
11
188.079561
21
135.253772
0
LINE
8
0
62
1
10
135.260535
20
135.540402
11
140.489435
21
128.090170
0
LINE
8
0
62
7
10
140.489435
20
128.090170
11
141.089935
21
129.539905
0
LINE
8
0
62
1
10
141.089935
20
129.539905
11
135.260535
21
135.540402
0
LINE
8
0
62
1
10
130.097390
20
142.843679
11
135.260535
21
135.540402
0
LINE
8
0
62
1
10
135.260535
20
135.540402
11
138.696645
21
143.179968
0
LINE
8
0
62
1
10
138.696645
20
143.179968
11
130.097390
21
142.843679
0
LINE
8
0
62
1
10
100.000000
20
138.110594
11
106.151479
21
145.538515
0
LINE
8
0
62
1
10
106.151479
20
145.538515
11
100.000000
21
150.000000
0
LINE
8
0
62
7
10
100.000000
20
150.000000
11
100.000000
21
138.110594
0
LINE
8
0
62
1
10
119.710366
20
146.632586
11
112.898882
21
142.171101
0
LINE
8
0
62
1
10
112.898882
20
142.171101
11
121.498136
21
142.507390
0
LINE
8
0
62
1
10
121.498136
20
142.507390
11
119.710366
21
146.632586
0
LINE
8
0
62
1
10
210.925926
20
112.345679
11
205.370370
21
106.790123
0
LINE
8
0
62
1
10
205.370370
20
106.790123
11
213.888889
21
105.555556
0
LINE
8
0
62
1
10
213.888889
20
105.555556
11
210.925926
21
112.345679
0
LINE
8
0
62
1
10
199.382716
20
106.893004
11
202.222222
21
114.814815
0
LINE
8
0
62
1
10
202.222222
20
114.814815
11
192.777778
21
113.888889
0
LINE
8
0
62
1
10
192.777778
20
113.888889
11
199.382716
21
106.893004
0
LINE
8
0
62
1
10
130.097390
20
142.843679
11
126.595527
21
135.351069
0
LINE
8
0
62
1
10
126.595527
20
135.351069
11
135.260535
21
135.540402
0
LINE
8
0
62
1
10
135.260535
20
135.540402
11
130.097390
21
142.843679
0
LINE
8
0
62
1
10
130.998757
20
146.856778
11
138.696645
21
143.179968
0
LINE
8
0
62
1
10
138.696645
20
143.179968
11
137.898882
21
147.726656
0
LINE
8
0
62
1
10
137.898882
20
147.726656
11
130.998757
21
146.856778
0
LINE
8
0
62
1
10
112.627407
20
150.000000
11
119.710366
21
146.632586
0
LINE
8
0
62
1
10
119.710366
20
146.632586
11
125.000000
21
150.000000
0
LINE
8
0
62
7
10
125.000000
20
150.000000
11
112.627407
21
150.000000
0
LINE
8
0
62
1
10
121.498136
20
142.507390
11
112.898882
21
142.171101
0
LINE
8
0
62
1
10
112.898882
20
142.171101
11
117.730351
21
134.678490
0
LINE
8
0
62
1
10
117.730351
20
134.678490
11
121.498136
21
142.507390
0
LINE
8
0
62
1
10
225.925926
20
112.962963
11
223.148148
21
106.481481
0
LINE
8
0
62
1
10
223.148148
20
106.481481
11
231.481481
21
106.481481
0
LINE
8
0
62
1
10
231.481481
20
106.481481
11
225.925926
21
112.962963
0
LINE
8
0
62
1
10
213.248171
20
101.771466
11
213.258699
21
101.814638
0
LINE
8
0
62
1
10
213.258699
20
101.814638
11
212.962963
21
101.851852
0
LINE
8
0
62
1
10
212.962963
20
101.851852
11
213.248171
21
101.771466
0
LINE
8
0
62
1
10
285.067512
20
129.286112
11
290.123117
21
126.564345
0
LINE
8
0
62
7
10
290.123117
20
126.564345
11
290.489435
21
128.090170
0
LINE
8
0
62
1
10
290.489435
20
128.090170
11
285.067512
21
129.286112
0
LINE
8
0
62
1
10
275.832468
20
123.283175
11
273.175906
21
127.944415
0
LINE
8
0
62
1
10
273.175906
20
127.944415
11
272.029978
21
118.179968
0
LINE
8
0
62
1
10
272.029978
20
118.179968
11
275.832468
21
123.283175
0
LINE
8
0
62
1
10
109.350218
20
118.038624
11
105.821477
21
111.447400
0
LINE
8
0
62
1
10
105.821477
20
111.447400
11
112.898882
21
108.837767
0
LINE
8
0
62
1
10
112.898882
20
108.837767
11
109.350218
21
118.038624
0
LINE
8
0
62
1
10
109.350218
20
118.038624
11
117.663629
21
117.164038
0
LINE
8
0
62
1
10
117.663629
20
117.164038
11
113.696645
21
126.513302
0
LINE
8
0
62
1
10
113.696645
20
126.513302
11
109.350218
21
118.038624
0
LINE
8
0
62
1
10
164.860786
20
129.719616
11
158.910065
21
129.539905
0
LINE
8
0
62
7
10
158.910065
20
129.539905
11
159.510565
21
128.090170
0
LINE
8
0
62
1
10
159.510565
20
128.090170
11
164.860786
21
129.719616
0
LINE
8
0
62
1
10
169.696064
20
143.292818
11
164.332752
21
136.472787
0
LINE
8
0
62
1
10
164.332752
20
136.472787
11
172.784837
21
136.698487
0
LINE
8
0
62
1
10
172.784837
20
136.698487
11
169.696064
21
143.292818
0
LINE
8
0
62
1
10
161.846440
20
147.749551
11
162.113901
21
150.000000
0
LINE
8
0
62
1
10
162.113901
20
150.000000
11
153.767785
21
142.726656
0
LINE
8
0
62
1
10
153.767785
20
142.726656
11
161.846440
21
147.749551
0
LINE
8
0
62
1
10
169.696064
20
143.292818
11
162.101118
21
147.726656
0
LINE
8
0
62
1
10
162.101118
20
147.726656
11
161.303355
21
143.179968
0
LINE
8
0
62
1
10
161.303355
20
143.179968
11
169.696064
21
143.292818
0
LINE
8
0
62
1
10
281.319622
20
146.473322
11
273.459989
21
142.759984
0
LINE
8
0
62
1
10
273.459989
20
142.759984
11
281.059983
21
141.693309
0
LINE
8
0
62
1
10
281.059983
20
141.693309
11
281.319622
21
146.473322
0
LINE
8
0
62
1
10
288.153560
20
147.749551
11
288.696645
21
143.179968
0
LINE
8
0
62
1
10
288.696645
20
143.179968
11
296.232215
21
142.726656
0
LINE
8
0
62
1
10
296.232215
20
142.726656
11
288.153560
21
147.749551
0
LINE
8
0
62
1
10
311.846440
20
147.749551
11
312.113901
21
150.000000
0
LINE
8
0
62
1
10
312.113901
20
150.000000
11
303.767785
21
142.726656
0
LINE
8
0
62
1
10
303.767785
20
142.726656
11
311.846440
21
147.749551
0
LINE
8
0
62
1
10
319.036939
20
146.747036
11
311.303355
21
143.179968
0
LINE
8
0
62
1
10
311.303355
20
143.179968
11
320.009700
21
142.514453
0
LINE
8
0
62
1
10
320.009700
20
142.514453
11
319.036939
21
146.747036
0
LINE
8
0
62
1
10
130.998757
20
146.856778
11
125.000000
21
150.000000
0
LINE
8
0
62
1
10
125.000000
20
150.000000
11
130.097390
21
142.843679
0
LINE
8
0
62
1
10
130.097390
20
142.843679
11
130.998757
21
146.856778
0
LINE
8
0
62
1
10
138.153560
20
147.749551
11
138.696645
21
143.179968
0
LINE
8
0
62
1
10
138.696645
20
143.179968
11
146.232215
21
142.726656
0
LINE
8
0
62
1
10
146.232215
20
142.726656
11
138.153560
21
147.749551
0
LINE
8
0
62
1
10
138.153560
20
102.250449
11
137.886099
21
100.000000
0
LINE
8
0
62
1
10
137.886099
20
100.000000
11
146.232215
21
107.273344
0
LINE
8
0
62
1
10
146.232215
20
107.273344
11
138.153560
21
102.250449
0
LINE
8
0
62
1
10
130.976517
20
103.309012
11
138.696645
21
106.820032
0
LINE
8
0
62
1
10
138.696645
20
106.820032
11
130.030668
21
107.653692
0
LINE
8
0
62
1
10
130.030668
20
107.653692
11
130.976517
21
103.309012
0
LINE
8
0
62
1
10
181.316872
20
102.880658
11
175.693253
21
109.970208
0
LINE
8
0
62
1
10
175.693253
20
109.970208
11
175.000000
21
100.000000
0
LINE
8
0
62
1
10
175.000000
20
100.000000
11
181.316872
21
102.880658
0
LINE
8
0
62
1
10
161.846440
20
102.250449
11
161.303355
21
106.820032
0
LINE
8
0
62
1
10
161.303355
20
106.820032
11
153.767785
21
107.273344
0
LINE
8
0
62
1
10
153.767785
20
107.273344
11
161.846440
21
102.250449
0
LINE
8
0
62
1
10
170.040348
20
110.759211
11
161.242257
21
113.297365
0
LINE
8
0
62
1
10
161.242257
20
113.297365
11
161.303355
21
106.820032
0
LINE
8
0
62
1
10
161.303355
20
106.820032
11
170.040348
21
110.759211
0
LINE
8
0
62
1
10
162.113901
20
100.000000
11
167.882227
21
106.145192
0
LINE
8
0
62
1
10
167.882227
20
106.145192
11
162.101118
21
102.273344
0
LINE
8
0
62
1
10
162.101118
20
102.273344
11
162.113901
21
100.000000
0
LINE
8
0
62
1
10
288.153560
20
102.250449
11
287.886099
21
100.000000
0
LINE
8
0
62
1
10
287.886099
20
100.000000
11
296.232215
21
107.273344
0
LINE
8
0
62
1
10
296.232215
20
107.273344
11
288.153560
21
102.250449
0
LINE
8
0
62
1
10
280.073281
20
111.232507
11
288.696645
21
106.820032
0
LINE
8
0
62
1
10
288.696645
20
106.820032
11
288.798111
21
113.465509
0
LINE
8
0
62
1
10
288.798111
20
113.465509
11
280.073281
21
111.232507
0
LINE
8
0
62
1
10
287.886099
20
100.000000
11
282.158141
21
106.313337
0
LINE
8
0
62
1
10
282.158141
20
106.313337
11
275.000000
21
100.000000
0
LINE
8
0
62
7
10
275.000000
20
100.000000
11
287.886099
21
100.000000
0
LINE
8
0
62
1
10
282.158141
20
106.313337
11
287.898882
21
102.273344
0
LINE
8
0
62
1
10
287.898882
20
102.273344
11
288.696645
21
106.820032
0
LINE
8
0
62
1
10
288.696645
20
106.820032
11
282.158141
21
106.313337
0
LINE
8
0
62
1
10
319.036939
20
103.252964
11
325.000000
21
100.000000
0
LINE
8
0
62
1
10
325.000000
20
100.000000
11
320.009700
21
107.485547
0
LINE
8
0
62
1
10
320.009700
20
107.485547
11
319.036939
21
103.252964
0
LINE
8
0
62
1
10
311.846440
20
102.250449
11
311.303355
21
106.820032
0
LINE
8
0
62
1
10
311.303355
20
106.820032
11
303.767785
21
107.273344
0
LINE
8
0
62
1
10
303.767785
20
107.273344
11
311.846440
21
102.250449
0
LINE
8
0
62
1
10
137.886099
20
150.000000
11
146.232215
21
142.726656
0
LINE
8
0
62
1
10
146.232215
20
142.726656
11
150.000000
21
150.000000
0
LINE
8
0
62
7
10
150.000000
20
150.000000
11
137.886099
21
150.000000
0
LINE
8
0
62
1
10
139.805758
20
137.543479
11
146.232215
21
142.726656
0
LINE
8
0
62
1
10
146.232215
20
142.726656
11
138.696645
21
143.179968
0
LINE
8
0
62
1
10
138.696645
20
143.179968
11
139.805758
21
137.543479
0
LINE
8
0
62
1
10
287.886099
20
150.000000
11
296.232215
21
142.726656
0
LINE
8
0
62
1
10
296.232215
20
142.726656
11
300.000000
21
150.000000
0
LINE
8
0
62
7
10
300.000000
20
150.000000
11
287.886099
21
150.000000
0
LINE
8
0
62
1
10
287.815552
20
136.614775
11
296.232215
21
142.726656
0
LINE
8
0
62
1
10
296.232215
20
142.726656
11
288.696645
21
143.179968
0
LINE
8
0
62
1
10
288.696645
20
143.179968
11
287.815552
21
136.614775
0
LINE
8
0
62
1
10
153.767785
20
142.726656
11
150.000000
21
135.000000
0
LINE
8
0
62
7
10
150.000000
20
135.000000
11
151.564345
21
134.876883
0
LINE
8
0
62
1
10
151.564345
20
134.876883
11
153.767785
21
142.726656
0
LINE
8
0
62
1
10
161.846440
20
147.749551
11
162.101118
21
147.726656
0
LINE
8
0
62
1
10
162.101118
20
147.726656
11
162.113901
21
150.000000
0
LINE
8
0
62
1
10
162.113901
20
150.000000
11
161.846440
21
147.749551
0
LINE
8
0
62
1
10
303.767785
20
142.726656
11
300.000000
21
135.000000
0
LINE
8
0
62
7
10
300.000000
20
135.000000
11
301.564345
21
134.876883
0
LINE
8
0
62
1
10
301.564345
20
134.876883
11
303.767785
21
142.726656
0
LINE
8
0
62
1
10
311.846440
20
147.749551
11
312.101118
21
147.726656
0
LINE
8
0
62
1
10
312.101118
20
147.726656
11
312.113901
21
150.000000
0
LINE
8
0
62
1
10
312.113901
20
150.000000
11
311.846440
21
147.749551
0
LINE
8
0
62
1
10
162.113901
20
100.000000
11
153.767785
21
107.273344
0
LINE
8
0
62
1
10
153.767785
20
107.273344
11
150.000000
21
100.000000
0
LINE
8
0
62
7
10
150.000000
20
100.000000
11
162.113901
21
100.000000
0
LINE
8
0
62
1
10
161.242257
20
113.297365
11
153.767785
21
107.273344
0
LINE
8
0
62
1
10
153.767785
20
107.273344
11
161.303355
21
106.820032
0
LINE
8
0
62
1
10
161.303355
20
106.820032
11
161.242257
21
113.297365
0
LINE
8
0
62
1
10
312.113901
20
100.000000
11
303.767785
21
107.273344
0
LINE
8
0
62
1
10
303.767785
20
107.273344
11
300.000000
21
100.000000
0
LINE
8
0
62
7
10
300.000000
20
100.000000
11
312.113901
21
100.000000
0
LINE
8
0
62
1
10
310.229938
20
112.566263
11
303.767785
21
107.273344
0
LINE
8
0
62
1
10
303.767785
20
107.273344
11
311.303355
21
106.820032
0
LINE
8
0
62
1
10
311.303355
20
106.820032
11
310.229938
21
112.566263
0
LINE
8
0
62
1
10
146.232215
20
107.273344
11
150.000000
21
115.000000
0
LINE
8
0
62
7
10
150.000000
20
115.000000
11
148.435655
21
115.123117
0
LINE
8
0
62
1
10
148.435655
20
115.123117
11
146.232215
21
107.273344
0
LINE
8
0
62
1
10
138.153560
20
102.250449
11
137.898882
21
102.273344
0
LINE
8
0
62
1
10
137.898882
20
102.273344
11
137.886099
21
100.000000
0
LINE
8
0
62
1
10
137.886099
20
100.000000
11
138.153560
21
102.250449
0
LINE
8
0
62
1
10
296.232215
20
107.273344
11
300.000000
21
115.000000
0
LINE
8
0
62
7
10
300.000000
20
115.000000
11
298.435655
21
115.123117
0
LINE
8
0
62
1
10
298.435655
20
115.123117
11
296.232215
21
107.273344
0
LINE
8
0
62
1
10
288.153560
20
102.250449
11
287.898882
21
102.273344
0
LINE
8
0
62
1
10
287.898882
20
102.273344
11
287.886099
21
100.000000
0
LINE
8
0
62
1
10
287.886099
20
100.000000
11
288.153560
21
102.250449
0
LINE
8
0
62
1
10
340.784342
20
117.478142
11
345.555556
21
125.000000
0
LINE
8
0
62
1
10
345.555556
20
125.000000
11
336.666667
21
125.000000
0
LINE
8
0
62
1
10
336.666667
20
125.000000
11
340.784342
21
117.478142
0
LINE
8
0
62
1
10
340.784342
20
117.478142
11
332.538211
21
116.323314
0
LINE
8
0
62
1
10
332.538211
20
116.323314
11
337.222222
21
108.333333
0
LINE
8
0
62
1
10
337.222222
20
108.333333
11
340.784342
21
117.478142
0
LINE
8
0
62
1
10
340.784342
20
132.521858
11
344.259259
21
138.888889
0
LINE
8
0
62
1
10
344.259259
20
138.888889
11
337.222222
21
141.666667
0
LINE
8
0
62
1
10
337.222222
20
141.666667
11
340.784342
21
132.521858
0
LINE
8
0
62
1
10
340.784342
20
132.521858
11
332.538211
21
133.676686
0
LINE
8
0
62
1
10
332.538211
20
133.676686
11
336.666667
21
125.000000
0
LINE
8
0
62
1
10
336.666667
20
125.000000
11
340.784342
21
132.521858
0
LINE
8
0
62
1
10
181.494568
20
136.408927
11
184.444444
21
130.555556
0
LINE
8
0
62
1
10
184.444444
20
130.555556
11
188.079561
21
135.253772
0
LINE
8
0
62
1
10
188.079561
20
135.253772
11
181.494568
21
136.408927
0
LINE
8
0
62
1
10
171.750540
20
119.650206
11
177.716834
21
124.447980
0
LINE
8
0
62
1
10
177.716834
20
124.447980
11
170.372723
21
126.121718
0
LINE
8
0
62
1
10
170.372723
20
126.121718
11
171.750540
21
119.650206
0
LINE
8
0
62
1
10
169.696064
20
143.292818
11
161.303355
21
143.179968
0
LINE
8
0
62
1
10
161.303355
20
143.179968
11
164.332752
21
136.472787
0
LINE
8
0
62
1
10
164.332752
20
136.472787
11
169.696064
21
143.292818
0
LINE
8
0
62
1
10
178.088773
20
143.405668
11
169.696064
21
143.292818
0
LINE
8
0
62
1
10
169.696064
20
143.292818
11
172.784837
21
136.698487
0
LINE
8
0
62
1
10
172.784837
20
136.698487
11
178.088773
21
143.405668
0
LINE
8
0
62
1
10
181.494568
20
136.408927
11
172.784837
21
136.698487
0
LINE
8
0
62
1
10
172.784837
20
136.698487
11
178.315372
21
130.567341
0
LINE
8
0
62
1
10
178.315372
20
130.567341
11
181.494568
21
136.408927
0
LINE
8
0
62
1
10
186.942588
20
147.857023
11
187.160494
21
147.839506
0
LINE
8
0
62
1
10
187.160494
20
147.839506
11
187.170349
21
150.000000
0
LINE
8
0
62
1
10
187.170349
20
150.000000
11
186.942588
21
147.857023
0
LINE
8
0
62
1
10
122.607344
20
120.808554
11
113.696645
21
126.513302
0
LINE
8
0
62
1
10
113.696645
20
126.513302
11
117.663629
21
117.164038
0
LINE
8
0
62
1
10
117.663629
20
117.164038
11
122.607344
21
120.808554
0
LINE
8
0
62
1
10
130.951008
20
132.129614
11
123.763045
21
129.120580
0
LINE
8
0
62
1
10
123.763045
20
129.120580
11
130.996962
21
125.497371
0
LINE
8
0
62
1
10
130.996962
20
125.497371
11
130.951008
21
132.129614
0
LINE
8
0
62
1
10
237.953007
20
100.000000
11
231.481481
21
106.481481
0
LINE
8
0
62
1
10
231.481481
20
106.481481
11
225.000000
21
100.000000
0
LINE
8
0
62
7
10
225.000000
20
100.000000
11
237.953007
21
100.000000
0
LINE
8
0
62
1
10
237.037037
20
112.037037
11
231.481481
21
106.481481
0
LINE
8
0
62
1
10
231.481481
20
106.481481
11
238.888889
21
105.555556
0
LINE
8
0
62
1
10
238.888889
20
105.555556
11
237.037037
21
112.037037
0
LINE
8
0
62
1
10
186.942588
20
147.857023
11
187.170349
21
150.000000
0
LINE
8
0
62
1
10
187.170349
20
150.000000
11
178.088773
21
143.405668
0
LINE
8
0
62
1
10
178.088773
20
143.405668
11
186.942588
21
147.857023
0
LINE
8
0
62
1
10
194.218107
20
145.781893
11
186.481481
21
143.518519
0
LINE
8
0
62
1
10
186.481481
20
143.518519
11
195.493827
21
139.506173
0
LINE
8
0
62
1
10
195.493827
20
139.506173
11
194.218107
21
145.781893
0
LINE
8
0
62
1
10
287.815552
20
136.614775
11
281.059983
21
141.693309
0
LINE
8
0
62
1
10
281.059983
20
141.693309
11
281.821080
21
134.593288
0
LINE
8
0
62
1
10
281.821080
20
134.593288
11
287.815552
21
136.614775
0
LINE
8
0
62
1
10
287.886099
20
150.000000
11
281.319622
21
146.473322
0
LINE
8
0
62
1
10
281.319622
20
146.473322
11
287.898882
21
147.726656
0
LINE
8
0
62
1
10
287.898882
20
147.726656
11
287.886099
21
150.000000
0
LINE
8
0
62
1
10
250.000000
20
138.177536
11
255.790864
21
145.819258
0
LINE
8
0
62
1
10
255.790864
20
145.819258
11
250.000000
21
150.000000
0
LINE
8
0
62
7
10
250.000000
20
150.000000
11
250.000000
21
138.177536
0
LINE
8
0
62
1
10
270.437650
20
146.885179
11
263.558886
21
143.686663
0
LINE
8
0
62
1
10
263.558886
20
143.686663
11
267.565178
21
139.168879
0
LINE
8
0
62
1
10
267.565178
20
139.168879
11
270.437650
21
146.885179
0
LINE
8
0
62
1
10
210.925926
20
112.345679
11
216.666667
21
116.666667
0
LINE
8
0
62
1
10
216.666667
20
116.666667
11
213.888889
21
122.222222
0
LINE
8
0
62
1
10
213.888889
20
122.222222
11
210.925926
21
112.345679
0
LINE
8
0
62
1
10
210.925926
20
112.345679
11
202.222222
21
114.814815
0
LINE
8
0
62
1
10
202.222222
20
114.814815
11
205.370370
21
106.790123
0
LINE
8
0
62
1
10
205.370370
20
106.790123
11
210.925926
21
112.345679
0
LINE
8
0
62
1
10
268.732466
20
103.086169
11
274.486160
21
110.717518
0
LINE
8
0
62
1
10
274.486160
20
110.717518
11
269.270362
21
107.659248
0
LINE
8
0
62
1
10
269.270362
20
107.659248
11
268.732466
21
103.086169
0
LINE
8
0
62
1
10
280.073281
20
111.232507
11
282.158141
21
106.313337
0
LINE
8
0
62
1
10
282.158141
20
106.313337
11
288.696645
21
106.820032
0
LINE
8
0
62
1
10
288.696645
20
106.820032
11
280.073281
21
111.232507
0
LINE
8
0
62
1
10
237.037037
20
112.037037
11
231.481481
21
120.370370
0
LINE
8
0
62
1
10
231.481481
20
120.370370
11
230.555556
21
113.888889
0
LINE
8
0
62
1
10
230.555556
20
113.888889
11
237.037037
21
112.037037
0
LINE
8
0
62
1
10
238.822789
20
125.000000
11
231.481481
21
120.370370
0
LINE
8
0
62
1
10
231.481481
20
120.370370
11
238.888889
21
122.222222
0
LINE
8
0
62
1
10
238.888889
20
122.222222
11
238.822789
21
125.000000
0
LINE
8
0
62
1
10
238.258699
20
101.814638
11
237.953007
21
100.000000
0
LINE
8
0
62
1
10
237.953007
20
100.000000
11
246.186295
21
105.302962
0
LINE
8
0
62
1
10
246.186295
20
105.302962
11
238.258699
21
101.814638
0
LINE
8
0
62
1
10
237.962963
20
101.851852
11
238.888889
21
105.555556
0
LINE
8
0
62
1
10
238.888889
20
105.555556
11
231.481481
21
106.481481
0
LINE
8
0
62
1
10
231.481481
20
106.481481
11
237.962963
21
101.851852
0
LINE
8
0
62
1
10
213.790153
20
101.618707
11
212.953007
21
100.000000
0
LINE
8
0
62
7
10
212.953007
20
100.000000
11
225.000000
21
100.000000
0
LINE
8
0
62
1
10
225.000000
20
100.000000
11
213.790153
21
101.618707
0
LINE
8
0
62
1
10
212.962963
20
101.851852
11
213.888889
21
105.555556
0
LINE
8
0
62
1
10
213.888889
20
105.555556
11
205.370370
21
106.790123
0
LINE
8
0
62
1
10
205.370370
20
106.790123
11
212.962963
21
101.851852
0
LINE
8
0
62
1
10
225.925926
20
112.962963
11
216.666667
21
116.666667
0
LINE
8
0
62
1
10
216.666667
20
116.666667
11
217.901235
21
109.567901
0
LINE
8
0
62
1
10
217.901235
20
109.567901
11
225.925926
21
112.962963
0
LINE
8
0
62
1
10
224.074074
20
118.518519
11
230.555556
21
113.888889
0
LINE
8
0
62
1
10
230.555556
20
113.888889
11
231.481481
21
120.370370
0
LINE
8
0
62
1
10
231.481481
20
120.370370
11
224.074074
21
118.518519
0
LINE
8
0
62
1
10
205.370370
20
120.679012
11
202.222222
21
114.814815
0
LINE
8
0
62
1
10
202.222222
20
114.814815
11
210.925926
21
112.345679
0
LINE
8
0
62
1
10
210.925926
20
112.345679
11
205.370370
21
120.679012
0
LINE
8
0
62
1
10
213.822789
20
125.000000
11
205.370370
21
120.679012
0
LINE
8
0
62
1
10
205.370370
20
120.679012
11
213.888889
21
122.222222
0
LINE
8
0
62
1
10
213.888889
20
122.222222
11
213.822789
21
125.000000
0
LINE
8
0
62
1
10
263.876781
20
114.421221
11
269.270362
21
107.659248
0
LINE
8
0
62
1
10
269.270362
20
107.659248
11
272.029978
21
118.179968
0
LINE
8
0
62
1
10
272.029978
20
118.179968
11
263.876781
21
114.421221
0
LINE
8
0
62
1
10
257.453327
20
120.201472
11
263.876781
21
114.421221
0
LINE
8
0
62
1
10
263.876781
20
114.421221
11
265.016655
21
121.211094
0
LINE
8
0
62
1
10
265.016655
20
121.211094
11
257.453327
21
120.201472
0
LINE
8
0
62
1
10
257.453327
20
120.201472
11
257.343326
21
114.393323
0
LINE
8
0
62
1
10
257.343326
20
114.393323
11
263.876781
21
114.421221
0
LINE
8
0
62
1
10
263.876781
20
114.421221
11
257.453327
21
120.201472
0
LINE
8
0
62
1
10
259.734026
20
124.428879
11
265.016655
21
121.211094
0
LINE
8
0
62
1
10
265.016655
20
121.211094
11
265.676659
21
131.059989
0
LINE
8
0
62
1
10
265.676659
20
131.059989
11
259.734026
21
124.428879
0
LINE
8
0
62
1
10
190.137174
20
127.331962
11
200.000000
21
125.000000
0
LINE
8
0
62
1
10
200.000000
20
125.000000
11
193.312757
21
131.687243
0
LINE
8
0
62
1
10
193.312757
20
131.687243
11
190.137174
21
127.331962
0
LINE
8
0
62
1
10
186.275720
20
113.786008
11
192.654321
21
119.753086
0
LINE
8
0
62
1
10
192.654321
20
119.753086
11
185.185185
21
120.370370
0
LINE
8
0
62
1
10
185.185185
20
120.370370
11
186.275720
21
113.786008
0
LINE
8
0
62
1
10
104.439948
20
118.470650
11
105.821477
21
111.447400
0
LINE
8
0
62
1
10
105.821477
20
111.447400
11
109.350218
21
118.038624
0
LINE
8
0
62
1
10
109.350218
20
118.038624
11
104.439948
21
118.470650
0
LINE
8
0
62
1
10
100.000000
20
112.218996
11
104.439948
21
118.470650
0
LINE
8
0
62
1
10
104.439948
20
118.470650
11
100.000000
21
125.167524
0
LINE
8
0
62
7
10
100.000000
20
125.167524
11
100.000000
21
112.218996
0
LINE
8
0
62
1
10
186.275720
20
113.786008
11
192.777778
21
113.888889
0
LINE
8
0
62
1
10
192.777778
20
113.888889
11
192.654321
21
119.753086
0
LINE
8
0
62
1
10
192.654321
20
119.753086
11
186.275720
21
113.786008
0
LINE
8
0
62
1
10
186.275720
20
113.786008
11
185.185185
21
120.370370
0
LINE
8
0
62
1
10
185.185185
20
120.370370
11
178.333333
21
116.666667
0
LINE
8
0
62
1
10
178.333333
20
116.666667
11
186.275720
21
113.786008
0
LINE
8
0
62
1
10
102.377196
20
138.565733
11
102.447775
21
138.131108
0
LINE
8
0
62
1
10
102.447775
20
138.131108
11
105.821477
21
139.225178
0
LINE
8
0
62
1
10
105.821477
20
139.225178
11
102.377196
21
138.565733
0
LINE
8
0
62
1
10
101.515701
20
125.279373
11
104.565548
21
125.504434
0
LINE
8
0
62
1
10
104.565548
20
125.504434
11
108.027890
21
130.414305
0
LINE
8
0
62
1
10
108.027890
20
130.414305
11
101.515701
21
125.279373
0
LINE
8
0
62
1
10
106.151479
20
104.797774
11
100.000000
21
100.000000
0
LINE
8
0
62
1
10
100.000000
20
100.000000
11
112.632961
21
102.945922
0
LINE
8
0
62
1
10
112.632961
20
102.945922
11
106.151479
21
104.797774
0
LINE
8
0
62
1
10
106.151479
20
104.797774
11
112.632961
21
102.945922
0
LINE
8
0
62
1
10
112.632961
20
102.945922
11
112.898882
21
108.837767
0
LINE
8
0
62
1
10
112.898882
20
108.837767
11
106.151479
21
104.797774
0
LINE
8
0
62
1
10
347.644348
20
111.666869
11
347.592593
21
112.037037
0
LINE
8
0
62
1
10
347.592593
20
112.037037
11
344.259259
21
111.111111
0
LINE
8
0
62
1
10
344.259259
20
111.111111
11
347.644348
21
111.666869
0
LINE
8
0
62
1
10
345.631818
20
118.171726
11
348.518519
21
125.000000
0
LINE
8
0
62
1
10
348.518519
20
125.000000
11
345.555556
21
125.000000
0
LINE
8
0
62
1
10
345.555556
20
125.000000
11
345.631818
21
118.171726
0
LINE
8
0
62
1
10
345.631818
20
131.828274
11
344.259259
21
138.888889
0
LINE
8
0
62
1
10
344.259259
20
138.888889
11
340.784342
21
132.521858
0
LINE
8
0
62
1
10
340.784342
20
132.521858
11
345.631818
21
131.828274
0
LINE
8
0
62
1
10
350.000000
20
137.946384
11
345.631818
21
131.828274
0
LINE
8
0
62
1
10
345.631818
20
131.828274
11
350.000000
21
125.000000
0
LINE
8
0
62
7
10
350.000000
20
125.000000
11
350.000000
21
137.946384
0
LINE
8
0
62
1
10
170.040348
20
110.759211
11
178.333333
21
116.666667
0
LINE
8
0
62
1
10
178.333333
20
116.666667
11
171.750540
21
119.650206
0
LINE
8
0
62
1
10
171.750540
20
119.650206
11
170.040348
21
110.759211
0
LINE
8
0
62
1
10
175.693253
20
109.970208
11
167.882227
21
106.145192
0
LINE
8
0
62
1
10
167.882227
20
106.145192
11
175.000000
21
100.000000
0
LINE
8
0
62
1
10
175.000000
20
100.000000
11
175.693253
21
109.970208
0
LINE
8
0
62
1
10
276.152325
20
135.099229
11
281.821080
21
134.593288
0
LINE
8
0
62
1
10
281.821080
20
134.593288
11
281.059983
21
141.693309
0
LINE
8
0
62
1
10
281.059983
20
141.693309
11
276.152325
21
135.099229
0
LINE
8
0
62
1
10
267.565178
20
139.168879
11
276.152325
21
135.099229
0
LINE
8
0
62
1
10
276.152325
20
135.099229
11
273.459989
21
142.759984
0
LINE
8
0
62
1
10
273.459989
20
142.759984
11
267.565178
21
139.168879
0
LINE
8
0
62
1
10
187.170349
20
150.000000
11
194.218107
21
145.781893
0
LINE
8
0
62
1
10
194.218107
20
145.781893
11
200.000000
21
150.000000
0
LINE
8
0
62
7
10
200.000000
20
150.000000
11
187.170349
21
150.000000
0
LINE
8
0
62
1
10
194.218107
20
145.781893
11
187.160494
21
147.839506
0
LINE
8
0
62
1
10
187.160494
20
147.839506
11
186.481481
21
143.518519
0
LINE
8
0
62
1
10
186.481481
20
143.518519
11
194.218107
21
145.781893
0
LINE
8
0
62
1
10
255.790864
20
145.819258
11
254.519629
21
139.562221
0
LINE
8
0
62
1
10
254.519629
20
139.562221
11
263.558886
21
143.686663
0
LINE
8
0
62
1
10
263.558886
20
143.686663
11
255.790864
21
145.819258
0
LINE
8
0
62
1
10
262.843226
20
150.000000
11
255.790864
21
145.819258
0
LINE
8
0
62
1
10
255.790864
20
145.819258
11
262.852962
21
147.895554
0
LINE
8
0
62
1
10
262.852962
20
147.895554
11
262.843226
21
150.000000
0
LINE
8
0
62
1
10
112.885708
20
135.754632
11
113.696645
21
126.513302
0
LINE
8
0
62
1
10
113.696645
20
126.513302
11
117.730351
21
134.678490
0
LINE
8
0
62
1
10
117.730351
20
134.678490
11
112.885708
21
135.754632
0
LINE
8
0
62
1
10
108.027890
20
130.414305
11
105.821477
21
139.225178
0
LINE
8
0
62
1
10
105.821477
20
139.225178
11
102.447775
21
138.131108
0
LINE
8
0
62
1
10
102.447775
20
138.131108
11
108.027890
21
130.414305
0
LINE
8
0
62
1
10
337.411765
20
150.000000
11
343.888889
21
145.370370
0
LINE
8
0
62
1
10
343.888889
20
145.370370
11
350.000000
21
150.000000
0
LINE
8
0
62
7
10
350.000000
20
150.000000
11
337.411765
21
150.000000
0
LINE
8
0
62
1
10
343.888889
20
145.370370
11
337.407407
21
147.222222
0
LINE
8
0
62
1
10
337.407407
20
147.222222
11
337.222222
21
141.666667
0
LINE
8
0
62
1
10
337.222222
20
141.666667
11
343.888889
21
145.370370
0
LINE
8
0
62
1
10
343.888889
20
104.629630
11
344.259259
21
111.111111
0
LINE
8
0
62
1
10
344.259259
20
111.111111
11
337.222222
21
108.333333
0
LINE
8
0
62
1
10
337.222222
20
108.333333
11
343.888889
21
104.629630
0
LINE
8
0
62
1
10
337.411765
20
100.000000
11
343.888889
21
104.629630
0
LINE
8
0
62
1
10
343.888889
20
104.629630
11
337.407407
21
102.777778
0
LINE
8
0
62
1
10
337.407407
20
102.777778
11
337.411765
21
100.000000
0
LINE
8
0
62
1
10
199.382716
20
106.893004
11
200.000000
21
100.000000
0
LINE
8
0
62
1
10
200.000000
20
100.000000
11
205.370370
21
106.790123
0
LINE
8
0
62
1
10
205.370370
20
106.790123
11
199.382716
21
106.893004
0
LINE
8
0
62
1
10
199.382716
20
106.893004
11
205.370370
21
106.790123
0
LINE
8
0
62
1
10
205.370370
20
106.790123
11
202.222222
21
114.814815
0
LINE
8
0
62
1
10
202.222222
20
114.814815
11
199.382716
21
106.893004
0
LINE
8
0
62
1
10
267.565178
20
139.168879
11
265.676659
21
131.059989
0
LINE
8
0
62
1
10
265.676659
20
131.059989
11
276.152325
21
135.099229
0
LINE
8
0
62
1
10
276.152325
20
135.099229
11
267.565178
21
139.168879
0
LINE
8
0
62
1
10
270.437650
20
146.885179
11
267.565178
21
139.168879
0
LINE
8
0
62
1
10
267.565178
20
139.168879
11
273.459989
21
142.759984
0
LINE
8
0
62
1
10
273.459989
20
142.759984
11
270.437650
21
146.885179
0
LINE
8
0
62
1
10
106.151479
20
145.538515
11
105.821477
21
139.225178
0
LINE
8
0
62
1
10
105.821477
20
139.225178
11
112.898882
21
142.171101
0
LINE
8
0
62
1
10
112.898882
20
142.171101
11
106.151479
21
145.538515
0
LINE
8
0
62
1
10
112.627407
20
150.000000
11
106.151479
21
145.538515
0
LINE
8
0
62
1
10
106.151479
20
145.538515
11
112.632961
21
147.390367
0
LINE
8
0
62
1
10
112.632961
20
147.390367
11
112.627407
21
150.000000
0
LINE
8
0
62
1
10
268.732466
20
103.086169
11
275.000000
21
100.000000
0
LINE
8
0
62
1
10
275.000000
20
100.000000
11
274.486160
21
110.717518
0
LINE
8
0
62
1
10
274.486160
20
110.717518
11
268.732466
21
103.086169
0
LINE
8
0
62
1
10
261.566562
20
101.535560
11
260.781109
21
104.797774
0
LINE
8
0
62
1
10
260.781109
20
104.797774
11
253.483702
21
105.050368
0
LINE
8
0
62
1
10
253.483702
20
105.050368
11
261.566562
21
101.535560
0
LINE
8
0
62
1
10
243.408518
20
110.858517
11
247.112221
21
117.339999
0
LINE
8
0
62
1
10
247.112221
20
117.339999
11
241.666667
21
116.666667
0
LINE
8
0
62
1
10
241.666667
20
116.666667
11
243.408518
21
110.858517
0
LINE
8
0
62
1
10
247.112221
20
117.339999
11
249.669998
21
110.353330
0
LINE
8
0
62
1
10
249.669998
20
110.353330
11
257.343326
21
114.393323
0
LINE
8
0
62
1
10
257.343326
20
114.393323
11
247.112221
21
117.339999
0
LINE
8
0
62
1
10
237.037037
20
112.037037
11
230.555556
21
113.888889
0
LINE
8
0
62
1
10
230.555556
20
113.888889
11
231.481481
21
106.481481
0
LINE
8
0
62
1
10
231.481481
20
106.481481
11
237.037037
21
112.037037
0
LINE
8
0
62
1
10
243.408518
20
110.858517
11
237.037037
21
112.037037
0
LINE
8
0
62
1
10
237.037037
20
112.037037
11
238.888889
21
105.555556
0
LINE
8
0
62
1
10
238.888889
20
105.555556
11
243.408518
21
110.858517
0
LINE
8
0
62
1
10
188.453983
20
101.474640
11
188.086420
21
101.543210
0
LINE
8
0
62
1
10
188.086420
20
101.543210
11
188.077597
21
100.000000
0
LINE
8
0
62
1
10
188.077597
20
100.000000
11
188.453983
21
101.474640
0
LINE
8
0
62
1
10
181.316872
20
102.880658
11
189.259259
21
104.629630
0
LINE
8
0
62
1
10
189.259259
20
104.629630
11
180.864198
21
107.098765
0
LINE
8
0
62
1
10
180.864198
20
107.098765
11
181.316872
21
102.880658
0
LINE
8
0
62
1
10
171.750540
20
119.650206
11
178.333333
21
116.666667
0
LINE
8
0
62
1
10
178.333333
20
116.666667
11
177.716834
21
124.447980
0
LINE
8
0
62
1
10
177.716834
20
124.447980
11
171.750540
21
119.650206
0
LINE
8
0
62
1
10
165.598390
20
121.906535
11
171.750540
21
119.650206
0
LINE
8
0
62
1
10
171.750540
20
119.650206
11
170.372723
21
126.121718
0
LINE
8
0
62
1
10
170.372723
20
126.121718
11
165.598390
21
121.906535
0
LINE
8
0
62
1
10
253.483702
20
105.050368
11
260.781109
21
104.797774
0
LINE
8
0
62
1
10
260.781109
20
104.797774
11
257.343326
21
114.393323
0
LINE
8
0
62
1
10
257.343326
20
114.393323
11
253.483702
21
105.050368
0
LINE
8
0
62
1
10
246.186295
20
105.302962
11
253.483702
21
105.050368
0
LINE
8
0
62
1
10
253.483702
20
105.050368
11
249.669998
21
110.353330
0
LINE
8
0
62
1
10
249.669998
20
110.353330
11
246.186295
21
105.302962
0
LINE
8
0
62
1
10
246.186295
20
105.302962
11
250.000000
21
100.000000
0
LINE
8
0
62
1
10
250.000000
20
100.000000
11
253.483702
21
105.050368
0
LINE
8
0
62
1
10
253.483702
20
105.050368
11
246.186295
21
105.302962
0
LINE
8
0
62
1
10
243.408518
20
110.858517
11
246.186295
21
105.302962
0
LINE
8
0
62
1
10
246.186295
20
105.302962
11
249.669998
21
110.353330
0
LINE
8
0
62
1
10
249.669998
20
110.353330
11
243.408518
21
110.858517
0
LINE
8
0
62
1
10
250.000000
20
138.177536
11
256.732096
21
131.874070
0
LINE
8
0
62
1
10
256.732096
20
131.874070
11
251.506543
21
138.187407
0
LINE
8
0
62
1
10
251.506543
20
138.187407
11
250.000000
21
138.177536
0
LINE
8
0
62
1
10
251.413131
20
138.610479
11
254.519629
21
139.562221
0
LINE
8
0
62
1
10
254.519629
20
139.562221
11
255.790864
21
145.819258
0
LINE
8
0
62
1
10
255.790864
20
145.819258
11
251.413131
21
138.610479
0
LINE
8
0
62
1
10
287.815552
20
136.614775
11
288.696645
21
143.179968
0
LINE
8
0
62
1
10
288.696645
20
143.179968
11
281.059983
21
141.693309
0
LINE
8
0
62
1
10
281.059983
20
141.693309
11
287.815552
21
136.614775
0
LINE
8
0
62
1
10
285.067512
20
129.286112
11
287.815552
21
136.614775
0
LINE
8
0
62
1
10
287.815552
20
136.614775
11
281.821080
21
134.593288
0
LINE
8
0
62
1
10
281.821080
20
134.593288
11
285.067512
21
129.286112
0
LINE
8
0
62
1
10
190.137174
20
127.331962
11
188.079561
21
135.253772
0
LINE
8
0
62
1
10
188.079561
20
135.253772
11
184.444444
21
130.555556
0
LINE
8
0
62
1
10
184.444444
20
130.555556
11
190.137174
21
127.331962
0
LINE
8
0
62
1
10
188.079561
20
135.253772
11
193.312757
21
131.687243
0
LINE
8
0
62
1
10
193.312757
20
131.687243
11
195.493827
21
139.506173
0
LINE
8
0
62
1
10
195.493827
20
139.506173
11
188.079561
21
135.253772
0
LINE
8
0
62
1
10
198.587056
20
138.581539
11
200.000000
21
138.159179
0
LINE
8
0
62
1
10
200.000000
20
138.159179
11
194.218107
21
145.781893
0
LINE
8
0
62
1
10
194.218107
20
145.781893
11
198.587056
21
138.581539
0
LINE
8
0
62
1
10
198.497942
20
138.168724
11
195.493827
21
139.506173
0
LINE
8
0
62
1
10
195.493827
20
139.506173
11
193.312757
21
131.687243
0
LINE
8
0
62
1
10
193.312757
20
131.687243
11
198.497942
21
138.168724
0
LINE
8
0
62
1
10
178.315372
20
130.567341
11
172.784837
21
136.698487
0
LINE
8
0
62
1
10
172.784837
20
136.698487
11
170.372723
21
126.121718
0
LINE
8
0
62
1
10
170.372723
20
126.121718
11
178.315372
21
130.567341
0
LINE
8
0
62
1
10
178.315372
20
130.567341
11
177.716834
21
124.447980
0
LINE
8
0
62
1
10
177.716834
20
124.447980
11
184.444444
21
130.555556
0
LINE
8
0
62
1
10
184.444444
20
130.555556
11
178.315372
21
130.567341
0
LINE
8
0
62
1
10
181.494568
20
136.408927
11
178.088773
21
143.405668
0
LINE
8
0
62
1
10
178.088773
20
143.405668
11
172.784837
21
136.698487
0
LINE
8
0
62
1
10
172.784837
20
136.698487
11
181.494568
21
136.408927
0
LINE
8
0
62
1
10
181.494568
20
136.408927
11
178.315372
21
130.567341
0
LINE
8
0
62
1
10
178.315372
20
130.567341
11
184.444444
21
130.555556
0
LINE
8
0
62
1
10
184.444444
20
130.555556
11
181.494568
21
136.408927
0
LINE
8
0
62
1
10
261.989214
20
135.540241
11
263.558886
21
143.686663
0
LINE
8
0
62
1
10
263.558886
20
143.686663
11
254.519629
21
139.562221
0
LINE
8
0
62
1
10
254.519629
20
139.562221
11
261.989214
21
135.540241
0
LINE
8
0
62
1
10
261.989214
20
135.540241
11
256.732096
21
131.874070
0
LINE
8
0
62
1
10
256.732096
20
131.874070
11
265.676659
21
131.059989
0
LINE
8
0
62
1
10
265.676659
20
131.059989
11
261.989214
21
135.540241
0
LINE
8
0
62
1
10
130.862045
20
118.865128
11
122.607344
21
120.808554
0
LINE
8
0
62
1
10
122.607344
20
120.808554
11
126.395360
21
116.141044
0
LINE
8
0
62
1
10
126.395360
20
116.141044
11
130.862045
21
118.865128
0
LINE
8
0
62
1
10
122.607344
20
120.808554
11
123.763045
21
129.120580
0
LINE
8
0
62
1
10
123.763045
20
129.120580
11
113.696645
21
126.513302
0
LINE
8
0
62
1
10
113.696645
20
126.513302
11
122.607344
21
120.808554
0
LINE
8
0
62
1
10
243.408518
20
110.858517
11
238.888889
21
105.555556
0
LINE
8
0
62
1
10
238.888889
20
105.555556
11
246.186295
21
105.302962
0
LINE
8
0
62
1
10
246.186295
20
105.302962
11
243.408518
21
110.858517
0
LINE
8
0
62
1
10
243.408518
20
110.858517
11
249.669998
21
110.353330
0
LINE
8
0
62
1
10
249.669998
20
110.353330
11
247.112221
21
117.339999
0
LINE
8
0
62
1
10
247.112221
20
117.339999
11
243.408518
21
110.858517
0
LINE
8
0
62
1
10
164.860786
20
129.719616
11
170.372723
21
126.121718
0
LINE
8
0
62
1
10
170.372723
20
126.121718
11
172.784837
21
136.698487
0
LINE
8
0
62
1
10
172.784837
20
136.698487
11
164.860786
21
129.719616
0
LINE
8
0
62
1
10
164.860786
20
129.719616
11
164.332752
21
136.472787
0
LINE
8
0
62
1
10
164.332752
20
136.472787
11
157.071068
21
132.071068
0
LINE
8
0
62
1
10
157.071068
20
132.071068
11
164.860786
21
129.719616
0
LINE
8
0
62
1
10
288.798111
20
113.465509
11
294.122147
21
116.909830
0
LINE
8
0
62
7
10
294.122147
20
116.909830
11
292.928932
21
117.928932
0
LINE
8
0
62
1
10
292.928932
20
117.928932
11
288.798111
21
113.465509
0
LINE
8
0
62
1
10
280.073281
20
111.232507
11
288.798111
21
113.465509
0
LINE
8
0
62
1
10
288.798111
20
113.465509
11
283.575541
21
116.666667
0
LINE
8
0
62
1
10
283.575541
20
116.666667
11
280.073281
21
111.232507
0
LINE
8
0
62
1
10
190.137174
20
127.331962
11
184.444444
21
130.555556
0
LINE
8
0
62
1
10
184.444444
20
130.555556
11
185.185185
21
120.370370
0
LINE
8
0
62
1
10
185.185185
20
120.370370
11
190.137174
21
127.331962
0
LINE
8
0
62
1
10
190.137174
20
127.331962
11
192.654321
21
119.753086
0
LINE
8
0
62
1
10
192.654321
20
119.753086
11
200.000000
21
125.000000
0
LINE
8
0
62
1
10
200.000000
20
125.000000
11
190.137174
21
127.331962
0
LINE
8
0
62
1
10
170.040348
20
110.759211
11
161.303355
21
106.820032
0
LINE
8
0
62
1
10
161.303355
20
106.820032
11
167.882227
21
106.145192
0
LINE
8
0
62
1
10
167.882227
20
106.145192
11
170.040348
21
110.759211
0
LINE
8
0
62
1
10
161.242257
20
113.297365
11
166.545563
21
116.162233
0
LINE
8
0
62
1
10
166.545563
20
116.162233
11
158.910065
21
120.460095
0
LINE
8
0
62
1
10
158.910065
20
120.460095
11
161.242257
21
113.297365
0
LINE
8
0
62
1
10
213.248171
20
101.771466
11
212.962963
21
101.851852
0
LINE
8
0
62
1
10
212.962963
20
101.851852
11
212.953007
21
100.000000
0
LINE
8
0
62
1
10
212.953007
20
100.000000
11
213.248171
21
101.771466
0
LINE
8
0
62
1
10
225.925926
20
112.962963
11
217.901235
21
109.567901
0
LINE
8
0
62
1
10
217.901235
20
109.567901
11
223.148148
21
106.481481
0
LINE
8
0
62
1
10
223.148148
20
106.481481
11
225.925926
21
112.962963
0
LINE
8
0
62
1
10
279.096169
20
128.754282
11
285.067512
21
129.286112
0
LINE
8
0
62
1
10
285.067512
20
129.286112
11
281.821080
21
134.593288
0
LINE
8
0
62
1
10
281.821080
20
134.593288
11
279.096169
21
128.754282
0
LINE
8
0
62
1
10
285.067512
20
129.286112
11
282.291521
21
123.725142
0
LINE
8
0
62
1
10
282.291521
20
123.725142
11
290.123117
21
123.435655
0
LINE
8
0
62
1
10
290.123117
20
123.435655
11
285.067512
21
129.286112
0
LINE
8
0
62
1
10
275.832468
20
123.283175
11
279.096169
21
128.754282
0
LINE
8
0
62
1
10
279.096169
20
128.754282
11
273.175906
21
127.944415
0
LINE
8
0
62
1
10
273.175906
20
127.944415
11
275.832468
21
123.283175
0
LINE
8
0
62
1
10
279.096169
20
128.754282
11
282.291521
21
123.725142
0
LINE
8
0
62
1
10
282.291521
20
123.725142
11
285.067512
21
129.286112
0
LINE
8
0
62
1
10
285.067512
20
129.286112
11
279.096169
21
128.754282
0
LINE
8
0
62
1
10
100.000000
20
125.167524
11
104.439948
21
118.470650
0
LINE
8
0
62
1
10
104.439948
20
118.470650
11
101.521849
21
125.168145
0
LINE
8
0
62
1
10
101.521849
20
125.168145
11
100.000000
21
125.167524
0
LINE
8
0
62
1
10
104.439948
20
118.470650
11
102.447775
21
112.205182
0
LINE
8
0
62
1
10
102.447775
20
112.205182
11
105.821477
21
111.447400
0
LINE
8
0
62
1
10
105.821477
20
111.447400
11
104.439948
21
118.470650
0
LINE
8
0
62
1
10
165.598390
20
121.906535
11
166.545563
21
116.162233
0
LINE
8
0
62
1
10
166.545563
20
116.162233
11
171.750540
21
119.650206
0
LINE
8
0
62
1
10
171.750540
20
119.650206
11
165.598390
21
121.906535
0
LINE
8
0
62
1
10
165.598390
20
121.906535
11
170.372723
21
126.121718
0
LINE
8
0
62
1
10
170.372723
20
126.121718
11
164.860786
21
129.719616
0
LINE
8
0
62
1
10
164.860786
20
129.719616
11
165.598390
21
121.906535
0
LINE
8
0
62
1
10
275.832468
20
123.283175
11
272.029978
21
118.179968
0
LINE
8
0
62
1
10
272.029978
20
118.179968
11
283.575541
21
116.666667
0
LINE
8
0
62
1
10
283.575541
20
116.666667
11
275.832468
21
123.283175
0
LINE
8
0
62
1
10
275.832468
20
123.283175
11
282.291521
21
123.725142
0
LINE
8
0
62
1
10
282.291521
20
123.725142
11
279.096169
21
128.754282
0
LINE
8
0
62
1
10
279.096169
20
128.754282
11
275.832468
21
123.283175
0
LINE
8
0
62
1
10
281.319622
20
146.473322
11
275.000000
21
150.000000
0
LINE
8
0
62
1
10
275.000000
20
150.000000
11
273.459989
21
142.759984
0
LINE
8
0
62
1
10
273.459989
20
142.759984
11
281.319622
21
146.473322
0
LINE
8
0
62
1
10
281.319622
20
146.473322
11
281.059983
21
141.693309
0
LINE
8
0
62
1
10
281.059983
20
141.693309
11
288.696645
21
143.179968
0
LINE
8
0
62
1
10
288.696645
20
143.179968
11
281.319622
21
146.473322
0
LINE
8
0
62
1
10
112.885708
20
135.754632
11
112.898882
21
142.171101
0
LINE
8
0
62
1
10
112.898882
20
142.171101
11
105.821477
21
139.225178
0
LINE
8
0
62
1
10
105.821477
20
139.225178
11
112.885708
21
135.754632
0
LINE
8
0
62
1
10
112.885708
20
135.754632
11
108.027890
21
130.414305
0
LINE
8
0
62
1
10
108.027890
20
130.414305
11
113.696645
21
126.513302
0
LINE
8
0
62
1
10
113.696645
20
126.513302
11
112.885708
21
135.754632
0
LINE
8
0
62
1
10
350.000000
20
125.000000
11
345.631818
21
131.828274
0
LINE
8
0
62
1
10
345.631818
20
131.828274
11
348.518519
21
125.000000
0
LINE
8
0
62
1
10
348.518519
20
125.000000
11
350.000000
21
125.000000
0
LINE
8
0
62
1
10
345.631818
20
131.828274
11
347.592593
21
137.962963
0
LINE
8
0
62
1
10
347.592593
20
137.962963
11
344.259259
21
138.888889
0
LINE
8
0
62
1
10
344.259259
20
138.888889
11
345.631818
21
131.828274
0
LINE
8
0
62
1
10
345.631818
20
118.171726
11
340.784342
21
117.478142
0
LINE
8
0
62
1
10
340.784342
20
117.478142
11
344.259259
21
111.111111
0
LINE
8
0
62
1
10
344.259259
20
111.111111
11
345.631818
21
118.171726
0
LINE
8
0
62
1
10
350.000000
20
112.053616
11
345.631818
21
118.171726
0
LINE
8
0
62
1
10
345.631818
20
118.171726
11
347.592593
21
112.037037
0
LINE
8
0
62
1
10
347.592593
20
112.037037
11
350.000000
21
112.053616
0
LINE
8
0
62
1
10
119.688125
20
103.757398
11
125.000000
21
100.000000
0
LINE
8
0
62
1
10
125.000000
20
100.000000
11
121.431414
21
108.326270
0
LINE
8
0
62
1
10
121.431414
20
108.326270
11
119.688125
21
103.757398
0
LINE
8
0
62
1
10
119.688125
20
103.757398
11
121.431414
21
108.326270
0
LINE
8
0
62
1
10
121.431414
20
108.326270
11
112.898882
21
108.837767
0
LINE
8
0
62
1
10
112.898882
20
108.837767
11
119.688125
21
103.757398
0
LINE
8
0
62
1
10
268.732466
20
103.086169
11
269.270362
21
107.659248
0
LINE
8
0
62
1
10
269.270362
20
107.659248
11
260.781109
21
104.797774
0
LINE
8
0
62
1
10
260.781109
20
104.797774
11
268.732466
21
103.086169
0
LINE
8
0
62
1
10
261.936283
20
100.000000
11
268.732466
21
103.086169
0
LINE
8
0
62
1
10
268.732466
20
103.086169
11
261.927036
21
101.599258
0
LINE
8
0
62
1
10
261.927036
20
101.599258
11
261.936283
21
100.000000
0
LINE
8
0
62
1
10
259.734026
20
124.428879
11
256.732096
21
131.874070
0
LINE
8
0
62
1
10
256.732096
20
131.874070
11
250.000000
21
125.000000
0
LINE
8
0
62
1
10
250.000000
20
125.000000
11
259.734026
21
124.428879
0
LINE
8
0
62
1
10
259.734026
20
124.428879
11
257.453327
21
120.201472
0
LINE
8
0
62
1
10
257.453327
20
120.201472
11
265.016655
21
121.211094
0
LINE
8
0
62
1
10
265.016655
20
121.211094
11
259.734026
21
124.428879
0
LINE
8
0
62
1
10
330.352243
20
146.410747
11
325.000000
21
150.000000
0
LINE
8
0
62
1
10
325.000000
20
150.000000
11
328.649322
21
142.010019
0
LINE
8
0
62
1
10
328.649322
20
142.010019
11
330.352243
21
146.410747
0
LINE
8
0
62
1
10
330.352243
20
146.410747
11
328.649322
21
142.010019
0
LINE
8
0
62
1
10
328.649322
20
142.010019
11
337.222222
21
141.666667
0
LINE
8
0
62
1
10
337.222222
20
141.666667
11
330.352243
21
146.410747
0
LINE
8
0
62
1
10
330.352243
20
103.589253
11
337.407407
21
102.777778
0
LINE
8
0
62
1
10
337.407407
20
102.777778
11
337.222222
21
108.333333
0
LINE
8
0
62
1
10
337.222222
20
108.333333
11
330.352243
21
103.589253
0
LINE
8
0
62
1
10
330.352243
20
103.589253
11
328.649322
21
107.989981
0
LINE
8
0
62
1
10
328.649322
20
107.989981
11
325.000000
21
100.000000
0
LINE
8
0
62
1
10
325.000000
20
100.000000
11
330.352243
21
103.589253
0
LINE
8
0
62
1
10
323.650626
20
128.121130
11
314.624645
21
128.925174
0
LINE
8
0
62
1
10
314.624645
20
128.925174
11
319.150496
21
125.000000
0
LINE
8
0
62
1
10
319.150496
20
125.000000
11
323.650626
21
128.121130
0
LINE
8
0
62
1
10
314.624645
20
128.925174
11
314.846555
21
135.211176
0
LINE
8
0
62
1
10
314.846555
20
135.211176
11
308.090170
21
130.877853
0
LINE
8
0
62
1
10
308.090170
20
130.877853
11
314.624645
21
128.925174
0
LINE
8
0
62
1
10
314.624645
20
121.074826
11
309.876883
21
123.435655
0
LINE
8
0
62
7
10
309.876883
20
123.435655
11
309.510565
21
121.909830
0
LINE
8
0
62
1
10
309.510565
20
121.909830
11
314.624645
21
121.074826
0
LINE
8
0
62
1
10
314.624645
20
121.074826
11
314.846555
21
114.788824
0
LINE
8
0
62
1
10
314.846555
20
114.788824
11
323.725744
21
115.636610
0
LINE
8
0
62
1
10
323.725744
20
115.636610
11
314.624645
21
121.074826
0
LINE
8
0
62
1
10
130.862045
20
118.865128
11
126.395360
21
116.141044
0
LINE
8
0
62
1
10
126.395360
20
116.141044
11
135.193813
21
114.956969
0
LINE
8
0
62
1
10
135.193813
20
114.956969
11
130.862045
21
118.865128
0
LINE
8
0
62
1
10
130.862045
20
118.865128
11
135.193813
21
114.956969
0
LINE
8
0
62
1
10
135.193813
20
114.956969
11
140.123117
21
123.435655
0
LINE
8
0
62
1
10
140.123117
20
123.435655
11
130.862045
21
118.865128
0
LINE
8
0
62
1
10
139.783518
20
112.622312
11
145.460095
21
116.089935
0
LINE
8
0
62
7
10
145.460095
20
116.089935
11
144.122147
21
116.909830
0
LINE
8
0
62
1
10
144.122147
20
116.909830
11
139.783518
21
112.622312
0
LINE
8
0
62
1
10
139.783518
20
112.622312
11
135.193813
21
114.956969
0
LINE
8
0
62
1
10
135.193813
20
114.956969
11
138.696645
21
106.820032
0
LINE
8
0
62
1
10
138.696645
20
106.820032
11
139.783518
21
112.622312
0
LINE
8
0
62
1
10
137.886099
20
100.000000
11
130.976517
21
103.309012
0
LINE
8
0
62
1
10
130.976517
20
103.309012
11
125.000000
21
100.000000
0
LINE
8
0
62
7
10
125.000000
20
100.000000
11
137.886099
21
100.000000
0
LINE
8
0
62
1
10
130.976517
20
103.309012
11
137.898882
21
102.273344
0
LINE
8
0
62
1
10
137.898882
20
102.273344
11
138.696645
21
106.820032
0
LINE
8
0
62
1
10
138.696645
20
106.820032
11
130.976517
21
103.309012
0
LINE
8
0
62
1
10
310.229938
20
137.433737
11
304.539905
21
133.910065
0
LINE
8
0
62
7
10
304.539905
20
133.910065
11
305.877853
21
133.090170
0
LINE
8
0
62
1
10
305.877853
20
133.090170
11
310.229938
21
137.433737
0
LINE
8
0
62
1
10
310.229938
20
137.433737
11
314.846555
21
135.211176
0
LINE
8
0
62
1
10
314.846555
20
135.211176
11
311.303355
21
143.179968
0
LINE
8
0
62
1
10
311.303355
20
143.179968
11
310.229938
21
137.433737
0
LINE
8
0
62
1
10
310.229938
20
112.566263
11
311.303355
21
106.820032
0
LINE
8
0
62
1
10
311.303355
20
106.820032
11
314.846555
21
114.788824
0
LINE
8
0
62
1
10
314.846555
20
114.788824
11
310.229938
21
112.566263
0
LINE
8
0
62
1
10
310.229938
20
112.566263
11
314.846555
21
114.788824
0
LINE
8
0
62
1
10
314.846555
20
114.788824
11
308.090170
21
119.122147
0
LINE
8
0
62
1
10
308.090170
20
119.122147
11
310.229938
21
112.566263
0
LINE
8
0
62
1
10
198.292181
20
119.855967
11
200.000000
21
125.000000
0
LINE
8
0
62
1
10
200.000000
20
125.000000
11
192.654321
21
119.753086
0
LINE
8
0
62
1
10
192.654321
20
119.753086
11
198.292181
21
119.855967
0
LINE
8
0
62
1
10
198.292181
20
119.855967
11
192.654321
21
119.753086
0
LINE
8
0
62
1
10
192.654321
20
119.753086
11
192.777778
21
113.888889
0
LINE
8
0
62
1
10
192.777778
20
113.888889
11
198.292181
21
119.855967
0
LINE
8
0
62
1
10
130.951008
20
132.129614
11
130.996962
21
125.497371
0
LINE
8
0
62
1
10
130.996962
20
125.497371
11
140.489435
21
128.090170
0
LINE
8
0
62
1
10
140.489435
20
128.090170
11
130.951008
21
132.129614
0
LINE
8
0
62
1
10
130.951008
20
132.129614
11
135.260535
21
135.540402
0
LINE
8
0
62
1
10
135.260535
20
135.540402
11
126.595527
21
135.351069
0
LINE
8
0
62
1
10
126.595527
20
135.351069
11
130.951008
21
132.129614
0
LINE
8
0
62
1
10
193.806584
20
108.470508
11
189.259259
21
104.629630
0
LINE
8
0
62
1
10
189.259259
20
104.629630
11
199.382716
21
106.893004
0
LINE
8
0
62
1
10
199.382716
20
106.893004
11
193.806584
21
108.470508
0
LINE
8
0
62
1
10
193.806584
20
108.470508
11
199.382716
21
106.893004
0
LINE
8
0
62
1
10
199.382716
20
106.893004
11
192.777778
21
113.888889
0
LINE
8
0
62
1
10
192.777778
20
113.888889
11
193.806584
21
108.470508
0
LINE
8
0
62
1
10
280.073281
20
111.232507
11
283.575541
21
116.666667
0
LINE
8
0
62
1
10
283.575541
20
116.666667
11
272.029978
21
118.179968
0
LINE
8
0
62
1
10
272.029978
20
118.179968
11
280.073281
21
111.232507
0
LINE
8
0
62
1
10
280.073281
20
111.232507
11
274.486160
21
110.717518
0
LINE
8
0
62
1
10
274.486160
20
110.717518
11
282.158141
21
106.313337
0
LINE
8
0
62
1
10
282.158141
20
106.313337
11
280.073281
21
111.232507
0
LINE
8
0
62
1
10
312.113901
20
150.000000
11
319.036939
21
146.747036
0
LINE
8
0
62
1
10
319.036939
20
146.747036
11
325.000000
21
150.000000
0
LINE
8
0
62
7
10
325.000000
20
150.000000
11
312.113901
21
150.000000
0
LINE
8
0
62
1
10
319.036939
20
146.747036
11
312.101118
21
147.726656
0
LINE
8
0
62
1
10
312.101118
20
147.726656
11
311.303355
21
143.179968
0
LINE
8
0
62
1
10
311.303355
20
143.179968
11
319.036939
21
146.747036
0
LINE
8
0
62
1
10
319.036939
20
103.252964
11
320.009700
21
107.485547
0
LINE
8
0
62
1
10
320.009700
20
107.485547
11
311.303355
21
106.820032
0
LINE
8
0
62
1
10
311.303355
20
106.820032
11
319.036939
21
103.252964
0
LINE
8
0
62
1
10
312.113901
20
100.000000
11
319.036939
21
103.252964
0
LINE
8
0
62
1
10
319.036939
20
103.252964
11
312.101118
21
102.273344
0
LINE
8
0
62
1
10
312.101118
20
102.273344
11
312.113901
21
100.000000
0
LINE
8
0
62
1
10
262.843226
20
150.000000
11
270.437650
21
146.885179
0
LINE
8
0
62
1
10
270.437650
20
146.885179
11
275.000000
21
150.000000
0
LINE
8
0
62
7
10
275.000000
20
150.000000
11
262.843226
21
150.000000
0
LINE
8
0
62
1
10
263.079581
20
147.914955
11
263.558886
21
143.686663
0
LINE
8
0
62
1
10
263.558886
20
143.686663
11
270.437650
21
146.885179
0
LINE
8
0
62
1
10
270.437650
20
146.885179
11
263.079581
21
147.914955
0
LINE
8
0
62
1
10
188.077597
20
100.000000
11
181.316872
21
102.880658
0
LINE
8
0
62
1
10
181.316872
20
102.880658
11
175.000000
21
100.000000
0
LINE
8
0
62
7
10
175.000000
20
100.000000
11
188.077597
21
100.000000
0
LINE
8
0
62
1
10
181.316872
20
102.880658
11
188.086420
21
101.543210
0
LINE
8
0
62
1
10
188.086420
20
101.543210
11
189.259259
21
104.629630
0
LINE
8
0
62
1
10
189.259259
20
104.629630
11
181.316872
21
102.880658
0
LINE
8
0
62
1
10
323.650626
20
121.878870
11
323.725744
21
115.636610
0
LINE
8
0
62
1
10
323.725744
20
115.636610
11
328.075639
21
125.000000
0
LINE
8
0
62
1
10
328.075639
20
125.000000
11
323.650626
21
121.878870
0
LINE
8
0
62
1
10
323.650626
20
128.121130
11
323.650626
21
121.878870
0
LINE
8
0
62
1
10
323.650626
20
121.878870
11
328.075639
21
125.000000
0
LINE
8
0
62
1
10
328.075639
20
125.000000
11
323.650626
21
128.121130
0
LINE
8
0
62
1
10
323.650626
20
128.121130
11
319.150496
21
125.000000
0
LINE
8
0
62
1
10
319.150496
20
125.000000
11
323.650626
21
121.878870
0
LINE
8
0
62
1
10
323.650626
20
121.878870
11
323.650626
21
128.121130
0
LINE
8
0
62
1
10
323.650626
20
128.121130
11
328.075639
21
125.000000
0
LINE
8
0
62
1
10
328.075639
20
125.000000
11
323.725744
21
134.363390
0
LINE
8
0
62
1
10
323.725744
20
134.363390
11
323.650626
21
128.121130
0
LINE
8
0
62
1
10
119.710366
20
146.632586
11
112.632961
21
147.390367
0
LINE
8
0
62
1
10
112.632961
20
147.390367
11
112.898882
21
142.171101
0
LINE
8
0
62
1
10
112.898882
20
142.171101
11
119.710366
21
146.632586
0
LINE
8
0
62
1
10
119.710366
20
146.632586
11
121.498136
21
142.507390
0
LINE
8
0
62
1
10
121.498136
20
142.507390
11
125.000000
21
150.000000
0
LINE
8
0
62
1
10
125.000000
20
150.000000
11
119.710366
21
146.632586
0
LINE
8
0
62
1
10
139.805758
20
137.543479
11
138.696645
21
143.179968
0
LINE
8
0
62
1
10
138.696645
20
143.179968
11
135.260535
21
135.540402
0
LINE
8
0
62
1
10
135.260535
20
135.540402
11
139.805758
21
137.543479
0
LINE
8
0
62
1
10
139.805758
20
137.543479
11
135.260535
21
135.540402
0
LINE
8
0
62
1
10
135.260535
20
135.540402
11
141.089935
21
129.539905
0
LINE
8
0
62
1
10
141.089935
20
129.539905
11
139.805758
21
137.543479
0
LINE
8
0
62
1
10
170.040348
20
110.759211
11
167.882227
21
106.145192
0
LINE
8
0
62
1
10
167.882227
20
106.145192
11
175.693253
21
109.970208
0
LINE
8
0
62
1
10
175.693253
20
109.970208
11
170.040348
21
110.759211
0
LINE
8
0
62
1
10
170.040348
20
110.759211
11
175.693253
21
109.970208
0
LINE
8
0
62
1
10
175.693253
20
109.970208
11
178.333333
21
116.666667
0
LINE
8
0
62
1
10
178.333333
20
116.666667
11
170.040348
21
110.759211
0
LINE
8
0
62
1
10
225.925926
20
112.962963
11
230.555556
21
113.888889
0
LINE
8
0
62
1
10
230.555556
20
113.888889
11
224.074074
21
118.518519
0
LINE
8
0
62
1
10
224.074074
20
118.518519
11
225.925926
21
112.962963
0
LINE
8
0
62
1
10
225.925926
20
112.962963
11
224.074074
21
118.518519
0
LINE
8
0
62
1
10
224.074074
20
118.518519
11
216.666667
21
116.666667
0
LINE
8
0
62
1
10
216.666667
20
116.666667
11
225.925926
21
112.962963
0
LINE
8
0
62
1
10
159.575426
20
138.054440
11
153.090170
21
134.510565
0
LINE
8
0
62
7
10
153.090170
20
134.510565
11
154.539905
21
133.910065
0
LINE
8
0
62
1
10
154.539905
20
133.910065
11
159.575426
21
138.054440
0
LINE
8
0
62
1
10
159.575426
20
138.054440
11
164.332752
21
136.472787
0
LINE
8
0
62
1
10
164.332752
20
136.472787
11
161.303355
21
143.179968
0
LINE
8
0
62
1
10
161.303355
20
143.179968
11
159.575426
21
138.054440
0
LINE
8
0
62
1
10
130.998757
20
146.856778
11
130.097390
21
142.843679
0
LINE
8
0
62
1
10
130.097390
20
142.843679
11
138.696645
21
143.179968
0
LINE
8
0
62
1
10
138.696645
20
143.179968
11
130.998757
21
146.856778
0
LINE
8
0
62
1
10
137.886099
20
150.000000
11
130.998757
21
146.856778
0
LINE
8
0
62
1
10
130.998757
20
146.856778
11
137.898882
21
147.726656
0
LINE
8
0
62
1
10
137.898882
20
147.726656
11
137.886099
21
150.000000
0
LINE
8
0
62
1
10
350.000000
20
137.946384
11
347.592593
21
137.962963
0
LINE
8
0
62
1
10
347.592593
20
137.962963
11
345.631818
21
131.828274
0
LINE
8
0
62
1
10
345.631818
20
131.828274
11
350.000000
21
137.946384
0
LINE
8
0
62
1
10
100.000000
20
112.218996
11
102.447775
21
112.205182
0
LINE
8
0
62
1
10
102.447775
20
112.205182
11
104.439948
21
118.470650
0
LINE
8
0
62
1
10
104.439948
20
118.470650
11
100.000000
21
112.218996
0
LINE
8
0
62
1
10
101.515701
20
125.279373
11
100.000000
21
125.167524
0
LINE
8
0
62
1
10
100.000000
20
125.167524
11
101.521849
21
125.168145
0
LINE
8
0
62
1
10
101.521849
20
125.168145
11
101.515701
21
125.279373
0
LINE
8
0
62
1
10
101.515701
20
125.279373
11
108.027890
21
130.414305
0
LINE
8
0
62
1
10
108.027890
20
130.414305
11
100.000000
21
125.167524
0
LINE
8
0
62
1
10
100.000000
20
125.167524
11
101.515701
21
125.279373
0
LINE
8
0
62
7
10
200.000000
20
138.159179
11
200.000000
21
150.000000
0
LINE
8
0
62
1
10
200.000000
20
150.000000
11
194.218107
21
145.781893
0
LINE
8
0
62
1
10
194.218107
20
145.781893
11
200.000000
21
138.159179
0
LINE
8
0
62
7
10
250.000000
20
138.177536
11
250.000000
21
125.000000
0
LINE
8
0
62
1
10
250.000000
20
125.000000
11
256.732096
21
131.874070
0
LINE
8
0
62
1
10
256.732096
20
131.874070
11
250.000000
21
138.177536
0
LINE
8
0
62
1
10
188.453983
20
101.474640
11
188.077597
21
100.000000
0
LINE
8
0
62
7
10
188.077597
20
100.000000
11
200.000000
21
100.000000
0
LINE
8
0
62
1
10
200.000000
20
100.000000
11
188.453983
21
101.474640
0
LINE
8
0
62
7
10
261.936283
20
100.000000
11
275.000000
21
100.000000
0
LINE
8
0
62
1
10
275.000000
20
100.000000
11
268.732466
21
103.086169
0
LINE
8
0
62
1
10
268.732466
20
103.086169
11
261.936283
21
100.000000
0
LINE
8
0
62
7
10
237.953007
20
100.000000
11
250.000000
21
100.000000
0
LINE
8
0
62
1
10
250.000000
20
100.000000
11
246.186295
21
105.302962
0
LINE
8
0
62
1
10
246.186295
20
105.302962
11
237.953007
21
100.000000
0
LINE
8
0
62
1
10
238.258699
20
101.814638
11
238.888889
21
105.555556
0
LINE
8
0
62
1
10
238.888889
20
105.555556
11
237.962963
21
101.851852
0
LINE
8
0
62
1
10
237.962963
20
101.851852
11
238.258699
21
101.814638
0
LINE
8
0
62
1
10
238.258699
20
101.814638
11
246.186295
21
105.302962
0
LINE
8
0
62
1
10
246.186295
20
105.302962
11
238.888889
21
105.555556
0
LINE
8
0
62
1
10
238.888889
20
105.555556
11
238.258699
21
101.814638
0
LINE
8
0
62
1
10
213.790153
20
101.618707
11
225.000000
21
100.000000
0
LINE
8
0
62
1
10
225.000000
20
100.000000
11
223.148148
21
106.481481
0
LINE
8
0
62
1
10
223.148148
20
106.481481
11
213.790153
21
101.618707
0
LINE
8
0
62
1
10
213.258699
20
101.814638
11
213.888889
21
105.555556
0
LINE
8
0
62
1
10
213.888889
20
105.555556
11
212.962963
21
101.851852
0
LINE
8
0
62
1
10
212.962963
20
101.851852
11
213.258699
21
101.814638
0
LINE
8
0
62
1
10
213.790153
20
101.618707
11
213.888889
21
105.555556
0
LINE
8
0
62
1
10
213.888889
20
105.555556
11
213.258699
21
101.814638
0
LINE
8
0
62
1
10
213.258699
20
101.814638
11
213.790153
21
101.618707
0
LINE
8
0
62
7
10
262.843226
20
150.000000
11
250.000000
21
150.000000
0
LINE
8
0
62
1
10
250.000000
20
150.000000
11
255.790864
21
145.819258
0
LINE
8
0
62
1
10
255.790864
20
145.819258
11
262.843226
21
150.000000
0
LINE
8
0
62
1
10
263.079581
20
147.914955
11
262.843226
21
150.000000
0
LINE
8
0
62
1
10
262.843226
20
150.000000
11
262.852962
21
147.895554
0
LINE
8
0
62
1
10
262.852962
20
147.895554
11
263.079581
21
147.914955
0
LINE
8
0
62
1
10
263.079581
20
147.914955
11
270.437650
21
146.885179
0
LINE
8
0
62
1
10
270.437650
20
146.885179
11
262.843226
21
150.000000
0
LINE
8
0
62
1
10
262.843226
20
150.000000
11
263.079581
21
147.914955
0
LINE
8
0
62
1
10
261.566562
20
101.535560
11
261.936283
21
100.000000
0
LINE
8
0
62
1
10
261.936283
20
100.000000
11
261.927036
21
101.599258
0
LINE
8
0
62
1
10
261.927036
20
101.599258
11
261.566562
21
101.535560
0
LINE
8
0
62
1
10
261.566562
20
101.535560
11
253.483702
21
105.050368
0
LINE
8
0
62
1
10
253.483702
20
105.050368
11
261.936283
21
100.000000
0
LINE
8
0
62
1
10
261.936283
20
100.000000
11
261.566562
21
101.535560
0
LINE
8
0
62
7
10
187.170349
20
150.000000
11
175.000000
21
150.000000
0
LINE
8
0
62
1
10
175.000000
20
150.000000
11
178.088773
21
143.405668
0
LINE
8
0
62
1
10
178.088773
20
143.405668
11
187.170349
21
150.000000
0
LINE
8
0
62
1
10
186.942588
20
147.857023
11
186.481481
21
143.518519
0
LINE
8
0
62
1
10
186.481481
20
143.518519
11
187.160494
21
147.839506
0
LINE
8
0
62
1
10
187.160494
20
147.839506
11
186.942588
21
147.857023
0
LINE
8
0
62
1
10
186.942588
20
147.857023
11
178.088773
21
143.405668
0
LINE
8
0
62
1
10
178.088773
20
143.405668
11
186.481481
21
143.518519
0
LINE
8
0
62
1
10
186.481481
20
143.518519
11
186.942588
21
147.857023
0
LINE
8
0
62
1
10
188.453983
20
101.474640
11
189.259259
21
104.629630
0
LINE
8
0
62
1
10
189.259259
20
104.629630
11
188.086420
21
101.543210
0
LINE
8
0
62
1
10
188.086420
20
101.543210
11
188.453983
21
101.474640
0
LINE
8
0
62
1
10
188.453983
20
101.474640
11
200.000000
21
100.000000
0
LINE
8
0
62
1
10
200.000000
20
100.000000
11
189.259259
21
104.629630
0
LINE
8
0
62
1
10
189.259259
20
104.629630
11
188.453983
21
101.474640
0
LINE
8
0
62
7
10
162.113901
20
100.000000
11
175.000000
21
100.000000
0
LINE
8
0
62
1
10
175.000000
20
100.000000
11
167.882227
21
106.145192
0
LINE
8
0
62
1
10
167.882227
20
106.145192
11
162.113901
21
100.000000
0
LINE
8
0
62
1
10
161.846440
20
102.250449
11
162.113901
21
100.000000
0
LINE
8
0
62
1
10
162.113901
20
100.000000
11
162.101118
21
102.273344
0
LINE
8
0
62
1
10
162.101118
20
102.273344
11
161.846440
21
102.250449
0
LINE
8
0
62
1
10
161.846440
20
102.250449
11
153.767785
21
107.273344
0
LINE
8
0
62
1
10
153.767785
20
107.273344
11
162.113901
21
100.000000
0
LINE
8
0
62
1
10
162.113901
20
100.000000
11
161.846440
21
102.250449
0
LINE
8
0
62
7
10
162.113901
20
150.000000
11
150.000000
21
150.000000
0
LINE
8
0
62
1
10
150.000000
20
150.000000
11
153.767785
21
142.726656
0
LINE
8
0
62
1
10
153.767785
20
142.726656
11
162.113901
21
150.000000
0
LINE
8
0
62
1
10
161.846440
20
147.749551
11
161.303355
21
143.179968
0
LINE
8
0
62
1
10
161.303355
20
143.179968
11
162.101118
21
147.726656
0
LINE
8
0
62
1
10
162.101118
20
147.726656
11
161.846440
21
147.749551
0
LINE
8
0
62
1
10
161.846440
20
147.749551
11
153.767785
21
142.726656
0
LINE
8
0
62
1
10
153.767785
20
142.726656
11
161.303355
21
143.179968
0
LINE
8
0
62
1
10
161.303355
20
143.179968
11
161.846440
21
147.749551
0
LINE
8
0
62
7
10
287.886099
20
100.000000
11
300.000000
21
100.000000
0
LINE
8
0
62
1
10
300.000000
20
100.000000
11
296.232215
21
107.273344
0
LINE
8
0
62
1
10
296.232215
20
107.273344
11
287.886099
21
100.000000
0
LINE
8
0
62
1
10
288.153560
20
102.250449
11
288.696645
21
106.820032
0
LINE
8
0
62
1
10
288.696645
20
106.820032
11
287.898882
21
102.273344
0
LINE
8
0
62
1
10
287.898882
20
102.273344
11
288.153560
21
102.250449
0
LINE
8
0
62
1
10
288.153560
20
102.250449
11
296.232215
21
107.273344
0
LINE
8
0
62
1
10
296.232215
20
107.273344
11
288.696645
21
106.820032
0
LINE
8
0
62
1
10
288.696645
20
106.820032
11
288.153560
21
102.250449
0
LINE
8
0
62
7
10
287.886099
20
150.000000
11
275.000000
21
150.000000
0
LINE
8
0
62
1
10
275.000000
20
150.000000
11
281.319622
21
146.473322
0
LINE
8
0
62
1
10
281.319622
20
146.473322
11
287.886099
21
150.000000
0
LINE
8
0
62
1
10
288.153560
20
147.749551
11
287.886099
21
150.000000
0
LINE
8
0
62
1
10
287.886099
20
150.000000
11
287.898882
21
147.726656
0
LINE
8
0
62
1
10
287.898882
20
147.726656
11
288.153560
21
147.749551
0
LINE
8
0
62
1
10
288.153560
20
147.749551
11
296.232215
21
142.726656
0
LINE
8
0
62
1
10
296.232215
20
142.726656
11
287.886099
21
150.000000
0
LINE
8
0
62
1
10
287.886099
20
150.000000
11
288.153560
21
147.749551
0
LINE
8
0
62
7
10
137.886099
20
100.000000
11
150.000000
21
100.000000
0
LINE
8
0
62
1
10
150.000000
20
100.000000
11
146.232215
21
107.273344
0
LINE
8
0
62
1
10
146.232215
20
107.273344
11
137.886099
21
100.000000
0
LINE
8
0
62
1
10
138.153560
20
102.250449
11
138.696645
21
106.820032
0
LINE
8
0
62
1
10
138.696645
20
106.820032
11
137.898882
21
102.273344
0
LINE
8
0
62
1
10
137.898882
20
102.273344
11
138.153560
21
102.250449
0
LINE
8
0
62
1
10
138.153560
20
102.250449
11
146.232215
21
107.273344
0
LINE
8
0
62
1
10
146.232215
20
107.273344
11
138.696645
21
106.820032
0
LINE
8
0
62
1
10
138.696645
20
106.820032
11
138.153560
21
102.250449
0
LINE
8
0
62
7
10
312.113901
20
100.000000
11
325.000000
21
100.000000
0
LINE
8
0
62
1
10
325.000000
20
100.000000
11
319.036939
21
103.252964
0
LINE
8
0
62
1
10
319.036939
20
103.252964
11
312.113901
21
100.000000
0
LINE
8
0
62
1
10
311.846440
20
102.250449
11
312.113901
21
100.000000
0
LINE
8
0
62
1
10
312.113901
20
100.000000
11
312.101118
21
102.273344
0
LINE
8
0
62
1
10
312.101118
20
102.273344
11
311.846440
21
102.250449
0
LINE
8
0
62
1
10
311.846440
20
102.250449
11
303.767785
21
107.273344
0
LINE
8
0
62
1
10
303.767785
20
107.273344
11
312.113901
21
100.000000
0
LINE
8
0
62
1
10
312.113901
20
100.000000
11
311.846440
21
102.250449
0
LINE
8
0
62
7
10
312.113901
20
150.000000
11
300.000000
21
150.000000
0
LINE
8
0
62
1
10
300.000000
20
150.000000
11
303.767785
21
142.726656
0
LINE
8
0
62
1
10
303.767785
20
142.726656
11
312.113901
21
150.000000
0
LINE
8
0
62
1
10
311.846440
20
147.749551
11
311.303355
21
143.179968
0
LINE
8
0
62
1
10
311.303355
20
143.179968
11
312.101118
21
147.726656
0
LINE
8
0
62
1
10
312.101118
20
147.726656
11
311.846440
21
147.749551
0
LINE
8
0
62
1
10
311.846440
20
147.749551
11
303.767785
21
142.726656
0
LINE
8
0
62
1
10
303.767785
20
142.726656
11
311.303355
21
143.179968
0
LINE
8
0
62
1
10
311.303355
20
143.179968
11
311.846440
21
147.749551
0
LINE
8
0
62
7
10
137.886099
20
150.000000
11
125.000000
21
150.000000
0
LINE
8
0
62
1
10
125.000000
20
150.000000
11
130.998757
21
146.856778
0
LINE
8
0
62
1
10
130.998757
20
146.856778
11
137.886099
21
150.000000
0
LINE
8
0
62
1
10
138.153560
20
147.749551
11
137.886099
21
150.000000
0
LINE
8
0
62
1
10
137.886099
20
150.000000
11
137.898882
21
147.726656
0
LINE
8
0
62
1
10
137.898882
20
147.726656
11
138.153560
21
147.749551
0
LINE
8
0
62
1
10
138.153560
20
147.749551
11
146.232215
21
142.726656
0
LINE
8
0
62
1
10
146.232215
20
142.726656
11
137.886099
21
150.000000
0
LINE
8
0
62
1
10
137.886099
20
150.000000
11
138.153560
21
147.749551
0
LINE
8
0
62
1
10
213.790153
20
101.618707
11
217.901235
21
109.567901
0
LINE
8
0
62
1
10
217.901235
20
109.567901
11
213.888889
21
105.555556
0
LINE
8
0
62
1
10
213.888889
20
105.555556
11
213.790153
21
101.618707
0
LINE
8
0
62
1
10
213.790153
20
101.618707
11
223.148148
21
106.481481
0
LINE
8
0
62
1
10
223.148148
20
106.481481
11
217.901235
21
109.567901
0
LINE
8
0
62
1
10
217.901235
20
109.567901
11
213.790153
21
101.618707
0
LINE
8
0
62
1
10
213.248171
20
101.771466
11
213.790153
21
101.618707
0
LINE
8
0
62
1
10
213.790153
20
101.618707
11
213.258699
21
101.814638
0
LINE
8
0
62
1
10
213.258699
20
101.814638
11
213.248171
21
101.771466
0
LINE
8
0
62
1
10
213.248171
20
101.771466
11
212.953007
21
100.000000
0
LINE
8
0
62
1
10
212.953007
20
100.000000
11
213.790153
21
101.618707
0
LINE
8
0
62
1
10
213.790153
20
101.618707
11
213.248171
21
101.771466
0
LINE
8
0
62
7
10
350.000000
20
137.946384
11
350.000000
21
150.000000
0
LINE
8
0
62
1
10
350.000000
20
150.000000
11
343.888889
21
145.370370
0
LINE
8
0
62
1
10
343.888889
20
145.370370
11
350.000000
21
137.946384
0
LINE
8
0
62
1
10
347.644348
20
138.333131
11
344.259259
21
138.888889
0
LINE
8
0
62
1
10
344.259259
20
138.888889
11
347.592593
21
137.962963
0
LINE
8
0
62
1
10
347.592593
20
137.962963
11
347.644348
21
138.333131
0
LINE
8
0
62
1
10
347.644348
20
138.333131
11
343.888889
21
145.370370
0
LINE
8
0
62
1
10
343.888889
20
145.370370
11
344.259259
21
138.888889
0
LINE
8
0
62
1
10
344.259259
20
138.888889
11
347.644348
21
138.333131
0
LINE
8
0
62
7
10
350.000000
20
112.053616
11
350.000000
21
125.000000
0
LINE
8
0
62
1
10
350.000000
20
125.000000
11
345.631818
21
118.171726
0
LINE
8
0
62
1
10
345.631818
20
118.171726
11
350.000000
21
112.053616
0
LINE
8
0
62
1
10
347.644348
20
111.666869
11
350.000000
21
112.053616
0
LINE
8
0
62
1
10
350.000000
20
112.053616
11
347.592593
21
112.037037
0
LINE
8
0
62
1
10
347.592593
20
112.037037
11
347.644348
21
111.666869
0
LINE
8
0
62
1
10
347.644348
20
111.666869
11
343.888889
21
104.629630
0
LINE
8
0
62
1
10
343.888889
20
104.629630
11
350.000000
21
112.053616
0
LINE
8
0
62
1
10
350.000000
20
112.053616
11
347.644348
21
111.666869
0
LINE
8
0
62
7
10
100.000000
20
112.218996
11
100.000000
21
100.000000
0
LINE
8
0
62
1
10
100.000000
20
100.000000
11
106.151479
21
104.797774
0
LINE
8
0
62
1
10
106.151479
20
104.797774
11
100.000000
21
112.218996
0
LINE
8
0
62
1
10
102.412957
20
111.899175
11
105.821477
21
111.447400
0
LINE
8
0
62
1
10
105.821477
20
111.447400
11
102.447775
21
112.205182
0
LINE
8
0
62
1
10
102.447775
20
112.205182
11
102.412957
21
111.899175
0
LINE
8
0
62
1
10
102.412957
20
111.899175
11
106.151479
21
104.797774
0
LINE
8
0
62
1
10
106.151479
20
104.797774
11
105.821477
21
111.447400
0
LINE
8
0
62
1
10
105.821477
20
111.447400
11
102.412957
21
111.899175
0
LINE
8
0
62
7
10
100.000000
20
138.110594
11
100.000000
21
125.167524
0
LINE
8
0
62
1
10
100.000000
20
125.167524
11
108.027890
21
130.414305
0
LINE
8
0
62
1
10
108.027890
20
130.414305
11
100.000000
21
138.110594
0
LINE
8
0
62
1
10
102.377196
20
138.565733
11
100.000000
21
138.110594
0
LINE
8
0
62
1
10
100.000000
20
138.110594
11
102.447775
21
138.131108
0
LINE
8
0
62
1
10
102.447775
20
138.131108
11
102.377196
21
138.565733
0
LINE
8
0
62
1
10
102.377196
20
138.565733
11
106.151479
21
145.538515
0
LINE
8
0
62
1
10
106.151479
20
145.538515
11
100.000000
21
138.110594
0
LINE
8
0
62
1
10
100.000000
20
138.110594
11
102.377196
21
138.565733
0
LINE
8
0
62
7
10
112.627407
20
150.000000
11
100.000000
21
150.000000
0
LINE
8
0
62
1
10
100.000000
20
150.000000
11
106.151479
21
145.538515
0
LINE
8
0
62
1
10
106.151479
20
145.538515
11
112.627407
21
150.000000
0
LINE
8
0
62
1
10
198.587056
20
138.581539
11
195.493827
21
139.506173
0
LINE
8
0
62
1
10
195.493827
20
139.506173
11
198.497942
21
138.168724
0
LINE
8
0
62
1
10
198.497942
20
138.168724
11
198.587056
21
138.581539
0
LINE
8
0
62
1
10
198.587056
20
138.581539
11
194.218107
21
145.781893
0
LINE
8
0
62
1
10
194.218107
20
145.781893
11
195.493827
21
139.506173
0
LINE
8
0
62
1
10
195.493827
20
139.506173
11
198.587056
21
138.581539
0
LINE
8
0
62
1
10
251.413131
20
138.610479
11
250.000000
21
138.177536
0
LINE
8
0
62
1
10
250.000000
20
138.177536
11
251.506543
21
138.187407
0
LINE
8
0
62
1
10
251.506543
20
138.187407
11
251.413131
21
138.610479
0
LINE
8
0
62
1
10
251.413131
20
138.610479
11
255.790864
21
145.819258
0
LINE
8
0
62
1
10
255.790864
20
145.819258
11
250.000000
21
138.177536
0
LINE
8
0
62
1
10
250.000000
20
138.177536
11
251.413131
21
138.610479
0
LINE
8
0
62
7
10
337.411765
20
150.000000
11
325.000000
21
150.000000
0
LINE
8
0
62
1
10
325.000000
20
150.000000
11
330.352243
21
146.410747
0
LINE
8
0
62
1
10
330.352243
20
146.410747
11
337.411765
21
150.000000
0
LINE
8
0
62
7
10
337.411765
20
100.000000
11
350.000000
21
100.000000
0
LINE
8
0
62
1
10
350.000000
20
100.000000
11
343.888889
21
104.629630
0
LINE
8
0
62
1
10
343.888889
20
104.629630
11
337.411765
21
100.000000
0
LINE
8
0
62
7
10
213.822789
20
125.000000
11
200.000000
21
125.000000
0
LINE
8
0
62
1
10
200.000000
20
125.000000
11
205.370370
21
120.679012
0
LINE
8
0
62
1
10
205.370370
20
120.679012
11
213.822789
21
125.000000
0
LINE
8
0
62
7
10
238.822789
20
125.000000
11
225.000000
21
125.000000
0
LINE
8
0
62
1
10
225.000000
20
125.000000
11
231.481481
21
120.370370
0
LINE
8
0
62
1
10
231.481481
20
120.370370
11
238.822789
21
125.000000
0
ENDSEC
0
EOF