0
SECTION
2
HEADER
9
$ACADVER
1
AC1009
0
ENDSEC
0
SECTION
2
TABLES
0
ENDSEC
0
SECTION
2
BLOCKS
0
ENDSEC
0
SECTION
2
ENTITIES
0
LINE
8
0
62
1
10
189.259259
20
104.629630
11
175.000000
21
100.000000
0
LINE
8
0
62
7
10
175.000000
20
100.000000
11
200.000000
21
100.000000
0
LINE
8
0
62
1
10
200.000000
20
100.000000
11
189.259259
21
104.629630
0
LINE
8
0
62
1
10
100.000000
20
125.167524
11
101.521849
21
125.168145
0
LINE
8
0
62
1
10
101.521849
20
125.168145
11
100.000000
21
150.000000
0
LINE
8
0
62
7
10
100.000000
20
150.000000
11
100.000000
21
125.167524
0
LINE
8
0
62
1
10
186.481481
20
143.518519
11
200.000000
21
150.000000
0
LINE
8
0
62
7
10
200.000000
20
150.000000
11
175.000000
21
150.000000
0
LINE
8
0
62
1
10
175.000000
20
150.000000
11
186.481481
21
143.518519
0
LINE
8
0
62
1
10
213.888889
20
122.222222
11
225.000000
21
125.000000
0
LINE
8
0
62
7
10
225.000000
20
125.000000
11
200.000000
21
125.000000
0
LINE
8
0
62
1
10
200.000000
20
125.000000
11
213.888889
21
122.222222
0
LINE
8
0
62
1
10
162.101118
20
147.726656
11
175.000000
21
150.000000
0
LINE
8
0
62
7
10
175.000000
20
150.000000
11
150.000000
21
150.000000
0
LINE
8
0
62
1
10
150.000000
20
150.000000
11
162.101118
21
147.726656
0
LINE
8
0
62
1
10
170.372723
20
126.121718
11
184.444444
21
130.555556
0
LINE
8
0
62
1
10
184.444444
20
130.555556
11
172.784837
21
136.698487
0
LINE
8
0
62
1
10
172.784837
20
136.698487
11
170.372723
21
126.121718
0
LINE
8
0
62
1
10
238.888889
20
122.222222
11
250.000000
21
125.000000
0
LINE
8
0
62
7
10
250.000000
20
125.000000
11
225.000000
21
125.000000
0
LINE
8
0
62
1
10
225.000000
20
125.000000
11
238.888889
21
122.222222
0
LINE
8
0
62
1
10
256.732096
20
131.874070
11
263.558886
21
143.686663
0
LINE
8
0
62
1
10
263.558886
20
143.686663
11
254.519629
21
139.562221
0
LINE
8
0
62
1
10
254.519629
20
139.562221
11
256.732096
21
131.874070
0
LINE
8
0
62
1
10
263.558886
20
143.686663
11
275.000000
21
150.000000
0
LINE
8
0
62
7
10
275.000000
20
150.000000
11
250.000000
21
150.000000
0
LINE
8
0
62
1
10
250.000000
20
150.000000
11
263.558886
21
143.686663
0
LINE
8
0
62
1
10
287.898882
20
147.726656
11
300.000000
21
150.000000
0
LINE
8
0
62
7
10
300.000000
20
150.000000
11
275.000000
21
150.000000
0
LINE
8
0
62
1
10
275.000000
20
150.000000
11
287.898882
21
147.726656
0
LINE
8
0
62
1
10
312.101118
20
147.726656
11
325.000000
21
150.000000
0
LINE
8
0
62
7
10
325.000000
20
150.000000
11
300.000000
21
150.000000
0
LINE
8
0
62
1
10
300.000000
20
150.000000
11
312.101118
21
147.726656
0
LINE
8
0
62
1
10
328.649322
20
142.010019
11
320.009700
21
142.514453
0
LINE
8
0
62
1
10
320.009700
20
142.514453
11
323.725744
21
134.363390
0
LINE
8
0
62
1
10
323.725744
20
134.363390
11
328.649322
21
142.010019
0
LINE
8
0
62
1
10
350.000000
20
125.000000
11
348.518519
21
125.000000
0
LINE
8
0
62
1
10
348.518519
20
125.000000
11
350.000000
21
100.000000
0
LINE
8
0
62
7
10
350.000000
20
100.000000
11
350.000000
21
125.000000
0
LINE
8
0
62
1
10
337.407407
20
102.777778
11
325.000000
21
100.000000
0
LINE
8
0
62
7
10
325.000000
20
100.000000
11
350.000000
21
100.000000
0
LINE
8
0
62
1
10
350.000000
20
100.000000
11
337.407407
21
102.777778
0
LINE
8
0
62
1
10
269.270362
20
107.659248
11
257.343326
21
114.393323
0
LINE
8
0
62
1
10
257.343326
20
114.393323
11
260.781109
21
104.797774
0
LINE
8
0
62
1
10
260.781109
20
104.797774
11
269.270362
21
107.659248
0
LINE
8
0
62
1
10
238.888889
20
105.555556
11
225.000000
21
100.000000
0
LINE
8
0
62
7
10
225.000000
20
100.000000
11
250.000000
21
100.000000
0
LINE
8
0
62
1
10
250.000000
20
100.000000
11
238.888889
21
105.555556
0
LINE
8
0
62
1
10
213.888889
20
105.555556
11
200.000000
21
100.000000
0
LINE
8
0
62
7
10
200.000000
20
100.000000
11
225.000000
21
100.000000
0
LINE
8
0
62
1
10
225.000000
20
100.000000
11
213.888889
21
105.555556
0
LINE
8
0
62
1
10
205.370370
20
106.790123
11
200.000000
21
100.000000
0
LINE
8
0
62
1
10
200.000000
20
100.000000
11
213.888889
21
105.555556
0
LINE
8
0
62
1
10
213.888889
20
105.555556
11
205.370370
21
106.790123
0
LINE
8
0
62
1
10
121.431414
20
108.326270
11
130.030668
21
107.653692
0
LINE
8
0
62
1
10
130.030668
20
107.653692
11
126.395360
21
116.141044
0
LINE
8
0
62
1
10
126.395360
20
116.141044
11
121.431414
21
108.326270
0
LINE
8
0
62
1
10
137.898882
20
147.726656
11
150.000000
21
150.000000
0
LINE
8
0
62
7
10
150.000000
20
150.000000
11
125.000000
21
150.000000
0
LINE
8
0
62
1
10
125.000000
20
150.000000
11
137.898882
21
147.726656
0
LINE
8
0
62
1
10
166.545563
20
116.162233
11
159.510565
21
121.909830
0
LINE
8
0
62
7
10
159.510565
20
121.909830
11
158.910065
21
120.460095
0
LINE
8
0
62
1
10
158.910065
20
120.460095
11
166.545563
21
116.162233
0
LINE
8
0
62
1
10
170.372723
20
126.121718
11
160.000000
21
125.000000
0
LINE
8
0
62
7
10
160.000000
20
125.000000
11
159.876883
21
123.435655
0
LINE
8
0
62
1
10
159.876883
20
123.435655
11
170.372723
21
126.121718
0
LINE
8
0
62
1
10
170.372723
20
126.121718
11
159.876883
21
126.564345
0
LINE
8
0
62
7
10
159.876883
20
126.564345
11
160.000000
21
125.000000
0
LINE
8
0
62
1
10
160.000000
20
125.000000
11
170.372723
21
126.121718
0
LINE
8
0
62
1
10
164.332752
20
136.472787
11
157.071068
21
132.071068
0
LINE
8
0
62
7
10
157.071068
20
132.071068
11
158.090170
21
130.877853
0
LINE
8
0
62
1
10
158.090170
20
130.877853
11
164.332752
21
136.472787
0
LINE
8
0
62
1
10
164.332752
20
136.472787
11
159.876883
21
126.564345
0
LINE
8
0
62
1
10
159.876883
20
126.564345
11
170.372723
21
126.121718
0
LINE
8
0
62
1
10
170.372723
20
126.121718
11
164.332752
21
136.472787
0
LINE
8
0
62
1
10
164.332752
20
136.472787
11
158.090170
21
130.877853
0
LINE
8
0
62
7
10
158.090170
20
130.877853
11
158.910065
21
129.539905
0
LINE
8
0
62
1
10
158.910065
20
129.539905
11
164.332752
21
136.472787
0
LINE
8
0
62
1
10
164.332752
20
136.472787
11
155.877853
21
133.090170
0
LINE
8
0
62
7
10
155.877853
20
133.090170
11
157.071068
21
132.071068
0
LINE
8
0
62
1
10
157.071068
20
132.071068
11
164.332752
21
136.472787
0
LINE
8
0
62
1
10
112.632961
20
147.390367
11
125.000000
21
150.000000
0
LINE
8
0
62
7
10
125.000000
20
150.000000
11
100.000000
21
150.000000
0
LINE
8
0
62
1
10
100.000000
20
150.000000
11
112.632961
21
147.390367
0
LINE
8
0
62
1
10
164.332752
20
136.472787
11
154.539905
21
133.910065
0
LINE
8
0
62
7
10
154.539905
20
133.910065
11
155.877853
21
133.090170
0
LINE
8
0
62
1
10
155.877853
20
133.090170
11
164.332752
21
136.472787
0
LINE
8
0
62
1
10
164.332752
20
136.472787
11
153.090170
21
134.510565
0
LINE
8
0
62
7
10
153.090170
20
134.510565
11
154.539905
21
133.910065
0
LINE
8
0
62
1
10
154.539905
20
133.910065
11
164.332752
21
136.472787
0
LINE
8
0
62
1
10
161.303355
20
143.179968
11
151.564345
21
134.876883
0
LINE
8
0
62
7
10
151.564345
20
134.876883
11
153.090170
21
134.510565
0
LINE
8
0
62
1
10
153.090170
20
134.510565
11
161.303355
21
143.179968
0
LINE
8
0
62
1
10
161.303355
20
143.179968
11
150.000000
21
135.000000
0
LINE
8
0
62
7
10
150.000000
20
135.000000
11
151.564345
21
134.876883
0
LINE
8
0
62
1
10
151.564345
20
134.876883
11
161.303355
21
143.179968
0
LINE
8
0
62
1
10
146.232215
20
142.726656
11
150.000000
21
135.000000
0
LINE
8
0
62
1
10
150.000000
20
135.000000
11
150.000000
21
150.000000
0
LINE
8
0
62
1
10
150.000000
20
150.000000
11
146.232215
21
142.726656
0
LINE
8
0
62
1
10
146.232215
20
142.726656
11
148.435655
21
134.876883
0
LINE
8
0
62
7
10
148.435655
20
134.876883
11
150.000000
21
135.000000
0
LINE
8
0
62
1
10
150.000000
20
135.000000
11
146.232215
21
142.726656
0
LINE
8
0
62
1
10
146.232215
20
142.726656
11
146.909830
21
134.510565
0
LINE
8
0
62
7
10
146.909830
20
134.510565
11
148.435655
21
134.876883
0
LINE
8
0
62
1
10
148.435655
20
134.876883
11
146.232215
21
142.726656
0
LINE
8
0
62
1
10
146.232215
20
142.726656
11
145.460095
21
133.910065
0
LINE
8
0
62
7
10
145.460095
20
133.910065
11
146.909830
21
134.510565
0
LINE
8
0
62
1
10
146.909830
20
134.510565
11
146.232215
21
142.726656
0
LINE
8
0
62
1
10
135.260535
20
135.540402
11
145.460095
21
133.910065
0
LINE
8
0
62
1
10
145.460095
20
133.910065
11
138.696645
21
143.179968
0
LINE
8
0
62
1
10
138.696645
20
143.179968
11
135.260535
21
135.540402
0
LINE
8
0
62
1
10
135.260535
20
135.540402
11
144.122147
21
133.090170
0
LINE
8
0
62
7
10
144.122147
20
133.090170
11
145.460095
21
133.910065
0
LINE
8
0
62
1
10
145.460095
20
133.910065
11
135.260535
21
135.540402
0
LINE
8
0
62
1
10
137.898882
20
102.273344
11
125.000000
21
100.000000
0
LINE
8
0
62
7
10
125.000000
20
100.000000
11
150.000000
21
100.000000
0
LINE
8
0
62
1
10
150.000000
20
100.000000
11
137.898882
21
102.273344
0
LINE
8
0
62
1
10
135.260535
20
135.540402
11
142.928932
21
132.071068
0
LINE
8
0
62
7
10
142.928932
20
132.071068
11
144.122147
21
133.090170
0
LINE
8
0
62
1
10
144.122147
20
133.090170
11
135.260535
21
135.540402
0
LINE
8
0
62
1
10
135.193813
20
114.956969
11
130.996962
21
125.497371
0
LINE
8
0
62
1
10
130.996962
20
125.497371
11
126.395360
21
116.141044
0
LINE
8
0
62
1
10
126.395360
20
116.141044
11
135.193813
21
114.956969
0
LINE
8
0
62
1
10
135.260535
20
135.540402
11
141.089935
21
129.539905
0
LINE
8
0
62
7
10
141.089935
20
129.539905
11
141.909830
21
130.877853
0
LINE
8
0
62
1
10
141.909830
20
130.877853
11
135.260535
21
135.540402
0
LINE
8
0
62
1
10
135.260535
20
135.540402
11
130.996962
21
125.497371
0
LINE
8
0
62
1
10
130.996962
20
125.497371
11
140.489435
21
128.090170
0
LINE
8
0
62
1
10
140.489435
20
128.090170
11
135.260535
21
135.540402
0
LINE
8
0
62
1
10
130.996962
20
125.497371
11
140.123117
21
126.564345
0
LINE
8
0
62
7
10
140.123117
20
126.564345
11
140.489435
21
128.090170
0
LINE
8
0
62
1
10
140.489435
20
128.090170
11
130.996962
21
125.497371
0
LINE
8
0
62
1
10
130.996962
20
125.497371
11
140.123117
21
123.435655
0
LINE
8
0
62
7
10
140.123117
20
123.435655
11
140.000000
21
125.000000
0
LINE
8
0
62
1
10
140.000000
20
125.000000
11
130.996962
21
125.497371
0
LINE
8
0
62
1
10
162.101118
20
102.273344
11
150.000000
21
100.000000
0
LINE
8
0
62
7
10
150.000000
20
100.000000
11
175.000000
21
100.000000
0
LINE
8
0
62
1
10
175.000000
20
100.000000
11
162.101118
21
102.273344
0
LINE
8
0
62
1
10
135.193813
20
114.956969
11
140.489435
21
121.909830
0
LINE
8
0
62
7
10
140.489435
20
121.909830
11
140.123117
21
123.435655
0
LINE
8
0
62
1
10
140.123117
20
123.435655
11
135.193813
21
114.956969
0
LINE
8
0
62
1
10
135.193813
20
114.956969
11
141.909830
21
119.122147
0
LINE
8
0
62
7
10
141.909830
20
119.122147
11
141.089935
21
120.460095
0
LINE
8
0
62
1
10
141.089935
20
120.460095
11
135.193813
21
114.956969
0
LINE
8
0
62
1
10
135.193813
20
114.956969
11
142.928932
21
117.928932
0
LINE
8
0
62
7
10
142.928932
20
117.928932
11
141.909830
21
119.122147
0
LINE
8
0
62
1
10
141.909830
20
119.122147
11
135.193813
21
114.956969
0
LINE
8
0
62
1
10
135.193813
20
114.956969
11
144.122147
21
116.909830
0
LINE
8
0
62
7
10
144.122147
20
116.909830
11
142.928932
21
117.928932
0
LINE
8
0
62
1
10
142.928932
20
117.928932
11
135.193813
21
114.956969
0
LINE
8
0
62
1
10
135.193813
20
114.956969
11
145.460095
21
116.089935
0
LINE
8
0
62
7
10
145.460095
20
116.089935
11
144.122147
21
116.909830
0
LINE
8
0
62
1
10
144.122147
20
116.909830
11
135.193813
21
114.956969
0
LINE
8
0
62
1
10
138.696645
20
106.820032
11
146.909830
21
115.489435
0
LINE
8
0
62
7
10
146.909830
20
115.489435
11
145.460095
21
116.089935
0
LINE
8
0
62
1
10
145.460095
20
116.089935
11
138.696645
21
106.820032
0
LINE
8
0
62
1
10
138.696645
20
106.820032
11
148.435655
21
115.123117
0
LINE
8
0
62
7
10
148.435655
20
115.123117
11
146.909830
21
115.489435
0
LINE
8
0
62
1
10
146.909830
20
115.489435
11
138.696645
21
106.820032
0
LINE
8
0
62
1
10
138.696645
20
106.820032
11
150.000000
21
115.000000
0
LINE
8
0
62
7
10
150.000000
20
115.000000
11
148.435655
21
115.123117
0
LINE
8
0
62
1
10
148.435655
20
115.123117
11
138.696645
21
106.820032
0
LINE
8
0
62
1
10
161.303355
20
106.820032
11
150.000000
21
115.000000
0
LINE
8
0
62
1
10
150.000000
20
115.000000
11
150.000000
21
100.000000
0
LINE
8
0
62
1
10
150.000000
20
100.000000
11
161.303355
21
106.820032
0
LINE
8
0
62
1
10
161.303355
20
106.820032
11
151.564345
21
115.123117
0
LINE
8
0
62
7
10
151.564345
20
115.123117
11
150.000000
21
115.000000
0
LINE
8
0
62
1
10
150.000000
20
115.000000
11
161.303355
21
106.820032
0
LINE
8
0
62
1
10
161.303355
20
106.820032
11
153.090170
21
115.489435
0
LINE
8
0
62
7
10
153.090170
20
115.489435
11
151.564345
21
115.123117
0
LINE
8
0
62
1
10
151.564345
20
115.123117
11
161.303355
21
106.820032
0
LINE
8
0
62
1
10
161.303355
20
106.820032
11
154.539905
21
116.089935
0
LINE
8
0
62
7
10
154.539905
20
116.089935
11
153.090170
21
115.489435
0
LINE
8
0
62
1
10
153.090170
20
115.489435
11
161.303355
21
106.820032
0
LINE
8
0
62
1
10
161.303355
20
106.820032
11
155.877853
21
116.909830
0
LINE
8
0
62
7
10
155.877853
20
116.909830
11
154.539905
21
116.089935
0
LINE
8
0
62
1
10
154.539905
20
116.089935
11
161.303355
21
106.820032
0
LINE
8
0
62
1
10
166.545563
20
116.162233
11
155.877853
21
116.909830
0
LINE
8
0
62
1
10
155.877853
20
116.909830
11
161.303355
21
106.820032
0
LINE
8
0
62
1
10
161.303355
20
106.820032
11
166.545563
21
116.162233
0
LINE
8
0
62
1
10
166.545563
20
116.162233
11
157.071068
21
117.928932
0
LINE
8
0
62
7
10
157.071068
20
117.928932
11
155.877853
21
116.909830
0
LINE
8
0
62
1
10
155.877853
20
116.909830
11
166.545563
21
116.162233
0
LINE
8
0
62
1
10
170.372723
20
126.121718
11
166.545563
21
116.162233
0
LINE
8
0
62
1
10
166.545563
20
116.162233
11
178.333333
21
116.666667
0
LINE
8
0
62
1
10
178.333333
20
116.666667
11
170.372723
21
126.121718
0
LINE
8
0
62
1
10
166.545563
20
116.162233
11
158.910065
21
120.460095
0
LINE
8
0
62
7
10
158.910065
20
120.460095
11
158.090170
21
119.122147
0
LINE
8
0
62
1
10
158.090170
20
119.122147
11
166.545563
21
116.162233
0
LINE
8
0
62
1
10
311.303355
20
143.179968
11
300.000000
21
135.000000
0
LINE
8
0
62
7
10
300.000000
20
135.000000
11
301.564345
21
134.876883
0
LINE
8
0
62
1
10
301.564345
20
134.876883
11
311.303355
21
143.179968
0
LINE
8
0
62
1
10
314.846555
20
135.211176
11
319.150496
21
125.000000
0
LINE
8
0
62
1
10
319.150496
20
125.000000
11
323.725744
21
134.363390
0
LINE
8
0
62
1
10
323.725744
20
134.363390
11
314.846555
21
135.211176
0
LINE
8
0
62
1
10
314.846555
20
114.788824
11
309.876883
21
123.435655
0
LINE
8
0
62
7
10
309.876883
20
123.435655
11
309.510565
21
121.909830
0
LINE
8
0
62
1
10
309.510565
20
121.909830
11
314.846555
21
114.788824
0
LINE
8
0
62
1
10
319.150496
20
125.000000
11
309.876883
21
126.564345
0
LINE
8
0
62
7
10
309.876883
20
126.564345
11
310.000000
21
125.000000
0
LINE
8
0
62
1
10
310.000000
20
125.000000
11
319.150496
21
125.000000
0
LINE
8
0
62
1
10
314.846555
20
135.211176
11
307.071068
21
132.071068
0
LINE
8
0
62
7
10
307.071068
20
132.071068
11
308.090170
21
130.877853
0
LINE
8
0
62
1
10
308.090170
20
130.877853
11
314.846555
21
135.211176
0
LINE
8
0
62
1
10
314.846555
20
135.211176
11
309.510565
21
128.090170
0
LINE
8
0
62
7
10
309.510565
20
128.090170
11
309.876883
21
126.564345
0
LINE
8
0
62
1
10
309.876883
20
126.564345
11
314.846555
21
135.211176
0
LINE
8
0
62
1
10
314.846555
20
135.211176
11
308.090170
21
130.877853
0
LINE
8
0
62
7
10
308.090170
20
130.877853
11
308.910065
21
129.539905
0
LINE
8
0
62
1
10
308.910065
20
129.539905
11
314.846555
21
135.211176
0
LINE
8
0
62
1
10
314.846555
20
135.211176
11
305.877853
21
133.090170
0
LINE
8
0
62
7
10
305.877853
20
133.090170
11
307.071068
21
132.071068
0
LINE
8
0
62
1
10
307.071068
20
132.071068
11
314.846555
21
135.211176
0
LINE
8
0
62
1
10
314.846555
20
135.211176
11
304.539905
21
133.910065
0
LINE
8
0
62
7
10
304.539905
20
133.910065
11
305.877853
21
133.090170
0
LINE
8
0
62
1
10
305.877853
20
133.090170
11
314.846555
21
135.211176
0
LINE
8
0
62
1
10
311.303355
20
143.179968
11
303.090170
21
134.510565
0
LINE
8
0
62
7
10
303.090170
20
134.510565
11
304.539905
21
133.910065
0
LINE
8
0
62
1
10
304.539905
20
133.910065
11
311.303355
21
143.179968
0
LINE
8
0
62
1
10
311.303355
20
143.179968
11
301.564345
21
134.876883
0
LINE
8
0
62
7
10
301.564345
20
134.876883
11
303.090170
21
134.510565
0
LINE
8
0
62
1
10
303.090170
20
134.510565
11
311.303355
21
143.179968
0
LINE
8
0
62
1
10
249.669998
20
110.353330
11
250.000000
21
125.000000
0
LINE
8
0
62
1
10
250.000000
20
125.000000
11
241.666667
21
116.666667
0
LINE
8
0
62
1
10
241.666667
20
116.666667
11
249.669998
21
110.353330
0
LINE
8
0
62
1
10
296.232215
20
142.726656
11
300.000000
21
135.000000
0
LINE
8
0
62
1
10
300.000000
20
135.000000
11
300.000000
21
150.000000
0
LINE
8
0
62
1
10
300.000000
20
150.000000
11
296.232215
21
142.726656
0
LINE
8
0
62
1
10
296.232215
20
142.726656
11
298.435655
21
134.876883
0
LINE
8
0
62
7
10
298.435655
20
134.876883
11
300.000000
21
135.000000
0
LINE
8
0
62
1
10
300.000000
20
135.000000
11
296.232215
21
142.726656
0
LINE
8
0
62
1
10
296.232215
20
142.726656
11
296.909830
21
134.510565
0
LINE
8
0
62
7
10
296.909830
20
134.510565
11
298.435655
21
134.876883
0
LINE
8
0
62
1
10
298.435655
20
134.876883
11
296.232215
21
142.726656
0
LINE
8
0
62
1
10
296.232215
20
142.726656
11
295.460095
21
133.910065
0
LINE
8
0
62
7
10
295.460095
20
133.910065
11
296.909830
21
134.510565
0
LINE
8
0
62
1
10
296.909830
20
134.510565
11
296.232215
21
142.726656
0
LINE
8
0
62
1
10
296.232215
20
142.726656
11
294.122147
21
133.090170
0
LINE
8
0
62
7
10
294.122147
20
133.090170
11
295.460095
21
133.910065
0
LINE
8
0
62
1
10
295.460095
20
133.910065
11
296.232215
21
142.726656
0
LINE
8
0
62
1
10
296.232215
20
142.726656
11
292.928932
21
132.071068
0
LINE
8
0
62
7
10
292.928932
20
132.071068
11
294.122147
21
133.090170
0
LINE
8
0
62
1
10
294.122147
20
133.090170
11
296.232215
21
142.726656
0
LINE
8
0
62
1
10
287.898882
20
102.273344
11
275.000000
21
100.000000
0
LINE
8
0
62
7
10
275.000000
20
100.000000
11
300.000000
21
100.000000
0
LINE
8
0
62
1
10
300.000000
20
100.000000
11
287.898882
21
102.273344
0
LINE
8
0
62
1
10
281.821080
20
134.593288
11
292.928932
21
132.071068
0
LINE
8
0
62
1
10
292.928932
20
132.071068
11
288.696645
21
143.179968
0
LINE
8
0
62
1
10
288.696645
20
143.179968
11
281.821080
21
134.593288
0
LINE
8
0
62
1
10
282.291521
20
123.725142
11
291.089935
21
129.539905
0
LINE
8
0
62
1
10
291.089935
20
129.539905
11
281.821080
21
134.593288
0
LINE
8
0
62
1
10
281.821080
20
134.593288
11
282.291521
21
123.725142
0
LINE
8
0
62
1
10
282.291521
20
123.725142
11
290.489435
21
128.090170
0
LINE
8
0
62
7
10
290.489435
20
128.090170
11
291.089935
21
129.539905
0
LINE
8
0
62
1
10
291.089935
20
129.539905
11
282.291521
21
123.725142
0
LINE
8
0
62
1
10
282.291521
20
123.725142
11
281.821080
21
134.593288
0
LINE
8
0
62
1
10
281.821080
20
134.593288
11
273.175906
21
127.944415
0
LINE
8
0
62
1
10
273.175906
20
127.944415
11
282.291521
21
123.725142
0
LINE
8
0
62
1
10
282.291521
20
123.725142
11
290.000000
21
125.000000
0
LINE
8
0
62
7
10
290.000000
20
125.000000
11
290.123117
21
126.564345
0
LINE
8
0
62
1
10
290.123117
20
126.564345
11
282.291521
21
123.725142
0
LINE
8
0
62
1
10
282.291521
20
123.725142
11
290.123117
21
123.435655
0
LINE
8
0
62
7
10
290.123117
20
123.435655
11
290.000000
21
125.000000
0
LINE
8
0
62
1
10
290.000000
20
125.000000
11
282.291521
21
123.725142
0
LINE
8
0
62
1
10
312.101118
20
102.273344
11
300.000000
21
100.000000
0
LINE
8
0
62
7
10
300.000000
20
100.000000
11
325.000000
21
100.000000
0
LINE
8
0
62
1
10
325.000000
20
100.000000
11
312.101118
21
102.273344
0
LINE
8
0
62
1
10
282.291521
20
123.725142
11
290.489435
21
121.909830
0
LINE
8
0
62
7
10
290.489435
20
121.909830
11
290.123117
21
123.435655
0
LINE
8
0
62
1
10
290.123117
20
123.435655
11
282.291521
21
123.725142
0
LINE
8
0
62
1
10
283.575541
20
116.666667
11
291.909830
21
119.122147
0
LINE
8
0
62
7
10
291.909830
20
119.122147
11
291.089935
21
120.460095
0
LINE
8
0
62
1
10
291.089935
20
120.460095
11
283.575541
21
116.666667
0
LINE
8
0
62
1
10
283.575541
20
116.666667
11
292.928932
21
117.928932
0
LINE
8
0
62
7
10
292.928932
20
117.928932
11
291.909830
21
119.122147
0
LINE
8
0
62
1
10
291.909830
20
119.122147
11
283.575541
21
116.666667
0
LINE
8
0
62
1
10
283.575541
20
116.666667
11
294.122147
21
116.909830
0
LINE
8
0
62
7
10
294.122147
20
116.909830
11
292.928932
21
117.928932
0
LINE
8
0
62
1
10
292.928932
20
117.928932
11
283.575541
21
116.666667
0
LINE
8
0
62
1
10
288.696645
20
106.820032
11
295.460095
21
116.089935
0
LINE
8
0
62
7
10
295.460095
20
116.089935
11
294.122147
21
116.909830
0
LINE
8
0
62
1
10
294.122147
20
116.909830
11
288.696645
21
106.820032
0
LINE
8
0
62
1
10
288.696645
20
106.820032
11
296.909830
21
115.489435
0
LINE
8
0
62
7
10
296.909830
20
115.489435
11
295.460095
21
116.089935
0
LINE
8
0
62
1
10
295.460095
20
116.089935
11
288.696645
21
106.820032
0
LINE
8
0
62
1
10
288.696645
20
106.820032
11
298.435655
21
115.123117
0
LINE
8
0
62
7
10
298.435655
20
115.123117
11
296.909830
21
115.489435
0
LINE
8
0
62
1
10
296.909830
20
115.489435
11
288.696645
21
106.820032
0
LINE
8
0
62
1
10
288.696645
20
106.820032
11
300.000000
21
115.000000
0
LINE
8
0
62
7
10
300.000000
20
115.000000
11
298.435655
21
115.123117
0
LINE
8
0
62
1
10
298.435655
20
115.123117
11
288.696645
21
106.820032
0
LINE
8
0
62
1
10
311.303355
20
106.820032
11
300.000000
21
115.000000
0
LINE
8
0
62
1
10
300.000000
20
115.000000
11
300.000000
21
100.000000
0
LINE
8
0
62
1
10
300.000000
20
100.000000
11
311.303355
21
106.820032
0
LINE
8
0
62
1
10
311.303355
20
106.820032
11
301.564345
21
115.123117
0
LINE
8
0
62
7
10
301.564345
20
115.123117
11
300.000000
21
115.000000
0
LINE
8
0
62
1
10
300.000000
20
115.000000
11
311.303355
21
106.820032
0
LINE
8
0
62
1
10
311.303355
20
106.820032
11
303.090170
21
115.489435
0
LINE
8
0
62
7
10
303.090170
20
115.489435
11
301.564345
21
115.123117
0
LINE
8
0
62
1
10
301.564345
20
115.123117
11
311.303355
21
106.820032
0
LINE
8
0
62
1
10
311.303355
20
106.820032
11
304.539905
21
116.089935
0
LINE
8
0
62
7
10
304.539905
20
116.089935
11
303.090170
21
115.489435
0
LINE
8
0
62
1
10
303.090170
20
115.489435
11
311.303355
21
106.820032
0
LINE
8
0
62
1
10
314.846555
20
114.788824
11
304.539905
21
116.089935
0
LINE
8
0
62
1
10
304.539905
20
116.089935
11
311.303355
21
106.820032
0
LINE
8
0
62
1
10
311.303355
20
106.820032
11
314.846555
21
114.788824
0
LINE
8
0
62
1
10
314.846555
20
114.788824
11
305.877853
21
116.909830
0
LINE
8
0
62
7
10
305.877853
20
116.909830
11
304.539905
21
116.089935
0
LINE
8
0
62
1
10
304.539905
20
116.089935
11
314.846555
21
114.788824
0
LINE
8
0
62
1
10
314.846555
20
114.788824
11
307.071068
21
117.928932
0
LINE
8
0
62
7
10
307.071068
20
117.928932
11
305.877853
21
116.909830
0
LINE
8
0
62
1
10
305.877853
20
116.909830
11
314.846555
21
114.788824
0
LINE
8
0
62
1
10
314.846555
20
114.788824
11
323.725744
21
115.636610
0
LINE
8
0
62
1
10
323.725744
20
115.636610
11
319.150496
21
125.000000
0
LINE
8
0
62
1
10
319.150496
20
125.000000
11
314.846555
21
114.788824
0
LINE
8
0
62
1
10
314.846555
20
114.788824
11
308.910065
21
120.460095
0
LINE
8
0
62
7
10
308.910065
20
120.460095
11
308.090170
21
119.122147
0
LINE
8
0
62
1
10
308.090170
20
119.122147
11
314.846555
21
114.788824
0
LINE
8
0
62
1
10
112.632961
20
102.945922
11
100.000000
21
100.000000
0
LINE
8
0
62
7
10
100.000000
20
100.000000
11
125.000000
21
100.000000
0
LINE
8
0
62
1
10
125.000000
20
100.000000
11
112.632961
21
102.945922
0
LINE
8
0
62
1
10
135.260535
20
135.540402
11
126.595527
21
135.351069
0
LINE
8
0
62
1
10
126.595527
20
135.351069
11
130.996962
21
125.497371
0
LINE
8
0
62
1
10
130.996962
20
125.497371
11
135.260535
21
135.540402
0
LINE
8
0
62
1
10
337.407407
20
147.222222
11
350.000000
21
150.000000
0
LINE
8
0
62
7
10
350.000000
20
150.000000
11
325.000000
21
150.000000
0
LINE
8
0
62
1
10
325.000000
20
150.000000
11
337.407407
21
147.222222
0
LINE
8
0
62
1
10
314.846555
20
114.788824
11
319.150496
21
125.000000
0
LINE
8
0
62
1
10
319.150496
20
125.000000
11
309.876883
21
123.435655
0
LINE
8
0
62
1
10
309.876883
20
123.435655
11
314.846555
21
114.788824
0
LINE
8
0
62
1
10
282.158141
20
106.313337
11
283.575541
21
116.666667
0
LINE
8
0
62
1
10
283.575541
20
116.666667
11
272.029978
21
118.179968
0
LINE
8
0
62
1
10
272.029978
20
118.179968
11
282.158141
21
106.313337
0
LINE
8
0
62
1
10
265.016655
20
121.211094
11
273.175906
21
127.944415
0
LINE
8
0
62
1
10
273.175906
20
127.944415
11
265.676659
21
131.059989
0
LINE
8
0
62
1
10
265.676659
20
131.059989
11
265.016655
21
121.211094
0
LINE
8
0
62
1
10
195.493827
20
139.506173
11
200.000000
21
125.000000
0
LINE
8
0
62
7
10
200.000000
20
125.000000
11
200.000000
21
150.000000
0
LINE
8
0
62
1
10
200.000000
20
150.000000
11
195.493827
21
139.506173
0
LINE
8
0
62
1
10
166.545563
20
116.162233
11
159.876883
21
123.435655
0
LINE
8
0
62
7
10
159.876883
20
123.435655
11
159.510565
21
121.909830
0
LINE
8
0
62
1
10
159.510565
20
121.909830
11
166.545563
21
116.162233
0
LINE
8
0
62
1
10
172.784837
20
136.698487
11
175.000000
21
150.000000
0
LINE
8
0
62
1
10
175.000000
20
150.000000
11
161.303355
21
143.179968
0
LINE
8
0
62
1
10
161.303355
20
143.179968
11
172.784837
21
136.698487
0
LINE
8
0
62
1
10
185.185185
20
120.370370
11
184.444444
21
130.555556
0
LINE
8
0
62
1
10
184.444444
20
130.555556
11
178.333333
21
116.666667
0
LINE
8
0
62
1
10
178.333333
20
116.666667
11
185.185185
21
120.370370
0
LINE
8
0
62
1
10
265.016655
20
121.211094
11
250.000000
21
125.000000
0
LINE
8
0
62
1
10
250.000000
20
125.000000
11
257.343326
21
114.393323
0
LINE
8
0
62
1
10
257.343326
20
114.393323
11
265.016655
21
121.211094
0
LINE
8
0
62
1
10
282.291521
20
123.725142
11
283.575541
21
116.666667
0
LINE
8
0
62
1
10
283.575541
20
116.666667
11
290.489435
21
121.909830
0
LINE
8
0
62
1
10
290.489435
20
121.909830
11
282.291521
21
123.725142
0
LINE
8
0
62
1
10
109.350218
20
118.038624
11
101.521849
21
125.168145
0
LINE
8
0
62
1
10
101.521849
20
125.168145
11
105.821477
21
111.447400
0
LINE
8
0
62
1
10
105.821477
20
111.447400
11
109.350218
21
118.038624
0
LINE
8
0
62
1
10
117.730351
20
134.678490
11
105.821477
21
139.225178
0
LINE
8
0
62
1
10
105.821477
20
139.225178
11
113.696645
21
126.513302
0
LINE
8
0
62
1
10
113.696645
20
126.513302
11
117.730351
21
134.678490
0
LINE
8
0
62
1
10
348.518519
20
125.000000
11
344.259259
21
138.888889
0
LINE
8
0
62
1
10
344.259259
20
138.888889
11
345.555556
21
125.000000
0
LINE
8
0
62
1
10
345.555556
20
125.000000
11
348.518519
21
125.000000
0
LINE
8
0
62
1
10
332.538211
20
116.323314
11
344.259259
21
111.111111
0
LINE
8
0
62
1
10
344.259259
20
111.111111
11
345.555556
21
125.000000
0
LINE
8
0
62
1
10
345.555556
20
125.000000
11
332.538211
21
116.323314
0
LINE
8
0
62
1
10
121.431414
20
108.326270
11
112.898882
21
108.837767
0
LINE
8
0
62
1
10
112.898882
20
108.837767
11
112.632961
21
102.945922
0
LINE
8
0
62
1
10
112.632961
20
102.945922
11
121.431414
21
108.326270
0
LINE
8
0
62
1
10
109.350218
20
118.038624
11
104.565548
21
125.504434
0
LINE
8
0
62
1
10
104.565548
20
125.504434
11
101.521849
21
125.168145
0
LINE
8
0
62
1
10
101.521849
20
125.168145
11
109.350218
21
118.038624
0
LINE
8
0
62
1
10
135.193813
20
114.956969
11
140.123117
21
123.435655
0
LINE
8
0
62
1
10
140.123117
20
123.435655
11
130.996962
21
125.497371
0
LINE
8
0
62
1
10
130.996962
20
125.497371
11
135.193813
21
114.956969
0
LINE
8
0
62
1
10
109.350218
20
118.038624
11
113.696645
21
126.513302
0
LINE
8
0
62
1
10
113.696645
20
126.513302
11
104.565548
21
125.504434
0
LINE
8
0
62
1
10
104.565548
20
125.504434
11
109.350218
21
118.038624
0
LINE
8
0
62
1
10
314.846555
20
135.211176
11
309.876883
21
126.564345
0
LINE
8
0
62
1
10
309.876883
20
126.564345
11
319.150496
21
125.000000
0
LINE
8
0
62
1
10
319.150496
20
125.000000
11
314.846555
21
135.211176
0
LINE
8
0
62
1
10
328.075639
20
125.000000
11
323.725744
21
134.363390
0
LINE
8
0
62
1
10
323.725744
20
134.363390
11
319.150496
21
125.000000
0
LINE
8
0
62
1
10
319.150496
20
125.000000
11
328.075639
21
125.000000
0
LINE
8
0
62
1
10
328.649322
20
107.989981
11
323.725744
21
115.636610
0
LINE
8
0
62
1
10
323.725744
20
115.636610
11
320.009700
21
107.485547
0
LINE
8
0
62
1
10
320.009700
20
107.485547
11
328.649322
21
107.989981
0
LINE
8
0
62
1
10
328.075639
20
125.000000
11
319.150496
21
125.000000
0
LINE
8
0
62
1
10
319.150496
20
125.000000
11
323.725744
21
115.636610
0
LINE
8
0
62
1
10
323.725744
20
115.636610
11
328.075639
21
125.000000
0
LINE
8
0
62
1
10
202.222222
20
114.814815
11
200.000000
21
125.000000
0
LINE
8
0
62
1
10
200.000000
20
125.000000
11
192.777778
21
113.888889
0
LINE
8
0
62
1
10
192.777778
20
113.888889
11
202.222222
21
114.814815
0
LINE
8
0
62
1
10
223.148148
20
106.481481
11
216.666667
21
116.666667
0
LINE
8
0
62
1
10
216.666667
20
116.666667
11
213.888889
21
105.555556
0
LINE
8
0
62
1
10
213.888889
20
105.555556
11
223.148148
21
106.481481
0
LINE
8
0
62
1
10
230.555556
20
113.888889
11
225.000000
21
125.000000
0
LINE
8
0
62
1
10
225.000000
20
125.000000
11
216.666667
21
116.666667
0
LINE
8
0
62
1
10
216.666667
20
116.666667
11
230.555556
21
113.888889
0
LINE
8
0
62
1
10
249.669998
20
110.353330
11
241.666667
21
116.666667
0
LINE
8
0
62
1
10
241.666667
20
116.666667
11
238.888889
21
105.555556
0
LINE
8
0
62
1
10
238.888889
20
105.555556
11
249.669998
21
110.353330
0
LINE
8
0
62
1
10
348.518519
20
125.000000
11
344.259259
21
111.111111
0
LINE
8
0
62
1
10
344.259259
20
111.111111
11
350.000000
21
100.000000
0
LINE
8
0
62
1
10
350.000000
20
100.000000
11
348.518519
21
125.000000
0
LINE
8
0
62
1
10
328.075639
20
125.000000
11
336.666667
21
125.000000
0
LINE
8
0
62
1
10
336.666667
20
125.000000
11
332.538211
21
133.676686
0
LINE
8
0
62
1
10
332.538211
20
133.676686
11
328.075639
21
125.000000
0
LINE
8
0
62
1
10
328.649322
20
142.010019
11
325.000000
21
150.000000
0
LINE
8
0
62
1
10
325.000000
20
150.000000
11
320.009700
21
142.514453
0
LINE
8
0
62
1
10
320.009700
20
142.514453
11
328.649322
21
142.010019
0
LINE
8
0
62
1
10
332.538211
20
133.676686
11
345.555556
21
125.000000
0
LINE
8
0
62
1
10
345.555556
20
125.000000
11
344.259259
21
138.888889
0
LINE
8
0
62
1
10
344.259259
20
138.888889
11
332.538211
21
133.676686
0
LINE
8
0
62
1
10
121.498136
20
142.507390
11
126.595527
21
135.351069
0
LINE
8
0
62
1
10
126.595527
20
135.351069
11
130.097390
21
142.843679
0
LINE
8
0
62
1
10
130.097390
20
142.843679
11
121.498136
21
142.507390
0
LINE
8
0
62
1
10
117.663629
20
117.164038
11
130.996962
21
125.497371
0
LINE
8
0
62
1
10
130.996962
20
125.497371
11
113.696645
21
126.513302
0
LINE
8
0
62
1
10
113.696645
20
126.513302
11
117.663629
21
117.164038
0
LINE
8
0
62
1
10
101.521849
20
125.168145
11
105.821477
21
139.225178
0
LINE
8
0
62
1
10
105.821477
20
139.225178
11
100.000000
21
150.000000
0
LINE
8
0
62
1
10
100.000000
20
150.000000
11
101.521849
21
125.168145
0
LINE
8
0
62
1
10
117.730351
20
134.678490
11
113.696645
21
126.513302
0
LINE
8
0
62
1
10
113.696645
20
126.513302
11
126.595527
21
135.351069
0
LINE
8
0
62
1
10
126.595527
20
135.351069
11
117.730351
21
134.678490
0
LINE
8
0
62
1
10
260.781109
20
104.797774
11
250.000000
21
100.000000
0
LINE
8
0
62
7
10
250.000000
20
100.000000
11
275.000000
21
100.000000
0
LINE
8
0
62
1
10
275.000000
20
100.000000
11
260.781109
21
104.797774
0
LINE
8
0
62
1
10
265.016655
20
121.211094
11
272.029978
21
118.179968
0
LINE
8
0
62
1
10
272.029978
20
118.179968
11
273.175906
21
127.944415
0
LINE
8
0
62
1
10
273.175906
20
127.944415
11
265.016655
21
121.211094
0
LINE
8
0
62
1
10
193.312757
20
131.687243
11
185.185185
21
120.370370
0
LINE
8
0
62
1
10
185.185185
20
120.370370
11
200.000000
21
125.000000
0
LINE
8
0
62
1
10
200.000000
20
125.000000
11
193.312757
21
131.687243
0
LINE
8
0
62
1
10
167.882227
20
106.145192
11
178.333333
21
116.666667
0
LINE
8
0
62
1
10
178.333333
20
116.666667
11
166.545563
21
116.162233
0
LINE
8
0
62
1
10
166.545563
20
116.162233
11
167.882227
21
106.145192
0
LINE
8
0
62
1
10
161.303355
20
143.179968
11
150.000000
21
150.000000
0
LINE
8
0
62
1
10
150.000000
20
150.000000
11
150.000000
21
135.000000
0
LINE
8
0
62
1
10
150.000000
20
135.000000
11
161.303355
21
143.179968
0
LINE
8
0
62
1
10
164.332752
20
136.472787
11
161.303355
21
143.179968
0
LINE
8
0
62
1
10
161.303355
20
143.179968
11
153.090170
21
134.510565
0
LINE
8
0
62
1
10
153.090170
20
134.510565
11
164.332752
21
136.472787
0
LINE
8
0
62
1
10
273.459989
20
142.759984
11
275.000000
21
150.000000
0
LINE
8
0
62
1
10
275.000000
20
150.000000
11
263.558886
21
143.686663
0
LINE
8
0
62
1
10
263.558886
20
143.686663
11
273.459989
21
142.759984
0
LINE
8
0
62
1
10
281.821080
20
134.593288
11
291.909830
21
130.877853
0
LINE
8
0
62
7
10
291.909830
20
130.877853
11
292.928932
21
132.071068
0
LINE
8
0
62
1
10
292.928932
20
132.071068
11
281.821080
21
134.593288
0
LINE
8
0
62
1
10
311.303355
20
143.179968
11
300.000000
21
150.000000
0
LINE
8
0
62
1
10
300.000000
20
150.000000
11
300.000000
21
135.000000
0
LINE
8
0
62
1
10
300.000000
20
135.000000
11
311.303355
21
143.179968
0
LINE
8
0
62
1
10
314.846555
20
135.211176
11
308.910065
21
129.539905
0
LINE
8
0
62
7
10
308.910065
20
129.539905
11
309.510565
21
128.090170
0
LINE
8
0
62
1
10
309.510565
20
128.090170
11
314.846555
21
135.211176
0
LINE
8
0
62
1
10
121.498136
20
142.507390
11
130.097390
21
142.843679
0
LINE
8
0
62
1
10
130.097390
20
142.843679
11
125.000000
21
150.000000
0
LINE
8
0
62
1
10
125.000000
20
150.000000
11
121.498136
21
142.507390
0
LINE
8
0
62
1
10
135.260535
20
135.540402
11
141.909830
21
130.877853
0
LINE
8
0
62
7
10
141.909830
20
130.877853
11
142.928932
21
132.071068
0
LINE
8
0
62
1
10
142.928932
20
132.071068
11
135.260535
21
135.540402
0
LINE
8
0
62
1
10
138.696645
20
106.820032
11
150.000000
21
100.000000
0
LINE
8
0
62
1
10
150.000000
20
100.000000
11
150.000000
21
115.000000
0
LINE
8
0
62
1
10
150.000000
20
115.000000
11
138.696645
21
106.820032
0
LINE
8
0
62
1
10
135.193813
20
114.956969
11
141.089935
21
120.460095
0
LINE
8
0
62
7
10
141.089935
20
120.460095
11
140.489435
21
121.909830
0
LINE
8
0
62
1
10
140.489435
20
121.909830
11
135.193813
21
114.956969
0
LINE
8
0
62
1
10
167.882227
20
106.145192
11
180.864198
21
107.098765
0
LINE
8
0
62
1
10
180.864198
20
107.098765
11
178.333333
21
116.666667
0
LINE
8
0
62
1
10
178.333333
20
116.666667
11
167.882227
21
106.145192
0
LINE
8
0
62
1
10
166.545563
20
116.162233
11
158.090170
21
119.122147
0
LINE
8
0
62
7
10
158.090170
20
119.122147
11
157.071068
21
117.928932
0
LINE
8
0
62
1
10
157.071068
20
117.928932
11
166.545563
21
116.162233
0
LINE
8
0
62
1
10
288.696645
20
106.820032
11
300.000000
21
100.000000
0
LINE
8
0
62
1
10
300.000000
20
100.000000
11
300.000000
21
115.000000
0
LINE
8
0
62
1
10
300.000000
20
115.000000
11
288.696645
21
106.820032
0
LINE
8
0
62
1
10
283.575541
20
116.666667
11
291.089935
21
120.460095
0
LINE
8
0
62
7
10
291.089935
20
120.460095
11
290.489435
21
121.909830
0
LINE
8
0
62
1
10
290.489435
20
121.909830
11
283.575541
21
116.666667
0
LINE
8
0
62
1
10
328.649322
20
107.989981
11
320.009700
21
107.485547
0
LINE
8
0
62
1
10
320.009700
20
107.485547
11
325.000000
21
100.000000
0
LINE
8
0
62
1
10
325.000000
20
100.000000
11
328.649322
21
107.989981
0
LINE
8
0
62
1
10
314.846555
20
114.788824
11
308.090170
21
119.122147
0
LINE
8
0
62
7
10
308.090170
20
119.122147
11
307.071068
21
117.928932
0
LINE
8
0
62
1
10
307.071068
20
117.928932
11
314.846555
21
114.788824
0
LINE
8
0
62
1
10
164.332752
20
136.472787
11
159.510565
21
128.090170
0
LINE
8
0
62
7
10
159.510565
20
128.090170
11
159.876883
21
126.564345
0
LINE
8
0
62
1
10
159.876883
20
126.564345
11
164.332752
21
136.472787
0
LINE
8
0
62
1
10
186.481481
20
143.518519
11
172.784837
21
136.698487
0
LINE
8
0
62
1
10
172.784837
20
136.698487
11
184.444444
21
130.555556
0
LINE
8
0
62
1
10
184.444444
20
130.555556
11
186.481481
21
143.518519
0
LINE
8
0
62
1
10
186.481481
20
143.518519
11
175.000000
21
150.000000
0
LINE
8
0
62
1
10
175.000000
20
150.000000
11
172.784837
21
136.698487
0
LINE
8
0
62
1
10
172.784837
20
136.698487
11
186.481481
21
143.518519
0
LINE
8
0
62
1
10
193.312757
20
131.687243
11
184.444444
21
130.555556
0
LINE
8
0
62
1
10
184.444444
20
130.555556
11
185.185185
21
120.370370
0
LINE
8
0
62
1
10
185.185185
20
120.370370
11
193.312757
21
131.687243
0
LINE
8
0
62
1
10
254.519629
20
139.562221
11
250.000000
21
150.000000
0
LINE
8
0
62
7
10
250.000000
20
150.000000
11
250.000000
21
125.000000
0
LINE
8
0
62
1
10
250.000000
20
125.000000
11
254.519629
21
139.562221
0
LINE
8
0
62
1
10
273.459989
20
142.759984
11
265.676659
21
131.059989
0
LINE
8
0
62
1
10
265.676659
20
131.059989
11
273.175906
21
127.944415
0
LINE
8
0
62
1
10
273.175906
20
127.944415
11
273.459989
21
142.759984
0
LINE
8
0
62
1
10
238.888889
20
105.555556
11
230.555556
21
113.888889
0
LINE
8
0
62
1
10
230.555556
20
113.888889
11
225.000000
21
100.000000
0
LINE
8
0
62
1
10
225.000000
20
100.000000
11
238.888889
21
105.555556
0
LINE
8
0
62
1
10
238.888889
20
122.222222
11
230.555556
21
113.888889
0
LINE
8
0
62
1
10
230.555556
20
113.888889
11
241.666667
21
116.666667
0
LINE
8
0
62
1
10
241.666667
20
116.666667
11
238.888889
21
122.222222
0
LINE
8
0
62
1
10
249.669998
20
110.353330
11
238.888889
21
105.555556
0
LINE
8
0
62
1
10
238.888889
20
105.555556
11
250.000000
21
100.000000
0
LINE
8
0
62
1
10
250.000000
20
100.000000
11
249.669998
21
110.353330
0
LINE
8
0
62
1
10
238.888889
20
105.555556
11
241.666667
21
116.666667
0
LINE
8
0
62
1
10
241.666667
20
116.666667
11
230.555556
21
113.888889
0
LINE
8
0
62
1
10
230.555556
20
113.888889
11
238.888889
21
105.555556
0
LINE
8
0
62
1
10
223.148148
20
106.481481
11
225.000000
21
100.000000
0
LINE
8
0
62
1
10
225.000000
20
100.000000
11
230.555556
21
113.888889
0
LINE
8
0
62
1
10
230.555556
20
113.888889
11
223.148148
21
106.481481
0
LINE
8
0
62
1
10
213.888889
20
122.222222
11
202.222222
21
114.814815
0
LINE
8
0
62
1
10
202.222222
20
114.814815
11
216.666667
21
116.666667
0
LINE
8
0
62
1
10
216.666667
20
116.666667
11
213.888889
21
122.222222
0
LINE
8
0
62
1
10
282.158141
20
106.313337
11
269.270362
21
107.659248
0
LINE
8
0
62
1
10
269.270362
20
107.659248
11
275.000000
21
100.000000
0
LINE
8
0
62
1
10
275.000000
20
100.000000
11
282.158141
21
106.313337
0
LINE
8
0
62
1
10
249.669998
20
110.353330
11
260.781109
21
104.797774
0
LINE
8
0
62
1
10
260.781109
20
104.797774
11
257.343326
21
114.393323
0
LINE
8
0
62
1
10
257.343326
20
114.393323
11
249.669998
21
110.353330
0
LINE
8
0
62
1
10
189.259259
20
104.629630
11
200.000000
21
100.000000
0
LINE
8
0
62
1
10
200.000000
20
100.000000
11
192.777778
21
113.888889
0
LINE
8
0
62
1
10
192.777778
20
113.888889
11
189.259259
21
104.629630
0
LINE
8
0
62
1
10
185.185185
20
120.370370
11
180.864198
21
107.098765
0
LINE
8
0
62
1
10
180.864198
20
107.098765
11
192.777778
21
113.888889
0
LINE
8
0
62
1
10
192.777778
20
113.888889
11
185.185185
21
120.370370
0
LINE
8
0
62
1
10
281.821080
20
134.593288
11
291.089935
21
129.539905
0
LINE
8
0
62
7
10
291.089935
20
129.539905
11
291.909830
21
130.877853
0
LINE
8
0
62
1
10
291.909830
20
130.877853
11
281.821080
21
134.593288
0
LINE
8
0
62
1
10
287.898882
20
147.726656
11
273.459989
21
142.759984
0
LINE
8
0
62
1
10
273.459989
20
142.759984
11
281.821080
21
134.593288
0
LINE
8
0
62
1
10
281.821080
20
134.593288
11
287.898882
21
147.726656
0
LINE
8
0
62
1
10
256.732096
20
131.874070
11
250.000000
21
125.000000
0
LINE
8
0
62
1
10
250.000000
20
125.000000
11
265.016655
21
121.211094
0
LINE
8
0
62
1
10
265.016655
20
121.211094
11
256.732096
21
131.874070
0
LINE
8
0
62
1
10
254.519629
20
139.562221
11
263.558886
21
143.686663
0
LINE
8
0
62
1
10
263.558886
20
143.686663
11
250.000000
21
150.000000
0
LINE
8
0
62
1
10
250.000000
20
150.000000
11
254.519629
21
139.562221
0
LINE
8
0
62
1
10
195.493827
20
139.506173
11
200.000000
21
150.000000
0
LINE
8
0
62
1
10
200.000000
20
150.000000
11
186.481481
21
143.518519
0
LINE
8
0
62
1
10
186.481481
20
143.518519
11
195.493827
21
139.506173
0
LINE
8
0
62
1
10
193.312757
20
131.687243
11
186.481481
21
143.518519
0
LINE
8
0
62
1
10
186.481481
20
143.518519
11
184.444444
21
130.555556
0
LINE
8
0
62
1
10
184.444444
20
130.555556
11
193.312757
21
131.687243
0
LINE
8
0
62
1
10
170.372723
20
126.121718
11
159.876883
21
123.435655
0
LINE
8
0
62
1
10
159.876883
20
123.435655
11
166.545563
21
116.162233
0
LINE
8
0
62
1
10
166.545563
20
116.162233
11
170.372723
21
126.121718
0
LINE
8
0
62
1
10
167.882227
20
106.145192
11
161.303355
21
106.820032
0
LINE
8
0
62
1
10
161.303355
20
106.820032
11
162.101118
21
102.273344
0
LINE
8
0
62
1
10
162.101118
20
102.273344
11
167.882227
21
106.145192
0
LINE
8
0
62
1
10
170.372723
20
126.121718
11
178.333333
21
116.666667
0
LINE
8
0
62
1
10
178.333333
20
116.666667
11
184.444444
21
130.555556
0
LINE
8
0
62
1
10
184.444444
20
130.555556
11
170.372723
21
126.121718
0
LINE
8
0
62
1
10
164.332752
20
136.472787
11
170.372723
21
126.121718
0
LINE
8
0
62
1
10
170.372723
20
126.121718
11
172.784837
21
136.698487
0
LINE
8
0
62
1
10
172.784837
20
136.698487
11
164.332752
21
136.472787
0
LINE
8
0
62
1
10
282.158141
20
106.313337
11
272.029978
21
118.179968
0
LINE
8
0
62
1
10
272.029978
20
118.179968
11
269.270362
21
107.659248
0
LINE
8
0
62
1
10
269.270362
20
107.659248
11
282.158141
21
106.313337
0
LINE
8
0
62
1
10
283.575541
20
116.666667
11
288.696645
21
106.820032
0
LINE
8
0
62
1
10
288.696645
20
106.820032
11
294.122147
21
116.909830
0
LINE
8
0
62
1
10
294.122147
20
116.909830
11
283.575541
21
116.666667
0
LINE
8
0
62
1
10
205.370370
20
106.790123
11
192.777778
21
113.888889
0
LINE
8
0
62
1
10
192.777778
20
113.888889
11
200.000000
21
100.000000
0
LINE
8
0
62
1
10
200.000000
20
100.000000
11
205.370370
21
106.790123
0
LINE
8
0
62
1
10
202.222222
20
114.814815
11
213.888889
21
105.555556
0
LINE
8
0
62
1
10
213.888889
20
105.555556
11
216.666667
21
116.666667
0
LINE
8
0
62
1
10
216.666667
20
116.666667
11
202.222222
21
114.814815
0
LINE
8
0
62
1
10
112.632961
20
102.945922
11
105.821477
21
111.447400
0
LINE
8
0
62
1
10
105.821477
20
111.447400
11
100.000000
21
100.000000
0
LINE
8
0
62
1
10
100.000000
20
100.000000
11
112.632961
21
102.945922
0
LINE
8
0
62
1
10
109.350218
20
118.038624
11
112.898882
21
108.837767
0
LINE
8
0
62
1
10
112.898882
20
108.837767
11
117.663629
21
117.164038
0
LINE
8
0
62
1
10
117.663629
20
117.164038
11
109.350218
21
118.038624
0
LINE
8
0
62
1
10
332.538211
20
116.323314
11
345.555556
21
125.000000
0
LINE
8
0
62
1
10
345.555556
20
125.000000
11
336.666667
21
125.000000
0
LINE
8
0
62
1
10
336.666667
20
125.000000
11
332.538211
21
116.323314
0
LINE
8
0
62
1
10
337.407407
20
102.777778
11
344.259259
21
111.111111
0
LINE
8
0
62
1
10
344.259259
20
111.111111
11
337.222222
21
108.333333
0
LINE
8
0
62
1
10
337.222222
20
108.333333
11
337.407407
21
102.777778
0
LINE
8
0
62
1
10
337.407407
20
147.222222
11
344.259259
21
138.888889
0
LINE
8
0
62
1
10
344.259259
20
138.888889
11
350.000000
21
150.000000
0
LINE
8
0
62
1
10
350.000000
20
150.000000
11
337.407407
21
147.222222
0
LINE
8
0
62
1
10
332.538211
20
133.676686
11
344.259259
21
138.888889
0
LINE
8
0
62
1
10
344.259259
20
138.888889
11
337.222222
21
141.666667
0
LINE
8
0
62
1
10
337.222222
20
141.666667
11
332.538211
21
133.676686
0
LINE
8
0
62
1
10
105.821477
20
139.225178
11
104.565548
21
125.504434
0
LINE
8
0
62
1
10
104.565548
20
125.504434
11
113.696645
21
126.513302
0
LINE
8
0
62
1
10
113.696645
20
126.513302
11
105.821477
21
139.225178
0
LINE
8
0
62
1
10
112.632961
20
147.390367
11
105.821477
21
139.225178
0
LINE
8
0
62
1
10
105.821477
20
139.225178
11
112.898882
21
142.171101
0
LINE
8
0
62
1
10
112.898882
20
142.171101
11
112.632961
21
147.390367
0
LINE
8
0
62
1
10
130.996962
20
125.497371
11
140.000000
21
125.000000
0
LINE
8
0
62
7
10
140.000000
20
125.000000
11
140.123117
21
126.564345
0
LINE
8
0
62
1
10
140.123117
20
126.564345
11
130.996962
21
125.497371
0
LINE
8
0
62
1
10
130.996962
20
125.497371
11
126.595527
21
135.351069
0
LINE
8
0
62
1
10
126.595527
20
135.351069
11
113.696645
21
126.513302
0
LINE
8
0
62
1
10
113.696645
20
126.513302
11
130.996962
21
125.497371
0
LINE
8
0
62
1
10
319.150496
20
125.000000
11
310.000000
21
125.000000
0
LINE
8
0
62
7
10
310.000000
20
125.000000
11
309.876883
21
123.435655
0
LINE
8
0
62
1
10
309.876883
20
123.435655
11
319.150496
21
125.000000
0
LINE
8
0
62
1
10
328.075639
20
125.000000
11
323.725744
21
115.636610
0
LINE
8
0
62
1
10
323.725744
20
115.636610
11
332.538211
21
116.323314
0
LINE
8
0
62
1
10
332.538211
20
116.323314
11
328.075639
21
125.000000
0
LINE
8
0
62
1
10
265.016655
20
121.211094
11
269.270362
21
107.659248
0
LINE
8
0
62
1
10
269.270362
20
107.659248
11
272.029978
21
118.179968
0
LINE
8
0
62
1
10
272.029978
20
118.179968
11
265.016655
21
121.211094
0
LINE
8
0
62
1
10
269.270362
20
107.659248
11
260.781109
21
104.797774
0
LINE
8
0
62
1
10
260.781109
20
104.797774
11
275.000000
21
100.000000
0
LINE
8
0
62
1
10
275.000000
20
100.000000
11
269.270362
21
107.659248
0
LINE
8
0
62
1
10
249.669998
20
110.353330
11
250.000000
21
100.000000
0
LINE
8
0
62
1
10
250.000000
20
100.000000
11
260.781109
21
104.797774
0
LINE
8
0
62
1
10
260.781109
20
104.797774
11
249.669998
21
110.353330
0
LINE
8
0
62
1
10
249.669998
20
110.353330
11
257.343326
21
114.393323
0
LINE
8
0
62
1
10
257.343326
20
114.393323
11
250.000000
21
125.000000
0
LINE
8
0
62
1
10
250.000000
20
125.000000
11
249.669998
21
110.353330
0
LINE
8
0
62
1
10
121.431414
20
108.326270
11
117.663629
21
117.164038
0
LINE
8
0
62
1
10
117.663629
20
117.164038
11
112.898882
21
108.837767
0
LINE
8
0
62
1
10
112.898882
20
108.837767
11
121.431414
21
108.326270
0
LINE
8
0
62
1
10
117.663629
20
117.164038
11
126.395360
21
116.141044
0
LINE
8
0
62
1
10
126.395360
20
116.141044
11
130.996962
21
125.497371
0
LINE
8
0
62
1
10
130.996962
20
125.497371
11
117.663629
21
117.164038
0
LINE
8
0
62
1
10
282.291521
20
123.725142
11
272.029978
21
118.179968
0
LINE
8
0
62
1
10
272.029978
20
118.179968
11
283.575541
21
116.666667
0
LINE
8
0
62
1
10
283.575541
20
116.666667
11
282.291521
21
123.725142
0
LINE
8
0
62
1
10
273.459989
20
142.759984
11
273.175906
21
127.944415
0
LINE
8
0
62
1
10
273.175906
20
127.944415
11
281.821080
21
134.593288
0
LINE
8
0
62
1
10
281.821080
20
134.593288
11
273.459989
21
142.759984
0
LINE
8
0
62
1
10
101.521849
20
125.168145
11
100.000000
21
100.000000
0
LINE
8
0
62
1
10
100.000000
20
100.000000
11
105.821477
21
111.447400
0
LINE
8
0
62
1
10
105.821477
20
111.447400
11
101.521849
21
125.168145
0
LINE
8
0
62
1
10
101.521849
20
125.168145
11
104.565548
21
125.504434
0
LINE
8
0
62
1
10
104.565548
20
125.504434
11
105.821477
21
139.225178
0
LINE
8
0
62
1
10
105.821477
20
139.225178
11
101.521849
21
125.168145
0
LINE
8
0
62
1
10
180.864198
20
107.098765
11
175.000000
21
100.000000
0
LINE
8
0
62
1
10
175.000000
20
100.000000
11
189.259259
21
104.629630
0
LINE
8
0
62
1
10
189.259259
20
104.629630
11
180.864198
21
107.098765
0
LINE
8
0
62
1
10
180.864198
20
107.098765
11
189.259259
21
104.629630
0
LINE
8
0
62
1
10
189.259259
20
104.629630
11
192.777778
21
113.888889
0
LINE
8
0
62
1
10
192.777778
20
113.888889
11
180.864198
21
107.098765
0
LINE
8
0
62
1
10
348.518519
20
125.000000
11
350.000000
21
150.000000
0
LINE
8
0
62
1
10
350.000000
20
150.000000
11
344.259259
21
138.888889
0
LINE
8
0
62
1
10
344.259259
20
138.888889
11
348.518519
21
125.000000
0
LINE
8
0
62
1
10
348.518519
20
125.000000
11
345.555556
21
125.000000
0
LINE
8
0
62
1
10
345.555556
20
125.000000
11
344.259259
21
111.111111
0
LINE
8
0
62
1
10
344.259259
20
111.111111
11
348.518519
21
125.000000
0
LINE
8
0
62
1
10
121.431414
20
108.326270
11
112.632961
21
102.945922
0
LINE
8
0
62
1
10
112.632961
20
102.945922
11
125.000000
21
100.000000
0
LINE
8
0
62
1
10
125.000000
20
100.000000
11
121.431414
21
108.326270
0
LINE
8
0
62
1
10
112.632961
20
102.945922
11
112.898882
21
108.837767
0
LINE
8
0
62
1
10
112.898882
20
108.837767
11
105.821477
21
111.447400
0
LINE
8
0
62
1
10
105.821477
20
111.447400
11
112.632961
21
102.945922
0
LINE
8
0
62
1
10
328.649322
20
107.989981
11
332.538211
21
116.323314
0
LINE
8
0
62
1
10
332.538211
20
116.323314
11
323.725744
21
115.636610
0
LINE
8
0
62
1
10
323.725744
20
115.636610
11
328.649322
21
107.989981
0
LINE
8
0
62
1
10
332.538211
20
116.323314
11
337.222222
21
108.333333
0
LINE
8
0
62
1
10
337.222222
20
108.333333
11
344.259259
21
111.111111
0
LINE
8
0
62
1
10
344.259259
20
111.111111
11
332.538211
21
116.323314
0
LINE
8
0
62
1
10
332.538211
20
133.676686
11
336.666667
21
125.000000
0
LINE
8
0
62
1
10
336.666667
20
125.000000
11
345.555556
21
125.000000
0
LINE
8
0
62
1
10
345.555556
20
125.000000
11
332.538211
21
133.676686
0
LINE
8
0
62
1
10
328.649322
20
142.010019
11
332.538211
21
133.676686
0
LINE
8
0
62
1
10
332.538211
20
133.676686
11
337.222222
21
141.666667
0
LINE
8
0
62
1
10
337.222222
20
141.666667
11
328.649322
21
142.010019
0
LINE
8
0
62
1
10
328.075639
20
125.000000
11
332.538211
21
116.323314
0
LINE
8
0
62
1
10
332.538211
20
116.323314
11
336.666667
21
125.000000
0
LINE
8
0
62
1
10
336.666667
20
125.000000
11
328.075639
21
125.000000
0
LINE
8
0
62
1
10
328.075639
20
125.000000
11
332.538211
21
133.676686
0
LINE
8
0
62
1
10
332.538211
20
133.676686
11
323.725744
21
134.363390
0
LINE
8
0
62
1
10
323.725744
20
134.363390
11
328.075639
21
125.000000
0
LINE
8
0
62
1
10
273.459989
20
142.759984
11
263.558886
21
143.686663
0
LINE
8
0
62
1
10
263.558886
20
143.686663
11
265.676659
21
131.059989
0
LINE
8
0
62
1
10
265.676659
20
131.059989
11
273.459989
21
142.759984
0
LINE
8
0
62
1
10
287.898882
20
147.726656
11
281.821080
21
134.593288
0
LINE
8
0
62
1
10
281.821080
20
134.593288
11
288.696645
21
143.179968
0
LINE
8
0
62
1
10
288.696645
20
143.179968
11
287.898882
21
147.726656
0
LINE
8
0
62
1
10
185.185185
20
120.370370
11
178.333333
21
116.666667
0
LINE
8
0
62
1
10
178.333333
20
116.666667
11
180.864198
21
107.098765
0
LINE
8
0
62
1
10
180.864198
20
107.098765
11
185.185185
21
120.370370
0
LINE
8
0
62
1
10
185.185185
20
120.370370
11
192.777778
21
113.888889
0
LINE
8
0
62
1
10
192.777778
20
113.888889
11
200.000000
21
125.000000
0
LINE
8
0
62
1
10
200.000000
20
125.000000
11
185.185185
21
120.370370
0
LINE
8
0
62
1
10
256.732096
20
131.874070
11
265.016655
21
121.211094
0
LINE
8
0
62
1
10
265.016655
20
121.211094
11
265.676659
21
131.059989
0
LINE
8
0
62
1
10
265.676659
20
131.059989
11
256.732096
21
131.874070
0
LINE
8
0
62
1
10
265.016655
20
121.211094
11
257.343326
21
114.393323
0
LINE
8
0
62
1
10
257.343326
20
114.393323
11
269.270362
21
107.659248
0
LINE
8
0
62
1
10
269.270362
20
107.659248
11
265.016655
21
121.211094
0
LINE
8
0
62
1
10
137.898882
20
102.273344
11
130.030668
21
107.653692
0
LINE
8
0
62
1
10
130.030668
20
107.653692
11
125.000000
21
100.000000
0
LINE
8
0
62
1
10
125.000000
20
100.000000
11
137.898882
21
102.273344
0
LINE
8
0
62
1
10
135.193813
20
114.956969
11
130.030668
21
107.653692
0
LINE
8
0
62
1
10
130.030668
20
107.653692
11
138.696645
21
106.820032
0
LINE
8
0
62
1
10
138.696645
20
106.820032
11
135.193813
21
114.956969
0
LINE
8
0
62
1
10
121.498136
20
142.507390
11
117.730351
21
134.678490
0
LINE
8
0
62
1
10
117.730351
20
134.678490
11
126.595527
21
135.351069
0
LINE
8
0
62
1
10
126.595527
20
135.351069
11
121.498136
21
142.507390
0
LINE
8
0
62
1
10
117.730351
20
134.678490
11
112.898882
21
142.171101
0
LINE
8
0
62
1
10
112.898882
20
142.171101
11
105.821477
21
139.225178
0
LINE
8
0
62
1
10
105.821477
20
139.225178
11
117.730351
21
134.678490
0
LINE
8
0
62
1
10
213.888889
20
122.222222
11
200.000000
21
125.000000
0
LINE
8
0
62
1
10
200.000000
20
125.000000
11
202.222222
21
114.814815
0
LINE
8
0
62
1
10
202.222222
20
114.814815
11
213.888889
21
122.222222
0
LINE
8
0
62
1
10
213.888889
20
122.222222
11
216.666667
21
116.666667
0
LINE
8
0
62
1
10
216.666667
20
116.666667
11
225.000000
21
125.000000
0
LINE
8
0
62
1
10
225.000000
20
125.000000
11
213.888889
21
122.222222
0
LINE
8
0
62
1
10
238.888889
20
122.222222
11
225.000000
21
125.000000
0
LINE
8
0
62
1
10
225.000000
20
125.000000
11
230.555556
21
113.888889
0
LINE
8
0
62
1
10
230.555556
20
113.888889
11
238.888889
21
122.222222
0
LINE
8
0
62
1
10
238.888889
20
122.222222
11
241.666667
21
116.666667
0
LINE
8
0
62
1
10
241.666667
20
116.666667
11
250.000000
21
125.000000
0
LINE
8
0
62
1
10
250.000000
20
125.000000
11
238.888889
21
122.222222
0
LINE
8
0
62
1
10
337.407407
20
102.777778
11
350.000000
21
100.000000
0
LINE
8
0
62
1
10
350.000000
20
100.000000
11
344.259259
21
111.111111
0
LINE
8
0
62
1
10
344.259259
20
111.111111
11
337.407407
21
102.777778
0
LINE
8
0
62
1
10
328.649322
20
107.989981
11
337.407407
21
102.777778
0
LINE
8
0
62
1
10
337.407407
20
102.777778
11
337.222222
21
108.333333
0
LINE
8
0
62
1
10
337.222222
20
108.333333
11
328.649322
21
107.989981
0
LINE
8
0
62
1
10
328.649322
20
142.010019
11
337.407407
21
147.222222
0
LINE
8
0
62
1
10
337.407407
20
147.222222
11
325.000000
21
150.000000
0
LINE
8
0
62
1
10
325.000000
20
150.000000
11
328.649322
21
142.010019
0
LINE
8
0
62
1
10
337.407407
20
147.222222
11
337.222222
21
141.666667
0
LINE
8
0
62
1
10
337.222222
20
141.666667
11
344.259259
21
138.888889
0
LINE
8
0
62
1
10
344.259259
20
138.888889
11
337.407407
21
147.222222
0
LINE
8
0
62
1
10
121.431414
20
108.326270
11
125.000000
21
100.000000
0
LINE
8
0
62
1
10
125.000000
20
100.000000
11
130.030668
21
107.653692
0
LINE
8
0
62
1
10
130.030668
20
107.653692
11
121.431414
21
108.326270
0
LINE
8
0
62
1
10
121.431414
20
108.326270
11
126.395360
21
116.141044
0
LINE
8
0
62
1
10
126.395360
20
116.141044
11
117.663629
21
117.164038
0
LINE
8
0
62
1
10
117.663629
20
117.164038
11
121.431414
21
108.326270
0
LINE
8
0
62
1
10
312.101118
20
147.726656
11
320.009700
21
142.514453
0
LINE
8
0
62
1
10
320.009700
20
142.514453
11
325.000000
21
150.000000
0
LINE
8
0
62
1
10
325.000000
20
150.000000
11
312.101118
21
147.726656
0
LINE
8
0
62
1
10
314.846555
20
135.211176
11
320.009700
21
142.514453
0
LINE
8
0
62
1
10
320.009700
20
142.514453
11
311.303355
21
143.179968
0
LINE
8
0
62
1
10
311.303355
20
143.179968
11
314.846555
21
135.211176
0
LINE
8
0
62
1
10
314.846555
20
114.788824
11
320.009700
21
107.485547
0
LINE
8
0
62
1
10
320.009700
20
107.485547
11
323.725744
21
115.636610
0
LINE
8
0
62
1
10
323.725744
20
115.636610
11
314.846555
21
114.788824
0
LINE
8
0
62
1
10
312.101118
20
102.273344
11
320.009700
21
107.485547
0
LINE
8
0
62
1
10
320.009700
20
107.485547
11
311.303355
21
106.820032
0
LINE
8
0
62
1
10
311.303355
20
106.820032
11
312.101118
21
102.273344
0
LINE
8
0
62
1
10
314.846555
20
114.788824
11
309.510565
21
121.909830
0
LINE
8
0
62
7
10
309.510565
20
121.909830
11
308.910065
21
120.460095
0
LINE
8
0
62
1
10
308.910065
20
120.460095
11
314.846555
21
114.788824
0
LINE
8
0
62
1
10
314.846555
20
114.788824
11
311.303355
21
106.820032
0
LINE
8
0
62
1
10
311.303355
20
106.820032
11
320.009700
21
107.485547
0
LINE
8
0
62
1
10
320.009700
20
107.485547
11
314.846555
21
114.788824
0
LINE
8
0
62
1
10
314.846555
20
135.211176
11
323.725744
21
134.363390
0
LINE
8
0
62
1
10
323.725744
20
134.363390
11
320.009700
21
142.514453
0
LINE
8
0
62
1
10
320.009700
20
142.514453
11
314.846555
21
135.211176
0
LINE
8
0
62
1
10
314.846555
20
135.211176
11
311.303355
21
143.179968
0
LINE
8
0
62
1
10
311.303355
20
143.179968
11
304.539905
21
133.910065
0
LINE
8
0
62
1
10
304.539905
20
133.910065
11
314.846555
21
135.211176
0
LINE
8
0
62
1
10
135.193813
20
114.956969
11
126.395360
21
116.141044
0
LINE
8
0
62
1
10
126.395360
20
116.141044
11
130.030668
21
107.653692
0
LINE
8
0
62
1
10
130.030668
20
107.653692
11
135.193813
21
114.956969
0
LINE
8
0
62
1
10
135.193813
20
114.956969
11
138.696645
21
106.820032
0
LINE
8
0
62
1
10
138.696645
20
106.820032
11
145.460095
21
116.089935
0
LINE
8
0
62
1
10
145.460095
20
116.089935
11
135.193813
21
114.956969
0
LINE
8
0
62
1
10
328.649322
20
142.010019
11
323.725744
21
134.363390
0
LINE
8
0
62
1
10
323.725744
20
134.363390
11
332.538211
21
133.676686
0
LINE
8
0
62
1
10
332.538211
20
133.676686
11
328.649322
21
142.010019
0
LINE
8
0
62
1
10
328.649322
20
142.010019
11
337.222222
21
141.666667
0
LINE
8
0
62
1
10
337.222222
20
141.666667
11
337.407407
21
147.222222
0
LINE
8
0
62
1
10
337.407407
20
147.222222
11
328.649322
21
142.010019
0
LINE
8
0
62
1
10
328.649322
20
107.989981
11
325.000000
21
100.000000
0
LINE
8
0
62
1
10
325.000000
20
100.000000
11
337.407407
21
102.777778
0
LINE
8
0
62
1
10
337.407407
20
102.777778
11
328.649322
21
107.989981
0
LINE
8
0
62
1
10
328.649322
20
107.989981
11
337.222222
21
108.333333
0
LINE
8
0
62
1
10
337.222222
20
108.333333
11
332.538211
21
116.323314
0
LINE
8
0
62
1
10
332.538211
20
116.323314
11
328.649322
21
107.989981
0
LINE
8
0
62
1
10
256.732096
20
131.874070
11
265.676659
21
131.059989
0
LINE
8
0
62
1
10
265.676659
20
131.059989
11
263.558886
21
143.686663
0
LINE
8
0
62
1
10
263.558886
20
143.686663
11
256.732096
21
131.874070
0
LINE
8
0
62
1
10
256.732096
20
131.874070
11
254.519629
21
139.562221
0
LINE
8
0
62
1
10
254.519629
20
139.562221
11
250.000000
21
125.000000
0
LINE
8
0
62
1
10
250.000000
20
125.000000
11
256.732096
21
131.874070
0
LINE
8
0
62
1
10
193.312757
20
131.687243
11
200.000000
21
125.000000
0
LINE
8
0
62
1
10
200.000000
20
125.000000
11
195.493827
21
139.506173
0
LINE
8
0
62
1
10
195.493827
20
139.506173
11
193.312757
21
131.687243
0
LINE
8
0
62
1
10
193.312757
20
131.687243
11
195.493827
21
139.506173
0
LINE
8
0
62
1
10
195.493827
20
139.506173
11
186.481481
21
143.518519
0
LINE
8
0
62
1
10
186.481481
20
143.518519
11
193.312757
21
131.687243
0
LINE
8
0
62
1
10
135.260535
20
135.540402
11
140.489435
21
128.090170
0
LINE
8
0
62
7
10
140.489435
20
128.090170
11
141.089935
21
129.539905
0
LINE
8
0
62
1
10
141.089935
20
129.539905
11
135.260535
21
135.540402
0
LINE
8
0
62
1
10
130.097390
20
142.843679
11
135.260535
21
135.540402
0
LINE
8
0
62
1
10
135.260535
20
135.540402
11
138.696645
21
143.179968
0
LINE
8
0
62
1
10
138.696645
20
143.179968
11
130.097390
21
142.843679
0
LINE
8
0
62
1
10
112.632961
20
147.390367
11
100.000000
21
150.000000
0
LINE
8
0
62
1
10
100.000000
20
150.000000
11
105.821477
21
139.225178
0
LINE
8
0
62
1
10
105.821477
20
139.225178
11
112.632961
21
147.390367
0
LINE
8
0
62
1
10
121.498136
20
142.507390
11
112.632961
21
147.390367
0
LINE
8
0
62
1
10
112.632961
20
147.390367
11
112.898882
21
142.171101
0
LINE
8
0
62
1
10
112.898882
20
142.171101
11
121.498136
21
142.507390
0
LINE
8
0
62
1
10
205.370370
20
106.790123
11
213.888889
21
105.555556
0
LINE
8
0
62
1
10
213.888889
20
105.555556
11
202.222222
21
114.814815
0
LINE
8
0
62
1
10
202.222222
20
114.814815
11
205.370370
21
106.790123
0
LINE
8
0
62
1
10
205.370370
20
106.790123
11
202.222222
21
114.814815
0
LINE
8
0
62
1
10
202.222222
20
114.814815
11
192.777778
21
113.888889
0
LINE
8
0
62
1
10
192.777778
20
113.888889
11
205.370370
21
106.790123
0
LINE
8
0
62
1
10
130.097390
20
142.843679
11
126.595527
21
135.351069
0
LINE
8
0
62
1
10
126.595527
20
135.351069
11
135.260535
21
135.540402
0
LINE
8
0
62
1
10
135.260535
20
135.540402
11
130.097390
21
142.843679
0
LINE
8
0
62
1
10
137.898882
20
147.726656
11
130.097390
21
142.843679
0
LINE
8
0
62
1
10
130.097390
20
142.843679
11
138.696645
21
143.179968
0
LINE
8
0
62
1
10
138.696645
20
143.179968
11
137.898882
21
147.726656
0
LINE
8
0
62
1
10
121.498136
20
142.507390
11
125.000000
21
150.000000
0
LINE
8
0
62
1
10
125.000000
20
150.000000
11
112.632961
21
147.390367
0
LINE
8
0
62
1
10
112.632961
20
147.390367
11
121.498136
21
142.507390
0
LINE
8
0
62
1
10
121.498136
20
142.507390
11
112.898882
21
142.171101
0
LINE
8
0
62
1
10
112.898882
20
142.171101
11
117.730351
21
134.678490
0
LINE
8
0
62
1
10
117.730351
20
134.678490
11
121.498136
21
142.507390
0
LINE
8
0
62
1
10
223.148148
20
106.481481
11
230.555556
21
113.888889
0
LINE
8
0
62
1
10
230.555556
20
113.888889
11
216.666667
21
116.666667
0
LINE
8
0
62
1
10
216.666667
20
116.666667
11
223.148148
21
106.481481
0
LINE
8
0
62
1
10
223.148148
20
106.481481
11
213.888889
21
105.555556
0
LINE
8
0
62
1
10
213.888889
20
105.555556
11
225.000000
21
100.000000
0
LINE
8
0
62
1
10
225.000000
20
100.000000
11
223.148148
21
106.481481
0
LINE
8
0
62
1
10
282.291521
20
123.725142
11
290.123117
21
126.564345
0
LINE
8
0
62
7
10
290.123117
20
126.564345
11
290.489435
21
128.090170
0
LINE
8
0
62
1
10
290.489435
20
128.090170
11
282.291521
21
123.725142
0
LINE
8
0
62
1
10
282.291521
20
123.725142
11
273.175906
21
127.944415
0
LINE
8
0
62
1
10
273.175906
20
127.944415
11
272.029978
21
118.179968
0
LINE
8
0
62
1
10
272.029978
20
118.179968
11
282.291521
21
123.725142
0
LINE
8
0
62
1
10
109.350218
20
118.038624
11
105.821477
21
111.447400
0
LINE
8
0
62
1
10
105.821477
20
111.447400
11
112.898882
21
108.837767
0
LINE
8
0
62
1
10
112.898882
20
108.837767
11
109.350218
21
118.038624
0
LINE
8
0
62
1
10
109.350218
20
118.038624
11
117.663629
21
117.164038
0
LINE
8
0
62
1
10
117.663629
20
117.164038
11
113.696645
21
126.513302
0
LINE
8
0
62
1
10
113.696645
20
126.513302
11
109.350218
21
118.038624
0
LINE
8
0
62
1
10
164.332752
20
136.472787
11
158.910065
21
129.539905
0
LINE
8
0
62
7
10
158.910065
20
129.539905
11
159.510565
21
128.090170
0
LINE
8
0
62
1
10
159.510565
20
128.090170
11
164.332752
21
136.472787
0
LINE
8
0
62
1
10
164.332752
20
136.472787
11
172.784837
21
136.698487
0
LINE
8
0
62
1
10
172.784837
20
136.698487
11
161.303355
21
143.179968
0
LINE
8
0
62
1
10
161.303355
20
143.179968
11
164.332752
21
136.472787
0
LINE
8
0
62
1
10
162.101118
20
147.726656
11
150.000000
21
150.000000
0
LINE
8
0
62
1
10
150.000000
20
150.000000
11
161.303355
21
143.179968
0
LINE
8
0
62
1
10
161.303355
20
143.179968
11
162.101118
21
147.726656
0
LINE
8
0
62
1
10
162.101118
20
147.726656
11
161.303355
21
143.179968
0
LINE
8
0
62
1
10
161.303355
20
143.179968
11
175.000000
21
150.000000
0
LINE
8
0
62
1
10
175.000000
20
150.000000
11
162.101118
21
147.726656
0
LINE
8
0
62
1
10
287.898882
20
147.726656
11
275.000000
21
150.000000
0
LINE
8
0
62
1
10
275.000000
20
150.000000
11
273.459989
21
142.759984
0
LINE
8
0
62
1
10
273.459989
20
142.759984
11
287.898882
21
147.726656
0
LINE
8
0
62
1
10
296.232215
20
142.726656
11
287.898882
21
147.726656
0
LINE
8
0
62
1
10
287.898882
20
147.726656
11
288.696645
21
143.179968
0
LINE
8
0
62
1
10
288.696645
20
143.179968
11
296.232215
21
142.726656
0
LINE
8
0
62
1
10
312.101118
20
147.726656
11
300.000000
21
150.000000
0
LINE
8
0
62
1
10
300.000000
20
150.000000
11
311.303355
21
143.179968
0
LINE
8
0
62
1
10
311.303355
20
143.179968
11
312.101118
21
147.726656
0
LINE
8
0
62
1
10
312.101118
20
147.726656
11
311.303355
21
143.179968
0
LINE
8
0
62
1
10
311.303355
20
143.179968
11
320.009700
21
142.514453
0
LINE
8
0
62
1
10
320.009700
20
142.514453
11
312.101118
21
147.726656
0
LINE
8
0
62
1
10
137.898882
20
147.726656
11
125.000000
21
150.000000
0
LINE
8
0
62
1
10
125.000000
20
150.000000
11
130.097390
21
142.843679
0
LINE
8
0
62
1
10
130.097390
20
142.843679
11
137.898882
21
147.726656
0
LINE
8
0
62
1
10
146.232215
20
142.726656
11
137.898882
21
147.726656
0
LINE
8
0
62
1
10
137.898882
20
147.726656
11
138.696645
21
143.179968
0
LINE
8
0
62
1
10
138.696645
20
143.179968
11
146.232215
21
142.726656
0
LINE
8
0
62
1
10
137.898882
20
102.273344
11
150.000000
21
100.000000
0
LINE
8
0
62
1
10
150.000000
20
100.000000
11
138.696645
21
106.820032
0
LINE
8
0
62
1
10
138.696645
20
106.820032
11
137.898882
21
102.273344
0
LINE
8
0
62
1
10
137.898882
20
102.273344
11
138.696645
21
106.820032
0
LINE
8
0
62
1
10
138.696645
20
106.820032
11
130.030668
21
107.653692
0
LINE
8
0
62
1
10
130.030668
20
107.653692
11
137.898882
21
102.273344
0
LINE
8
0
62
1
10
167.882227
20
106.145192
11
175.000000
21
100.000000
0
LINE
8
0
62
1
10
175.000000
20
100.000000
11
180.864198
21
107.098765
0
LINE
8
0
62
1
10
180.864198
20
107.098765
11
167.882227
21
106.145192
0
LINE
8
0
62
1
10
162.101118
20
102.273344
11
161.303355
21
106.820032
0
LINE
8
0
62
1
10
161.303355
20
106.820032
11
150.000000
21
100.000000
0
LINE
8
0
62
1
10
150.000000
20
100.000000
11
162.101118
21
102.273344
0
LINE
8
0
62
1
10
167.882227
20
106.145192
11
166.545563
21
116.162233
0
LINE
8
0
62
1
10
166.545563
20
116.162233
11
161.303355
21
106.820032
0
LINE
8
0
62
1
10
161.303355
20
106.820032
11
167.882227
21
106.145192
0
LINE
8
0
62
1
10
167.882227
20
106.145192
11
162.101118
21
102.273344
0
LINE
8
0
62
1
10
162.101118
20
102.273344
11
175.000000
21
100.000000
0
LINE
8
0
62
1
10
175.000000
20
100.000000
11
167.882227
21
106.145192
0
LINE
8
0
62
1
10
287.898882
20
102.273344
11
300.000000
21
100.000000
0
LINE
8
0
62
1
10
300.000000
20
100.000000
11
288.696645
21
106.820032
0
LINE
8
0
62
1
10
288.696645
20
106.820032
11
287.898882
21
102.273344
0
LINE
8
0
62
1
10
282.158141
20
106.313337
11
288.696645
21
106.820032
0
LINE
8
0
62
1
10
288.696645
20
106.820032
11
283.575541
21
116.666667
0
LINE
8
0
62
1
10
283.575541
20
116.666667
11
282.158141
21
106.313337
0
LINE
8
0
62
1
10
282.158141
20
106.313337
11
275.000000
21
100.000000
0
LINE
8
0
62
1
10
275.000000
20
100.000000
11
287.898882
21
102.273344
0
LINE
8
0
62
1
10
287.898882
20
102.273344
11
282.158141
21
106.313337
0
LINE
8
0
62
1
10
282.158141
20
106.313337
11
287.898882
21
102.273344
0
LINE
8
0
62
1
10
287.898882
20
102.273344
11
288.696645
21
106.820032
0
LINE
8
0
62
1
10
288.696645
20
106.820032
11
282.158141
21
106.313337
0
LINE
8
0
62
1
10
312.101118
20
102.273344
11
325.000000
21
100.000000
0
LINE
8
0
62
1
10
325.000000
20
100.000000
11
320.009700
21
107.485547
0
LINE
8
0
62
1
10
320.009700
20
107.485547
11
312.101118
21
102.273344
0
LINE
8
0
62
1
10
312.101118
20
102.273344
11
311.303355
21
106.820032
0
LINE
8
0
62
1
10
311.303355
20
106.820032
11
300.000000
21
100.000000
0
LINE
8
0
62
1
10
300.000000
20
100.000000
11
312.101118
21
102.273344
0
LINE
8
0
62
1
10
146.232215
20
142.726656
11
150.000000
21
150.000000
0
LINE
8
0
62
1
10
150.000000
20
150.000000
11
137.898882
21
147.726656
0
LINE
8
0
62
1
10
137.898882
20
147.726656
11
146.232215
21
142.726656
0
LINE
8
0
62
1
10
146.232215
20
142.726656
11
138.696645
21
143.179968
0
LINE
8
0
62
1
10
138.696645
20
143.179968
11
145.460095
21
133.910065
0
LINE
8
0
62
1
10
145.460095
20
133.910065
11
146.232215
21
142.726656
0
LINE
8
0
62
1
10
296.232215
20
142.726656
11
300.000000
21
150.000000
0
LINE
8
0
62
1
10
300.000000
20
150.000000
11
287.898882
21
147.726656
0
LINE
8
0
62
1
10
287.898882
20
147.726656
11
296.232215
21
142.726656
0
LINE
8
0
62
1
10
296.232215
20
142.726656
11
288.696645
21
143.179968
0
LINE
8
0
62
1
10
288.696645
20
143.179968
11
292.928932
21
132.071068
0
LINE
8
0
62
1
10
292.928932
20
132.071068
11
296.232215
21
142.726656
0
LINE
8
0
62
7
10
350.000000
20
125.000000
11
350.000000
21
150.000000
0
LINE
8
0
62
1
10
350.000000
20
150.000000
11
348.518519
21
125.000000
0
LINE
8
0
62
1
10
348.518519
20
125.000000
11
350.000000
21
125.000000
0
LINE
8
0
62
7
10
100.000000
20
125.167524
11
100.000000
21
100.000000
0
LINE
8
0
62
1
10
100.000000
20
100.000000
11
101.521849
21
125.168145
0
LINE
8
0
62
1
10
101.521849
20
125.168145
11
100.000000
21
125.167524
0
ENDSEC
0
EOF