0
SECTION
2
HEADER
9
$ACADVER
1
AC1009
0
ENDSEC
0
SECTION
2
TABLES
0
ENDSEC
0
SECTION
2
BLOCKS
0
ENDSEC
0
SECTION
2
ENTITIES
0
LINE
8
0
62
1
10
165.213431
20
125.127030
11
158.910065
21
120.460095
0
LINE
8
0
62
1
10
158.910065
20
120.460095
11
169.811140
21
118.178162
0
LINE
8
0
62
1
10
169.811140
20
118.178162
11
165.213431
21
125.127030
0
LINE
8
0
62
1
10
219.696429
20
111.607143
11
212.500000
21
125.000000
0
LINE
8
0
62
1
10
212.500000
20
125.000000
11
209.517113
21
113.392857
0
LINE
8
0
62
1
10
209.517113
20
113.392857
11
219.696429
21
111.607143
0
LINE
8
0
62
1
10
150.504667
20
137.769378
11
143.628664
21
138.518679
0
LINE
8
0
62
1
10
143.628664
20
138.518679
11
146.909830
21
134.510565
0
LINE
8
0
62
1
10
146.909830
20
134.510565
11
150.504667
21
137.769378
0
LINE
8
0
62
1
10
237.500000
20
125.000000
11
231.754960
21
112.351190
0
LINE
8
0
62
1
10
231.754960
20
112.351190
11
242.708333
21
112.500000
0
LINE
8
0
62
1
10
242.708333
20
112.500000
11
237.500000
21
125.000000
0
LINE
8
0
62
1
10
328.119962
20
122.170581
11
314.646010
21
126.934594
0
LINE
8
0
62
1
10
314.646010
20
126.934594
11
317.745638
21
117.807645
0
LINE
8
0
62
1
10
317.745638
20
117.807645
11
328.119962
21
122.170581
0
LINE
8
0
62
1
10
191.918255
20
143.409507
11
184.274658
21
143.227911
0
LINE
8
0
62
1
10
184.274658
20
143.227911
11
188.405022
21
136.564516
0
LINE
8
0
62
1
10
188.405022
20
136.564516
11
191.918255
21
143.409507
0
LINE
8
0
62
1
10
165.213431
20
125.127030
11
159.510565
21
121.909830
0
LINE
8
0
62
7
10
159.510565
20
121.909830
11
158.910065
21
120.460095
0
LINE
8
0
62
1
10
158.910065
20
120.460095
11
165.213431
21
125.127030
0
LINE
8
0
62
1
10
165.213431
20
125.127030
11
159.876883
21
123.435655
0
LINE
8
0
62
7
10
159.876883
20
123.435655
11
159.510565
21
121.909830
0
LINE
8
0
62
1
10
159.510565
20
121.909830
11
165.213431
21
125.127030
0
LINE
8
0
62
1
10
162.252796
20
131.500112
11
175.638591
21
134.838034
0
LINE
8
0
62
1
10
175.638591
20
134.838034
11
163.395929
21
139.798018
0
LINE
8
0
62
1
10
163.395929
20
139.798018
11
162.252796
21
131.500112
0
LINE
8
0
62
1
10
162.252796
20
131.500112
11
163.395929
21
139.798018
0
LINE
8
0
62
1
10
163.395929
20
139.798018
11
155.877853
21
133.090170
0
LINE
8
0
62
1
10
155.877853
20
133.090170
11
162.252796
21
131.500112
0
LINE
8
0
62
1
10
162.252796
20
131.500112
11
159.876883
21
126.564345
0
LINE
8
0
62
1
10
159.876883
20
126.564345
11
165.213431
21
125.127030
0
LINE
8
0
62
1
10
165.213431
20
125.127030
11
162.252796
21
131.500112
0
LINE
8
0
62
1
10
134.343976
20
126.750170
11
140.489435
21
128.090170
0
LINE
8
0
62
7
10
140.489435
20
128.090170
11
141.089935
21
129.539905
0
LINE
8
0
62
1
10
141.089935
20
129.539905
11
134.343976
21
126.750170
0
LINE
8
0
62
1
10
162.252796
20
131.500112
11
159.510565
21
128.090170
0
LINE
8
0
62
7
10
159.510565
20
128.090170
11
159.876883
21
126.564345
0
LINE
8
0
62
1
10
159.876883
20
126.564345
11
162.252796
21
131.500112
0
LINE
8
0
62
1
10
162.252796
20
131.500112
11
157.071068
21
132.071068
0
LINE
8
0
62
7
10
157.071068
20
132.071068
11
158.090170
21
130.877853
0
LINE
8
0
62
1
10
158.090170
20
130.877853
11
162.252796
21
131.500112
0
LINE
8
0
62
1
10
150.504667
20
137.769378
11
150.000000
21
135.000000
0
LINE
8
0
62
7
10
150.000000
20
135.000000
11
151.564345
21
134.876883
0
LINE
8
0
62
1
10
151.564345
20
134.876883
11
150.504667
21
137.769378
0
LINE
8
0
62
1
10
162.252796
20
131.500112
11
155.877853
21
133.090170
0
LINE
8
0
62
7
10
155.877853
20
133.090170
11
157.071068
21
132.071068
0
LINE
8
0
62
1
10
157.071068
20
132.071068
11
162.252796
21
131.500112
0
LINE
8
0
62
1
10
163.395929
20
139.798018
11
154.539905
21
133.910065
0
LINE
8
0
62
7
10
154.539905
20
133.910065
11
155.877853
21
133.090170
0
LINE
8
0
62
1
10
155.877853
20
133.090170
11
163.395929
21
139.798018
0
LINE
8
0
62
1
10
150.504667
20
137.769378
11
154.539905
21
133.910065
0
LINE
8
0
62
1
10
154.539905
20
133.910065
11
156.373432
21
143.720758
0
LINE
8
0
62
1
10
156.373432
20
143.720758
11
150.504667
21
137.769378
0
LINE
8
0
62
1
10
150.504667
20
137.769378
11
148.435655
21
134.876883
0
LINE
8
0
62
7
10
148.435655
20
134.876883
11
150.000000
21
135.000000
0
LINE
8
0
62
1
10
150.000000
20
135.000000
11
150.504667
21
137.769378
0
LINE
8
0
62
1
10
151.000765
20
112.099207
11
148.435655
21
115.123117
0
LINE
8
0
62
7
10
148.435655
20
115.123117
11
146.909830
21
115.489435
0
LINE
8
0
62
1
10
146.909830
20
115.489435
11
151.000765
21
112.099207
0
LINE
8
0
62
1
10
143.628664
20
138.518679
11
150.000000
21
150.000000
0
LINE
8
0
62
7
10
150.000000
20
150.000000
11
137.500000
21
150.000000
0
LINE
8
0
62
1
10
137.500000
20
150.000000
11
143.628664
21
138.518679
0
LINE
8
0
62
1
10
143.628664
20
138.518679
11
142.928932
21
132.071068
0
LINE
8
0
62
7
10
142.928932
20
132.071068
11
144.122147
21
133.090170
0
LINE
8
0
62
1
10
144.122147
20
133.090170
11
143.628664
21
138.518679
0
LINE
8
0
62
1
10
143.628664
20
138.518679
11
145.460095
21
133.910065
0
LINE
8
0
62
7
10
145.460095
20
133.910065
11
146.909830
21
134.510565
0
LINE
8
0
62
1
10
146.909830
20
134.510565
11
143.628664
21
138.518679
0
LINE
8
0
62
1
10
143.628664
20
138.518679
11
144.122147
21
133.090170
0
LINE
8
0
62
7
10
144.122147
20
133.090170
11
145.460095
21
133.910065
0
LINE
8
0
62
1
10
145.460095
20
133.910065
11
143.628664
21
138.518679
0
LINE
8
0
62
1
10
143.628664
20
138.518679
11
141.909830
21
130.877853
0
LINE
8
0
62
7
10
141.909830
20
130.877853
11
142.928932
21
132.071068
0
LINE
8
0
62
1
10
142.928932
20
132.071068
11
143.628664
21
138.518679
0
LINE
8
0
62
1
10
120.219374
20
140.488758
11
112.500000
21
150.000000
0
LINE
8
0
62
1
10
112.500000
20
150.000000
11
110.237752
21
139.468827
0
LINE
8
0
62
1
10
110.237752
20
139.468827
11
120.219374
21
140.488758
0
LINE
8
0
62
1
10
107.190739
20
119.544483
11
100.000000
21
112.500000
0
LINE
8
0
62
1
10
100.000000
20
112.500000
11
111.511109
21
113.502628
0
LINE
8
0
62
1
10
111.511109
20
113.502628
11
107.190739
21
119.544483
0
LINE
8
0
62
1
10
134.343976
20
126.750170
11
141.089935
21
129.539905
0
LINE
8
0
62
7
10
141.089935
20
129.539905
11
141.909830
21
130.877853
0
LINE
8
0
62
1
10
141.909830
20
130.877853
11
134.343976
21
126.750170
0
LINE
8
0
62
1
10
134.343976
20
126.750170
11
140.123117
21
126.564345
0
LINE
8
0
62
7
10
140.123117
20
126.564345
11
140.489435
21
128.090170
0
LINE
8
0
62
1
10
140.489435
20
128.090170
11
134.343976
21
126.750170
0
LINE
8
0
62
1
10
134.343976
20
126.750170
11
140.000000
21
125.000000
0
LINE
8
0
62
7
10
140.000000
20
125.000000
11
140.123117
21
126.564345
0
LINE
8
0
62
1
10
140.123117
20
126.564345
11
134.343976
21
126.750170
0
LINE
8
0
62
1
10
136.253392
20
119.363275
11
123.858196
21
115.564832
0
LINE
8
0
62
1
10
123.858196
20
115.564832
11
134.514776
21
110.684317
0
LINE
8
0
62
1
10
134.514776
20
110.684317
11
136.253392
21
119.363275
0
LINE
8
0
62
1
10
136.253392
20
119.363275
11
134.514776
21
110.684317
0
LINE
8
0
62
1
10
134.514776
20
110.684317
11
141.909830
21
119.122147
0
LINE
8
0
62
1
10
141.909830
20
119.122147
11
136.253392
21
119.363275
0
LINE
8
0
62
1
10
136.253392
20
119.363275
11
141.909830
21
119.122147
0
LINE
8
0
62
7
10
141.909830
20
119.122147
11
141.089935
21
120.460095
0
LINE
8
0
62
1
10
141.089935
20
120.460095
11
136.253392
21
119.363275
0
LINE
8
0
62
1
10
143.652952
20
111.985504
11
141.909830
21
119.122147
0
LINE
8
0
62
1
10
141.909830
20
119.122147
11
134.514776
21
110.684317
0
LINE
8
0
62
1
10
134.514776
20
110.684317
11
143.652952
21
111.985504
0
LINE
8
0
62
1
10
143.652952
20
111.985504
11
142.928932
21
117.928932
0
LINE
8
0
62
7
10
142.928932
20
117.928932
11
141.909830
21
119.122147
0
LINE
8
0
62
1
10
141.909830
20
119.122147
11
143.652952
21
111.985504
0
LINE
8
0
62
1
10
185.292684
20
115.872692
11
182.809261
21
107.955517
0
LINE
8
0
62
1
10
182.809261
20
107.955517
11
190.453014
21
110.041664
0
LINE
8
0
62
1
10
190.453014
20
110.041664
11
185.292684
21
115.872692
0
LINE
8
0
62
1
10
143.652952
20
111.985504
11
144.122147
21
116.909830
0
LINE
8
0
62
7
10
144.122147
20
116.909830
11
142.928932
21
117.928932
0
LINE
8
0
62
1
10
142.928932
20
117.928932
11
143.652952
21
111.985504
0
LINE
8
0
62
1
10
143.652952
20
111.985504
11
145.460095
21
116.089935
0
LINE
8
0
62
7
10
145.460095
20
116.089935
11
144.122147
21
116.909830
0
LINE
8
0
62
1
10
144.122147
20
116.909830
11
143.652952
21
111.985504
0
LINE
8
0
62
1
10
151.000765
20
112.099207
11
146.909830
21
115.489435
0
LINE
8
0
62
1
10
146.909830
20
115.489435
11
143.652952
21
111.985504
0
LINE
8
0
62
1
10
143.652952
20
111.985504
11
151.000765
21
112.099207
0
LINE
8
0
62
1
10
151.000765
20
112.099207
11
150.000000
21
115.000000
0
LINE
8
0
62
7
10
150.000000
20
115.000000
11
148.435655
21
115.123117
0
LINE
8
0
62
1
10
148.435655
20
115.123117
11
151.000765
21
112.099207
0
LINE
8
0
62
1
10
151.000765
20
112.099207
11
156.635149
21
108.139497
0
LINE
8
0
62
1
10
156.635149
20
108.139497
11
155.877853
21
116.909830
0
LINE
8
0
62
1
10
155.877853
20
116.909830
11
151.000765
21
112.099207
0
LINE
8
0
62
1
10
151.000765
20
112.099207
11
153.090170
21
115.489435
0
LINE
8
0
62
7
10
153.090170
20
115.489435
11
151.564345
21
115.123117
0
LINE
8
0
62
1
10
151.564345
20
115.123117
11
151.000765
21
112.099207
0
LINE
8
0
62
1
10
151.000765
20
112.099207
11
155.877853
21
116.909830
0
LINE
8
0
62
7
10
155.877853
20
116.909830
11
154.539905
21
116.089935
0
LINE
8
0
62
1
10
154.539905
20
116.089935
11
151.000765
21
112.099207
0
LINE
8
0
62
1
10
165.213431
20
125.127030
11
160.000000
21
125.000000
0
LINE
8
0
62
7
10
160.000000
20
125.000000
11
159.876883
21
123.435655
0
LINE
8
0
62
1
10
159.876883
20
123.435655
11
165.213431
21
125.127030
0
LINE
8
0
62
1
10
163.797127
20
111.688447
11
157.071068
21
117.928932
0
LINE
8
0
62
7
10
157.071068
20
117.928932
11
155.877853
21
116.909830
0
LINE
8
0
62
1
10
155.877853
20
116.909830
11
163.797127
21
111.688447
0
LINE
8
0
62
1
10
163.797127
20
111.688447
11
158.090170
21
119.122147
0
LINE
8
0
62
7
10
158.090170
20
119.122147
11
157.071068
21
117.928932
0
LINE
8
0
62
1
10
157.071068
20
117.928932
11
163.797127
21
111.688447
0
LINE
8
0
62
1
10
192.809261
20
130.455517
11
185.789369
21
129.956127
0
LINE
8
0
62
1
10
185.789369
20
129.956127
11
189.181054
21
123.663835
0
LINE
8
0
62
1
10
189.181054
20
123.663835
11
192.809261
21
130.455517
0
LINE
8
0
62
1
10
169.811140
20
118.178162
11
158.910065
21
120.460095
0
LINE
8
0
62
1
10
158.910065
20
120.460095
11
163.797127
21
111.688447
0
LINE
8
0
62
1
10
163.797127
20
111.688447
11
169.811140
21
118.178162
0
LINE
8
0
62
1
10
300.655150
20
111.351844
11
303.090170
21
115.489435
0
LINE
8
0
62
7
10
303.090170
20
115.489435
11
301.564345
21
115.123117
0
LINE
8
0
62
1
10
301.564345
20
115.123117
11
300.655150
21
111.351844
0
LINE
8
0
62
1
10
299.495333
20
137.769378
11
301.564345
21
134.876883
0
LINE
8
0
62
7
10
301.564345
20
134.876883
11
303.090170
21
134.510565
0
LINE
8
0
62
1
10
303.090170
20
134.510565
11
299.495333
21
137.769378
0
LINE
8
0
62
1
10
314.646010
20
126.934594
11
309.876883
21
126.564345
0
LINE
8
0
62
7
10
309.876883
20
126.564345
11
310.000000
21
125.000000
0
LINE
8
0
62
1
10
310.000000
20
125.000000
11
314.646010
21
126.934594
0
LINE
8
0
62
1
10
314.646010
20
126.934594
11
328.085625
21
133.042474
0
LINE
8
0
62
1
10
328.085625
20
133.042474
11
317.723003
21
138.558588
0
LINE
8
0
62
1
10
317.723003
20
138.558588
11
314.646010
21
126.934594
0
LINE
8
0
62
1
10
314.646010
20
126.934594
11
310.000000
21
125.000000
0
LINE
8
0
62
7
10
310.000000
20
125.000000
11
309.876883
21
123.435655
0
LINE
8
0
62
1
10
309.876883
20
123.435655
11
314.646010
21
126.934594
0
LINE
8
0
62
1
10
314.646010
20
126.934594
11
309.510565
21
128.090170
0
LINE
8
0
62
7
10
309.510565
20
128.090170
11
309.876883
21
126.564345
0
LINE
8
0
62
1
10
309.876883
20
126.564345
11
314.646010
21
126.934594
0
LINE
8
0
62
1
10
314.646010
20
126.934594
11
308.090170
21
130.877853
0
LINE
8
0
62
7
10
308.090170
20
130.877853
11
308.910065
21
129.539905
0
LINE
8
0
62
1
10
308.910065
20
129.539905
11
314.646010
21
126.934594
0
LINE
8
0
62
1
10
306.371336
20
138.518679
11
308.090170
21
130.877853
0
LINE
8
0
62
1
10
308.090170
20
130.877853
11
317.723003
21
138.558588
0
LINE
8
0
62
1
10
317.723003
20
138.558588
11
306.371336
21
138.518679
0
LINE
8
0
62
1
10
306.371336
20
138.518679
11
307.071068
21
132.071068
0
LINE
8
0
62
7
10
307.071068
20
132.071068
11
308.090170
21
130.877853
0
LINE
8
0
62
1
10
308.090170
20
130.877853
11
306.371336
21
138.518679
0
LINE
8
0
62
1
10
264.707316
20
134.127308
11
267.190739
21
142.044483
0
LINE
8
0
62
1
10
267.190739
20
142.044483
11
259.546986
21
139.958336
0
LINE
8
0
62
1
10
259.546986
20
139.958336
11
264.707316
21
134.127308
0
LINE
8
0
62
1
10
306.371336
20
138.518679
11
305.877853
21
133.090170
0
LINE
8
0
62
7
10
305.877853
20
133.090170
11
307.071068
21
132.071068
0
LINE
8
0
62
1
10
307.071068
20
132.071068
11
306.371336
21
138.518679
0
LINE
8
0
62
1
10
306.371336
20
138.518679
11
304.539905
21
133.910065
0
LINE
8
0
62
7
10
304.539905
20
133.910065
11
305.877853
21
133.090170
0
LINE
8
0
62
1
10
305.877853
20
133.090170
11
306.371336
21
138.518679
0
LINE
8
0
62
1
10
299.495333
20
137.769378
11
303.090170
21
134.510565
0
LINE
8
0
62
1
10
303.090170
20
134.510565
11
306.371336
21
138.518679
0
LINE
8
0
62
1
10
306.371336
20
138.518679
11
299.495333
21
137.769378
0
LINE
8
0
62
1
10
264.467987
20
119.657981
11
260.715651
21
126.089942
0
LINE
8
0
62
1
10
260.715651
20
126.089942
11
256.250000
21
118.750000
0
LINE
8
0
62
1
10
256.250000
20
118.750000
11
264.467987
21
119.657981
0
LINE
8
0
62
1
10
299.495333
20
137.769378
11
300.000000
21
135.000000
0
LINE
8
0
62
7
10
300.000000
20
135.000000
11
301.564345
21
134.876883
0
LINE
8
0
62
1
10
301.564345
20
134.876883
11
299.495333
21
137.769378
0
LINE
8
0
62
1
10
299.495333
20
137.769378
11
293.626568
21
143.720758
0
LINE
8
0
62
1
10
293.626568
20
143.720758
11
295.460095
21
133.910065
0
LINE
8
0
62
1
10
295.460095
20
133.910065
11
299.495333
21
137.769378
0
LINE
8
0
62
1
10
299.495333
20
137.769378
11
295.460095
21
133.910065
0
LINE
8
0
62
7
10
295.460095
20
133.910065
11
296.909830
21
134.510565
0
LINE
8
0
62
1
10
296.909830
20
134.510565
11
299.495333
21
137.769378
0
LINE
8
0
62
1
10
287.265993
20
137.660741
11
294.122147
21
133.090170
0
LINE
8
0
62
7
10
294.122147
20
133.090170
11
295.460095
21
133.910065
0
LINE
8
0
62
1
10
295.460095
20
133.910065
11
287.265993
21
137.660741
0
LINE
8
0
62
1
10
284.783161
20
124.322166
11
290.000000
21
125.000000
0
LINE
8
0
62
7
10
290.000000
20
125.000000
11
290.123117
21
126.564345
0
LINE
8
0
62
1
10
290.123117
20
126.564345
11
284.783161
21
124.322166
0
LINE
8
0
62
1
10
287.265993
20
137.660741
11
292.928932
21
132.071068
0
LINE
8
0
62
7
10
292.928932
20
132.071068
11
294.122147
21
133.090170
0
LINE
8
0
62
1
10
294.122147
20
133.090170
11
287.265993
21
137.660741
0
LINE
8
0
62
1
10
292.550079
20
114.055271
11
294.122147
21
116.909830
0
LINE
8
0
62
7
10
294.122147
20
116.909830
11
292.928932
21
117.928932
0
LINE
8
0
62
1
10
292.928932
20
117.928932
11
292.550079
21
114.055271
0
LINE
8
0
62
1
10
287.265993
20
137.660741
11
291.909830
21
130.877853
0
LINE
8
0
62
7
10
291.909830
20
130.877853
11
292.928932
21
132.071068
0
LINE
8
0
62
1
10
292.928932
20
132.071068
11
287.265993
21
137.660741
0
LINE
8
0
62
1
10
280.401484
20
131.691676
11
291.089935
21
129.539905
0
LINE
8
0
62
1
10
291.089935
20
129.539905
11
287.265993
21
137.660741
0
LINE
8
0
62
1
10
287.265993
20
137.660741
11
280.401484
21
131.691676
0
LINE
8
0
62
1
10
284.783161
20
124.322166
11
291.089935
21
129.539905
0
LINE
8
0
62
1
10
291.089935
20
129.539905
11
280.401484
21
131.691676
0
LINE
8
0
62
1
10
280.401484
20
131.691676
11
284.783161
21
124.322166
0
LINE
8
0
62
1
10
284.783161
20
124.322166
11
290.489435
21
128.090170
0
LINE
8
0
62
7
10
290.489435
20
128.090170
11
291.089935
21
129.539905
0
LINE
8
0
62
1
10
291.089935
20
129.539905
11
284.783161
21
124.322166
0
LINE
8
0
62
1
10
284.783161
20
124.322166
11
290.123117
21
126.564345
0
LINE
8
0
62
7
10
290.123117
20
126.564345
11
290.489435
21
128.090170
0
LINE
8
0
62
1
10
290.489435
20
128.090170
11
284.783161
21
124.322166
0
LINE
8
0
62
1
10
285.413632
20
116.383003
11
274.340124
21
114.150074
0
LINE
8
0
62
1
10
274.340124
20
114.150074
11
284.238139
21
107.431391
0
LINE
8
0
62
1
10
284.238139
20
107.431391
11
285.413632
21
116.383003
0
LINE
8
0
62
1
10
292.550079
20
114.055271
11
285.413632
21
116.383003
0
LINE
8
0
62
1
10
285.413632
20
116.383003
11
284.238139
21
107.431391
0
LINE
8
0
62
1
10
284.238139
20
107.431391
11
292.550079
21
114.055271
0
LINE
8
0
62
1
10
284.783161
20
124.322166
11
290.489435
21
121.909830
0
LINE
8
0
62
7
10
290.489435
20
121.909830
11
290.123117
21
123.435655
0
LINE
8
0
62
1
10
290.123117
20
123.435655
11
284.783161
21
124.322166
0
LINE
8
0
62
1
10
285.413632
20
116.383003
11
290.489435
21
121.909830
0
LINE
8
0
62
1
10
290.489435
20
121.909830
11
284.783161
21
124.322166
0
LINE
8
0
62
1
10
284.783161
20
124.322166
11
285.413632
21
116.383003
0
LINE
8
0
62
1
10
292.550079
20
114.055271
11
291.089935
21
120.460095
0
LINE
8
0
62
1
10
291.089935
20
120.460095
11
285.413632
21
116.383003
0
LINE
8
0
62
1
10
285.413632
20
116.383003
11
292.550079
21
114.055271
0
LINE
8
0
62
1
10
292.550079
20
114.055271
11
292.928932
21
117.928932
0
LINE
8
0
62
7
10
292.928932
20
117.928932
11
291.909830
21
119.122147
0
LINE
8
0
62
1
10
291.909830
20
119.122147
11
292.550079
21
114.055271
0
LINE
8
0
62
1
10
314.646010
20
126.934594
11
309.510565
21
121.909830
0
LINE
8
0
62
1
10
309.510565
20
121.909830
11
317.745638
21
117.807645
0
LINE
8
0
62
1
10
317.745638
20
117.807645
11
314.646010
21
126.934594
0
LINE
8
0
62
1
10
292.550079
20
114.055271
11
295.460095
21
116.089935
0
LINE
8
0
62
7
10
295.460095
20
116.089935
11
294.122147
21
116.909830
0
LINE
8
0
62
1
10
294.122147
20
116.909830
11
292.550079
21
114.055271
0
LINE
8
0
62
1
10
300.655150
20
111.351844
11
296.909830
21
115.489435
0
LINE
8
0
62
1
10
296.909830
20
115.489435
11
292.550079
21
114.055271
0
LINE
8
0
62
1
10
292.550079
20
114.055271
11
300.655150
21
111.351844
0
LINE
8
0
62
1
10
300.655150
20
111.351844
11
293.750000
21
100.000000
0
LINE
8
0
62
7
10
293.750000
20
100.000000
11
303.125000
21
100.000000
0
LINE
8
0
62
1
10
303.125000
20
100.000000
11
300.655150
21
111.351844
0
LINE
8
0
62
1
10
300.655150
20
111.351844
11
303.125000
21
100.000000
0
LINE
8
0
62
1
10
303.125000
20
100.000000
11
307.224416
21
107.787450
0
LINE
8
0
62
1
10
307.224416
20
107.787450
11
300.655150
21
111.351844
0
LINE
8
0
62
1
10
300.655150
20
111.351844
11
307.224416
21
107.787450
0
LINE
8
0
62
1
10
307.224416
20
107.787450
11
305.877853
21
116.909830
0
LINE
8
0
62
1
10
305.877853
20
116.909830
11
300.655150
21
111.351844
0
LINE
8
0
62
1
10
300.655150
20
111.351844
11
304.539905
21
116.089935
0
LINE
8
0
62
7
10
304.539905
20
116.089935
11
303.090170
21
115.489435
0
LINE
8
0
62
1
10
303.090170
20
115.489435
11
300.655150
21
111.351844
0
LINE
8
0
62
1
10
300.655150
20
111.351844
11
305.877853
21
116.909830
0
LINE
8
0
62
7
10
305.877853
20
116.909830
11
304.539905
21
116.089935
0
LINE
8
0
62
1
10
304.539905
20
116.089935
11
300.655150
21
111.351844
0
LINE
8
0
62
1
10
313.964077
20
110.675576
11
307.071068
21
117.928932
0
LINE
8
0
62
7
10
307.071068
20
117.928932
11
305.877853
21
116.909830
0
LINE
8
0
62
1
10
305.877853
20
116.909830
11
313.964077
21
110.675576
0
LINE
8
0
62
1
10
313.964077
20
110.675576
11
308.090170
21
119.122147
0
LINE
8
0
62
7
10
308.090170
20
119.122147
11
307.071068
21
117.928932
0
LINE
8
0
62
1
10
307.071068
20
117.928932
11
313.964077
21
110.675576
0
LINE
8
0
62
1
10
317.745638
20
117.807645
11
308.910065
21
120.460095
0
LINE
8
0
62
7
10
308.910065
20
120.460095
11
308.090170
21
119.122147
0
LINE
8
0
62
1
10
308.090170
20
119.122147
11
317.745638
21
117.807645
0
LINE
8
0
62
1
10
317.745638
20
117.807645
11
309.510565
21
121.909830
0
LINE
8
0
62
7
10
309.510565
20
121.909830
11
308.910065
21
120.460095
0
LINE
8
0
62
1
10
308.910065
20
120.460095
11
317.745638
21
117.807645
0
LINE
8
0
62
1
10
143.628664
20
138.518679
11
137.500000
21
150.000000
0
LINE
8
0
62
1
10
137.500000
20
150.000000
11
132.720210
21
138.362595
0
LINE
8
0
62
1
10
132.720210
20
138.362595
11
143.628664
21
138.518679
0
LINE
8
0
62
1
10
151.000765
20
112.099207
11
154.539905
21
116.089935
0
LINE
8
0
62
7
10
154.539905
20
116.089935
11
153.090170
21
115.489435
0
LINE
8
0
62
1
10
153.090170
20
115.489435
11
151.000765
21
112.099207
0
LINE
8
0
62
1
10
299.495333
20
137.769378
11
296.909830
21
134.510565
0
LINE
8
0
62
7
10
296.909830
20
134.510565
11
298.435655
21
134.876883
0
LINE
8
0
62
1
10
298.435655
20
134.876883
11
299.495333
21
137.769378
0
LINE
8
0
62
1
10
246.875000
20
100.000000
11
242.708333
21
112.500000
0
LINE
8
0
62
1
10
242.708333
20
112.500000
11
237.500000
21
100.000000
0
LINE
8
0
62
7
10
237.500000
20
100.000000
11
246.875000
21
100.000000
0
LINE
8
0
62
1
10
323.216943
20
108.196644
11
329.732073
21
111.913694
0
LINE
8
0
62
1
10
329.732073
20
111.913694
11
317.745638
21
117.807645
0
LINE
8
0
62
1
10
317.745638
20
117.807645
11
323.216943
21
108.196644
0
LINE
8
0
62
1
10
205.468750
20
118.750000
11
200.000000
21
112.500000
0
LINE
8
0
62
1
10
200.000000
20
112.500000
11
209.517113
21
113.392857
0
LINE
8
0
62
1
10
209.517113
20
113.392857
11
205.468750
21
118.750000
0
LINE
8
0
62
1
10
329.328507
20
142.328991
11
339.091316
21
140.084759
0
LINE
8
0
62
1
10
339.091316
20
140.084759
11
337.500000
21
150.000000
0
LINE
8
0
62
1
10
337.500000
20
150.000000
11
329.328507
21
142.328991
0
LINE
8
0
62
1
10
115.725342
20
106.772089
11
108.081745
21
106.590493
0
LINE
8
0
62
1
10
108.081745
20
106.590493
11
112.500000
21
100.000000
0
LINE
8
0
62
1
10
112.500000
20
100.000000
11
115.725342
21
106.772089
0
LINE
8
0
62
1
10
150.504667
20
137.769378
11
153.090170
21
134.510565
0
LINE
8
0
62
7
10
153.090170
20
134.510565
11
154.539905
21
133.910065
0
LINE
8
0
62
1
10
154.539905
20
133.910065
11
150.504667
21
137.769378
0
LINE
8
0
62
1
10
143.652952
20
111.985504
11
134.514776
21
110.684317
0
LINE
8
0
62
1
10
134.514776
20
110.684317
11
137.500000
21
100.000000
0
LINE
8
0
62
1
10
137.500000
20
100.000000
11
143.652952
21
111.985504
0
LINE
8
0
62
1
10
306.371336
20
138.518679
11
317.723003
21
138.558588
0
LINE
8
0
62
1
10
317.723003
20
138.558588
11
312.500000
21
150.000000
0
LINE
8
0
62
1
10
312.500000
20
150.000000
11
306.371336
21
138.518679
0
LINE
8
0
62
1
10
105.693121
20
144.033744
11
100.000000
21
137.500000
0
LINE
8
0
62
1
10
100.000000
20
137.500000
11
110.237752
21
139.468827
0
LINE
8
0
62
1
10
110.237752
20
139.468827
11
105.693121
21
144.033744
0
LINE
8
0
62
1
10
192.809261
20
117.955517
11
200.000000
21
125.000000
0
LINE
8
0
62
1
10
200.000000
20
125.000000
11
189.181054
21
123.663835
0
LINE
8
0
62
1
10
189.181054
20
123.663835
11
192.809261
21
117.955517
0
LINE
8
0
62
1
10
255.693121
20
144.033744
11
250.000000
21
137.500000
0
LINE
8
0
62
1
10
250.000000
20
137.500000
11
259.546986
21
139.958336
0
LINE
8
0
62
1
10
259.546986
20
139.958336
11
255.693121
21
144.033744
0
LINE
8
0
62
1
10
338.648892
20
116.938370
11
340.169271
21
106.901042
0
LINE
8
0
62
1
10
340.169271
20
106.901042
11
350.000000
21
112.500000
0
LINE
8
0
62
1
10
350.000000
20
112.500000
11
338.648892
21
116.938370
0
LINE
8
0
62
1
10
338.648892
20
116.938370
11
350.000000
21
112.500000
0
LINE
8
0
62
1
10
350.000000
20
112.500000
11
344.238281
21
120.507813
0
LINE
8
0
62
1
10
344.238281
20
120.507813
11
338.648892
21
116.938370
0
LINE
8
0
62
1
10
120.219374
20
140.488758
11
125.000000
21
150.000000
0
LINE
8
0
62
7
10
125.000000
20
150.000000
11
112.500000
21
150.000000
0
LINE
8
0
62
1
10
112.500000
20
150.000000
11
120.219374
21
140.488758
0
LINE
8
0
62
1
10
136.253392
20
119.363275
11
140.123117
21
123.435655
0
LINE
8
0
62
1
10
140.123117
20
123.435655
11
134.343976
21
126.750170
0
LINE
8
0
62
1
10
134.343976
20
126.750170
11
136.253392
21
119.363275
0
LINE
8
0
62
1
10
163.797127
20
111.688447
11
158.910065
21
120.460095
0
LINE
8
0
62
7
10
158.910065
20
120.460095
11
158.090170
21
119.122147
0
LINE
8
0
62
1
10
158.090170
20
119.122147
11
163.797127
21
111.688447
0
LINE
8
0
62
1
10
156.373432
20
143.720758
11
154.539905
21
133.910065
0
LINE
8
0
62
1
10
154.539905
20
133.910065
11
163.395929
21
139.798018
0
LINE
8
0
62
1
10
163.395929
20
139.798018
11
156.373432
21
143.720758
0
LINE
8
0
62
1
10
287.265993
20
137.660741
11
291.089935
21
129.539905
0
LINE
8
0
62
7
10
291.089935
20
129.539905
11
291.909830
21
130.877853
0
LINE
8
0
62
1
10
291.909830
20
130.877853
11
287.265993
21
137.660741
0
LINE
8
0
62
1
10
285.413632
20
116.383003
11
291.089935
21
120.460095
0
LINE
8
0
62
7
10
291.089935
20
120.460095
11
290.489435
21
121.909830
0
LINE
8
0
62
1
10
290.489435
20
121.909830
11
285.413632
21
116.383003
0
LINE
8
0
62
1
10
314.646010
20
126.934594
11
308.910065
21
129.539905
0
LINE
8
0
62
7
10
308.910065
20
129.539905
11
309.510565
21
128.090170
0
LINE
8
0
62
1
10
309.510565
20
128.090170
11
314.646010
21
126.934594
0
LINE
8
0
62
1
10
339.633767
20
127.637092
11
350.000000
21
125.000000
0
LINE
8
0
62
7
10
350.000000
20
125.000000
11
350.000000
21
137.500000
0
LINE
8
0
62
1
10
350.000000
20
137.500000
11
339.633767
21
127.637092
0
LINE
8
0
62
1
10
219.696429
20
111.607143
11
225.000000
21
125.000000
0
LINE
8
0
62
7
10
225.000000
20
125.000000
11
212.500000
21
125.000000
0
LINE
8
0
62
1
10
212.500000
20
125.000000
11
219.696429
21
111.607143
0
LINE
8
0
62
1
10
300.655150
20
111.351844
11
301.564345
21
115.123117
0
LINE
8
0
62
7
10
301.564345
20
115.123117
11
300.000000
21
115.000000
0
LINE
8
0
62
1
10
300.000000
20
115.000000
11
300.655150
21
111.351844
0
LINE
8
0
62
1
10
252.430556
20
111.458333
11
250.000000
21
125.000000
0
LINE
8
0
62
1
10
250.000000
20
125.000000
11
242.708333
21
112.500000
0
LINE
8
0
62
1
10
242.708333
20
112.500000
11
252.430556
21
111.458333
0
LINE
8
0
62
1
10
340.169271
20
106.901042
11
329.732073
21
111.913694
0
LINE
8
0
62
1
10
329.732073
20
111.913694
11
331.250000
21
100.000000
0
LINE
8
0
62
1
10
331.250000
20
100.000000
11
340.169271
21
106.901042
0
LINE
8
0
62
1
10
264.467987
20
119.657981
11
262.500000
21
112.500000
0
LINE
8
0
62
1
10
262.500000
20
112.500000
11
274.340124
21
114.150074
0
LINE
8
0
62
1
10
274.340124
20
114.150074
11
264.467987
21
119.657981
0
LINE
8
0
62
1
10
265.625000
20
100.000000
11
262.500000
21
112.500000
0
LINE
8
0
62
1
10
262.500000
20
112.500000
11
256.250000
21
100.000000
0
LINE
8
0
62
7
10
256.250000
20
100.000000
11
265.625000
21
100.000000
0
LINE
8
0
62
1
10
191.918255
20
143.409507
11
187.500000
21
150.000000
0
LINE
8
0
62
1
10
187.500000
20
150.000000
11
184.274658
21
143.227911
0
LINE
8
0
62
1
10
184.274658
20
143.227911
11
191.918255
21
143.409507
0
LINE
8
0
62
1
10
192.809261
20
130.455517
11
200.000000
21
137.500000
0
LINE
8
0
62
1
10
200.000000
20
137.500000
11
188.405022
21
136.564516
0
LINE
8
0
62
1
10
188.405022
20
136.564516
11
192.809261
21
130.455517
0
LINE
8
0
62
1
10
107.190739
20
119.544483
11
114.210631
21
120.043873
0
LINE
8
0
62
1
10
114.210631
20
120.043873
11
110.833366
21
125.852826
0
LINE
8
0
62
1
10
110.833366
20
125.852826
11
107.190739
21
119.544483
0
LINE
8
0
62
1
10
114.210631
20
120.043873
11
111.511109
21
113.502628
0
LINE
8
0
62
1
10
111.511109
20
113.502628
11
123.858196
21
115.564832
0
LINE
8
0
62
1
10
123.858196
20
115.564832
11
114.210631
21
120.043873
0
LINE
8
0
62
1
10
212.875000
20
106.250000
11
219.696429
21
111.607143
0
LINE
8
0
62
1
10
219.696429
20
111.607143
11
209.517113
21
113.392857
0
LINE
8
0
62
1
10
209.517113
20
113.392857
11
212.875000
21
106.250000
0
LINE
8
0
62
1
10
206.562500
20
106.250000
11
209.375000
21
100.000000
0
LINE
8
0
62
1
10
209.375000
20
100.000000
11
212.875000
21
106.250000
0
LINE
8
0
62
1
10
212.875000
20
106.250000
11
206.562500
21
106.250000
0
LINE
8
0
62
1
10
115.823279
20
132.745976
11
120.219374
21
140.488758
0
LINE
8
0
62
1
10
120.219374
20
140.488758
11
110.237752
21
139.468827
0
LINE
8
0
62
1
10
110.237752
20
139.468827
11
115.823279
21
132.745976
0
LINE
8
0
62
1
10
115.823279
20
132.745976
11
110.237752
21
139.468827
0
LINE
8
0
62
1
10
110.237752
20
139.468827
11
107.190739
21
132.044483
0
LINE
8
0
62
1
10
107.190739
20
132.044483
11
115.823279
21
132.745976
0
LINE
8
0
62
1
10
185.292684
20
115.872692
11
175.849327
21
112.739662
0
LINE
8
0
62
1
10
175.849327
20
112.739662
11
182.809261
21
107.955517
0
LINE
8
0
62
1
10
182.809261
20
107.955517
11
185.292684
21
115.872692
0
LINE
8
0
62
1
10
185.292684
20
115.872692
11
190.453014
21
110.041664
0
LINE
8
0
62
1
10
190.453014
20
110.041664
11
192.809261
21
117.955517
0
LINE
8
0
62
1
10
192.809261
20
117.955517
11
185.292684
21
115.872692
0
LINE
8
0
62
1
10
264.707316
20
134.127308
11
274.373899
21
137.080681
0
LINE
8
0
62
1
10
274.373899
20
137.080681
11
267.190739
21
142.044483
0
LINE
8
0
62
1
10
267.190739
20
142.044483
11
264.707316
21
134.127308
0
LINE
8
0
62
1
10
264.707316
20
134.127308
11
259.546986
21
139.958336
0
LINE
8
0
62
1
10
259.546986
20
139.958336
11
257.190739
21
132.044483
0
LINE
8
0
62
1
10
257.190739
20
132.044483
11
264.707316
21
134.127308
0
LINE
8
0
62
1
10
337.500000
20
150.000000
11
339.091316
21
140.084759
0
LINE
8
0
62
1
10
339.091316
20
140.084759
11
350.000000
21
150.000000
0
LINE
8
0
62
7
10
350.000000
20
150.000000
11
337.500000
21
150.000000
0
LINE
8
0
62
1
10
339.633767
20
127.637092
11
350.000000
21
137.500000
0
LINE
8
0
62
1
10
350.000000
20
137.500000
11
339.091316
21
140.084759
0
LINE
8
0
62
1
10
339.091316
20
140.084759
11
339.633767
21
127.637092
0
LINE
8
0
62
1
10
237.500000
20
125.000000
11
242.708333
21
112.500000
0
LINE
8
0
62
1
10
242.708333
20
112.500000
11
250.000000
21
125.000000
0
LINE
8
0
62
7
10
250.000000
20
125.000000
11
237.500000
21
125.000000
0
LINE
8
0
62
1
10
252.430556
20
111.458333
11
242.708333
21
112.500000
0
LINE
8
0
62
1
10
242.708333
20
112.500000
11
246.875000
21
100.000000
0
LINE
8
0
62
1
10
246.875000
20
100.000000
11
252.430556
21
111.458333
0
LINE
8
0
62
1
10
231.754960
20
112.351190
11
237.500000
21
100.000000
0
LINE
8
0
62
1
10
237.500000
20
100.000000
11
242.708333
21
112.500000
0
LINE
8
0
62
1
10
242.708333
20
112.500000
11
231.754960
21
112.351190
0
LINE
8
0
62
1
10
228.125000
20
100.000000
11
231.754960
21
112.351190
0
LINE
8
0
62
1
10
231.754960
20
112.351190
11
219.696429
21
111.607143
0
LINE
8
0
62
1
10
219.696429
20
111.607143
11
228.125000
21
100.000000
0
LINE
8
0
62
1
10
185.789369
20
129.956127
11
188.405022
21
136.564516
0
LINE
8
0
62
1
10
188.405022
20
136.564516
11
175.638591
21
134.838034
0
LINE
8
0
62
1
10
175.638591
20
134.838034
11
185.789369
21
129.956127
0
LINE
8
0
62
1
10
162.252796
20
131.500112
11
158.910065
21
129.539905
0
LINE
8
0
62
7
10
158.910065
20
129.539905
11
159.510565
21
128.090170
0
LINE
8
0
62
1
10
159.510565
20
128.090170
11
162.252796
21
131.500112
0
LINE
8
0
62
1
10
136.253392
20
119.363275
11
140.489435
21
121.909830
0
LINE
8
0
62
7
10
140.489435
20
121.909830
11
140.123117
21
123.435655
0
LINE
8
0
62
1
10
140.123117
20
123.435655
11
136.253392
21
119.363275
0
LINE
8
0
62
1
10
115.725342
20
106.772089
11
111.511109
21
113.502628
0
LINE
8
0
62
1
10
111.511109
20
113.502628
11
108.081745
21
106.590493
0
LINE
8
0
62
1
10
108.081745
20
106.590493
11
115.725342
21
106.772089
0
LINE
8
0
62
1
10
284.238139
20
107.431391
11
274.340124
21
114.150074
0
LINE
8
0
62
1
10
274.340124
20
114.150074
11
275.000000
21
100.000000
0
LINE
8
0
62
1
10
275.000000
20
100.000000
11
284.238139
21
107.431391
0
LINE
8
0
62
1
10
268.750000
20
106.250000
11
274.340124
21
114.150074
0
LINE
8
0
62
1
10
274.340124
20
114.150074
11
262.500000
21
112.500000
0
LINE
8
0
62
7
10
262.500000
20
112.500000
11
268.750000
21
106.250000
0
LINE
8
0
62
1
10
280.401484
20
131.691676
11
287.265993
21
137.660741
0
LINE
8
0
62
1
10
287.265993
20
137.660741
11
274.373899
21
137.080681
0
LINE
8
0
62
1
10
274.373899
20
137.080681
11
280.401484
21
131.691676
0
LINE
8
0
62
1
10
293.626568
20
143.720758
11
300.000000
21
150.000000
0
LINE
8
0
62
7
10
300.000000
20
150.000000
11
287.500000
21
150.000000
0
LINE
8
0
62
1
10
287.500000
20
150.000000
11
293.626568
21
143.720758
0
LINE
8
0
62
1
10
162.500000
20
150.000000
11
163.395929
21
139.798018
0
LINE
8
0
62
1
10
163.395929
20
139.798018
11
175.000000
21
150.000000
0
LINE
8
0
62
7
10
175.000000
20
150.000000
11
162.500000
21
150.000000
0
LINE
8
0
62
1
10
163.395929
20
139.798018
11
175.638591
21
134.838034
0
LINE
8
0
62
1
10
175.638591
20
134.838034
11
175.000000
21
150.000000
0
LINE
8
0
62
1
10
175.000000
20
150.000000
11
163.395929
21
139.798018
0
LINE
8
0
62
1
10
169.811140
20
118.178162
11
163.797127
21
111.688447
0
LINE
8
0
62
1
10
163.797127
20
111.688447
11
175.849327
21
112.739662
0
LINE
8
0
62
1
10
175.849327
20
112.739662
11
169.811140
21
118.178162
0
LINE
8
0
62
1
10
156.635149
20
108.139497
11
150.000000
21
100.000000
0
LINE
8
0
62
7
10
150.000000
20
100.000000
11
162.500000
21
100.000000
0
LINE
8
0
62
1
10
162.500000
20
100.000000
11
156.635149
21
108.139497
0
LINE
8
0
62
1
10
134.343976
20
126.750170
11
141.909830
21
130.877853
0
LINE
8
0
62
1
10
141.909830
20
130.877853
11
132.720210
21
138.362595
0
LINE
8
0
62
1
10
132.720210
20
138.362595
11
134.343976
21
126.750170
0
LINE
8
0
62
1
10
134.343976
20
126.750170
11
140.123117
21
123.435655
0
LINE
8
0
62
7
10
140.123117
20
123.435655
11
140.000000
21
125.000000
0
LINE
8
0
62
1
10
140.000000
20
125.000000
11
134.343976
21
126.750170
0
LINE
8
0
62
1
10
137.500000
20
100.000000
11
134.514776
21
110.684317
0
LINE
8
0
62
1
10
134.514776
20
110.684317
11
125.000000
21
100.000000
0
LINE
8
0
62
7
10
125.000000
20
100.000000
11
137.500000
21
100.000000
0
LINE
8
0
62
1
10
134.514776
20
110.684317
11
123.858196
21
115.564832
0
LINE
8
0
62
1
10
123.858196
20
115.564832
11
125.000000
21
100.000000
0
LINE
8
0
62
1
10
125.000000
20
100.000000
11
134.514776
21
110.684317
0
LINE
8
0
62
1
10
312.500000
20
150.000000
11
317.723003
21
138.558588
0
LINE
8
0
62
1
10
317.723003
20
138.558588
11
325.000000
21
150.000000
0
LINE
8
0
62
7
10
325.000000
20
150.000000
11
312.500000
21
150.000000
0
LINE
8
0
62
1
10
329.328507
20
142.328991
11
325.000000
21
150.000000
0
LINE
8
0
62
1
10
325.000000
20
150.000000
11
317.723003
21
138.558588
0
LINE
8
0
62
1
10
317.723003
20
138.558588
11
329.328507
21
142.328991
0
LINE
8
0
62
1
10
292.550079
20
114.055271
11
284.238139
21
107.431391
0
LINE
8
0
62
1
10
284.238139
20
107.431391
11
293.750000
21
100.000000
0
LINE
8
0
62
1
10
293.750000
20
100.000000
11
292.550079
21
114.055271
0
LINE
8
0
62
1
10
284.375000
20
100.000000
11
284.238139
21
107.431391
0
LINE
8
0
62
1
10
284.238139
20
107.431391
11
275.000000
21
100.000000
0
LINE
8
0
62
7
10
275.000000
20
100.000000
11
284.375000
21
100.000000
0
LINE
8
0
62
1
10
205.468750
20
118.750000
11
209.517113
21
113.392857
0
LINE
8
0
62
1
10
209.517113
20
113.392857
11
212.500000
21
125.000000
0
LINE
8
0
62
1
10
212.500000
20
125.000000
11
205.468750
21
118.750000
0
LINE
8
0
62
1
10
105.693121
20
144.033744
11
110.237752
21
139.468827
0
LINE
8
0
62
1
10
110.237752
20
139.468827
11
112.500000
21
150.000000
0
LINE
8
0
62
1
10
112.500000
20
150.000000
11
105.693121
21
144.033744
0
LINE
8
0
62
1
10
108.081745
20
106.590493
11
111.511109
21
113.502628
0
LINE
8
0
62
1
10
111.511109
20
113.502628
11
100.000000
21
112.500000
0
LINE
8
0
62
1
10
100.000000
20
112.500000
11
108.081745
21
106.590493
0
LINE
8
0
62
1
10
194.306879
20
105.966256
11
187.500000
21
100.000000
0
LINE
8
0
62
7
10
187.500000
20
100.000000
11
200.000000
21
100.000000
0
LINE
8
0
62
1
10
200.000000
20
100.000000
11
194.306879
21
105.966256
0
LINE
8
0
62
1
10
255.693121
20
144.033744
11
259.546986
21
139.958336
0
LINE
8
0
62
1
10
259.546986
20
139.958336
11
262.500000
21
150.000000
0
LINE
8
0
62
1
10
262.500000
20
150.000000
11
255.693121
21
144.033744
0
LINE
8
0
62
7
10
137.500000
20
150.000000
11
125.000000
21
150.000000
0
LINE
8
0
62
1
10
125.000000
20
150.000000
11
132.720210
21
138.362595
0
LINE
8
0
62
1
10
132.720210
20
138.362595
11
137.500000
21
150.000000
0
LINE
8
0
62
1
10
206.562500
20
106.250000
11
209.517113
21
113.392857
0
LINE
8
0
62
1
10
209.517113
20
113.392857
11
200.000000
21
112.500000
0
LINE
8
0
62
1
10
200.000000
20
112.500000
11
206.562500
21
106.250000
0
LINE
8
0
62
1
10
194.306879
20
105.966256
11
200.000000
21
100.000000
0
LINE
8
0
62
7
10
200.000000
20
100.000000
11
200.000000
21
112.500000
0
LINE
8
0
62
1
10
200.000000
20
112.500000
11
194.306879
21
105.966256
0
LINE
8
0
62
1
10
115.725342
20
106.772089
11
112.500000
21
100.000000
0
LINE
8
0
62
7
10
112.500000
20
100.000000
11
125.000000
21
100.000000
0
LINE
8
0
62
1
10
125.000000
20
100.000000
11
115.725342
21
106.772089
0
LINE
8
0
62
1
10
107.190739
20
132.044483
11
100.000000
21
125.000000
0
LINE
8
0
62
1
10
100.000000
20
125.000000
11
110.833366
21
125.852826
0
LINE
8
0
62
1
10
110.833366
20
125.852826
11
107.190739
21
132.044483
0
LINE
8
0
62
1
10
257.190739
20
132.044483
11
250.000000
21
125.000000
0
LINE
8
0
62
1
10
250.000000
20
125.000000
11
260.715651
21
126.089942
0
LINE
8
0
62
1
10
260.715651
20
126.089942
11
257.190739
21
132.044483
0
LINE
8
0
62
1
10
344.238281
20
120.507813
11
350.000000
21
112.500000
0
LINE
8
0
62
7
10
350.000000
20
112.500000
11
350.000000
21
125.000000
0
LINE
8
0
62
1
10
350.000000
20
125.000000
11
344.238281
21
120.507813
0
LINE
8
0
62
1
10
184.274658
20
143.227911
11
187.500000
21
150.000000
0
LINE
8
0
62
7
10
187.500000
20
150.000000
11
175.000000
21
150.000000
0
LINE
8
0
62
1
10
175.000000
20
150.000000
11
184.274658
21
143.227911
0
LINE
8
0
62
1
10
191.918255
20
143.409507
11
188.405022
21
136.564516
0
LINE
8
0
62
1
10
188.405022
20
136.564516
11
200.000000
21
137.500000
0
LINE
8
0
62
1
10
200.000000
20
137.500000
11
191.918255
21
143.409507
0
LINE
8
0
62
1
10
329.328507
20
142.328991
11
337.500000
21
150.000000
0
LINE
8
0
62
7
10
337.500000
20
150.000000
11
325.000000
21
150.000000
0
LINE
8
0
62
1
10
325.000000
20
150.000000
11
329.328507
21
142.328991
0
LINE
8
0
62
7
10
350.000000
20
137.500000
11
350.000000
21
150.000000
0
LINE
8
0
62
1
10
350.000000
20
150.000000
11
339.091316
21
140.084759
0
LINE
8
0
62
1
10
339.091316
20
140.084759
11
350.000000
21
137.500000
0
LINE
8
0
62
7
10
237.500000
20
125.000000
11
225.000000
21
125.000000
0
LINE
8
0
62
1
10
225.000000
20
125.000000
11
231.754960
21
112.351190
0
LINE
8
0
62
1
10
231.754960
20
112.351190
11
237.500000
21
125.000000
0
LINE
8
0
62
7
10
287.500000
20
150.000000
11
275.000000
21
150.000000
0
LINE
8
0
62
1
10
275.000000
20
150.000000
11
287.265993
21
137.660741
0
LINE
8
0
62
1
10
287.265993
20
137.660741
11
287.500000
21
150.000000
0
LINE
8
0
62
1
10
156.373432
20
143.720758
11
163.395929
21
139.798018
0
LINE
8
0
62
1
10
163.395929
20
139.798018
11
162.500000
21
150.000000
0
LINE
8
0
62
1
10
162.500000
20
150.000000
11
156.373432
21
143.720758
0
LINE
8
0
62
7
10
162.500000
20
100.000000
11
175.000000
21
100.000000
0
LINE
8
0
62
1
10
175.000000
20
100.000000
11
163.797127
21
111.688447
0
LINE
8
0
62
1
10
163.797127
20
111.688447
11
162.500000
21
100.000000
0
LINE
8
0
62
1
10
143.652952
20
111.985504
11
137.500000
21
100.000000
0
LINE
8
0
62
7
10
137.500000
20
100.000000
11
150.000000
21
100.000000
0
LINE
8
0
62
1
10
150.000000
20
100.000000
11
143.652952
21
111.985504
0
LINE
8
0
62
1
10
306.371336
20
138.518679
11
312.500000
21
150.000000
0
LINE
8
0
62
7
10
312.500000
20
150.000000
11
300.000000
21
150.000000
0
LINE
8
0
62
1
10
300.000000
20
150.000000
11
306.371336
21
138.518679
0
LINE
8
0
62
1
10
328.119962
20
122.170581
11
317.745638
21
117.807645
0
LINE
8
0
62
1
10
317.745638
20
117.807645
11
329.732073
21
111.913694
0
LINE
8
0
62
1
10
329.732073
20
111.913694
11
328.119962
21
122.170581
0
LINE
8
0
62
1
10
321.875000
20
100.000000
11
313.964077
21
110.675576
0
LINE
8
0
62
1
10
313.964077
20
110.675576
11
312.500000
21
100.000000
0
LINE
8
0
62
7
10
312.500000
20
100.000000
11
321.875000
21
100.000000
0
LINE
8
0
62
1
10
182.809261
20
107.955517
11
175.849327
21
112.739662
0
LINE
8
0
62
1
10
175.849327
20
112.739662
11
175.000000
21
100.000000
0
LINE
8
0
62
1
10
175.000000
20
100.000000
11
182.809261
21
107.955517
0
LINE
8
0
62
1
10
175.849327
20
112.739662
11
163.797127
21
111.688447
0
LINE
8
0
62
1
10
163.797127
20
111.688447
11
175.000000
21
100.000000
0
LINE
8
0
62
1
10
175.000000
20
100.000000
11
175.849327
21
112.739662
0
LINE
8
0
62
1
10
267.190739
20
142.044483
11
274.373899
21
137.080681
0
LINE
8
0
62
1
10
274.373899
20
137.080681
11
275.000000
21
150.000000
0
LINE
8
0
62
1
10
275.000000
20
150.000000
11
267.190739
21
142.044483
0
LINE
8
0
62
1
10
274.373899
20
137.080681
11
287.265993
21
137.660741
0
LINE
8
0
62
1
10
287.265993
20
137.660741
11
275.000000
21
150.000000
0
LINE
8
0
62
1
10
275.000000
20
150.000000
11
274.373899
21
137.080681
0
LINE
8
0
62
1
10
120.219374
20
140.488758
11
132.720210
21
138.362595
0
LINE
8
0
62
1
10
132.720210
20
138.362595
11
125.000000
21
150.000000
0
LINE
8
0
62
1
10
125.000000
20
150.000000
11
120.219374
21
140.488758
0
LINE
8
0
62
1
10
125.000272
20
133.189001
11
120.584806
21
125.738138
0
LINE
8
0
62
1
10
120.584806
20
125.738138
11
134.343976
21
126.750170
0
LINE
8
0
62
1
10
134.343976
20
126.750170
11
125.000272
21
133.189001
0
LINE
8
0
62
1
10
338.648892
20
116.938370
11
344.238281
21
120.507813
0
LINE
8
0
62
1
10
344.238281
20
120.507813
11
339.633767
21
127.637092
0
LINE
8
0
62
1
10
339.633767
20
127.637092
11
338.648892
21
116.938370
0
LINE
8
0
62
1
10
339.633767
20
127.637092
11
339.091316
21
140.084759
0
LINE
8
0
62
1
10
339.091316
20
140.084759
11
328.085625
21
133.042474
0
LINE
8
0
62
1
10
328.085625
20
133.042474
11
339.633767
21
127.637092
0
LINE
8
0
62
1
10
340.169271
20
106.901042
11
350.000000
21
100.000000
0
LINE
8
0
62
7
10
350.000000
20
100.000000
11
350.000000
21
112.500000
0
LINE
8
0
62
1
10
350.000000
20
112.500000
11
340.169271
21
106.901042
0
LINE
8
0
62
1
10
340.625000
20
100.000000
11
340.169271
21
106.901042
0
LINE
8
0
62
1
10
340.169271
20
106.901042
11
331.250000
21
100.000000
0
LINE
8
0
62
7
10
331.250000
20
100.000000
11
340.625000
21
100.000000
0
LINE
8
0
62
1
10
219.696429
20
111.607143
11
231.754960
21
112.351190
0
LINE
8
0
62
1
10
231.754960
20
112.351190
11
225.000000
21
125.000000
0
LINE
8
0
62
1
10
225.000000
20
125.000000
11
219.696429
21
111.607143
0
LINE
8
0
62
1
10
228.125000
20
100.000000
11
219.696429
21
111.607143
0
LINE
8
0
62
1
10
219.696429
20
111.607143
11
218.750000
21
100.000000
0
LINE
8
0
62
7
10
218.750000
20
100.000000
11
228.125000
21
100.000000
0
LINE
8
0
62
1
10
284.783161
20
124.322166
11
290.123117
21
123.435655
0
LINE
8
0
62
7
10
290.123117
20
123.435655
11
290.000000
21
125.000000
0
LINE
8
0
62
1
10
290.000000
20
125.000000
11
284.783161
21
124.322166
0
LINE
8
0
62
1
10
280.401484
20
131.691676
11
274.373899
21
137.080681
0
LINE
8
0
62
1
10
274.373899
20
137.080681
11
271.677863
21
126.959880
0
LINE
8
0
62
1
10
271.677863
20
126.959880
11
280.401484
21
131.691676
0
LINE
8
0
62
1
10
323.216943
20
108.196644
11
331.250000
21
100.000000
0
LINE
8
0
62
1
10
331.250000
20
100.000000
11
329.732073
21
111.913694
0
LINE
8
0
62
1
10
329.732073
20
111.913694
11
323.216943
21
108.196644
0
LINE
8
0
62
1
10
321.875000
20
100.000000
11
323.216943
21
108.196644
0
LINE
8
0
62
1
10
323.216943
20
108.196644
11
313.964077
21
110.675576
0
LINE
8
0
62
1
10
313.964077
20
110.675576
11
321.875000
21
100.000000
0
LINE
8
0
62
1
10
165.213431
20
125.127030
11
159.876883
21
126.564345
0
LINE
8
0
62
7
10
159.876883
20
126.564345
11
160.000000
21
125.000000
0
LINE
8
0
62
1
10
160.000000
20
125.000000
11
165.213431
21
125.127030
0
LINE
8
0
62
1
10
169.811140
20
118.178162
11
175.849327
21
112.739662
0
LINE
8
0
62
1
10
175.849327
20
112.739662
11
178.385750
21
122.743156
0
LINE
8
0
62
1
10
178.385750
20
122.743156
11
169.811140
21
118.178162
0
LINE
8
0
62
1
10
192.809261
20
130.455517
11
188.405022
21
136.564516
0
LINE
8
0
62
1
10
188.405022
20
136.564516
11
185.789369
21
129.956127
0
LINE
8
0
62
1
10
185.789369
20
129.956127
11
192.809261
21
130.455517
0
LINE
8
0
62
1
10
185.292684
20
115.872692
11
192.809261
21
117.955517
0
LINE
8
0
62
1
10
192.809261
20
117.955517
11
189.181054
21
123.663835
0
LINE
8
0
62
1
10
189.181054
20
123.663835
11
185.292684
21
115.872692
0
LINE
8
0
62
1
10
256.250000
20
118.750000
11
260.715651
21
126.089942
0
LINE
8
0
62
1
10
260.715651
20
126.089942
11
250.000000
21
125.000000
0
LINE
8
0
62
7
10
250.000000
20
125.000000
11
256.250000
21
118.750000
0
LINE
8
0
62
1
10
264.707316
20
134.127308
11
257.190739
21
132.044483
0
LINE
8
0
62
1
10
257.190739
20
132.044483
11
260.715651
21
126.089942
0
LINE
8
0
62
1
10
260.715651
20
126.089942
11
264.707316
21
134.127308
0
LINE
8
0
62
1
10
107.190739
20
119.544483
11
111.511109
21
113.502628
0
LINE
8
0
62
1
10
111.511109
20
113.502628
11
114.210631
21
120.043873
0
LINE
8
0
62
1
10
114.210631
20
120.043873
11
107.190739
21
119.544483
0
LINE
8
0
62
1
10
115.823279
20
132.745976
11
107.190739
21
132.044483
0
LINE
8
0
62
1
10
107.190739
20
132.044483
11
110.833366
21
125.852826
0
LINE
8
0
62
1
10
110.833366
20
125.852826
11
115.823279
21
132.745976
0
LINE
8
0
62
1
10
284.783161
20
124.322166
11
271.677863
21
126.959880
0
LINE
8
0
62
1
10
271.677863
20
126.959880
11
274.340124
21
114.150074
0
LINE
8
0
62
1
10
274.340124
20
114.150074
11
284.783161
21
124.322166
0
LINE
8
0
62
1
10
284.783161
20
124.322166
11
280.401484
21
131.691676
0
LINE
8
0
62
1
10
280.401484
20
131.691676
11
271.677863
21
126.959880
0
LINE
8
0
62
1
10
271.677863
20
126.959880
11
284.783161
21
124.322166
0
LINE
8
0
62
1
10
165.213431
20
125.127030
11
178.385750
21
122.743156
0
LINE
8
0
62
1
10
178.385750
20
122.743156
11
175.638591
21
134.838034
0
LINE
8
0
62
1
10
175.638591
20
134.838034
11
165.213431
21
125.127030
0
LINE
8
0
62
1
10
165.213431
20
125.127030
11
169.811140
21
118.178162
0
LINE
8
0
62
1
10
169.811140
20
118.178162
11
178.385750
21
122.743156
0
LINE
8
0
62
1
10
178.385750
20
122.743156
11
165.213431
21
125.127030
0
LINE
8
0
62
1
10
134.343976
20
126.750170
11
120.584806
21
125.738138
0
LINE
8
0
62
1
10
120.584806
20
125.738138
11
123.858196
21
115.564832
0
LINE
8
0
62
1
10
123.858196
20
115.564832
11
134.343976
21
126.750170
0
LINE
8
0
62
1
10
125.000272
20
133.189001
11
134.343976
21
126.750170
0
LINE
8
0
62
1
10
134.343976
20
126.750170
11
132.720210
21
138.362595
0
LINE
8
0
62
1
10
132.720210
20
138.362595
11
125.000272
21
133.189001
0
LINE
8
0
62
1
10
314.646010
20
126.934594
11
309.876883
21
123.435655
0
LINE
8
0
62
7
10
309.876883
20
123.435655
11
309.510565
21
121.909830
0
LINE
8
0
62
1
10
309.510565
20
121.909830
11
314.646010
21
126.934594
0
LINE
8
0
62
1
10
314.646010
20
126.934594
11
317.723003
21
138.558588
0
LINE
8
0
62
1
10
317.723003
20
138.558588
11
308.090170
21
130.877853
0
LINE
8
0
62
1
10
308.090170
20
130.877853
11
314.646010
21
126.934594
0
LINE
8
0
62
1
10
313.964077
20
110.675576
11
317.745638
21
117.807645
0
LINE
8
0
62
1
10
317.745638
20
117.807645
11
308.090170
21
119.122147
0
LINE
8
0
62
1
10
308.090170
20
119.122147
11
313.964077
21
110.675576
0
LINE
8
0
62
1
10
313.964077
20
110.675576
11
323.216943
21
108.196644
0
LINE
8
0
62
1
10
323.216943
20
108.196644
11
317.745638
21
117.807645
0
LINE
8
0
62
1
10
317.745638
20
117.807645
11
313.964077
21
110.675576
0
LINE
8
0
62
1
10
338.648892
20
116.938370
11
339.633767
21
127.637092
0
LINE
8
0
62
1
10
339.633767
20
127.637092
11
328.119962
21
122.170581
0
LINE
8
0
62
1
10
328.119962
20
122.170581
11
338.648892
21
116.938370
0
LINE
8
0
62
1
10
344.238281
20
120.507813
11
350.000000
21
125.000000
0
LINE
8
0
62
1
10
350.000000
20
125.000000
11
339.633767
21
127.637092
0
LINE
8
0
62
1
10
339.633767
20
127.637092
11
344.238281
21
120.507813
0
LINE
8
0
62
1
10
329.328507
20
142.328991
11
328.085625
21
133.042474
0
LINE
8
0
62
1
10
328.085625
20
133.042474
11
339.091316
21
140.084759
0
LINE
8
0
62
1
10
339.091316
20
140.084759
11
329.328507
21
142.328991
0
LINE
8
0
62
1
10
329.328507
20
142.328991
11
317.723003
21
138.558588
0
LINE
8
0
62
1
10
317.723003
20
138.558588
11
328.085625
21
133.042474
0
LINE
8
0
62
1
10
328.085625
20
133.042474
11
329.328507
21
142.328991
0
LINE
8
0
62
1
10
328.119962
20
122.170581
11
328.085625
21
133.042474
0
LINE
8
0
62
1
10
328.085625
20
133.042474
11
314.646010
21
126.934594
0
LINE
8
0
62
1
10
314.646010
20
126.934594
11
328.119962
21
122.170581
0
LINE
8
0
62
1
10
328.119962
20
122.170581
11
339.633767
21
127.637092
0
LINE
8
0
62
1
10
339.633767
20
127.637092
11
328.085625
21
133.042474
0
LINE
8
0
62
1
10
328.085625
20
133.042474
11
328.119962
21
122.170581
0
LINE
8
0
62
1
10
285.413632
20
116.383003
11
284.783161
21
124.322166
0
LINE
8
0
62
1
10
284.783161
20
124.322166
11
274.340124
21
114.150074
0
LINE
8
0
62
1
10
274.340124
20
114.150074
11
285.413632
21
116.383003
0
LINE
8
0
62
1
10
292.550079
20
114.055271
11
291.909830
21
119.122147
0
LINE
8
0
62
7
10
291.909830
20
119.122147
11
291.089935
21
120.460095
0
LINE
8
0
62
1
10
291.089935
20
120.460095
11
292.550079
21
114.055271
0
LINE
8
0
62
1
10
252.430556
20
111.458333
11
246.875000
21
100.000000
0
LINE
8
0
62
7
10
246.875000
20
100.000000
11
256.250000
21
100.000000
0
LINE
8
0
62
1
10
256.250000
20
100.000000
11
252.430556
21
111.458333
0
LINE
8
0
62
1
10
307.224416
20
107.787450
11
303.125000
21
100.000000
0
LINE
8
0
62
7
10
303.125000
20
100.000000
11
312.500000
21
100.000000
0
LINE
8
0
62
1
10
312.500000
20
100.000000
11
307.224416
21
107.787450
0
LINE
8
0
62
7
10
256.250000
20
118.750000
11
250.000000
21
125.000000
0
LINE
8
0
62
1
10
250.000000
20
125.000000
11
252.430556
21
111.458333
0
LINE
8
0
62
1
10
252.430556
20
111.458333
11
256.250000
21
118.750000
0
LINE
8
0
62
1
10
252.430556
20
111.458333
11
256.250000
21
100.000000
0
LINE
8
0
62
1
10
256.250000
20
100.000000
11
262.500000
21
112.500000
0
LINE
8
0
62
1
10
262.500000
20
112.500000
11
252.430556
21
111.458333
0
LINE
8
0
62
7
10
268.750000
20
106.250000
11
262.500000
21
112.500000
0
LINE
8
0
62
1
10
262.500000
20
112.500000
11
265.625000
21
100.000000
0
LINE
8
0
62
1
10
265.625000
20
100.000000
11
268.750000
21
106.250000
0
LINE
8
0
62
1
10
206.562500
20
106.250000
11
212.875000
21
106.250000
0
LINE
8
0
62
1
10
212.875000
20
106.250000
11
209.517113
21
113.392857
0
LINE
8
0
62
1
10
209.517113
20
113.392857
11
206.562500
21
106.250000
0
LINE
8
0
62
7
10
228.125000
20
100.000000
11
237.500000
21
100.000000
0
LINE
8
0
62
1
10
237.500000
20
100.000000
11
231.754960
21
112.351190
0
LINE
8
0
62
1
10
231.754960
20
112.351190
11
228.125000
21
100.000000
0
LINE
8
0
62
7
10
284.375000
20
100.000000
11
293.750000
21
100.000000
0
LINE
8
0
62
1
10
293.750000
20
100.000000
11
284.238139
21
107.431391
0
LINE
8
0
62
1
10
284.238139
20
107.431391
11
284.375000
21
100.000000
0
LINE
8
0
62
7
10
340.625000
20
100.000000
11
350.000000
21
100.000000
0
LINE
8
0
62
1
10
350.000000
20
100.000000
11
340.169271
21
106.901042
0
LINE
8
0
62
1
10
340.169271
20
106.901042
11
340.625000
21
100.000000
0
LINE
8
0
62
7
10
321.875000
20
100.000000
11
331.250000
21
100.000000
0
LINE
8
0
62
1
10
331.250000
20
100.000000
11
323.216943
21
108.196644
0
LINE
8
0
62
1
10
323.216943
20
108.196644
11
321.875000
21
100.000000
0
LINE
8
0
62
1
10
162.252796
20
131.500112
11
165.213431
21
125.127030
0
LINE
8
0
62
1
10
165.213431
20
125.127030
11
175.638591
21
134.838034
0
LINE
8
0
62
1
10
175.638591
20
134.838034
11
162.252796
21
131.500112
0
LINE
8
0
62
1
10
162.252796
20
131.500112
11
158.090170
21
130.877853
0
LINE
8
0
62
7
10
158.090170
20
130.877853
11
158.910065
21
129.539905
0
LINE
8
0
62
1
10
158.910065
20
129.539905
11
162.252796
21
131.500112
0
LINE
8
0
62
1
10
150.504667
20
137.769378
11
146.909830
21
134.510565
0
LINE
8
0
62
7
10
146.909830
20
134.510565
11
148.435655
21
134.876883
0
LINE
8
0
62
1
10
148.435655
20
134.876883
11
150.504667
21
137.769378
0
LINE
8
0
62
1
10
143.628664
20
138.518679
11
132.720210
21
138.362595
0
LINE
8
0
62
1
10
132.720210
20
138.362595
11
141.909830
21
130.877853
0
LINE
8
0
62
1
10
141.909830
20
130.877853
11
143.628664
21
138.518679
0
LINE
8
0
62
1
10
143.652952
20
111.985504
11
146.909830
21
115.489435
0
LINE
8
0
62
7
10
146.909830
20
115.489435
11
145.460095
21
116.089935
0
LINE
8
0
62
1
10
145.460095
20
116.089935
11
143.652952
21
111.985504
0
LINE
8
0
62
1
10
151.000765
20
112.099207
11
151.564345
21
115.123117
0
LINE
8
0
62
7
10
151.564345
20
115.123117
11
150.000000
21
115.000000
0
LINE
8
0
62
1
10
150.000000
20
115.000000
11
151.000765
21
112.099207
0
LINE
8
0
62
1
10
306.371336
20
138.518679
11
303.090170
21
134.510565
0
LINE
8
0
62
7
10
303.090170
20
134.510565
11
304.539905
21
133.910065
0
LINE
8
0
62
1
10
304.539905
20
133.910065
11
306.371336
21
138.518679
0
LINE
8
0
62
1
10
299.495333
20
137.769378
11
298.435655
21
134.876883
0
LINE
8
0
62
7
10
298.435655
20
134.876883
11
300.000000
21
135.000000
0
LINE
8
0
62
1
10
300.000000
20
135.000000
11
299.495333
21
137.769378
0
LINE
8
0
62
7
10
268.750000
20
106.250000
11
275.000000
21
100.000000
0
LINE
8
0
62
1
10
275.000000
20
100.000000
11
274.340124
21
114.150074
0
LINE
8
0
62
1
10
274.340124
20
114.150074
11
268.750000
21
106.250000
0
LINE
8
0
62
1
10
268.750000
20
106.250000
11
265.625000
21
100.000000
0
LINE
8
0
62
7
10
265.625000
20
100.000000
11
275.000000
21
100.000000
0
LINE
8
0
62
7
10
275.000000
20
100.000000
11
268.750000
21
106.250000
0
LINE
8
0
62
1
10
264.467987
20
119.657981
11
256.250000
21
118.750000
0
LINE
8
0
62
7
10
256.250000
20
118.750000
11
262.500000
21
112.500000
0
LINE
8
0
62
1
10
262.500000
20
112.500000
11
264.467987
21
119.657981
0
LINE
8
0
62
1
10
256.250000
20
118.750000
11
252.430556
21
111.458333
0
LINE
8
0
62
1
10
252.430556
20
111.458333
11
262.500000
21
112.500000
0
LINE
8
0
62
7
10
262.500000
20
112.500000
11
256.250000
21
118.750000
0
LINE
8
0
62
1
10
185.789369
20
129.956127
11
178.385750
21
122.743156
0
LINE
8
0
62
1
10
178.385750
20
122.743156
11
189.181054
21
123.663835
0
LINE
8
0
62
1
10
189.181054
20
123.663835
11
185.789369
21
129.956127
0
LINE
8
0
62
1
10
185.789369
20
129.956127
11
175.638591
21
134.838034
0
LINE
8
0
62
1
10
175.638591
20
134.838034
11
178.385750
21
122.743156
0
LINE
8
0
62
1
10
178.385750
20
122.743156
11
185.789369
21
129.956127
0
LINE
8
0
62
1
10
108.081745
20
106.590493
11
100.000000
21
100.000000
0
LINE
8
0
62
7
10
100.000000
20
100.000000
11
112.500000
21
100.000000
0
LINE
8
0
62
1
10
112.500000
20
100.000000
11
108.081745
21
106.590493
0
LINE
8
0
62
1
10
108.081745
20
106.590493
11
100.000000
21
112.500000
0
LINE
8
0
62
7
10
100.000000
20
112.500000
11
100.000000
21
100.000000
0
LINE
8
0
62
1
10
100.000000
20
100.000000
11
108.081745
21
106.590493
0
LINE
8
0
62
1
10
114.210631
20
120.043873
11
120.584806
21
125.738138
0
LINE
8
0
62
1
10
120.584806
20
125.738138
11
110.833366
21
125.852826
0
LINE
8
0
62
1
10
110.833366
20
125.852826
11
114.210631
21
120.043873
0
LINE
8
0
62
1
10
114.210631
20
120.043873
11
123.858196
21
115.564832
0
LINE
8
0
62
1
10
123.858196
20
115.564832
11
120.584806
21
125.738138
0
LINE
8
0
62
1
10
120.584806
20
125.738138
11
114.210631
21
120.043873
0
LINE
8
0
62
1
10
115.725342
20
106.772089
11
123.858196
21
115.564832
0
LINE
8
0
62
1
10
123.858196
20
115.564832
11
111.511109
21
113.502628
0
LINE
8
0
62
1
10
111.511109
20
113.502628
11
115.725342
21
106.772089
0
LINE
8
0
62
1
10
115.725342
20
106.772089
11
125.000000
21
100.000000
0
LINE
8
0
62
1
10
125.000000
20
100.000000
11
123.858196
21
115.564832
0
LINE
8
0
62
1
10
123.858196
20
115.564832
11
115.725342
21
106.772089
0
LINE
8
0
62
1
10
184.274658
20
143.227911
11
175.638591
21
134.838034
0
LINE
8
0
62
1
10
175.638591
20
134.838034
11
188.405022
21
136.564516
0
LINE
8
0
62
1
10
188.405022
20
136.564516
11
184.274658
21
143.227911
0
LINE
8
0
62
1
10
184.274658
20
143.227911
11
175.000000
21
150.000000
0
LINE
8
0
62
1
10
175.000000
20
150.000000
11
175.638591
21
134.838034
0
LINE
8
0
62
1
10
175.638591
20
134.838034
11
184.274658
21
143.227911
0
LINE
8
0
62
1
10
191.918255
20
143.409507
11
200.000000
21
150.000000
0
LINE
8
0
62
7
10
200.000000
20
150.000000
11
187.500000
21
150.000000
0
LINE
8
0
62
1
10
187.500000
20
150.000000
11
191.918255
21
143.409507
0
LINE
8
0
62
1
10
191.918255
20
143.409507
11
200.000000
21
137.500000
0
LINE
8
0
62
7
10
200.000000
20
137.500000
11
200.000000
21
150.000000
0
LINE
8
0
62
1
10
200.000000
20
150.000000
11
191.918255
21
143.409507
0
LINE
8
0
62
1
10
264.467987
20
119.657981
11
271.677863
21
126.959880
0
LINE
8
0
62
1
10
271.677863
20
126.959880
11
260.715651
21
126.089942
0
LINE
8
0
62
1
10
260.715651
20
126.089942
11
264.467987
21
119.657981
0
LINE
8
0
62
1
10
264.467987
20
119.657981
11
274.340124
21
114.150074
0
LINE
8
0
62
1
10
274.340124
20
114.150074
11
271.677863
21
126.959880
0
LINE
8
0
62
1
10
271.677863
20
126.959880
11
264.467987
21
119.657981
0
LINE
8
0
62
1
10
156.635149
20
108.139497
11
163.797127
21
111.688447
0
LINE
8
0
62
1
10
163.797127
20
111.688447
11
155.877853
21
116.909830
0
LINE
8
0
62
1
10
155.877853
20
116.909830
11
156.635149
21
108.139497
0
LINE
8
0
62
1
10
156.635149
20
108.139497
11
162.500000
21
100.000000
0
LINE
8
0
62
1
10
162.500000
20
100.000000
11
163.797127
21
111.688447
0
LINE
8
0
62
1
10
163.797127
20
111.688447
11
156.635149
21
108.139497
0
LINE
8
0
62
1
10
115.823279
20
132.745976
11
125.000272
21
133.189001
0
LINE
8
0
62
1
10
125.000272
20
133.189001
11
120.219374
21
140.488758
0
LINE
8
0
62
1
10
120.219374
20
140.488758
11
115.823279
21
132.745976
0
LINE
8
0
62
1
10
125.000272
20
133.189001
11
132.720210
21
138.362595
0
LINE
8
0
62
1
10
132.720210
20
138.362595
11
120.219374
21
140.488758
0
LINE
8
0
62
1
10
120.219374
20
140.488758
11
125.000272
21
133.189001
0
LINE
8
0
62
1
10
292.550079
20
114.055271
11
296.909830
21
115.489435
0
LINE
8
0
62
7
10
296.909830
20
115.489435
11
295.460095
21
116.089935
0
LINE
8
0
62
1
10
295.460095
20
116.089935
11
292.550079
21
114.055271
0
LINE
8
0
62
1
10
300.655150
20
111.351844
11
292.550079
21
114.055271
0
LINE
8
0
62
1
10
292.550079
20
114.055271
11
293.750000
21
100.000000
0
LINE
8
0
62
1
10
293.750000
20
100.000000
11
300.655150
21
111.351844
0
LINE
8
0
62
1
10
307.224416
20
107.787450
11
313.964077
21
110.675576
0
LINE
8
0
62
1
10
313.964077
20
110.675576
11
305.877853
21
116.909830
0
LINE
8
0
62
1
10
305.877853
20
116.909830
11
307.224416
21
107.787450
0
LINE
8
0
62
1
10
307.224416
20
107.787450
11
312.500000
21
100.000000
0
LINE
8
0
62
1
10
312.500000
20
100.000000
11
313.964077
21
110.675576
0
LINE
8
0
62
1
10
313.964077
20
110.675576
11
307.224416
21
107.787450
0
LINE
8
0
62
1
10
293.626568
20
143.720758
11
287.265993
21
137.660741
0
LINE
8
0
62
1
10
287.265993
20
137.660741
11
295.460095
21
133.910065
0
LINE
8
0
62
1
10
295.460095
20
133.910065
11
293.626568
21
143.720758
0
LINE
8
0
62
1
10
293.626568
20
143.720758
11
287.500000
21
150.000000
0
LINE
8
0
62
1
10
287.500000
20
150.000000
11
287.265993
21
137.660741
0
LINE
8
0
62
1
10
287.265993
20
137.660741
11
293.626568
21
143.720758
0
LINE
8
0
62
1
10
150.504667
20
137.769378
11
151.564345
21
134.876883
0
LINE
8
0
62
7
10
151.564345
20
134.876883
11
153.090170
21
134.510565
0
LINE
8
0
62
1
10
153.090170
20
134.510565
11
150.504667
21
137.769378
0
LINE
8
0
62
1
10
156.373432
20
143.720758
11
162.500000
21
150.000000
0
LINE
8
0
62
7
10
162.500000
20
150.000000
11
150.000000
21
150.000000
0
LINE
8
0
62
1
10
150.000000
20
150.000000
11
156.373432
21
143.720758
0
LINE
8
0
62
1
10
300.655150
20
111.351844
11
298.435655
21
115.123117
0
LINE
8
0
62
7
10
298.435655
20
115.123117
11
296.909830
21
115.489435
0
LINE
8
0
62
1
10
296.909830
20
115.489435
11
300.655150
21
111.351844
0
LINE
8
0
62
1
10
300.655150
20
111.351844
11
300.000000
21
115.000000
0
LINE
8
0
62
7
10
300.000000
20
115.000000
11
298.435655
21
115.123117
0
LINE
8
0
62
1
10
298.435655
20
115.123117
11
300.655150
21
111.351844
0
LINE
8
0
62
1
10
205.468750
20
118.750000
11
200.000000
21
125.000000
0
LINE
8
0
62
7
10
200.000000
20
125.000000
11
200.000000
21
112.500000
0
LINE
8
0
62
1
10
200.000000
20
112.500000
11
205.468750
21
118.750000
0
LINE
8
0
62
1
10
205.468750
20
118.750000
11
212.500000
21
125.000000
0
LINE
8
0
62
7
10
212.500000
20
125.000000
11
200.000000
21
125.000000
0
LINE
8
0
62
1
10
200.000000
20
125.000000
11
205.468750
21
118.750000
0
LINE
8
0
62
1
10
212.875000
20
106.250000
11
218.750000
21
100.000000
0
LINE
8
0
62
1
10
218.750000
20
100.000000
11
219.696429
21
111.607143
0
LINE
8
0
62
1
10
219.696429
20
111.607143
11
212.875000
21
106.250000
0
LINE
8
0
62
1
10
212.875000
20
106.250000
11
209.375000
21
100.000000
0
LINE
8
0
62
7
10
209.375000
20
100.000000
11
218.750000
21
100.000000
0
LINE
8
0
62
1
10
218.750000
20
100.000000
11
212.875000
21
106.250000
0
LINE
8
0
62
1
10
206.562500
20
106.250000
11
200.000000
21
100.000000
0
LINE
8
0
62
7
10
200.000000
20
100.000000
11
209.375000
21
100.000000
0
LINE
8
0
62
1
10
209.375000
20
100.000000
11
206.562500
21
106.250000
0
LINE
8
0
62
1
10
206.562500
20
106.250000
11
200.000000
21
112.500000
0
LINE
8
0
62
7
10
200.000000
20
112.500000
11
200.000000
21
100.000000
0
LINE
8
0
62
1
10
200.000000
20
100.000000
11
206.562500
21
106.250000
0
LINE
8
0
62
1
10
338.648892
20
116.938370
11
329.732073
21
111.913694
0
LINE
8
0
62
1
10
329.732073
20
111.913694
11
340.169271
21
106.901042
0
LINE
8
0
62
1
10
340.169271
20
106.901042
11
338.648892
21
116.938370
0
LINE
8
0
62
1
10
338.648892
20
116.938370
11
328.119962
21
122.170581
0
LINE
8
0
62
1
10
328.119962
20
122.170581
11
329.732073
21
111.913694
0
LINE
8
0
62
1
10
329.732073
20
111.913694
11
338.648892
21
116.938370
0
LINE
8
0
62
1
10
136.253392
20
119.363275
11
134.343976
21
126.750170
0
LINE
8
0
62
1
10
134.343976
20
126.750170
11
123.858196
21
115.564832
0
LINE
8
0
62
1
10
123.858196
20
115.564832
11
136.253392
21
119.363275
0
LINE
8
0
62
1
10
136.253392
20
119.363275
11
141.089935
21
120.460095
0
LINE
8
0
62
7
10
141.089935
20
120.460095
11
140.489435
21
121.909830
0
LINE
8
0
62
1
10
140.489435
20
121.909830
11
136.253392
21
119.363275
0
LINE
8
0
62
1
10
267.190739
20
142.044483
11
262.500000
21
150.000000
0
LINE
8
0
62
1
10
262.500000
20
150.000000
11
259.546986
21
139.958336
0
LINE
8
0
62
1
10
259.546986
20
139.958336
11
267.190739
21
142.044483
0
LINE
8
0
62
1
10
267.190739
20
142.044483
11
275.000000
21
150.000000
0
LINE
8
0
62
7
10
275.000000
20
150.000000
11
262.500000
21
150.000000
0
LINE
8
0
62
1
10
262.500000
20
150.000000
11
267.190739
21
142.044483
0
LINE
8
0
62
1
10
105.693121
20
144.033744
11
100.000000
21
150.000000
0
LINE
8
0
62
7
10
100.000000
20
150.000000
11
100.000000
21
137.500000
0
LINE
8
0
62
1
10
100.000000
20
137.500000
11
105.693121
21
144.033744
0
LINE
8
0
62
1
10
105.693121
20
144.033744
11
112.500000
21
150.000000
0
LINE
8
0
62
7
10
112.500000
20
150.000000
11
100.000000
21
150.000000
0
LINE
8
0
62
1
10
100.000000
20
150.000000
11
105.693121
21
144.033744
0
LINE
8
0
62
1
10
255.693121
20
144.033744
11
250.000000
21
150.000000
0
LINE
8
0
62
7
10
250.000000
20
150.000000
11
250.000000
21
137.500000
0
LINE
8
0
62
1
10
250.000000
20
137.500000
11
255.693121
21
144.033744
0
LINE
8
0
62
1
10
255.693121
20
144.033744
11
262.500000
21
150.000000
0
LINE
8
0
62
7
10
262.500000
20
150.000000
11
250.000000
21
150.000000
0
LINE
8
0
62
1
10
250.000000
20
150.000000
11
255.693121
21
144.033744
0
LINE
8
0
62
1
10
192.809261
20
130.455517
11
200.000000
21
125.000000
0
LINE
8
0
62
7
10
200.000000
20
125.000000
11
200.000000
21
137.500000
0
LINE
8
0
62
1
10
200.000000
20
137.500000
11
192.809261
21
130.455517
0
LINE
8
0
62
1
10
192.809261
20
130.455517
11
189.181054
21
123.663835
0
LINE
8
0
62
1
10
189.181054
20
123.663835
11
200.000000
21
125.000000
0
LINE
8
0
62
1
10
200.000000
20
125.000000
11
192.809261
21
130.455517
0
LINE
8
0
62
1
10
107.190739
20
132.044483
11
100.000000
21
137.500000
0
LINE
8
0
62
7
10
100.000000
20
137.500000
11
100.000000
21
125.000000
0
LINE
8
0
62
1
10
100.000000
20
125.000000
11
107.190739
21
132.044483
0
LINE
8
0
62
1
10
107.190739
20
132.044483
11
110.237752
21
139.468827
0
LINE
8
0
62
1
10
110.237752
20
139.468827
11
100.000000
21
137.500000
0
LINE
8
0
62
1
10
100.000000
20
137.500000
11
107.190739
21
132.044483
0
LINE
8
0
62
1
10
257.190739
20
132.044483
11
250.000000
21
137.500000
0
LINE
8
0
62
7
10
250.000000
20
137.500000
11
250.000000
21
125.000000
0
LINE
8
0
62
1
10
250.000000
20
125.000000
11
257.190739
21
132.044483
0
LINE
8
0
62
1
10
257.190739
20
132.044483
11
259.546986
21
139.958336
0
LINE
8
0
62
1
10
259.546986
20
139.958336
11
250.000000
21
137.500000
0
LINE
8
0
62
1
10
250.000000
20
137.500000
11
257.190739
21
132.044483
0
LINE
8
0
62
1
10
107.190739
20
119.544483
11
100.000000
21
125.000000
0
LINE
8
0
62
7
10
100.000000
20
125.000000
11
100.000000
21
112.500000
0
LINE
8
0
62
1
10
100.000000
20
112.500000
11
107.190739
21
119.544483
0
LINE
8
0
62
1
10
107.190739
20
119.544483
11
110.833366
21
125.852826
0
LINE
8
0
62
1
10
110.833366
20
125.852826
11
100.000000
21
125.000000
0
LINE
8
0
62
1
10
100.000000
20
125.000000
11
107.190739
21
119.544483
0
LINE
8
0
62
1
10
182.809261
20
107.955517
11
187.500000
21
100.000000
0
LINE
8
0
62
1
10
187.500000
20
100.000000
11
190.453014
21
110.041664
0
LINE
8
0
62
1
10
190.453014
20
110.041664
11
182.809261
21
107.955517
0
LINE
8
0
62
1
10
182.809261
20
107.955517
11
175.000000
21
100.000000
0
LINE
8
0
62
7
10
175.000000
20
100.000000
11
187.500000
21
100.000000
0
LINE
8
0
62
1
10
187.500000
20
100.000000
11
182.809261
21
107.955517
0
LINE
8
0
62
1
10
192.809261
20
117.955517
11
200.000000
21
112.500000
0
LINE
8
0
62
7
10
200.000000
20
112.500000
11
200.000000
21
125.000000
0
LINE
8
0
62
1
10
200.000000
20
125.000000
11
192.809261
21
117.955517
0
LINE
8
0
62
1
10
192.809261
20
117.955517
11
190.453014
21
110.041664
0
LINE
8
0
62
1
10
190.453014
20
110.041664
11
200.000000
21
112.500000
0
LINE
8
0
62
1
10
200.000000
20
112.500000
11
192.809261
21
117.955517
0
LINE
8
0
62
1
10
185.292684
20
115.872692
11
178.385750
21
122.743156
0
LINE
8
0
62
1
10
178.385750
20
122.743156
11
175.849327
21
112.739662
0
LINE
8
0
62
1
10
175.849327
20
112.739662
11
185.292684
21
115.872692
0
LINE
8
0
62
1
10
185.292684
20
115.872692
11
189.181054
21
123.663835
0
LINE
8
0
62
1
10
189.181054
20
123.663835
11
178.385750
21
122.743156
0
LINE
8
0
62
1
10
178.385750
20
122.743156
11
185.292684
21
115.872692
0
LINE
8
0
62
1
10
194.306879
20
105.966256
11
190.453014
21
110.041664
0
LINE
8
0
62
1
10
190.453014
20
110.041664
11
187.500000
21
100.000000
0
LINE
8
0
62
1
10
187.500000
20
100.000000
11
194.306879
21
105.966256
0
LINE
8
0
62
1
10
194.306879
20
105.966256
11
200.000000
21
112.500000
0
LINE
8
0
62
1
10
200.000000
20
112.500000
11
190.453014
21
110.041664
0
LINE
8
0
62
1
10
190.453014
20
110.041664
11
194.306879
21
105.966256
0
LINE
8
0
62
1
10
115.823279
20
132.745976
11
120.584806
21
125.738138
0
LINE
8
0
62
1
10
120.584806
20
125.738138
11
125.000272
21
133.189001
0
LINE
8
0
62
1
10
125.000272
20
133.189001
11
115.823279
21
132.745976
0
LINE
8
0
62
1
10
115.823279
20
132.745976
11
110.833366
21
125.852826
0
LINE
8
0
62
1
10
110.833366
20
125.852826
11
120.584806
21
125.738138
0
LINE
8
0
62
1
10
120.584806
20
125.738138
11
115.823279
21
132.745976
0
LINE
8
0
62
1
10
264.707316
20
134.127308
11
271.677863
21
126.959880
0
LINE
8
0
62
1
10
271.677863
20
126.959880
11
274.373899
21
137.080681
0
LINE
8
0
62
1
10
274.373899
20
137.080681
11
264.707316
21
134.127308
0
LINE
8
0
62
1
10
264.707316
20
134.127308
11
260.715651
21
126.089942
0
LINE
8
0
62
1
10
260.715651
20
126.089942
11
271.677863
21
126.959880
0
LINE
8
0
62
1
10
271.677863
20
126.959880
11
264.707316
21
134.127308
0
LINE
8
0
62
1
10
151.000765
20
112.099207
11
150.000000
21
100.000000
0
LINE
8
0
62
1
10
150.000000
20
100.000000
11
156.635149
21
108.139497
0
LINE
8
0
62
1
10
156.635149
20
108.139497
11
151.000765
21
112.099207
0
LINE
8
0
62
1
10
151.000765
20
112.099207
11
143.652952
21
111.985504
0
LINE
8
0
62
1
10
143.652952
20
111.985504
11
150.000000
21
100.000000
0
LINE
8
0
62
1
10
150.000000
20
100.000000
11
151.000765
21
112.099207
0
LINE
8
0
62
1
10
150.504667
20
137.769378
11
150.000000
21
150.000000
0
LINE
8
0
62
1
10
150.000000
20
150.000000
11
143.628664
21
138.518679
0
LINE
8
0
62
1
10
143.628664
20
138.518679
11
150.504667
21
137.769378
0
LINE
8
0
62
1
10
150.504667
20
137.769378
11
156.373432
21
143.720758
0
LINE
8
0
62
1
10
156.373432
20
143.720758
11
150.000000
21
150.000000
0
LINE
8
0
62
1
10
150.000000
20
150.000000
11
150.504667
21
137.769378
0
LINE
8
0
62
1
10
299.495333
20
137.769378
11
300.000000
21
150.000000
0
LINE
8
0
62
1
10
300.000000
20
150.000000
11
293.626568
21
143.720758
0
LINE
8
0
62
1
10
293.626568
20
143.720758
11
299.495333
21
137.769378
0
LINE
8
0
62
1
10
299.495333
20
137.769378
11
306.371336
21
138.518679
0
LINE
8
0
62
1
10
306.371336
20
138.518679
11
300.000000
21
150.000000
0
LINE
8
0
62
1
10
300.000000
20
150.000000
11
299.495333
21
137.769378
0
ENDSEC
0
EOF